<?xml version="1.0" encoding="UTF-8"?>
<svg version="1.1" xmlns="http://www.w3.org/2000/svg" width="626" height="584">
<path d="M0 0 C6.55665124 -0.03084405 13.11234334 -0.0780495 19.66855049 -0.1618185 C26.08641491 -0.24350546 32.5034334 -0.28639004 38.92178917 -0.30132771 C41.35159417 -0.31357015 43.78137106 -0.33959017 46.21087456 -0.37977695 C49.58468411 -0.43296327 52.95505833 -0.43627922 56.32919502 -0.4274435 C57.82355331 -0.46823025 57.82355331 -0.46823025 59.34810066 -0.50984097 C65.94760833 -0.42045556 65.94760833 -0.42045556 68.54807377 2.24777317 C69.84089109 4.2856146 70.87261644 6.2892704 71.84140205 8.49662876 C72.55936958 9.79044468 72.55936958 9.79044468 73.29184151 11.11039829 C73.6755793 11.85918247 74.05931709 12.60796665 74.4546833 13.37944126 C74.89328682 14.22836948 75.33189034 15.07729771 75.78378487 15.95195103 C76.23592354 16.83294468 76.68806221 17.71393833 77.15390205 18.62162876 C80.19947202 24.49747142 83.26146885 30.33922163 86.59140205 36.05912876 C90.99298631 43.63963498 95.08979302 51.38162732 99.21280098 59.11570835 C103.06604693 66.34228889 106.94887928 73.54707829 110.96640205 80.68412876 C115.56357395 88.85945208 119.85588634 97.18561738 124.15512276 105.52055454 C127.60818421 112.19274549 131.2104287 118.72510229 134.9937458 125.21537876 C137.18570235 129.10807115 139.21864777 133.06407288 141.21640205 137.05912876 C141.55067207 137.7269437 141.88494209 138.39475864 142.22934151 139.0828104 C143.11726073 140.87900034 143.98027034 142.68744358 144.84140205 144.49662876 C145.26034737 145.36030064 145.67929268 146.22397251 146.1109333 147.11381626 C147.02288716 150.08863901 146.73836727 152.01244837 146.15390205 155.05912876 C145.98503487 155.98854282 145.81616768 156.91795689 145.6421833 157.87553501 C144.48446654 163.11067374 143.16134651 168.30033585 141.84140205 173.49662876 C141.52453438 174.75290073 141.2076667 176.00917271 140.88119698 177.30351353 C140.02909551 180.67948034 139.16976291 184.05355329 138.30697823 187.42680454 C137.95138685 188.8205649 137.59757968 190.21478155 137.24545479 191.60942173 C136.72838879 193.6562899 136.20543718 195.70157538 135.6812458 197.74662876 C135.37565742 198.94803501 135.07006905 200.14944126 134.75522041 201.38725376 C133.986893 204.00157861 133.31604149 206.21243047 131.84140205 208.49662876 C129.21640205 209.24662876 129.21640205 209.24662876 126.84140205 209.49662876 C122.56528862 202.86543781 118.80594796 196.01781955 115.09140205 189.05912876 C114.47523018 187.91057407 113.8590583 186.76201939 113.22421455 185.57866001 C110.51192843 180.51723905 107.8109833 175.45016199 105.13827705 170.36772251 C104.74350166 169.61740757 104.34872627 168.86709263 103.94198799 168.09404087 C103.24428618 166.76441437 102.54928947 165.43336201 101.85800362 164.10038853 C100.00259498 160.5562162 98.02445824 157.12057184 95.94296455 153.70366001 C92.78417234 148.48422623 89.9885444 143.11617526 87.21640205 137.68412876 C83.25129918 129.98716436 79.13565825 122.41604428 74.77890205 114.93412876 C70.08032622 106.852946 65.8249373 98.61685344 61.70004463 90.23027134 C58.70162348 84.15376739 55.52299844 78.27661676 52.0953083 72.43022251 C48.27508385 65.85164817 44.74092829 59.10783988 41.14462471 52.40532017 C40.6024128 51.39775669 40.06020088 50.39019321 39.5015583 49.35209751 C39.01308418 48.44097202 38.52461006 47.52984653 38.02133369 46.59111118 C37.00902459 44.57458243 37.00902459 44.57458243 35.84140205 43.49662876 C26.15296883 43.05088217 16.49194771 43.66391604 6.84140205 44.49662876 C7.28876874 50.73895466 10.24718955 55.5967034 13.15390205 60.99662876 C13.69152168 62.00983189 14.22914131 63.02303501 14.78305244 64.06694126 C16.45883133 67.21583307 18.14809176 70.3571346 19.84140205 73.49662876 C20.34703682 74.43764439 20.85267159 75.37866001 21.37362862 76.34819126 C27.43377287 87.61019329 33.66950423 98.76767047 39.9834919 109.88896275 C45.21834018 119.12458565 50.30144521 128.43952724 55.36190987 137.77153111 C57.82567336 142.30957205 60.30346477 146.83994877 62.77890205 151.37162876 C65.87596912 157.0426712 68.96416552 162.71819406 72.02890205 168.40678501 C77.34478341 178.26825792 82.71853941 188.08312917 88.27890205 197.80912876 C93.03720025 206.14082689 97.52635525 214.58412021 101.90390205 223.12162876 C107.46687222 233.96953579 113.35236024 244.575598 119.46835518 255.11918736 C125.47487049 265.5195156 131.15752745 276.06905503 136.65390205 286.74662876 C140.7179689 294.63705538 145.02103566 302.32612061 149.59140205 309.93412876 C154.32091426 317.81802416 158.60169597 325.76696609 162.62558174 334.02592564 C170.85120817 350.74145564 179.58526803 367.04892421 189.19296455 383.00883579 C196.7655142 395.61294888 203.4306157 408.60128198 209.93832588 421.7769022 C213.29447338 428.51475811 217.0599736 434.98999174 220.84140205 441.49662876 C222.52264176 444.48866552 224.18683503 447.48977139 225.84140205 450.49662876 C226.83140205 450.49662876 227.82140205 450.49662876 228.84140205 450.49662876 C232.96452434 443.47854827 236.9481101 436.43359457 240.52890205 429.12162876 C244.44271022 421.14424431 248.67350059 413.35120349 252.92440987 405.54936314 C256.25648485 399.4306364 259.54992893 393.29535566 262.77890205 387.12162876 C266.68759828 379.65716599 270.65758391 372.22704553 274.65390205 364.80912876 C275.24501778 363.71181431 275.8361335 362.61449986 276.44516182 361.48393345 C279.40051862 356.00406731 282.36544127 350.52961323 285.3453083 345.06303501 C290.36688829 335.8443243 295.34177442 326.62989178 299.96933174 317.2065897 C302.70672224 311.6719906 305.68784625 306.29060925 308.70932198 300.90702915 C317.04079494 286.0409445 325.04163989 270.98661809 332.94735909 255.89042759 C336.33766162 249.42642398 339.78607427 242.99408586 343.24020576 236.56404209 C350.73982374 222.60178284 358.10920816 208.57490087 365.39267159 194.49858189 C370.81471002 184.02033738 376.26358456 173.59802923 382.1890583 163.39506626 C384.04716521 160.13569197 385.7228375 156.81968128 387.3687458 153.44975376 C389.44446732 149.28729894 391.61191006 145.17464982 393.77890205 141.05912876 C394.18608467 140.2841605 394.59326729 139.50919224 395.01278877 138.71074009 C399.1063872 130.94491919 403.32440401 123.2481079 407.56015205 115.55912876 C413.11227347 105.46427215 418.51415099 95.30695647 423.77890205 85.05912876 C428.39336439 76.09306135 433.13586924 67.21669295 438.09140205 58.43412876 C438.64046211 57.45838902 439.18952217 56.48264927 439.75522041 55.47734165 C443.58282518 48.75520563 443.58282518 48.75520563 445.84140205 46.49662876 C445.84140205 45.50662876 445.84140205 44.51662876 445.84140205 43.49662876 C441.66075733 43.29818647 437.48263207 43.15341381 433.29867744 43.05717564 C431.87729325 43.01705005 430.45623719 42.96252964 429.03598213 42.89311314 C421.01118891 42.18892304 421.01118891 42.18892304 413.90487862 45.04057407 C412.5619271 47.14477084 411.69289828 49.15329485 410.84140205 51.49662876 C410.18997157 52.78952952 409.52617802 54.07628719 408.84921455 55.35600376 C408.21861414 56.65142449 407.59107011 57.94833697 406.96640205 59.24662876 C404.56538719 64.14872447 402.07755479 68.92995473 399.27890205 73.62162876 C396.17987673 78.8215699 393.46944952 84.15049528 390.79452705 89.57866001 C388.52146736 94.16885865 386.15631791 98.70978999 383.77890205 103.24662876 C383.17985054 104.39820469 383.17985054 104.39820469 382.56869698 105.57304478 C380.5084634 109.49272823 378.36299414 113.32427342 376.05233955 117.10209751 C371.91587467 123.92710004 368.24417581 130.99984955 364.52890205 138.05912876 C363.74067846 139.55246883 362.95242929 141.04579541 362.16415596 142.53910923 C356.62889056 153.03933996 351.15356059 163.57029747 345.71640205 174.12162876 C345.3753141 174.78325016 345.03422615 175.44487156 344.6828022 176.12654209 C340.98151439 183.31200213 337.32192401 190.51652428 333.71640205 197.75053501 C330.53245684 204.13863594 327.28570232 210.49005857 323.96640205 216.80912876 C323.49460518 217.71340611 323.0228083 218.61768345 322.53671455 219.54936314 C321.85608955 220.84777134 321.85608955 220.84777134 321.16171455 222.17241001 C320.76226631 222.93464878 320.36281807 223.69688755 319.95126534 224.48222446 C318.84140205 226.49662876 318.84140205 226.49662876 316.84140205 229.49662876 C314.90390205 229.18412876 314.90390205 229.18412876 312.84140205 228.49662876 C311.59410916 224.75475009 312.26926482 223.38995279 313.4703083 219.67241001 C313.84558662 218.50919224 314.22086494 217.34597446 314.60751534 216.14750767 C316.58490937 210.29670624 318.66584197 204.48710546 320.77890205 198.68412876 C324.38761822 188.68482661 327.78350993 178.67686127 330.84140205 168.49662876 C332.9071783 161.70754119 335.63961854 155.35301091 338.6343708 148.92631626 C339.93460146 145.23180973 340.06391956 142.38326787 339.84140205 138.49662876 C333.97513641 135.56349594 326.80436598 138.33642218 320.90390205 139.99662876 C320.02927315 140.23510532 319.15464424 140.47358189 318.25351143 140.71928501 C316.11384766 141.3038926 313.97674633 141.8964722 311.84140205 142.49662876 C312.91297847 136.79548854 314.32407322 131.92939129 317.02890205 126.74662876 C317.53079048 125.77608555 317.53079048 125.77608555 318.04281807 124.7859354 C318.83032366 123.26501723 319.6222741 121.74639598 320.41757393 120.22953892 C321.77623611 117.62170893 323.11583259 115.00469902 324.44957161 112.38404942 C336.48360769 88.73850554 336.48360769 88.73850554 341.46640205 80.74662876 C346.17866883 73.1765424 350.19469668 65.26727279 354.23837471 57.3237772 C356.87698165 52.16343794 359.59373577 47.16659048 362.72860909 42.29228306 C364.50357394 39.42811752 365.94793135 36.40540202 367.40390205 33.37162876 C372.19878621 23.57135917 377.48353584 14.04003918 382.75326729 4.48930454 C383.47308527 3.17111869 384.16972477 1.83998333 384.84140205 0.49662876 C430.71140205 0.49662876 476.58140205 0.49662876 523.84140205 0.49662876 C521.18749718 5.14096229 518.54554165 9.50823257 515.59140205 13.93412876 C511.08237703 20.82694734 507.46560242 28.02044835 503.86825752 35.41703892 C502.11040211 38.97705139 500.26236682 42.48833102 498.40390205 45.99662876 C498.02805977 46.70698277 497.65221748 47.41733677 497.26498604 48.14921665 C495.08299759 52.24505007 492.82871294 56.2904038 490.51498604 60.31303501 C486.63066177 67.07283466 483.14152948 73.93209501 479.84140205 80.99662876 C476.66214252 87.79347823 473.33412662 94.40578177 469.58969307 100.90678501 C465.6875203 107.69873866 461.9769756 114.59214874 458.27890205 121.49662876 C457.94939552 122.11144108 457.61988899 122.7262534 457.28039742 123.35969639 C453.30058679 130.79368227 449.4067114 138.25899315 445.69223213 145.82914829 C441.80651134 153.68859219 437.5039297 161.32472467 433.23935127 168.98295689 C431.86268966 171.45835121 430.49355018 173.9377586 429.1265583 176.41850376 C422.10202068 189.14623475 422.10202068 189.14623475 418.71640205 194.62162876 C415.79331469 199.40561118 413.34317371 204.394114 410.86337471 209.41655064 C407.28461498 216.65859442 403.44629847 223.74961967 399.56064034 230.83061314 C398.09034838 233.51019848 396.62171037 236.19068214 395.15390205 238.87162876 C394.38614449 240.27287998 394.38614449 240.27287998 393.60287666 241.70243931 C389.85757202 248.56505507 386.23764999 255.48605774 382.65390205 262.43412876 C379.32784191 268.88128776 375.91626301 275.20666652 372.09140205 281.37162876 C368.58562441 287.02924463 365.69424176 292.83090454 362.92807198 298.88090611 C359.28864599 306.80764213 355.19146219 314.4765971 351.08065987 322.16655064 C349.88148988 324.42125481 348.69841459 326.68357901 347.52108955 328.94975376 C343.96264472 335.78076576 340.30669903 342.49236886 336.27890205 349.05912876 C332.40647823 355.37606192 329.06466767 361.86788163 325.81015205 368.52006626 C323.88909995 372.43679302 321.85061498 376.28292525 319.77890205 380.12162876 C317.22838361 384.85099755 314.77460074 389.6107948 312.40390205 394.43412876 C309.89082295 399.51169087 307.21355608 404.45279673 304.40390205 409.37162876 C301.42386633 414.58998293 298.61131328 419.8507667 295.96640205 425.24662876 C288.77620324 439.8663398 280.5907087 453.96672669 272.54452705 468.12626743 C268.93531421 474.49891845 265.46615742 480.92884428 262.08529854 487.42485142 C259.09223921 493.13082138 255.82507377 498.65041686 252.50961494 504.17363071 C249.62456694 509.02936763 247.05145691 513.97652329 244.59140205 519.05912876 C237.32195395 533.98955394 237.32195395 533.98955394 230.84140205 536.49662876 C228.40390205 536.83256626 228.40390205 536.83256626 225.84140205 536.87162876 C224.99577705 536.89998814 224.15015205 536.92834751 223.27890205 536.95756626 C220.00610652 536.33867223 219.03643652 534.97061937 216.84140205 532.49662876 C215.3050251 530.06157017 215.3050251 530.06157017 213.8531208 527.34819126 C213.31534004 526.34989292 212.77755928 525.35159458 212.22348213 524.32304478 C211.66427071 523.26657749 211.10505928 522.21011021 210.52890205 521.12162876 C209.94713203 520.03615757 209.36536201 518.95068638 208.7659626 517.83232212 C205.80427377 512.28314412 202.91644069 506.70977597 200.15390205 501.05912876 C196.16950643 492.94203495 191.48642357 485.24689658 186.84140205 477.49662876 C180.74912004 467.28467587 175.08686791 456.84934795 169.41757393 446.39897251 C167.41129938 442.70464293 165.39631135 439.01510976 163.38095284 435.32573032 C158.66101137 426.68472674 153.96332672 418.03193292 149.27890205 409.37162876 C138.65986806 389.70130792 138.65986806 389.70130792 127.65390205 370.24662876 C124.91322029 365.48796023 122.38698697 360.67186752 119.96640205 355.74662876 C116.38805535 348.46687749 112.50490414 341.39014928 108.53671455 334.31694126 C105.6383634 329.14938802 102.79913418 323.9503742 99.96640205 318.74662876 C99.46398994 317.82414341 98.96157784 316.90165806 98.44394112 315.95121861 C97.42030115 314.07128326 96.39686449 312.1912372 95.37362862 310.31108189 C92.86582931 305.70465895 90.35347174 301.10072386 87.84140205 296.49662876 C84.88596229 291.07991713 81.93126793 285.66281231 78.98202705 280.24272251 C78.01860686 278.47312512 77.05506391 276.70359456 76.09140205 274.93412876 C75.60671455 274.04395054 75.12202705 273.15377232 74.62265205 272.236619 C71.75116551 266.97145608 68.86013248 261.71751575 65.95077705 256.47319126 C59.20227517 244.30314694 52.5271406 232.11134185 46.13827705 219.7468729 C42.31341581 212.35634193 38.34676872 205.05106518 34.33603096 197.7600565 C30.77485283 191.26556476 27.35392171 184.708006 23.96640205 178.12162876 C19.88261611 170.20615894 15.56403402 162.47442577 11.02890205 154.80912876 C3.89211388 142.74272508 -2.71293509 130.42139187 -9.27529716 118.03666782 C-11.16900306 114.47003028 -13.08480299 110.91556745 -15.0062542 107.36381626 C-15.63016045 106.20994419 -16.2540667 105.05607212 -16.8968792 103.86723423 C-18.06895217 101.70159725 -19.24204332 99.53651083 -20.41641045 97.37211704 C-23.65076222 91.38564366 -26.74696517 85.34687549 -29.77163506 79.25199986 C-31.63654729 75.54712404 -33.62317267 71.92238263 -35.65859795 68.30912876 C-36.0738372 67.5663065 -36.48907646 66.82348423 -36.91689873 66.0581522 C-38.32776332 63.53593043 -39.74281532 61.01609301 -41.15859795 58.49662876 C-43.45131621 54.41388481 -45.74291305 50.33051392 -48.03359795 46.24662876 C-48.62527763 45.1924979 -49.21695732 44.13836704 -49.8265667 43.05229282 C-54.31144505 35.04742008 -58.72510581 27.00574352 -63.07607841 18.92729282 C-65.40464573 14.62365356 -67.80140244 10.38045979 -70.32851982 6.189744 C-71.12703362 4.86401623 -71.12703362 4.86401623 -71.941679 3.51150608 C-72.34326225 2.84659657 -72.7448455 2.18168705 -73.15859795 1.49662876 C-48.77153268 0.47473461 -24.40657485 0.1144773 0 0 Z M-37.59609795 22.43412876 C-38.42477437 25.47260898 -38.02082653 27.4788287 -37.15859795 30.49662876 C-34.97713765 33.80643059 -33.04319041 36.3867452 -29.15859795 37.49662876 C-24.93811593 37.41989272 -22.73005642 36.9065881 -19.28359795 34.43412876 C-16.41873645 30.47387905 -16.15859795 28.38543399 -16.15859795 23.49662876 C-17.52516192 19.87925355 -18.75941139 18.74828985 -22.03359795 16.68412876 C-29.22253543 13.95233252 -33.01875324 16.26466416 -37.59609795 22.43412876 Z M44.84140205 19.49662876 C42.49140957 23.22070323 42.57324472 26.04455501 43.17733955 30.30131626 C44.38257259 34.28567487 46.24489218 35.43196569 49.84140205 37.49662876 C54.35706119 38.30299646 56.23306719 37.84585804 60.21640205 35.55912876 C63.2867036 32.66991739 63.8246141 29.76445641 64.0093708 25.64506626 C63.76461768 22.51450301 62.91205857 20.84337281 60.84140205 18.49662876 C58.32806082 16.57855256 56.51310389 15.61719063 53.40390205 15.05912876 C49.7985295 15.67468017 47.67634154 17.22867717 44.84140205 19.49662876 Z M388.96640205 20.24662876 C387.31480842 23.54981603 387.40097251 25.84735538 387.84140205 29.49662876 C389.58913831 32.9273703 390.91338998 34.93493724 394.21640205 36.93412876 C397.55449142 37.64943363 399.57186543 37.51835896 402.84140205 36.49662876 C406.37549384 33.90496145 408.09009749 31.77017839 408.84140205 27.49662876 C408.84140205 23.2179907 408.64746892 21.66476877 405.84140205 18.49662876 C399.29143749 14.5393585 394.69425641 14.90063137 388.96640205 20.24662876 Z M470.84140205 18.49662876 C468.03533519 21.66476877 467.84140205 23.2179907 467.84140205 27.49662876 C468.60334312 31.7845737 470.25880718 33.92650635 473.84140205 36.49662876 C477.66680067 37.58959979 479.84258075 37.85983651 483.59140205 36.49662876 C486.64347966 33.78367089 487.65482018 31.38598045 488.84140205 27.49662876 C488.84140205 23.43916494 488.15392264 21.89844095 485.65390205 18.68412876 C480.32494013 14.5393806 476.39318658 14.79543908 470.84140205 18.49662876 Z M344.84140205 98.49662876 C342.41786595 101.93648645 341.84140205 103.90568635 341.84140205 108.12162876 C342.61855466 111.5469366 342.61855466 111.5469366 344.84140205 113.93412876 C348.9301742 116.06369759 352.31923063 116.31734953 356.84140205 115.49662876 C360.27128639 113.45329341 362.69737672 111.38631491 363.84140205 107.49662876 C363.84140205 103.20844267 363.14872402 101.81824477 360.15390205 98.68412876 C354.42567039 94.90133427 350.60067379 94.52913045 344.84140205 98.49662876 Z M88.84140205 101.49662876 C87.80085117 105.34392875 87.2646014 108.83266457 88.5874958 112.64897251 C90.1286275 114.91986128 91.27272247 115.56892053 93.84140205 116.49662876 C98.57174912 117.3005339 101.84141152 117.18412225 105.84140205 114.43412876 C108.23581563 110.91733382 108.84140205 108.74436212 108.84140205 104.49662876 C107.26642226 100.84930713 105.39433963 98.32111022 101.84140205 96.49662876 C95.64467643 95.70974297 92.5477228 95.99330401 88.84140205 101.49662876 Z M434.84140205 101.49662876 C434.09140205 104.49662876 434.09140205 104.49662876 434.84140205 107.49662876 C436.79226269 110.10753976 436.79226269 110.10753976 439.84140205 111.49662876 C443.5172365 111.67424617 443.5172365 111.67424617 446.84140205 110.49662876 C449.00120768 108.06684743 448.84874453 106.67651936 448.71640205 103.43412876 C448.0679276 100.46040662 448.0679276 100.46040662 446.09140205 98.62162876 C441.16868339 96.16026943 438.02459321 97.01658195 434.84140205 101.49662876 Z M2.84140205 100.55912876 C0.5539731 103.34367164 0.5539731 103.34367164 0.77890205 106.68412876 C1.5878235 109.49010674 1.5878235 109.49010674 3.40390205 110.87162876 C7.11542863 111.82330224 9.99211984 111.86322707 13.84140205 111.49662876 C16.05891114 109.95738236 16.05891114 109.95738236 16.84140205 107.49662876 C16.70625724 104.72616016 16.21248115 103.0738629 14.71640205 100.74662876 C10.44653905 97.90005343 7.03927599 97.67309043 2.84140205 100.55912876 Z M392.9390583 170.77006626 C390.80699034 174.12371053 390.52997862 177.59675799 390.84140205 181.49662876 C392.06181364 184.51554164 393.04020562 185.91645204 395.65390205 187.80912876 C399.63424888 189.06009491 402.67668658 188.98418408 406.52890205 187.37162876 C409.48788721 184.9724516 410.59484692 183.09778803 411.84140205 179.49662876 C411.77554843 175.67711833 411.38345049 173.35487212 409.34140205 170.12162876 C403.98497342 166.63995015 397.77517068 165.94742495 392.9390583 170.77006626 Z M42.84140205 170.49662876 C40.67775688 172.86965895 39.88577428 174.46312564 39.74765205 177.68022251 C39.98737958 181.3300741 40.45124919 183.87238418 42.40390205 186.99662876 C45.81049204 189.09299183 48.8533409 189.69523738 52.84140205 189.49662876 C57.03070451 187.82090778 59.02669089 185.60360667 60.84140205 181.49662876 C61.55112846 177.32698615 61.0675619 175.85300186 58.77890205 172.24662876 C53.92720178 167.05229429 48.64352332 166.40877059 42.84140205 170.49662876 Z M93.84140205 268.49662876 C91.7824807 272.35710629 91.68738806 273.92870217 92.84140205 278.18412876 C95.18662011 282.06839617 96.52827177 283.16951175 100.84140205 284.49662876 C105.08779829 284.49662876 107.06008301 284.1777787 110.27890205 281.37162876 C112.25139983 277.74223284 112.35166525 275.57873435 111.84140205 271.49662876 C110.57141887 268.63916659 109.55760176 267.01525613 107.02890205 265.18412876 C101.38093648 263.40905387 97.92318397 264.18808119 93.84140205 268.49662876 Z M341.96640205 269.18412876 C340.24673288 272.71900428 340.67744515 275.86824459 341.84140205 279.49662876 C344.47026935 283.20797082 345.84941502 284.31948822 350.34140205 285.12162876 C354.80309591 284.32489772 356.19865518 283.14983767 358.84140205 279.49662876 C359.95089768 275.61339407 360.25262425 273.50183858 358.71640205 269.74662876 C356.62032062 267.23133104 354.79251934 265.89840947 351.84140205 264.49662876 C347.51890345 264.49662876 345.12204201 266.3440528 341.96640205 269.18412876 Z M129.84140205 334.49662876 C128.09338333 337.38465969 127.83220488 339.0643618 127.90390205 342.43412876 C129.13010797 346.43973474 130.81946442 348.60899946 133.84140205 351.49662876 C137.59336197 352.85372065 139.26679571 352.699431 143.02890205 351.37162876 C146.24369751 349.22843179 147.50074912 348.12427787 148.84140205 344.49662876 C149.02687678 340.17661336 148.58625729 336.68839714 146.27890205 332.99662876 C140.23020999 329.27435672 135.18168782 329.66494164 129.84140205 334.49662876 Z M307.84140205 334.49662876 C305.24733846 337.52303629 304.60777583 339.67337492 304.90390205 343.55912876 C305.39228569 346.28379537 305.89485635 347.5768102 307.46640205 349.93412876 C310.67538904 352.04530441 313.01242094 352.42945365 316.84140205 352.49662876 C319.97235727 351.21578345 321.52458818 349.86624495 323.71640205 347.30912876 C325.26408446 343.43992274 325.04287517 340.45734703 323.84140205 336.49662876 C321.63751513 333.19079837 320.25155369 332.6084883 316.40390205 331.55912876 C312.35919084 331.48816892 310.92060153 331.9306292 307.84140205 334.49662876 Z M173.84140205 413.49662876 C171.79908604 415.80246942 170.895809 417.35861675 170.74765205 420.45756626 C170.99954928 423.84558395 171.5570766 426.05308105 173.40390205 428.93412876 C176.80649929 431.11528083 179.81840397 431.68094939 183.84140205 431.49662876 C187.69920634 430.12496501 188.68503128 428.75073128 190.84140205 425.24662876 C192.1641756 421.51080329 192.1641756 421.51080329 190.90390205 417.80912876 C188.60399784 414.1153432 186.67909871 412.4954291 182.84140205 410.49662876 C179.02832852 410.49662876 177.09311327 411.53205323 173.84140205 413.49662876 Z M264.84140205 414.49662876 C262.3662046 418.20942494 262.1955373 421.19365971 262.84140205 425.49662876 C264.09527211 428.58480608 264.09527211 428.58480608 266.84140205 430.49662876 C269.90032299 431.46680891 272.64414583 431.79868684 275.84140205 431.49662876 C279.37864571 429.43323663 280.54559727 428.38404311 281.84140205 424.49662876 C282.20852407 420.53171102 282.19754125 418.17922889 280.34140205 414.62162876 C275.40654052 410.42699646 269.89632953 410.33374731 264.84140205 414.49662876 Z M217.84140205 482.49662876 C216.08561144 486.00820999 216.88995145 489.78332851 217.84140205 493.49662876 C220.51357932 496.64036672 222.36680575 497.36950475 226.34140205 498.43412876 C230.34744304 498.50566521 231.78910626 498.04020859 234.84140205 495.49662876 C237.43546565 492.47022123 238.07502828 490.31988261 237.77890205 486.43412876 C237.29717141 483.80199225 236.76999574 482.3805935 235.34140205 480.05912876 C228.48787454 475.77567407 223.16459111 476.77420052 217.84140205 482.49662876 Z " fill="#232729" transform="translate(87.15859794616699,25.503371238708496)"/>
<path d="M0 0 C0.99 0.495 0.99 0.495 2 1 C2.80089799 13.34249231 3.20328226 25.63196702 3.1875 38 C3.18689575 38.8926355 3.1862915 39.785271 3.18566895 40.70495605 C3.11504172 80.24414437 1.95079675 119.7467396 -3 159 C3.32273214 159.12779064 8.55877352 158.11823949 14.625 156.5 C15.63046875 156.23517822 16.6359375 155.97035645 17.671875 155.69750977 C27.27184697 153.08022417 36.43101773 149.56654669 45.66943359 145.90332031 C51.3645523 143.69590996 57.18379632 141.85943218 63 140 C64.38693049 139.54100389 65.77364213 139.08134607 67.16015625 138.62109375 C74.08589801 136.35216486 80.67110795 134.39261922 88 134 C86.71255653 137.34358165 85.27907422 140.51086714 83.6015625 143.67578125 C83.12847656 144.57304932 82.65539062 145.47031738 82.16796875 146.39477539 C81.40419922 147.83904907 81.40419922 147.83904907 80.625 149.3125 C78.9679688 152.47986699 77.31453623 155.64909737 75.66113281 158.81835938 C74.59519779 160.85999154 73.52703307 162.90046203 72.45605469 164.93945312 C65.55337048 178.13165038 59.63038206 191.49326847 54.22314453 205.34667969 C51.64456984 211.94518459 48.99461051 218.44964319 45.875 224.8125 C41.13282271 234.51613893 37.30152459 244.57864247 33.34277344 254.62060547 C31.0422515 260.41039177 28.67387168 266.17233105 26.3125 271.9375 C22.09901598 282.25102625 17.96941475 292.59012729 14 303 C13.62415771 303.98105713 13.62415771 303.98105713 13.24072266 304.98193359 C8.9339782 316.24207209 4.94163881 327.60757384 1 339 C-0.65 338.67 -2.3 338.34 -4 338 C-4.17662176 319.56068782 -3.81188905 301.1451762 -3.35571289 282.71240234 C-3.11818122 272.90894553 -2.97344572 263.11824679 -3.00854492 253.31184387 C-3.02069097 247.94079676 -2.86176765 242.60967965 -2.5 237.25 C-2.05517781 229.60200312 -1.88927031 221.9732756 -1.875 214.3125 C-1.87048828 213.30155273 -1.86597656 212.29060547 -1.86132812 211.24902344 C-1.86326172 210.31735352 -1.86519531 209.38568359 -1.8671875 208.42578125 C-1.86887939 207.17921753 -1.86887939 207.17921753 -1.87060547 205.9074707 C-1.79063815 203.9901524 -1.79063815 203.9901524 -3 203 C-9.90452775 203.38396579 -15.63801239 205.03334015 -22.0625 207.5 C-23.00206543 207.85022217 -23.94163086 208.20044434 -24.90966797 208.5612793 C-29.00229745 210.09070135 -33.08341437 211.64968637 -37.16455078 213.20947266 C-39.28395773 214.01932734 -41.40415634 214.82711329 -43.52514648 215.6328125 C-45.52866432 216.39527593 -47.52968122 217.16435852 -49.52758789 217.94140625 C-59.56948882 221.77516042 -69.1736279 224.64670807 -80 224 C-77.31633863 210.23259897 -73.84935493 196.91148368 -68.234375 184.03515625 C-66.61946109 180.06430782 -65.3964104 176.00833969 -64.15405273 171.90820312 C-59.63121931 157.12433104 -54.5577816 142.45635793 -48.66015625 128.1640625 C-46.28465323 122.31504616 -44.17144971 116.36436513 -42 110.4375 C-39.00578158 102.27861562 -35.92987875 94.2262819 -32.39599609 86.28540039 C-31.02096228 83.04933357 -29.81588089 79.79796797 -28.65234375 76.48046875 C-26.96427449 71.70621684 -25.25228718 66.94349636 -23.4921875 62.1953125 C-19.55383256 51.55808745 -15.62402995 40.9261595 -11.98046875 30.18359375 C-11.73451965 29.45966431 -11.48857056 28.73573486 -11.23516846 27.98986816 C-10.04724739 24.48722842 -8.86922365 20.98164105 -7.70458984 17.47119141 C-5.63163993 11.2853498 -3.57079056 5.49288664 0 0 Z " fill="#222629" transform="translate(317,52)"/>
<path d="M0 0 C5.35557024 -0.95682644 10.73416347 -1.7561378 16 0 C20.28019742 3.37572306 22.49443097 8.71818509 24.80810547 13.52734375 C26.02495334 16.05176719 27.31354609 18.52560758 28.62890625 21 C30.49899798 24.52279324 32.33967503 28.0588086 34.1640625 31.60546875 C36.87667287 36.82757131 39.78859205 41.91605265 42.75 47 C47.63086069 55.41297795 52.17975808 63.97681651 56.625 72.625 C57.10409317 73.55706772 57.10409317 73.55706772 57.59286499 74.50796509 C58.85249943 76.96036454 60.11092485 79.41337905 61.36778259 81.86720276 C70.01734984 101.07289965 70.01734984 101.07289965 82 118 C81.85698464 121.36086093 81.55849695 123.33409979 79.375 125.9375 C75.83780704 127.51992843 73.71109614 126.9954657 70 126 C68.04527073 123.7700904 66.7889828 121.9812464 65.375 119.4375 C64.96024414 118.73423584 64.54548828 118.03097168 64.11816406 117.30639648 C62.71076609 114.88895003 61.35044139 112.44970254 60 110 C59.50725586 109.10700195 59.01451172 108.21400391 58.50683594 107.29394531 C55.78047299 102.32517898 53.0917381 97.33707473 50.41796875 92.33984375 C47.04693949 86.0553166 43.56565757 79.83658792 40.0625 73.625 C34.65285294 64.02011645 29.39558163 54.3418601 24.19750977 44.62109375 C19.71127308 36.25673081 15.06141249 27.99432366 10.36035156 19.74926758 C6.67868341 13.26830978 3.17724317 6.74620124 0 0 Z " fill="#2A2E30" transform="translate(177,17)"/>
<path d="M0 0 C1.65322266 0.01740234 1.65322266 0.01740234 3.33984375 0.03515625 C4.44457031 0.04417969 5.54929687 0.05320312 6.6875 0.0625 C7.54214844 0.07410156 8.39679688 0.08570312 9.27734375 0.09765625 C9.96875 1.6875 9.96875 1.6875 10.27734375 4.09765625 C9.36195384 6.4184933 8.38955683 8.47383773 7.21484375 10.66015625 C6.86341309 11.3363501 6.51198242 12.01254395 6.14990234 12.70922852 C5.33718927 14.27115613 4.51940707 15.83045209 3.69775391 17.38769531 C2.10137744 20.43337746 0.53796055 23.49483647 -1.0234375 26.55859375 C-6.48623236 37.24157734 -12.00944821 47.82456764 -18.24121094 58.08300781 C-21.749384 63.94156977 -24.6217253 70.03485602 -27.47436523 76.23339844 C-29.64735536 80.92517964 -31.96338874 85.39831418 -34.59765625 89.84765625 C-38.85822389 97.04536872 -42.33927605 104.57215552 -45.77880859 112.19238281 C-48.19411823 117.41654244 -50.30040451 121.37243193 -54.72265625 125.09765625 C-55.21765625 125.59265625 -55.21765625 125.59265625 -55.72265625 126.09765625 C-59.67620651 126.54692333 -61.27887948 126.40637053 -64.59765625 124.09765625 C-65.29890625 123.43765625 -66.00015625 122.77765625 -66.72265625 122.09765625 C-66.11951428 117.5448548 -64.24399186 113.92144829 -62.07421875 109.9453125 C-61.70590942 109.25733078 -61.3376001 108.56934906 -60.95812988 107.86051941 C-60.16931358 106.38810295 -59.37770315 104.91718057 -58.58355713 103.44763184 C-56.50185317 99.59469584 -54.44059369 95.73086108 -52.37890625 91.8671875 C-51.76754318 90.72290787 -51.76754318 90.72290787 -51.14382935 89.55551147 C-47.93708842 83.53846716 -44.85461468 77.46709043 -41.84765625 71.34765625 C-36.94214143 61.40170634 -31.66037901 51.6862871 -26.30371094 41.97753906 C-24.06690755 37.90321344 -21.86256911 33.8116126 -19.65673828 29.72045898 C-3.70050688 0.1327298 -3.70050688 0.1327298 0 0 Z " fill="#2C2F31" transform="translate(436.72265625,16.90234375)"/>
<path d="M0 0 C4.95 0 9.9 0 15 0 C15.9075 1.69125 16.815 3.3825 17.75 5.125 C22.62815565 14.19703965 27.57366136 23.23254154 32.51098633 32.27246094 C34.03476942 35.06368978 35.55644097 37.85606388 37.078125 40.6484375 C39.6009902 45.27321263 42.13375488 49.89220221 44.6875 54.5 C45.10177246 55.24902588 45.51604492 55.99805176 45.94287109 56.76977539 C48.27636684 60.96876411 50.65393964 65.13683944 53.08984375 69.27734375 C53.59620361 70.13972656 54.10256348 71.00210938 54.62426758 71.890625 C55.60914638 73.562051 56.59969362 75.23015249 57.59643555 76.89453125 C58.04156494 77.64992188 58.48669434 78.4053125 58.9453125 79.18359375 C59.34250488 79.84931396 59.73969727 80.51503418 60.14892578 81.20092773 C61 83 61 83 61 86 C60.34 86 59.68 86 59 86 C58.7525 86.598125 58.505 87.19625 58.25 87.8125 C56.83629988 90.28647521 55.34944617 91.43370255 53 93 C49.37316698 91.55618618 48.01569622 89.92114624 46.07421875 86.57421875 C45.53273193 85.64730225 44.99124512 84.72038574 44.43334961 83.76538086 C43.85721924 82.74968018 43.28108887 81.73397949 42.6875 80.6875 C42.07720947 79.62732666 41.46691895 78.56715332 40.83813477 77.47485352 C35.466724 68.04118077 30.48781189 58.4171894 25.55541992 48.7487793 C20.12566806 38.12348493 14.29556215 27.75000246 8.36572266 17.39697266 C6.43754278 14.01283428 4.54734391 10.6096128 2.6875 7.1875 C2.15511719 6.21167969 1.62273437 5.23585938 1.07421875 4.23046875 C0 2 0 2 0 0 Z " fill="#2E3234" transform="translate(216,17)"/>
<path d="M0 0 C4.62 0 9.24 0 14 0 C13.06445261 4.67773697 11.58053722 8.26084651 9.4375 12.4375 C9.07962402 13.14414795 8.72174805 13.8507959 8.35302734 14.57885742 C5.75808949 19.6510914 2.99426989 24.59959213 0.12915039 29.52416992 C-2.58044479 34.20320033 -5.12186091 38.95772988 -7.625 43.75 C-11.77711921 51.68572655 -15.96253994 59.60277341 -20.1875 67.5 C-20.75742676 68.5734668 -21.32735352 69.64693359 -21.91455078 70.75292969 C-32.45809966 90.41514125 -32.45809966 90.41514125 -37.625 92.375 C-41.22013632 91.97554041 -43.13665603 91.16919998 -46 89 C-45.54347714 83.14905395 -43.03518825 79.14548457 -40.0625 74.25 C-39.05082229 72.54241315 -38.04043348 70.83406212 -37.03125 69.125 C-36.52078125 68.26519531 -36.0103125 67.40539062 -35.484375 66.51953125 C-33.28898933 62.79315294 -31.16360345 59.03018856 -29.0625 55.25 C-28.66119873 54.528125 -28.25989746 53.80625 -27.84643555 53.0625 C-23.87919847 45.86949255 -20.11094655 38.57413237 -16.33813477 31.27783203 C-13.50687128 25.82144939 -10.59947802 20.43350648 -7.5 15.125 C-4.62737472 10.19365993 -2.18160938 5.27222266 0 0 Z " fill="#323638" transform="translate(397,17)"/>
<path d="M0 0 C0.66 0.33 1.32 0.66 2 1 C2.85600343 13.8459011 3.16106872 26.62739335 3.125 39.5 C3.12367065 40.87751938 3.12367065 40.87751938 3.12231445 42.28286743 C3.1021893 60.20102519 2.67396188 78.0951988 2 96 C1.67 96 1.34 96 1 96 C1 65.64 1 35.28 1 4 C0.01 4.33 -0.98 4.66 -2 5 C-1.34 3.35 -0.68 1.7 0 0 Z " fill="#5E625F" transform="translate(317,52)"/>
<path d="M0 0 C0.33 0 0.66 0 1 0 C1 21.78 1 43.56 1 66 C1.99 66 2.98 66 4 66 C4 66.99 4 67.98 4 69 C2.35 68.67 0.7 68.34 -1 68 C-1.20921108 45.32151889 -0.60440638 22.66845412 0 0 Z " fill="#737672" transform="translate(314,322)"/>
<path d="M0 0 C0.66 0.33 1.32 0.66 2 1 C2.33 7.6 2.66 14.2 3 21 C2.34 20.67 1.68 20.34 1 20 C1 14.72 1 9.44 1 4 C0.01 4.33 -0.98 4.66 -2 5 C-1.34 3.35 -0.68 1.7 0 0 Z " fill="#BABEBB" transform="translate(317,52)"/>
<path d="M0 0 C4.95 0 9.9 0 15 0 C14.67 0.66 14.34 1.32 14 2 C10.37 1.67 6.74 1.34 3 1 C3 2.65 3 4.3 3 6 C0 2.25 0 2.25 0 0 Z " fill="#B2B2AB" transform="translate(216,17)"/>
<path d="M0 0 C0 3 0 3 -1 5 C-2.9375 4.6875 -2.9375 4.6875 -5 4 C-5.33 3.01 -5.66 2.02 -6 1 C-4.7934375 1.0309375 -4.7934375 1.0309375 -3.5625 1.0625 C-1.06645115 1.29633621 -1.06645115 1.29633621 0 0 Z " fill="#86887C" transform="translate(405,250)"/>
<path d="M0 0 C-0.66 1.65 -1.32 3.3 -2 5 C-2.33 4.01 -2.66 3.02 -3 2 C-4.98 2 -6.96 2 -9 2 C-9 1.67 -9 1.34 -9 1 C-5.846632 0.29925156 -3.27275026 0 0 0 Z " fill="#ABADA5" transform="translate(405,186)"/>
<path d="M0 0 C0.66 0 1.32 0 2 0 C2.33 0.66 2.66 1.32 3 2 C3.99 2.33 4.98 2.66 6 3 C5.67 4.65 5.34 6.3 5 8 C2.74754119 5.31158141 1.11786042 3.35358125 0 0 Z " fill="#92928B" transform="translate(71,130)"/>
</svg>
