%TF.GenerationSoftware,KiCad,Pcbnew,8.0.8*%
%TF.CreationDate,2025-01-17T16:13:05-03:00*%
%TF.ProjectId,DQ-Panel,44512d50-616e-4656-9c2e-6b696361645f,rev?*%
%TF.SameCoordinates,Original*%
%TF.FileFunction,Legend,Bot*%
%TF.FilePolarity,Positive*%
%FSLAX46Y46*%
G04 Gerber Fmt 4.6, Leading zero omitted, Abs format (unit mm)*
G04 Created by KiCad (PCBNEW 8.0.8) date 2025-01-17 16:13:05*
%MOMM*%
%LPD*%
G01*
G04 APERTURE LIST*
%ADD10C,0.312500*%
%ADD11C,0.600000*%
%ADD12C,0.000000*%
%ADD13C,0.010000*%
G04 APERTURE END LIST*
D10*
G36*
X65047488Y-147741680D02*
G01*
X64509299Y-147741680D01*
X64426890Y-147738634D01*
X64346359Y-147729498D01*
X64267705Y-147714271D01*
X64190929Y-147692953D01*
X64117152Y-147665751D01*
X64047863Y-147632869D01*
X63983063Y-147594309D01*
X63922750Y-147550071D01*
X63867658Y-147500039D01*
X63818519Y-147444466D01*
X63775334Y-147383352D01*
X63738102Y-147316697D01*
X63729806Y-147299172D01*
X63701974Y-147225693D01*
X63682706Y-147146810D01*
X63672871Y-147073355D01*
X63669592Y-146995762D01*
X63669873Y-146978543D01*
X64011410Y-146978543D01*
X64014685Y-147047129D01*
X64027582Y-147122455D01*
X64052809Y-147193965D01*
X64066383Y-147220619D01*
X64108709Y-147282219D01*
X64165650Y-147336114D01*
X64193380Y-147355366D01*
X64259914Y-147389654D01*
X64335276Y-147413783D01*
X64391752Y-147424941D01*
X64470929Y-147434137D01*
X64547401Y-147436864D01*
X64718493Y-147436864D01*
X64718493Y-146545867D01*
X64524320Y-146545867D01*
X64473258Y-146547538D01*
X64398898Y-146556314D01*
X64327216Y-146572611D01*
X64298392Y-146581507D01*
X64229058Y-146610749D01*
X64163451Y-146652112D01*
X64146496Y-146665754D01*
X64094183Y-146720621D01*
X64052809Y-146786568D01*
X64036678Y-146823679D01*
X64017232Y-146899855D01*
X64011410Y-146978543D01*
X63669873Y-146978543D01*
X63670214Y-146957700D01*
X63676497Y-146873123D01*
X63689548Y-146794471D01*
X63709366Y-146721744D01*
X63740301Y-146645884D01*
X63778746Y-146577259D01*
X63823374Y-146515367D01*
X63874184Y-146460206D01*
X63931176Y-146411777D01*
X63993848Y-146369828D01*
X64061694Y-146334108D01*
X64134715Y-146304616D01*
X64212911Y-146281352D01*
X64253577Y-146271906D01*
X64326066Y-146258407D01*
X64400237Y-146248765D01*
X64476092Y-146242980D01*
X64553629Y-146241051D01*
X65047488Y-146241051D01*
X65047488Y-147741680D01*
G37*
G36*
X62507118Y-147741680D02*
G01*
X62810834Y-147741680D01*
X62810834Y-147598797D01*
X62815231Y-147598797D01*
X62858462Y-147658515D01*
X62915901Y-147707487D01*
X62922942Y-147712004D01*
X62991871Y-147744301D01*
X63009770Y-147750106D01*
X63083641Y-147763939D01*
X63114917Y-147765127D01*
X63192207Y-147760754D01*
X63264378Y-147746011D01*
X63310189Y-147728124D01*
X63372931Y-147687155D01*
X63423706Y-147629613D01*
X63426326Y-147625542D01*
X63458838Y-147558647D01*
X63478432Y-147487060D01*
X63481281Y-147470570D01*
X63490058Y-147395817D01*
X63494188Y-147322522D01*
X63494837Y-147277862D01*
X63494837Y-146709998D01*
X63178298Y-146709998D01*
X63178298Y-147213016D01*
X63176363Y-147287582D01*
X63175367Y-147305340D01*
X63161786Y-147377543D01*
X63156316Y-147392901D01*
X63113558Y-147453608D01*
X63107590Y-147458480D01*
X63035739Y-147482870D01*
X63013800Y-147483759D01*
X62940426Y-147473369D01*
X62914516Y-147461777D01*
X62860500Y-147409235D01*
X62856630Y-147402426D01*
X62832538Y-147333203D01*
X62830252Y-147318895D01*
X62823973Y-147243511D01*
X62823657Y-147221442D01*
X62823657Y-146709998D01*
X62507118Y-146709998D01*
X62507118Y-147741680D01*
G37*
G36*
X61839617Y-146686708D02*
G01*
X61917512Y-146692218D01*
X61993834Y-146705598D01*
X62068580Y-146726850D01*
X62083212Y-146732045D01*
X62152936Y-146762743D01*
X62216935Y-146801311D01*
X62275210Y-146847751D01*
X62106682Y-147019942D01*
X62056042Y-146972018D01*
X61991644Y-146930549D01*
X61923775Y-146905819D01*
X61849128Y-146897576D01*
X61772283Y-146910307D01*
X61706613Y-146948501D01*
X61702916Y-146951695D01*
X61659731Y-147012249D01*
X61646529Y-147085155D01*
X61714947Y-147085704D01*
X61789045Y-147087353D01*
X61865981Y-147091658D01*
X61942917Y-147100176D01*
X62018572Y-147113456D01*
X62091661Y-147132782D01*
X62155519Y-147157678D01*
X62219523Y-147195430D01*
X62263901Y-147234760D01*
X62308183Y-147297280D01*
X62333625Y-147370145D01*
X62340789Y-147447489D01*
X62335179Y-147512444D01*
X62311480Y-147585242D01*
X62283922Y-147630083D01*
X62231246Y-147684527D01*
X62183742Y-147715932D01*
X62114010Y-147744977D01*
X62050372Y-147759440D01*
X61975524Y-147765127D01*
X61939451Y-147763890D01*
X61863592Y-147752728D01*
X61790876Y-147729956D01*
X61759265Y-147715170D01*
X61699168Y-147672175D01*
X61650559Y-147614185D01*
X61646529Y-147614185D01*
X61646529Y-147741680D01*
X61355269Y-147741680D01*
X61355269Y-147363225D01*
X61646529Y-147363225D01*
X61646844Y-147375115D01*
X61666679Y-147447123D01*
X61669208Y-147451516D01*
X61720534Y-147505741D01*
X61729110Y-147511351D01*
X61797471Y-147541645D01*
X61813798Y-147545878D01*
X61887230Y-147554101D01*
X61916587Y-147551956D01*
X61988713Y-147526990D01*
X62009871Y-147511442D01*
X62037073Y-147443093D01*
X62036223Y-147427284D01*
X62002269Y-147361393D01*
X61986340Y-147349129D01*
X61918005Y-147317063D01*
X61889659Y-147309747D01*
X61814324Y-147299478D01*
X61797932Y-147298528D01*
X61724564Y-147296181D01*
X61646529Y-147296181D01*
X61646529Y-147363225D01*
X61355269Y-147363225D01*
X61355269Y-147218511D01*
X61356950Y-147148199D01*
X61363570Y-147068874D01*
X61376518Y-146990633D01*
X61383849Y-146960587D01*
X61410444Y-146889499D01*
X61451257Y-146824303D01*
X61468963Y-146803928D01*
X61527868Y-146755442D01*
X61594871Y-146721721D01*
X61600530Y-146719558D01*
X61675964Y-146698950D01*
X61749451Y-146689332D01*
X61823849Y-146686550D01*
X61839617Y-146686708D01*
G37*
G36*
X61158898Y-146146163D02*
G01*
X60842359Y-146146163D01*
X60842359Y-147741680D01*
X61158898Y-147741680D01*
X61158898Y-146146163D01*
G37*
G36*
X59217900Y-146621338D02*
G01*
X59275702Y-146570599D01*
X59326710Y-146546599D01*
X59401466Y-146527047D01*
X59456403Y-146522419D01*
X59530409Y-146530846D01*
X59600083Y-146556111D01*
X59602216Y-146557224D01*
X59657171Y-146604851D01*
X59678054Y-146676292D01*
X59658304Y-146748563D01*
X59627495Y-146779973D01*
X59561975Y-146817003D01*
X59499634Y-146841156D01*
X59424930Y-146864855D01*
X59350558Y-146886975D01*
X59334038Y-146891714D01*
X59263936Y-146915761D01*
X59192770Y-146949500D01*
X59168441Y-146963522D01*
X59106170Y-147010265D01*
X59053998Y-147069069D01*
X59040946Y-147088086D01*
X59007974Y-147160196D01*
X58993204Y-147234815D01*
X58990021Y-147296913D01*
X58994565Y-147371689D01*
X59010060Y-147446834D01*
X59036550Y-147514534D01*
X59076031Y-147579621D01*
X59124683Y-147635846D01*
X59162213Y-147668407D01*
X59225119Y-147709812D01*
X59295134Y-147742252D01*
X59345761Y-147758899D01*
X59418931Y-147775794D01*
X59494871Y-147785676D01*
X59566312Y-147788574D01*
X59646474Y-147785039D01*
X59723332Y-147774432D01*
X59796887Y-147756754D01*
X59836323Y-147743878D01*
X59905057Y-147714595D01*
X59971125Y-147676618D01*
X60034527Y-147629948D01*
X60068598Y-147600263D01*
X59834125Y-147342342D01*
X59780930Y-147399122D01*
X59716144Y-147442377D01*
X59706630Y-147447123D01*
X59633112Y-147473419D01*
X59557501Y-147483616D01*
X59547262Y-147483759D01*
X59473616Y-147475936D01*
X59465929Y-147474234D01*
X59396398Y-147448001D01*
X59392289Y-147445657D01*
X59339533Y-147397297D01*
X59319383Y-147327688D01*
X59339562Y-147254272D01*
X59371040Y-147221076D01*
X59437501Y-147180800D01*
X59500733Y-147154764D01*
X59571469Y-147130721D01*
X59641547Y-147108396D01*
X59669627Y-147099809D01*
X59741333Y-147074340D01*
X59808807Y-147042582D01*
X59838521Y-147025804D01*
X59901753Y-146979482D01*
X59954888Y-146921939D01*
X59968214Y-146903438D01*
X60001660Y-146833778D01*
X60017400Y-146755202D01*
X60019871Y-146703037D01*
X60014287Y-146623720D01*
X59997533Y-146551502D01*
X59972610Y-146492011D01*
X59932459Y-146428040D01*
X59883447Y-146372416D01*
X59845848Y-146339970D01*
X59783097Y-146298410D01*
X59713545Y-146265506D01*
X59663399Y-146248379D01*
X59591426Y-146230858D01*
X59518067Y-146220609D01*
X59450175Y-146217604D01*
X59371807Y-146221110D01*
X59295157Y-146231629D01*
X59220224Y-146249160D01*
X59205444Y-146253508D01*
X59133774Y-146280742D01*
X59066683Y-146317564D01*
X59004172Y-146363975D01*
X58992220Y-146374408D01*
X59217900Y-146621338D01*
G37*
G36*
X58326596Y-146690271D02*
G01*
X58403316Y-146702960D01*
X58476745Y-146724652D01*
X58527235Y-146745764D01*
X58596529Y-146785160D01*
X58658095Y-146833829D01*
X58698793Y-146875863D01*
X58745032Y-146938940D01*
X58779362Y-147003822D01*
X58804601Y-147074851D01*
X58819363Y-147151421D01*
X58823692Y-147225839D01*
X58819363Y-147300256D01*
X58804601Y-147376826D01*
X58779362Y-147447855D01*
X58755159Y-147495735D01*
X58711213Y-147560942D01*
X58658095Y-147618215D01*
X58612645Y-147655409D01*
X58545283Y-147696977D01*
X58476745Y-147727025D01*
X58409970Y-147747118D01*
X58333541Y-147760625D01*
X58253996Y-147765127D01*
X58238458Y-147764926D01*
X58161758Y-147757914D01*
X58086703Y-147740884D01*
X58013294Y-147713836D01*
X57998935Y-147707211D01*
X57931858Y-147669065D01*
X57872653Y-147622547D01*
X57821319Y-147567656D01*
X58042970Y-147406456D01*
X58077714Y-147447544D01*
X58136759Y-147495849D01*
X58192562Y-147520831D01*
X58268650Y-147530654D01*
X58285838Y-147530151D01*
X58359148Y-147514524D01*
X58425088Y-147473501D01*
X58443707Y-147454578D01*
X58484419Y-147391506D01*
X58507153Y-147319628D01*
X57772959Y-147319628D01*
X57772959Y-147221076D01*
X57775626Y-147154483D01*
X57781929Y-147108602D01*
X58089498Y-147108602D01*
X58507153Y-147108602D01*
X58489202Y-147038260D01*
X58444871Y-146979275D01*
X58441255Y-146976107D01*
X58376361Y-146937510D01*
X58358277Y-146931086D01*
X58283671Y-146921024D01*
X58278298Y-146921078D01*
X58205086Y-146934854D01*
X58142255Y-146976345D01*
X58103293Y-147032775D01*
X58089498Y-147108602D01*
X57781929Y-147108602D01*
X57786126Y-147078051D01*
X57806665Y-147000891D01*
X57822778Y-146959142D01*
X57856764Y-146893935D01*
X57902652Y-146832363D01*
X57926974Y-146807131D01*
X57986299Y-146760327D01*
X58054693Y-146724286D01*
X58100810Y-146707777D01*
X58174621Y-146691857D01*
X58253996Y-146686550D01*
X58326596Y-146690271D01*
G37*
G36*
X57176839Y-146689000D02*
G01*
X57255321Y-146701863D01*
X57327827Y-146725751D01*
X57361671Y-146741559D01*
X57428726Y-146783410D01*
X57487195Y-146835661D01*
X57518451Y-146872686D01*
X57558207Y-146934493D01*
X57589411Y-147003822D01*
X57608344Y-147066397D01*
X57621072Y-147139610D01*
X57625315Y-147217412D01*
X57623277Y-147270695D01*
X57612578Y-147348473D01*
X57592708Y-147423675D01*
X57577128Y-147465580D01*
X57544301Y-147532521D01*
X57500018Y-147598065D01*
X57476435Y-147625559D01*
X57419063Y-147677707D01*
X57353106Y-147719698D01*
X57308432Y-147739573D01*
X57236012Y-147758738D01*
X57157101Y-147765127D01*
X57120359Y-147764045D01*
X57044108Y-147754278D01*
X56972453Y-147734352D01*
X56951588Y-147725891D01*
X56886042Y-147685640D01*
X56832136Y-147628839D01*
X56827740Y-147628839D01*
X56827740Y-148234073D01*
X56511201Y-148234073D01*
X56511201Y-147225839D01*
X56802460Y-147225839D01*
X56805651Y-147274224D01*
X56825967Y-147347383D01*
X56869139Y-147412684D01*
X56910699Y-147447042D01*
X56979367Y-147475361D01*
X57055618Y-147483759D01*
X57105757Y-147480358D01*
X57179637Y-147458702D01*
X57242464Y-147412684D01*
X57274519Y-147369021D01*
X57300940Y-147299984D01*
X57308776Y-147225839D01*
X57305603Y-147177470D01*
X57285398Y-147104424D01*
X57242464Y-147039359D01*
X57200874Y-147004825D01*
X57132078Y-146976360D01*
X57055618Y-146967918D01*
X57005622Y-146971337D01*
X56931905Y-146993104D01*
X56869139Y-147039359D01*
X56836907Y-147082845D01*
X56810339Y-147151736D01*
X56802460Y-147225839D01*
X56511201Y-147225839D01*
X56511201Y-146709998D01*
X56802460Y-146709998D01*
X56802460Y-146848483D01*
X56806857Y-146848483D01*
X56856316Y-146792063D01*
X56866087Y-146783153D01*
X56928123Y-146739673D01*
X56949189Y-146728499D01*
X57018982Y-146701571D01*
X57047063Y-146694310D01*
X57121197Y-146686550D01*
X57176839Y-146689000D01*
G37*
G36*
X55278019Y-147741680D02*
G01*
X55581735Y-147741680D01*
X55581735Y-147598797D01*
X55586131Y-147598797D01*
X55629362Y-147658515D01*
X55686801Y-147707487D01*
X55693842Y-147712004D01*
X55762772Y-147744301D01*
X55780670Y-147750106D01*
X55854541Y-147763939D01*
X55885817Y-147765127D01*
X55963107Y-147760754D01*
X56035278Y-147746011D01*
X56081089Y-147728124D01*
X56143831Y-147687155D01*
X56194607Y-147629613D01*
X56197227Y-147625542D01*
X56229738Y-147558647D01*
X56249333Y-147487060D01*
X56252181Y-147470570D01*
X56260958Y-147395817D01*
X56265088Y-147322522D01*
X56265737Y-147277862D01*
X56265737Y-146709998D01*
X55949198Y-146709998D01*
X55949198Y-147213016D01*
X55947263Y-147287582D01*
X55946267Y-147305340D01*
X55932686Y-147377543D01*
X55927216Y-147392901D01*
X55884459Y-147453608D01*
X55878490Y-147458480D01*
X55806639Y-147482870D01*
X55784700Y-147483759D01*
X55711326Y-147473369D01*
X55685416Y-147461777D01*
X55631401Y-147409235D01*
X55627530Y-147402426D01*
X55603438Y-147333203D01*
X55601152Y-147318895D01*
X55594873Y-147243511D01*
X55594557Y-147221442D01*
X55594557Y-146709998D01*
X55278019Y-146709998D01*
X55278019Y-147741680D01*
G37*
G36*
X54595542Y-146690271D02*
G01*
X54672262Y-146702960D01*
X54745691Y-146724652D01*
X54796181Y-146745764D01*
X54865475Y-146785160D01*
X54927042Y-146833829D01*
X54967739Y-146875863D01*
X55013978Y-146938940D01*
X55048308Y-147003822D01*
X55073547Y-147074851D01*
X55088309Y-147151421D01*
X55092638Y-147225839D01*
X55088309Y-147300256D01*
X55073547Y-147376826D01*
X55048308Y-147447855D01*
X55024105Y-147495735D01*
X54980159Y-147560942D01*
X54927042Y-147618215D01*
X54881591Y-147655409D01*
X54814229Y-147696977D01*
X54745691Y-147727025D01*
X54678916Y-147747118D01*
X54602487Y-147760625D01*
X54522942Y-147765127D01*
X54507404Y-147764926D01*
X54430704Y-147757914D01*
X54355649Y-147740884D01*
X54282241Y-147713836D01*
X54267881Y-147707211D01*
X54200805Y-147669065D01*
X54141600Y-147622547D01*
X54090266Y-147567656D01*
X54311916Y-147406456D01*
X54346660Y-147447544D01*
X54405705Y-147495849D01*
X54461508Y-147520831D01*
X54537596Y-147530654D01*
X54554784Y-147530151D01*
X54628094Y-147514524D01*
X54694034Y-147473501D01*
X54712653Y-147454578D01*
X54753365Y-147391506D01*
X54776100Y-147319628D01*
X54041906Y-147319628D01*
X54041906Y-147221076D01*
X54044572Y-147154483D01*
X54050875Y-147108602D01*
X54358444Y-147108602D01*
X54776100Y-147108602D01*
X54758148Y-147038260D01*
X54713818Y-146979275D01*
X54710201Y-146976107D01*
X54645308Y-146937510D01*
X54627223Y-146931086D01*
X54552617Y-146921024D01*
X54547244Y-146921078D01*
X54474032Y-146934854D01*
X54411201Y-146976345D01*
X54372239Y-147032775D01*
X54358444Y-147108602D01*
X54050875Y-147108602D01*
X54055072Y-147078051D01*
X54075611Y-147000891D01*
X54091725Y-146959142D01*
X54125711Y-146893935D01*
X54171599Y-146832363D01*
X54195920Y-146807131D01*
X54255245Y-146760327D01*
X54323640Y-146724286D01*
X54369756Y-146707777D01*
X54443567Y-146691857D01*
X54522942Y-146686550D01*
X54595542Y-146690271D01*
G37*
G36*
X53856525Y-146709998D02*
G01*
X53552443Y-146709998D01*
X53552443Y-146851781D01*
X53548413Y-146851781D01*
X53506281Y-146792430D01*
X53448053Y-146744059D01*
X53441068Y-146739673D01*
X53372381Y-146707376D01*
X53354606Y-146701571D01*
X53280209Y-146687739D01*
X53248727Y-146686550D01*
X53171567Y-146690923D01*
X53094442Y-146707364D01*
X53054554Y-146723553D01*
X52992419Y-146764603D01*
X52942112Y-146822408D01*
X52939516Y-146826502D01*
X52906843Y-146893134D01*
X52886808Y-146964621D01*
X52883828Y-146981107D01*
X52874103Y-147055860D01*
X52869526Y-147129156D01*
X52868807Y-147173815D01*
X52868807Y-147741680D01*
X53185346Y-147741680D01*
X53185346Y-147238661D01*
X53187523Y-147164337D01*
X53188643Y-147146704D01*
X53202113Y-147074147D01*
X53207694Y-147058776D01*
X53250089Y-146998069D01*
X53256054Y-146993197D01*
X53327905Y-146968807D01*
X53349844Y-146967918D01*
X53423391Y-146978481D01*
X53449495Y-146990266D01*
X53503447Y-147042445D01*
X53507380Y-147049251D01*
X53531904Y-147121299D01*
X53533758Y-147132782D01*
X53539689Y-147208166D01*
X53539987Y-147230235D01*
X53539987Y-147741680D01*
X53856525Y-147741680D01*
X53856525Y-146709998D01*
G37*
G36*
X51957659Y-147045954D02*
G01*
X52012637Y-146995945D01*
X52022872Y-146990266D01*
X52095690Y-146968704D01*
X52113730Y-146967918D01*
X52190025Y-146976360D01*
X52258839Y-147004825D01*
X52300576Y-147039359D01*
X52343511Y-147104424D01*
X52363715Y-147177470D01*
X52366888Y-147225839D01*
X52359053Y-147299984D01*
X52332631Y-147369021D01*
X52300576Y-147412684D01*
X52237572Y-147458702D01*
X52163744Y-147480358D01*
X52113730Y-147483759D01*
X52040467Y-147469672D01*
X52023239Y-147460678D01*
X51964695Y-147413474D01*
X51957659Y-147405723D01*
X51748465Y-147626641D01*
X51807679Y-147677680D01*
X51874311Y-147715942D01*
X51922855Y-147734352D01*
X51996580Y-147753105D01*
X52073542Y-147763654D01*
X52113730Y-147765127D01*
X52193276Y-147760625D01*
X52269704Y-147747118D01*
X52336480Y-147727025D01*
X52405018Y-147696977D01*
X52472380Y-147655409D01*
X52517830Y-147618215D01*
X52570947Y-147560942D01*
X52614894Y-147495735D01*
X52639097Y-147447855D01*
X52664336Y-147376826D01*
X52679098Y-147300256D01*
X52683427Y-147225839D01*
X52679098Y-147151421D01*
X52664336Y-147074851D01*
X52639097Y-147003822D01*
X52604767Y-146938940D01*
X52558528Y-146875863D01*
X52517830Y-146833829D01*
X52456264Y-146785160D01*
X52386970Y-146745764D01*
X52336480Y-146724652D01*
X52262885Y-146702960D01*
X52186173Y-146690271D01*
X52113730Y-146686550D01*
X52038396Y-146691690D01*
X51966174Y-146705557D01*
X51922855Y-146717691D01*
X51851276Y-146747212D01*
X51787117Y-146789613D01*
X51748465Y-146825036D01*
X51957659Y-147045954D01*
G37*
G36*
X51175165Y-146690271D02*
G01*
X51251885Y-146702960D01*
X51325315Y-146724652D01*
X51375804Y-146745764D01*
X51445099Y-146785160D01*
X51506665Y-146833829D01*
X51547362Y-146875863D01*
X51593602Y-146938940D01*
X51627931Y-147003822D01*
X51653170Y-147074851D01*
X51667932Y-147151421D01*
X51672262Y-147225839D01*
X51667932Y-147300256D01*
X51653170Y-147376826D01*
X51627931Y-147447855D01*
X51603729Y-147495735D01*
X51559782Y-147560942D01*
X51506665Y-147618215D01*
X51461215Y-147655409D01*
X51393852Y-147696977D01*
X51325315Y-147727025D01*
X51258539Y-147747118D01*
X51182111Y-147760625D01*
X51102565Y-147765127D01*
X51087028Y-147764926D01*
X51010327Y-147757914D01*
X50935273Y-147740884D01*
X50861864Y-147713836D01*
X50847504Y-147707211D01*
X50780428Y-147669065D01*
X50721223Y-147622547D01*
X50669889Y-147567656D01*
X50891539Y-147406456D01*
X50926283Y-147447544D01*
X50985329Y-147495849D01*
X51041131Y-147520831D01*
X51117220Y-147530654D01*
X51134407Y-147530151D01*
X51207717Y-147514524D01*
X51273657Y-147473501D01*
X51292276Y-147454578D01*
X51332988Y-147391506D01*
X51355723Y-147319628D01*
X50621529Y-147319628D01*
X50621529Y-147221076D01*
X50624195Y-147154483D01*
X50630498Y-147108602D01*
X50938068Y-147108602D01*
X51355723Y-147108602D01*
X51337771Y-147038260D01*
X51293441Y-146979275D01*
X51289824Y-146976107D01*
X51224931Y-146937510D01*
X51206846Y-146931086D01*
X51132241Y-146921024D01*
X51126867Y-146921078D01*
X51053655Y-146934854D01*
X50990824Y-146976345D01*
X50951862Y-147032775D01*
X50938068Y-147108602D01*
X50630498Y-147108602D01*
X50634695Y-147078051D01*
X50655234Y-147000891D01*
X50671348Y-146959142D01*
X50705334Y-146893935D01*
X50751222Y-146832363D01*
X50775543Y-146807131D01*
X50834868Y-146760327D01*
X50903263Y-146724286D01*
X50949379Y-146707777D01*
X51023190Y-146691857D01*
X51102565Y-146686550D01*
X51175165Y-146690271D01*
G37*
G36*
X50436148Y-146709998D02*
G01*
X50119610Y-146709998D01*
X50119610Y-146878525D01*
X50115213Y-146878525D01*
X50074616Y-146813284D01*
X50024588Y-146757838D01*
X49995046Y-146734544D01*
X49927266Y-146701736D01*
X49852020Y-146687722D01*
X49819924Y-146686550D01*
X49764969Y-146691313D01*
X49714411Y-146709998D01*
X49714411Y-146987335D01*
X49781089Y-146972681D01*
X49849233Y-146967918D01*
X49926041Y-146973473D01*
X49992848Y-146993197D01*
X50053959Y-147037653D01*
X50074181Y-147064272D01*
X50103949Y-147135222D01*
X50111183Y-147173082D01*
X50117997Y-147248443D01*
X50119610Y-147312667D01*
X50119610Y-147741680D01*
X50436148Y-147741680D01*
X50436148Y-146709998D01*
G37*
G36*
X65195133Y-148761051D02*
G01*
X64819610Y-148761051D01*
X64450315Y-149744373D01*
X64446285Y-149744373D01*
X64070395Y-148761051D01*
X63717952Y-148761051D01*
X64334177Y-150261680D01*
X64597959Y-150261680D01*
X65195133Y-148761051D01*
G37*
G36*
X63265553Y-149210271D02*
G01*
X63342272Y-149222960D01*
X63415702Y-149244652D01*
X63466191Y-149265764D01*
X63535486Y-149305160D01*
X63597052Y-149353829D01*
X63637750Y-149395863D01*
X63683989Y-149458940D01*
X63718319Y-149523822D01*
X63743557Y-149594851D01*
X63758320Y-149671421D01*
X63762649Y-149745839D01*
X63758320Y-149820256D01*
X63743557Y-149896826D01*
X63718319Y-149967855D01*
X63694116Y-150015735D01*
X63650169Y-150080942D01*
X63597052Y-150138215D01*
X63551602Y-150175409D01*
X63484240Y-150216977D01*
X63415702Y-150247025D01*
X63349084Y-150267118D01*
X63272663Y-150280625D01*
X63192952Y-150285127D01*
X63120352Y-150281406D01*
X63043632Y-150268718D01*
X62970203Y-150247025D01*
X62919713Y-150225936D01*
X62850419Y-150186661D01*
X62788853Y-150138215D01*
X62748155Y-150096004D01*
X62701916Y-150032780D01*
X62667586Y-149967855D01*
X62642347Y-149896826D01*
X62627585Y-149820256D01*
X62623256Y-149745839D01*
X62939795Y-149745839D01*
X62942985Y-149794224D01*
X62963301Y-149867383D01*
X63006473Y-149932684D01*
X63048033Y-149967042D01*
X63116701Y-149995361D01*
X63192952Y-150003759D01*
X63242966Y-150000358D01*
X63316794Y-149978702D01*
X63379798Y-149932684D01*
X63411853Y-149889021D01*
X63438274Y-149819984D01*
X63446110Y-149745839D01*
X63442937Y-149697470D01*
X63422733Y-149624424D01*
X63379798Y-149559359D01*
X63338061Y-149524825D01*
X63269247Y-149496360D01*
X63192952Y-149487918D01*
X63142956Y-149491337D01*
X63069240Y-149513104D01*
X63006473Y-149559359D01*
X62974241Y-149602845D01*
X62947674Y-149671736D01*
X62939795Y-149745839D01*
X62623256Y-149745839D01*
X62627585Y-149671421D01*
X62642347Y-149594851D01*
X62667586Y-149523822D01*
X62691789Y-149475966D01*
X62735736Y-149410879D01*
X62788853Y-149353829D01*
X62834303Y-149316458D01*
X62901665Y-149274744D01*
X62970203Y-149244652D01*
X63036821Y-149224559D01*
X63113242Y-149211053D01*
X63192952Y-149206550D01*
X63265553Y-149210271D01*
G37*
G36*
X62439707Y-148666163D02*
G01*
X62123169Y-148666163D01*
X62123169Y-150261680D01*
X62439707Y-150261680D01*
X62439707Y-148666163D01*
G37*
G36*
X61200297Y-149487918D02*
G01*
X61478734Y-149487918D01*
X61478734Y-149834499D01*
X61475192Y-149908430D01*
X61474704Y-149912901D01*
X61455653Y-149973717D01*
X61410590Y-150013285D01*
X61338563Y-150027084D01*
X61329257Y-150027206D01*
X61262579Y-150020245D01*
X61200297Y-149988372D01*
X61200297Y-150253253D01*
X61271433Y-150272735D01*
X61310206Y-150278532D01*
X61383950Y-150284348D01*
X61421948Y-150285127D01*
X61498792Y-150280914D01*
X61569592Y-150268274D01*
X61640097Y-150242939D01*
X61687562Y-150214419D01*
X61739850Y-150162728D01*
X61766696Y-150118431D01*
X61788994Y-150048625D01*
X61795273Y-149975183D01*
X61795273Y-149487918D01*
X61997872Y-149487918D01*
X61997872Y-149229998D01*
X61795273Y-149229998D01*
X61795273Y-148925915D01*
X61478734Y-148925915D01*
X61478734Y-149229998D01*
X61200297Y-149229998D01*
X61200297Y-149487918D01*
G37*
G36*
X60593979Y-149206708D02*
G01*
X60671874Y-149212218D01*
X60748195Y-149225598D01*
X60822942Y-149246850D01*
X60837574Y-149252045D01*
X60907297Y-149282743D01*
X60971297Y-149321311D01*
X61029571Y-149367751D01*
X60861044Y-149539942D01*
X60810404Y-149492018D01*
X60746005Y-149450549D01*
X60678136Y-149425819D01*
X60603490Y-149417576D01*
X60526645Y-149430307D01*
X60460974Y-149468501D01*
X60457277Y-149471695D01*
X60414092Y-149532249D01*
X60400890Y-149605155D01*
X60469309Y-149605704D01*
X60543406Y-149607353D01*
X60620342Y-149611658D01*
X60697279Y-149620176D01*
X60772933Y-149633456D01*
X60846023Y-149652782D01*
X60909881Y-149677678D01*
X60973884Y-149715430D01*
X61018263Y-149754760D01*
X61062544Y-149817280D01*
X61087986Y-149890145D01*
X61095151Y-149967489D01*
X61089541Y-150032444D01*
X61065841Y-150105242D01*
X61038284Y-150150083D01*
X60985608Y-150204527D01*
X60938103Y-150235932D01*
X60868371Y-150264977D01*
X60804733Y-150279440D01*
X60729885Y-150285127D01*
X60693813Y-150283890D01*
X60617953Y-150272728D01*
X60545238Y-150249956D01*
X60513626Y-150235170D01*
X60453529Y-150192175D01*
X60404920Y-150134185D01*
X60400890Y-150134185D01*
X60400890Y-150261680D01*
X60109631Y-150261680D01*
X60109631Y-149883225D01*
X60400890Y-149883225D01*
X60401205Y-149895115D01*
X60421040Y-149967123D01*
X60423569Y-149971516D01*
X60474896Y-150025741D01*
X60483471Y-150031351D01*
X60551832Y-150061645D01*
X60568160Y-150065878D01*
X60641592Y-150074101D01*
X60670948Y-150071956D01*
X60743075Y-150046990D01*
X60764232Y-150031442D01*
X60791435Y-149963093D01*
X60790585Y-149947284D01*
X60756630Y-149881393D01*
X60740702Y-149869129D01*
X60672366Y-149837063D01*
X60644021Y-149829747D01*
X60568685Y-149819478D01*
X60552294Y-149818528D01*
X60478926Y-149816181D01*
X60400890Y-149816181D01*
X60400890Y-149883225D01*
X60109631Y-149883225D01*
X60109631Y-149738511D01*
X60111312Y-149668199D01*
X60117931Y-149588874D01*
X60130880Y-149510633D01*
X60138211Y-149480587D01*
X60164806Y-149409499D01*
X60205618Y-149344303D01*
X60223325Y-149323928D01*
X60282229Y-149275442D01*
X60349233Y-149241721D01*
X60354891Y-149239558D01*
X60430325Y-149218950D01*
X60503813Y-149209332D01*
X60578211Y-149206550D01*
X60593979Y-149206708D01*
G37*
G36*
X59540507Y-149209436D02*
G01*
X59615090Y-149224582D01*
X59683183Y-149252712D01*
X59714679Y-149270916D01*
X59776557Y-149317427D01*
X59829728Y-149373613D01*
X59858076Y-149412470D01*
X59894243Y-149476338D01*
X59922785Y-149546903D01*
X59937050Y-149596293D01*
X59950806Y-149671495D01*
X59955391Y-149748037D01*
X59952551Y-149812681D01*
X59941366Y-149887599D01*
X59919488Y-149964192D01*
X59899635Y-150011796D01*
X59862730Y-150076935D01*
X59817272Y-150134551D01*
X59786856Y-150164281D01*
X59723763Y-150211402D01*
X59657904Y-150245559D01*
X59604084Y-150264686D01*
X59527096Y-150280451D01*
X59451274Y-150285127D01*
X59446777Y-150285097D01*
X59372290Y-150276441D01*
X59298134Y-150254352D01*
X59278218Y-150245891D01*
X59215097Y-150205640D01*
X59162213Y-150148839D01*
X59157816Y-150148839D01*
X59157816Y-150247025D01*
X59160225Y-150286463D01*
X59181969Y-150362546D01*
X59226326Y-150425811D01*
X59288580Y-150468675D01*
X59364745Y-150490588D01*
X59440650Y-150496153D01*
X59470604Y-150495276D01*
X59544887Y-150484792D01*
X59619069Y-150460249D01*
X59649187Y-150445896D01*
X59712763Y-150408701D01*
X59774041Y-150363162D01*
X59949163Y-150626212D01*
X59913725Y-150652716D01*
X59847322Y-150693211D01*
X59777558Y-150724432D01*
X59704432Y-150746379D01*
X59662774Y-150755351D01*
X59587294Y-150767667D01*
X59511176Y-150775057D01*
X59434421Y-150777520D01*
X59361893Y-150775139D01*
X59277962Y-150765465D01*
X59201508Y-150748349D01*
X59119634Y-150717986D01*
X59048528Y-150676908D01*
X58988190Y-150625113D01*
X58945866Y-150574024D01*
X58904547Y-150503579D01*
X58873558Y-150423165D01*
X58855624Y-150348538D01*
X58844864Y-150266988D01*
X58841278Y-150178515D01*
X58841278Y-149745839D01*
X59132537Y-149745839D01*
X59133728Y-149771324D01*
X59151588Y-149843658D01*
X59162098Y-149866075D01*
X59205444Y-149925357D01*
X59223579Y-149942256D01*
X59286777Y-149982510D01*
X59310270Y-149991806D01*
X59385695Y-150003759D01*
X59412577Y-150002431D01*
X59486079Y-149982510D01*
X59508129Y-149970832D01*
X59566312Y-149925357D01*
X59582730Y-149906924D01*
X59620168Y-149843658D01*
X59628343Y-149820233D01*
X59638853Y-149745839D01*
X59637685Y-149720353D01*
X59620168Y-149648019D01*
X59609658Y-149625602D01*
X59566312Y-149566320D01*
X59548246Y-149549444D01*
X59486079Y-149509534D01*
X59459771Y-149499085D01*
X59385695Y-149487918D01*
X59359729Y-149489269D01*
X59286777Y-149509534D01*
X59264245Y-149521051D01*
X59205444Y-149566320D01*
X59189026Y-149584753D01*
X59151588Y-149648019D01*
X59143253Y-149671444D01*
X59132537Y-149745839D01*
X58841278Y-149745839D01*
X58841278Y-149229998D01*
X59132537Y-149229998D01*
X59132537Y-149368483D01*
X59136934Y-149368483D01*
X59138114Y-149366742D01*
X59187492Y-149312063D01*
X59201890Y-149299664D01*
X59263329Y-149259673D01*
X59292180Y-149245877D01*
X59363713Y-149221571D01*
X59410954Y-149211846D01*
X59487178Y-149206550D01*
X59540507Y-149209436D01*
G37*
G36*
X58130225Y-149210271D02*
G01*
X58206944Y-149222960D01*
X58280374Y-149244652D01*
X58330863Y-149265764D01*
X58400158Y-149305160D01*
X58461724Y-149353829D01*
X58502422Y-149395863D01*
X58548661Y-149458940D01*
X58582991Y-149523822D01*
X58608229Y-149594851D01*
X58622992Y-149671421D01*
X58627321Y-149745839D01*
X58622992Y-149820256D01*
X58608229Y-149896826D01*
X58582991Y-149967855D01*
X58558788Y-150015735D01*
X58514841Y-150080942D01*
X58461724Y-150138215D01*
X58416274Y-150175409D01*
X58348912Y-150216977D01*
X58280374Y-150247025D01*
X58213598Y-150267118D01*
X58137170Y-150280625D01*
X58057624Y-150285127D01*
X58042087Y-150284926D01*
X57965386Y-150277914D01*
X57890332Y-150260884D01*
X57816923Y-150233836D01*
X57802563Y-150227211D01*
X57735487Y-150189065D01*
X57676282Y-150142547D01*
X57624948Y-150087656D01*
X57846599Y-149926456D01*
X57881342Y-149967544D01*
X57940388Y-150015849D01*
X57996190Y-150040831D01*
X58072279Y-150050654D01*
X58089466Y-150050151D01*
X58162776Y-150034524D01*
X58228717Y-149993501D01*
X58247335Y-149974578D01*
X58288047Y-149911506D01*
X58310782Y-149839628D01*
X57576588Y-149839628D01*
X57576588Y-149741076D01*
X57579254Y-149674483D01*
X57585557Y-149628602D01*
X57893127Y-149628602D01*
X58310782Y-149628602D01*
X58292830Y-149558260D01*
X58248500Y-149499275D01*
X58244884Y-149496107D01*
X58179990Y-149457510D01*
X58161905Y-149451086D01*
X58087300Y-149441024D01*
X58081927Y-149441078D01*
X58008715Y-149454854D01*
X57945883Y-149496345D01*
X57906921Y-149552775D01*
X57893127Y-149628602D01*
X57585557Y-149628602D01*
X57589754Y-149598051D01*
X57610294Y-149520891D01*
X57626407Y-149479142D01*
X57660393Y-149413935D01*
X57706281Y-149352363D01*
X57730603Y-149327131D01*
X57789928Y-149280327D01*
X57858322Y-149244286D01*
X57904438Y-149227777D01*
X57978249Y-149211857D01*
X58057624Y-149206550D01*
X58130225Y-149210271D01*
G37*
G36*
X56717098Y-148761051D02*
G01*
X55714725Y-148761051D01*
X55714725Y-149065867D01*
X56387736Y-149065867D01*
X56387736Y-149370682D01*
X55765283Y-149370682D01*
X55765283Y-149675497D01*
X56387736Y-149675497D01*
X56387736Y-150261680D01*
X56717098Y-150261680D01*
X56717098Y-148761051D01*
G37*
G36*
X55066320Y-149210271D02*
G01*
X55143040Y-149222960D01*
X55216469Y-149244652D01*
X55266959Y-149265764D01*
X55336253Y-149305160D01*
X55397820Y-149353829D01*
X55438517Y-149395863D01*
X55484757Y-149458940D01*
X55519086Y-149523822D01*
X55544325Y-149594851D01*
X55559087Y-149671421D01*
X55563416Y-149745839D01*
X55559087Y-149820256D01*
X55544325Y-149896826D01*
X55519086Y-149967855D01*
X55494883Y-150015735D01*
X55450937Y-150080942D01*
X55397820Y-150138215D01*
X55352370Y-150175409D01*
X55285007Y-150216977D01*
X55216469Y-150247025D01*
X55149851Y-150267118D01*
X55073431Y-150280625D01*
X54993720Y-150285127D01*
X54921120Y-150281406D01*
X54844400Y-150268718D01*
X54770971Y-150247025D01*
X54720481Y-150225936D01*
X54651187Y-150186661D01*
X54589620Y-150138215D01*
X54548923Y-150096004D01*
X54502683Y-150032780D01*
X54468354Y-149967855D01*
X54443115Y-149896826D01*
X54428353Y-149820256D01*
X54424024Y-149745839D01*
X54740562Y-149745839D01*
X54743753Y-149794224D01*
X54764069Y-149867383D01*
X54807241Y-149932684D01*
X54848801Y-149967042D01*
X54917469Y-149995361D01*
X54993720Y-150003759D01*
X55043734Y-150000358D01*
X55117562Y-149978702D01*
X55180566Y-149932684D01*
X55212621Y-149889021D01*
X55239042Y-149819984D01*
X55246878Y-149745839D01*
X55243705Y-149697470D01*
X55223500Y-149624424D01*
X55180566Y-149559359D01*
X55138828Y-149524825D01*
X55070015Y-149496360D01*
X54993720Y-149487918D01*
X54943724Y-149491337D01*
X54870007Y-149513104D01*
X54807241Y-149559359D01*
X54775008Y-149602845D01*
X54748441Y-149671736D01*
X54740562Y-149745839D01*
X54424024Y-149745839D01*
X54428353Y-149671421D01*
X54443115Y-149594851D01*
X54468354Y-149523822D01*
X54492557Y-149475966D01*
X54536503Y-149410879D01*
X54589620Y-149353829D01*
X54635070Y-149316458D01*
X54702433Y-149274744D01*
X54770971Y-149244652D01*
X54837589Y-149224559D01*
X54914009Y-149211053D01*
X54993720Y-149206550D01*
X55066320Y-149210271D01*
G37*
G36*
X53257153Y-150261680D02*
G01*
X53560869Y-150261680D01*
X53560869Y-150118797D01*
X53565266Y-150118797D01*
X53608497Y-150178515D01*
X53665936Y-150227487D01*
X53672977Y-150232004D01*
X53741906Y-150264301D01*
X53759805Y-150270106D01*
X53833676Y-150283939D01*
X53864952Y-150285127D01*
X53942242Y-150280754D01*
X54014413Y-150266011D01*
X54060224Y-150248124D01*
X54122966Y-150207155D01*
X54173741Y-150149613D01*
X54176361Y-150145542D01*
X54208873Y-150078647D01*
X54228467Y-150007060D01*
X54231316Y-149990570D01*
X54240093Y-149915817D01*
X54244223Y-149842522D01*
X54244871Y-149797862D01*
X54244871Y-149229998D01*
X53928333Y-149229998D01*
X53928333Y-149733016D01*
X53926398Y-149807582D01*
X53925402Y-149825340D01*
X53911821Y-149897543D01*
X53906351Y-149912901D01*
X53863593Y-149973608D01*
X53857624Y-149978480D01*
X53785774Y-150002870D01*
X53763835Y-150003759D01*
X53690461Y-149993369D01*
X53664550Y-149981777D01*
X53610535Y-149929235D01*
X53606665Y-149922426D01*
X53582573Y-149853203D01*
X53580287Y-149838895D01*
X53574008Y-149763511D01*
X53573692Y-149741442D01*
X53573692Y-149229998D01*
X53257153Y-149229998D01*
X53257153Y-150261680D01*
G37*
G36*
X53040266Y-149229998D02*
G01*
X52736183Y-149229998D01*
X52736183Y-149371781D01*
X52732153Y-149371781D01*
X52690021Y-149312430D01*
X52631794Y-149264059D01*
X52624809Y-149259673D01*
X52556121Y-149227376D01*
X52538347Y-149221571D01*
X52463949Y-149207739D01*
X52432467Y-149206550D01*
X52355307Y-149210923D01*
X52278182Y-149227364D01*
X52238294Y-149243553D01*
X52176159Y-149284603D01*
X52125853Y-149342408D01*
X52123256Y-149346502D01*
X52090584Y-149413134D01*
X52070548Y-149484621D01*
X52067569Y-149501107D01*
X52057843Y-149575860D01*
X52053266Y-149649156D01*
X52052548Y-149693815D01*
X52052548Y-150261680D01*
X52369086Y-150261680D01*
X52369086Y-149758661D01*
X52371263Y-149684337D01*
X52372384Y-149666704D01*
X52385853Y-149594147D01*
X52391435Y-149578776D01*
X52433829Y-149518069D01*
X52439795Y-149513197D01*
X52511645Y-149488807D01*
X52533584Y-149487918D01*
X52607132Y-149498481D01*
X52633235Y-149510266D01*
X52687188Y-149562445D01*
X52691121Y-149569251D01*
X52715644Y-149641299D01*
X52717499Y-149652782D01*
X52723429Y-149728166D01*
X52723727Y-149750235D01*
X52723727Y-150261680D01*
X53040266Y-150261680D01*
X53040266Y-149229998D01*
G37*
G36*
X51075820Y-149342838D02*
G01*
X51080217Y-149342838D01*
X51094431Y-149324926D01*
X51151662Y-149272964D01*
X51220534Y-149237691D01*
X51253035Y-149227108D01*
X51326811Y-149211690D01*
X51405182Y-149206550D01*
X51458511Y-149209390D01*
X51533095Y-149224296D01*
X51601187Y-149251980D01*
X51632696Y-149270097D01*
X51694690Y-149316776D01*
X51748099Y-149373613D01*
X51776423Y-149413111D01*
X51812470Y-149477597D01*
X51840789Y-149548368D01*
X51855054Y-149598056D01*
X51868810Y-149674821D01*
X51873396Y-149754265D01*
X51870555Y-149818291D01*
X51859371Y-149892453D01*
X51837492Y-149968222D01*
X51820329Y-150009435D01*
X51784136Y-150074213D01*
X51735276Y-150136017D01*
X51704860Y-150165444D01*
X51641767Y-150212094D01*
X51575908Y-150245926D01*
X51522089Y-150264876D01*
X51445101Y-150280495D01*
X51369278Y-150285127D01*
X51339864Y-150283939D01*
X51267063Y-150270106D01*
X51245685Y-150263274D01*
X51176204Y-150232004D01*
X51163641Y-150224551D01*
X51104763Y-150179980D01*
X51054938Y-150123194D01*
X51050541Y-150123194D01*
X51050541Y-150261680D01*
X50759282Y-150261680D01*
X50759282Y-149745839D01*
X51050541Y-149745839D01*
X51053732Y-149794224D01*
X51074048Y-149867383D01*
X51117220Y-149932684D01*
X51158780Y-149967042D01*
X51227448Y-149995361D01*
X51303699Y-150003759D01*
X51353838Y-150000358D01*
X51427718Y-149978702D01*
X51490545Y-149932684D01*
X51522600Y-149889021D01*
X51549021Y-149819984D01*
X51556857Y-149745839D01*
X51553684Y-149697470D01*
X51533479Y-149624424D01*
X51490545Y-149559359D01*
X51448955Y-149524825D01*
X51380159Y-149496360D01*
X51303699Y-149487918D01*
X51253703Y-149491337D01*
X51179986Y-149513104D01*
X51117220Y-149559359D01*
X51084987Y-149602845D01*
X51058420Y-149671736D01*
X51050541Y-149745839D01*
X50759282Y-149745839D01*
X50759282Y-148663232D01*
X51075820Y-148663232D01*
X51075820Y-149342838D01*
G37*
G36*
X50513818Y-149229998D02*
G01*
X50197279Y-149229998D01*
X50197279Y-149398525D01*
X50192883Y-149398525D01*
X50152285Y-149333284D01*
X50102258Y-149277838D01*
X50072715Y-149254544D01*
X50004935Y-149221736D01*
X49929689Y-149207722D01*
X49897593Y-149206550D01*
X49842638Y-149211313D01*
X49792080Y-149229998D01*
X49792080Y-149507335D01*
X49858758Y-149492681D01*
X49926902Y-149487918D01*
X50003710Y-149493473D01*
X50070517Y-149513197D01*
X50131628Y-149557653D01*
X50151850Y-149584272D01*
X50181618Y-149655222D01*
X50188853Y-149693082D01*
X50195666Y-149768443D01*
X50197279Y-149832667D01*
X50197279Y-150261680D01*
X50513818Y-150261680D01*
X50513818Y-149229998D01*
G37*
G36*
X49068511Y-150434237D02*
G01*
X49095729Y-150503290D01*
X49125977Y-150573105D01*
X49129693Y-150581149D01*
X49168063Y-150646786D01*
X49204798Y-150688860D01*
X49266964Y-150733447D01*
X49319470Y-150755172D01*
X49394469Y-150771213D01*
X49468495Y-150776975D01*
X49503019Y-150777520D01*
X49578868Y-150773764D01*
X49652999Y-150762494D01*
X49725413Y-150743710D01*
X49739690Y-150739052D01*
X49697192Y-150477102D01*
X49629169Y-150507606D01*
X49554305Y-150519558D01*
X49549547Y-150519600D01*
X49476394Y-150511619D01*
X49463085Y-150507510D01*
X49407398Y-150473072D01*
X49370395Y-150418483D01*
X49340621Y-150348695D01*
X49338521Y-150343379D01*
X49315440Y-150283295D01*
X49764969Y-149229998D01*
X49423151Y-149229998D01*
X49159369Y-149914366D01*
X49154973Y-149914366D01*
X48929292Y-149229998D01*
X48604327Y-149229998D01*
X49068511Y-150434237D01*
G37*
G36*
X47831299Y-148761051D02*
G01*
X47333409Y-148761051D01*
X46989760Y-149740343D01*
X46985363Y-149740343D01*
X46639149Y-148761051D01*
X46143092Y-148761051D01*
X46143092Y-150261680D01*
X46472453Y-150261680D01*
X46472453Y-149110929D01*
X46476483Y-149110929D01*
X46869226Y-150261680D01*
X47120185Y-150261680D01*
X47497907Y-149110929D01*
X47502303Y-149110929D01*
X47502303Y-150261680D01*
X47831299Y-150261680D01*
X47831299Y-148761051D01*
G37*
G36*
X45430940Y-149210271D02*
G01*
X45507660Y-149222960D01*
X45581089Y-149244652D01*
X45631579Y-149265764D01*
X45700873Y-149305160D01*
X45762439Y-149353829D01*
X45803137Y-149395863D01*
X45849376Y-149458940D01*
X45883706Y-149523822D01*
X45908945Y-149594851D01*
X45923707Y-149671421D01*
X45928036Y-149745839D01*
X45923707Y-149820256D01*
X45908945Y-149896826D01*
X45883706Y-149967855D01*
X45859503Y-150015735D01*
X45815557Y-150080942D01*
X45762439Y-150138215D01*
X45716989Y-150175409D01*
X45649627Y-150216977D01*
X45581089Y-150247025D01*
X45514471Y-150267118D01*
X45438050Y-150280625D01*
X45358340Y-150285127D01*
X45285739Y-150281406D01*
X45209020Y-150268718D01*
X45135590Y-150247025D01*
X45085101Y-150225936D01*
X45015806Y-150186661D01*
X44954240Y-150138215D01*
X44913542Y-150096004D01*
X44867303Y-150032780D01*
X44832973Y-149967855D01*
X44807735Y-149896826D01*
X44792972Y-149820256D01*
X44788643Y-149745839D01*
X45105182Y-149745839D01*
X45108373Y-149794224D01*
X45128689Y-149867383D01*
X45171860Y-149932684D01*
X45213421Y-149967042D01*
X45282088Y-149995361D01*
X45358340Y-150003759D01*
X45408353Y-150000358D01*
X45482182Y-149978702D01*
X45545185Y-149932684D01*
X45577241Y-149889021D01*
X45603662Y-149819984D01*
X45611497Y-149745839D01*
X45608324Y-149697470D01*
X45588120Y-149624424D01*
X45545185Y-149559359D01*
X45503448Y-149524825D01*
X45434634Y-149496360D01*
X45358340Y-149487918D01*
X45308343Y-149491337D01*
X45234627Y-149513104D01*
X45171860Y-149559359D01*
X45139628Y-149602845D01*
X45113061Y-149671736D01*
X45105182Y-149745839D01*
X44788643Y-149745839D01*
X44792972Y-149671421D01*
X44807735Y-149594851D01*
X44832973Y-149523822D01*
X44857176Y-149475966D01*
X44901123Y-149410879D01*
X44954240Y-149353829D01*
X44999690Y-149316458D01*
X45067053Y-149274744D01*
X45135590Y-149244652D01*
X45202208Y-149224559D01*
X45278629Y-149211053D01*
X45358340Y-149206550D01*
X45430940Y-149210271D01*
G37*
G36*
X43849652Y-149342838D02*
G01*
X43854048Y-149342838D01*
X43868262Y-149324926D01*
X43925493Y-149272964D01*
X43994366Y-149237691D01*
X44026866Y-149227108D01*
X44100642Y-149211690D01*
X44179013Y-149206550D01*
X44232342Y-149209390D01*
X44306926Y-149224296D01*
X44375018Y-149251980D01*
X44406527Y-149270097D01*
X44468521Y-149316776D01*
X44521930Y-149373613D01*
X44550255Y-149413111D01*
X44586301Y-149477597D01*
X44614620Y-149548368D01*
X44628886Y-149598056D01*
X44642641Y-149674821D01*
X44647227Y-149754265D01*
X44644387Y-149818291D01*
X44633202Y-149892453D01*
X44611323Y-149968222D01*
X44594160Y-150009435D01*
X44557967Y-150074213D01*
X44509107Y-150136017D01*
X44478691Y-150165444D01*
X44415599Y-150212094D01*
X44349739Y-150245926D01*
X44295920Y-150264876D01*
X44218932Y-150280495D01*
X44143109Y-150285127D01*
X44113695Y-150283939D01*
X44040894Y-150270106D01*
X44019516Y-150263274D01*
X43950035Y-150232004D01*
X43937472Y-150224551D01*
X43878594Y-150179980D01*
X43828769Y-150123194D01*
X43824372Y-150123194D01*
X43824372Y-150261680D01*
X43533113Y-150261680D01*
X43533113Y-149745839D01*
X43824372Y-149745839D01*
X43827563Y-149794224D01*
X43847879Y-149867383D01*
X43891051Y-149932684D01*
X43932611Y-149967042D01*
X44001279Y-149995361D01*
X44077530Y-150003759D01*
X44127669Y-150000358D01*
X44201549Y-149978702D01*
X44264376Y-149932684D01*
X44296431Y-149889021D01*
X44322852Y-149819984D01*
X44330688Y-149745839D01*
X44327515Y-149697470D01*
X44307310Y-149624424D01*
X44264376Y-149559359D01*
X44222786Y-149524825D01*
X44153990Y-149496360D01*
X44077530Y-149487918D01*
X44027534Y-149491337D01*
X43953817Y-149513104D01*
X43891051Y-149559359D01*
X43858819Y-149602845D01*
X43832251Y-149671736D01*
X43824372Y-149745839D01*
X43533113Y-149745839D01*
X43533113Y-148663232D01*
X43849652Y-148663232D01*
X43849652Y-149342838D01*
G37*
G36*
X42299931Y-150261680D02*
G01*
X42603647Y-150261680D01*
X42603647Y-150118797D01*
X42608043Y-150118797D01*
X42651274Y-150178515D01*
X42708713Y-150227487D01*
X42715754Y-150232004D01*
X42784684Y-150264301D01*
X42802583Y-150270106D01*
X42876453Y-150283939D01*
X42907729Y-150285127D01*
X42985019Y-150280754D01*
X43057190Y-150266011D01*
X43103001Y-150248124D01*
X43165743Y-150207155D01*
X43216519Y-150149613D01*
X43219139Y-150145542D01*
X43251650Y-150078647D01*
X43271245Y-150007060D01*
X43274093Y-149990570D01*
X43282870Y-149915817D01*
X43287000Y-149842522D01*
X43287649Y-149797862D01*
X43287649Y-149229998D01*
X42971110Y-149229998D01*
X42971110Y-149733016D01*
X42969175Y-149807582D01*
X42968179Y-149825340D01*
X42954598Y-149897543D01*
X42949128Y-149912901D01*
X42906371Y-149973608D01*
X42900402Y-149978480D01*
X42828551Y-150002870D01*
X42806613Y-150003759D01*
X42733238Y-149993369D01*
X42707328Y-149981777D01*
X42653313Y-149929235D01*
X42649442Y-149922426D01*
X42625350Y-149853203D01*
X42623064Y-149838895D01*
X42616785Y-149763511D01*
X42616469Y-149741442D01*
X42616469Y-149229998D01*
X42299931Y-149229998D01*
X42299931Y-150261680D01*
G37*
G36*
X42078647Y-148666163D02*
G01*
X41762108Y-148666163D01*
X41762108Y-150261680D01*
X42078647Y-150261680D01*
X42078647Y-148666163D01*
G37*
G36*
X41087279Y-149206708D02*
G01*
X41165175Y-149212218D01*
X41241496Y-149225598D01*
X41316243Y-149246850D01*
X41330874Y-149252045D01*
X41400598Y-149282743D01*
X41464597Y-149321311D01*
X41522872Y-149367751D01*
X41354345Y-149539942D01*
X41303705Y-149492018D01*
X41239306Y-149450549D01*
X41171437Y-149425819D01*
X41096790Y-149417576D01*
X41019946Y-149430307D01*
X40954275Y-149468501D01*
X40950578Y-149471695D01*
X40907393Y-149532249D01*
X40894191Y-149605155D01*
X40962610Y-149605704D01*
X41036707Y-149607353D01*
X41113643Y-149611658D01*
X41190580Y-149620176D01*
X41266234Y-149633456D01*
X41339324Y-149652782D01*
X41403182Y-149677678D01*
X41467185Y-149715430D01*
X41511564Y-149754760D01*
X41555845Y-149817280D01*
X41581287Y-149890145D01*
X41588451Y-149967489D01*
X41582841Y-150032444D01*
X41559142Y-150105242D01*
X41531584Y-150150083D01*
X41478908Y-150204527D01*
X41431404Y-150235932D01*
X41361672Y-150264977D01*
X41298034Y-150279440D01*
X41223186Y-150285127D01*
X41187114Y-150283890D01*
X41111254Y-150272728D01*
X41038539Y-150249956D01*
X41006927Y-150235170D01*
X40946830Y-150192175D01*
X40898221Y-150134185D01*
X40894191Y-150134185D01*
X40894191Y-150261680D01*
X40602931Y-150261680D01*
X40602931Y-149883225D01*
X40894191Y-149883225D01*
X40894506Y-149895115D01*
X40914341Y-149967123D01*
X40916870Y-149971516D01*
X40968197Y-150025741D01*
X40976772Y-150031351D01*
X41045133Y-150061645D01*
X41061461Y-150065878D01*
X41134892Y-150074101D01*
X41164249Y-150071956D01*
X41236375Y-150046990D01*
X41257533Y-150031442D01*
X41284735Y-149963093D01*
X41283886Y-149947284D01*
X41249931Y-149881393D01*
X41234002Y-149869129D01*
X41165667Y-149837063D01*
X41137321Y-149829747D01*
X41061986Y-149819478D01*
X41045594Y-149818528D01*
X40972227Y-149816181D01*
X40894191Y-149816181D01*
X40894191Y-149883225D01*
X40602931Y-149883225D01*
X40602931Y-149738511D01*
X40604612Y-149668199D01*
X40611232Y-149588874D01*
X40624181Y-149510633D01*
X40631511Y-149480587D01*
X40658106Y-149409499D01*
X40698919Y-149344303D01*
X40716625Y-149323928D01*
X40775530Y-149275442D01*
X40842534Y-149241721D01*
X40848192Y-149239558D01*
X40923626Y-149218950D01*
X40997113Y-149209332D01*
X41071511Y-149206550D01*
X41087279Y-149206708D01*
G37*
G36*
X40410957Y-149229998D02*
G01*
X40094418Y-149229998D01*
X40094418Y-149398525D01*
X40090021Y-149398525D01*
X40049424Y-149333284D01*
X39999396Y-149277838D01*
X39969854Y-149254544D01*
X39902074Y-149221736D01*
X39826828Y-149207722D01*
X39794732Y-149206550D01*
X39739777Y-149211313D01*
X39689219Y-149229998D01*
X39689219Y-149507335D01*
X39755897Y-149492681D01*
X39824041Y-149487918D01*
X39900849Y-149493473D01*
X39967656Y-149513197D01*
X40028767Y-149557653D01*
X40048989Y-149584272D01*
X40078757Y-149655222D01*
X40085991Y-149693082D01*
X40092805Y-149768443D01*
X40094418Y-149832667D01*
X40094418Y-150261680D01*
X40410957Y-150261680D01*
X40410957Y-149229998D01*
G37*
D11*
G36*
X54538328Y-111914360D02*
G01*
X53990002Y-111914360D01*
X53990002Y-110937388D01*
X53718893Y-110937388D01*
X53198656Y-111914360D01*
X52541032Y-111914360D01*
X53173621Y-110880602D01*
X53094289Y-110861586D01*
X52967121Y-110810377D01*
X52860045Y-110737337D01*
X52773062Y-110642465D01*
X52719530Y-110556062D01*
X52670022Y-110433637D01*
X52644262Y-110314111D01*
X52635676Y-110184510D01*
X52635860Y-110180846D01*
X53205372Y-110180846D01*
X53207476Y-110224811D01*
X53249336Y-110345099D01*
X53260689Y-110359124D01*
X53360466Y-110430584D01*
X53386005Y-110439908D01*
X53510065Y-110462946D01*
X53540677Y-110464814D01*
X53666381Y-110468442D01*
X53990002Y-110468442D01*
X53990002Y-109882259D01*
X53630965Y-109882259D01*
X53603152Y-109882645D01*
X53480145Y-109893250D01*
X53461035Y-109896313D01*
X53342759Y-109935382D01*
X53335362Y-109939308D01*
X53244451Y-110024530D01*
X53225560Y-110060348D01*
X53205372Y-110180846D01*
X52635860Y-110180846D01*
X52641665Y-110065284D01*
X52665252Y-109935306D01*
X52711391Y-109813260D01*
X52741630Y-109759537D01*
X52819816Y-109657863D01*
X52915334Y-109576345D01*
X52973479Y-109540302D01*
X53092314Y-109486233D01*
X53214531Y-109451170D01*
X53322914Y-109431206D01*
X53446543Y-109417786D01*
X53574790Y-109413313D01*
X54538328Y-109413313D01*
X54538328Y-111914360D01*
G37*
G36*
X51040770Y-110047123D02*
G01*
X51137106Y-109962559D01*
X51222120Y-109922559D01*
X51346713Y-109889973D01*
X51438275Y-109882259D01*
X51561618Y-109896303D01*
X51677742Y-109938412D01*
X51681297Y-109940267D01*
X51772888Y-110019646D01*
X51807693Y-110138714D01*
X51774777Y-110259166D01*
X51723429Y-110311516D01*
X51614228Y-110373232D01*
X51510327Y-110413487D01*
X51385820Y-110452986D01*
X51261867Y-110489851D01*
X51234332Y-110497751D01*
X51117497Y-110537828D01*
X50998886Y-110594061D01*
X50958338Y-110617430D01*
X50854554Y-110695335D01*
X50767600Y-110793342D01*
X50745847Y-110825036D01*
X50690894Y-110945221D01*
X50666277Y-111069585D01*
X50660972Y-111173082D01*
X50668545Y-111297708D01*
X50694369Y-111422951D01*
X50738519Y-111535783D01*
X50804322Y-111644261D01*
X50885409Y-111737970D01*
X50947958Y-111792238D01*
X51052801Y-111861246D01*
X51169494Y-111915314D01*
X51253872Y-111943058D01*
X51375822Y-111971217D01*
X51502389Y-111987687D01*
X51621457Y-111992517D01*
X51755060Y-111986625D01*
X51883157Y-111968947D01*
X52005748Y-111939484D01*
X52071475Y-111918023D01*
X52186032Y-111869219D01*
X52296145Y-111805924D01*
X52401814Y-111728140D01*
X52458600Y-111678665D01*
X52067811Y-111248798D01*
X51979154Y-111343430D01*
X51871177Y-111415522D01*
X51855320Y-111423431D01*
X51732790Y-111467259D01*
X51606772Y-111484254D01*
X51589706Y-111484492D01*
X51466963Y-111471453D01*
X51454151Y-111468616D01*
X51338267Y-111424896D01*
X51331419Y-111420989D01*
X51243492Y-111340389D01*
X51209908Y-111224373D01*
X51243539Y-111102014D01*
X51296004Y-111046687D01*
X51406772Y-110979561D01*
X51512159Y-110936167D01*
X51630051Y-110896096D01*
X51746848Y-110858887D01*
X51793649Y-110844576D01*
X51913159Y-110802127D01*
X52025615Y-110749197D01*
X52075138Y-110721233D01*
X52180525Y-110644030D01*
X52269083Y-110548126D01*
X52291293Y-110517290D01*
X52347037Y-110401191D01*
X52373269Y-110270230D01*
X52377389Y-110183288D01*
X52368081Y-110051093D01*
X52340159Y-109930731D01*
X52298621Y-109831579D01*
X52231702Y-109724961D01*
X52150014Y-109632254D01*
X52087351Y-109578177D01*
X51982765Y-109508911D01*
X51866845Y-109454071D01*
X51783268Y-109425525D01*
X51663313Y-109396323D01*
X51541048Y-109379243D01*
X51427895Y-109374234D01*
X51297282Y-109380078D01*
X51169532Y-109397609D01*
X51044644Y-109426827D01*
X51020009Y-109434073D01*
X50900559Y-109479463D01*
X50788742Y-109540834D01*
X50684557Y-109618186D01*
X50664636Y-109635574D01*
X51040770Y-110047123D01*
G37*
G36*
X49782309Y-109882259D02*
G01*
X50493055Y-109882259D01*
X50493055Y-109413313D01*
X48523237Y-109413313D01*
X48523237Y-109882259D01*
X49233984Y-109882259D01*
X49233984Y-111914360D01*
X49782309Y-111914360D01*
X49782309Y-109882259D01*
G37*
G36*
X55846788Y-89504442D02*
G01*
X55937158Y-89417125D01*
X56045846Y-89353011D01*
X56164378Y-89315319D01*
X56289533Y-89300961D01*
X56318177Y-89300499D01*
X56440362Y-89310375D01*
X56563380Y-89343100D01*
X56605162Y-89360339D01*
X56713788Y-89421814D01*
X56808857Y-89501522D01*
X56833529Y-89527645D01*
X56909998Y-89628975D01*
X56970573Y-89745966D01*
X56984960Y-89782268D01*
X57020146Y-89905964D01*
X57036704Y-90027480D01*
X57039304Y-90101616D01*
X57031662Y-90229299D01*
X57006135Y-90358127D01*
X56984960Y-90423406D01*
X56933759Y-90535234D01*
X56863969Y-90641689D01*
X56835361Y-90676197D01*
X56745702Y-90760697D01*
X56635632Y-90831259D01*
X56611879Y-90842893D01*
X56495940Y-90883798D01*
X56372521Y-90901797D01*
X56335885Y-90902732D01*
X56205305Y-90891143D01*
X56087422Y-90856376D01*
X56037298Y-90832512D01*
X55931844Y-90760201D01*
X55844155Y-90666150D01*
X55822364Y-90635286D01*
X55365019Y-90976616D01*
X55449398Y-91080495D01*
X55544385Y-91169873D01*
X55649982Y-91244748D01*
X55766188Y-91305122D01*
X55888310Y-91351338D01*
X56012263Y-91384348D01*
X56138048Y-91404155D01*
X56265665Y-91410757D01*
X56391167Y-91406374D01*
X56529231Y-91390632D01*
X56661570Y-91363441D01*
X56788185Y-91324801D01*
X56803610Y-91319166D01*
X56922487Y-91268448D01*
X57033045Y-91207883D01*
X57135284Y-91137472D01*
X57229203Y-91057216D01*
X57314001Y-90967266D01*
X57388877Y-90868385D01*
X57453830Y-90760575D01*
X57508861Y-90643835D01*
X57552672Y-90518813D01*
X57583966Y-90386769D01*
X57601079Y-90265471D01*
X57608609Y-90138796D01*
X57609001Y-90101616D01*
X57604209Y-89973434D01*
X57589833Y-89850687D01*
X57561669Y-89717059D01*
X57520987Y-89590530D01*
X57508861Y-89560007D01*
X57453830Y-89443038D01*
X57388877Y-89335151D01*
X57314001Y-89236347D01*
X57229203Y-89146626D01*
X57135284Y-89066102D01*
X57033045Y-88995501D01*
X56922487Y-88934822D01*
X56803610Y-88884065D01*
X56677710Y-88843994D01*
X56546086Y-88815372D01*
X56408738Y-88798198D01*
X56283862Y-88792563D01*
X56265665Y-88792474D01*
X56137210Y-88799362D01*
X56045846Y-88812013D01*
X55925560Y-88839150D01*
X55821143Y-88873685D01*
X55705652Y-88926549D01*
X55608041Y-88986647D01*
X55511260Y-89064957D01*
X55424859Y-89159449D01*
X55846788Y-89504442D01*
G37*
G36*
X55058495Y-88831553D02*
G01*
X54509559Y-88831553D01*
X54509559Y-90824574D01*
X53493509Y-90824574D01*
X53493509Y-91332600D01*
X55058495Y-91332600D01*
X55058495Y-88831553D01*
G37*
G36*
X52009612Y-88792563D02*
G01*
X52134488Y-88798198D01*
X52271836Y-88815372D01*
X52403460Y-88843994D01*
X52529360Y-88884065D01*
X52648237Y-88934822D01*
X52758796Y-88995501D01*
X52861034Y-89066102D01*
X52954953Y-89146626D01*
X53039751Y-89236347D01*
X53114627Y-89335151D01*
X53179580Y-89443038D01*
X53234611Y-89560007D01*
X53246737Y-89590530D01*
X53287419Y-89717059D01*
X53315583Y-89850687D01*
X53329959Y-89973434D01*
X53334751Y-90101616D01*
X53334360Y-90138796D01*
X53326829Y-90265471D01*
X53309716Y-90386769D01*
X53278422Y-90518813D01*
X53234611Y-90643835D01*
X53179580Y-90760575D01*
X53114627Y-90868385D01*
X53039751Y-90967266D01*
X52954953Y-91057216D01*
X52861034Y-91137472D01*
X52758796Y-91207883D01*
X52648237Y-91268448D01*
X52529360Y-91319166D01*
X52513936Y-91324801D01*
X52387320Y-91363441D01*
X52254981Y-91390632D01*
X52116917Y-91406374D01*
X51991415Y-91410757D01*
X51973218Y-91410668D01*
X51848342Y-91405033D01*
X51710994Y-91387859D01*
X51579370Y-91359237D01*
X51453470Y-91319166D01*
X51334593Y-91268448D01*
X51224035Y-91207883D01*
X51121796Y-91137472D01*
X51027877Y-91057216D01*
X50943079Y-90967266D01*
X50868203Y-90868385D01*
X50803250Y-90760575D01*
X50748219Y-90643835D01*
X50736093Y-90613238D01*
X50695411Y-90486460D01*
X50667247Y-90352661D01*
X50652871Y-90229826D01*
X50648079Y-90101616D01*
X51217776Y-90101616D01*
X51220405Y-90177120D01*
X51237149Y-90299895D01*
X51272730Y-90423406D01*
X51287061Y-90459145D01*
X51348937Y-90574917D01*
X51429046Y-90676197D01*
X51461896Y-90708442D01*
X51564344Y-90786513D01*
X51673289Y-90842893D01*
X51737139Y-90866209D01*
X51864247Y-90894317D01*
X51991415Y-90902732D01*
X52066744Y-90899869D01*
X52188403Y-90881636D01*
X52309541Y-90842893D01*
X52344480Y-90827198D01*
X52456846Y-90760697D01*
X52553784Y-90676197D01*
X52584502Y-90641689D01*
X52658300Y-90535234D01*
X52710710Y-90423406D01*
X52731885Y-90358127D01*
X52757412Y-90229299D01*
X52765054Y-90101616D01*
X52762454Y-90027480D01*
X52745896Y-89905964D01*
X52710710Y-89782268D01*
X52692389Y-89737090D01*
X52634010Y-89628975D01*
X52553784Y-89527645D01*
X52520934Y-89495224D01*
X52418486Y-89416818D01*
X52309541Y-89360339D01*
X52245691Y-89337022D01*
X52118583Y-89308914D01*
X51991415Y-89300499D01*
X51916086Y-89303362D01*
X51794427Y-89321595D01*
X51673289Y-89360339D01*
X51638351Y-89376043D01*
X51525985Y-89442728D01*
X51429046Y-89527645D01*
X51398343Y-89562036D01*
X51324745Y-89668959D01*
X51272730Y-89782268D01*
X51251317Y-89847847D01*
X51225504Y-89975993D01*
X51217776Y-90101616D01*
X50648079Y-90101616D01*
X50648471Y-90064438D01*
X50656001Y-89937809D01*
X50673114Y-89816615D01*
X50704408Y-89684762D01*
X50748219Y-89560007D01*
X50803250Y-89443038D01*
X50868203Y-89335151D01*
X50943079Y-89236347D01*
X51027877Y-89146626D01*
X51121796Y-89066102D01*
X51224035Y-88995501D01*
X51334593Y-88934822D01*
X51453470Y-88884065D01*
X51468895Y-88878430D01*
X51595510Y-88839790D01*
X51727849Y-88812599D01*
X51865913Y-88796857D01*
X51991415Y-88792474D01*
X52009612Y-88792563D01*
G37*
G36*
X48661164Y-89504442D02*
G01*
X48751534Y-89417125D01*
X48860222Y-89353011D01*
X48978753Y-89315319D01*
X49103909Y-89300961D01*
X49132552Y-89300499D01*
X49254737Y-89310375D01*
X49377755Y-89343100D01*
X49419538Y-89360339D01*
X49528164Y-89421814D01*
X49623233Y-89501522D01*
X49647905Y-89527645D01*
X49724374Y-89628975D01*
X49784948Y-89745966D01*
X49799335Y-89782268D01*
X49834521Y-89905964D01*
X49851079Y-90027480D01*
X49853680Y-90101616D01*
X49846037Y-90229299D01*
X49820511Y-90358127D01*
X49799335Y-90423406D01*
X49748135Y-90535234D01*
X49678344Y-90641689D01*
X49649737Y-90676197D01*
X49560078Y-90760697D01*
X49450007Y-90831259D01*
X49426255Y-90842893D01*
X49310315Y-90883798D01*
X49186897Y-90901797D01*
X49150260Y-90902732D01*
X49019680Y-90891143D01*
X48901798Y-90856376D01*
X48851673Y-90832512D01*
X48746219Y-90760201D01*
X48658531Y-90666150D01*
X48636740Y-90635286D01*
X48179395Y-90976616D01*
X48263773Y-91080495D01*
X48358761Y-91169873D01*
X48464357Y-91244748D01*
X48580564Y-91305122D01*
X48702685Y-91351338D01*
X48826638Y-91384348D01*
X48952423Y-91404155D01*
X49080040Y-91410757D01*
X49205542Y-91406374D01*
X49343606Y-91390632D01*
X49475946Y-91363441D01*
X49602561Y-91324801D01*
X49617985Y-91319166D01*
X49736863Y-91268448D01*
X49847421Y-91207883D01*
X49949659Y-91137472D01*
X50043578Y-91057216D01*
X50128376Y-90967266D01*
X50203252Y-90868385D01*
X50268205Y-90760575D01*
X50323236Y-90643835D01*
X50367047Y-90518813D01*
X50398341Y-90386769D01*
X50415455Y-90265471D01*
X50422985Y-90138796D01*
X50423376Y-90101616D01*
X50418584Y-89973434D01*
X50404209Y-89850687D01*
X50376044Y-89717059D01*
X50335363Y-89590530D01*
X50323236Y-89560007D01*
X50268205Y-89443038D01*
X50203252Y-89335151D01*
X50128376Y-89236347D01*
X50043578Y-89146626D01*
X49949659Y-89066102D01*
X49847421Y-88995501D01*
X49736863Y-88934822D01*
X49617985Y-88884065D01*
X49492086Y-88843994D01*
X49360462Y-88815372D01*
X49223113Y-88798198D01*
X49098237Y-88792563D01*
X49080040Y-88792474D01*
X48951585Y-88799362D01*
X48860222Y-88812013D01*
X48739936Y-88839150D01*
X48635518Y-88873685D01*
X48520027Y-88926549D01*
X48422416Y-88986647D01*
X48325635Y-89064957D01*
X48239234Y-89159449D01*
X48661164Y-89504442D01*
G37*
G36*
X47872870Y-88831553D02*
G01*
X47323934Y-88831553D01*
X47323934Y-89870195D01*
X46356733Y-88831553D01*
X45639269Y-88831553D01*
X46747521Y-89993538D01*
X45544625Y-91332600D01*
X46310937Y-91332600D01*
X47323934Y-90145579D01*
X47323934Y-91332600D01*
X47872870Y-91332600D01*
X47872870Y-88831553D01*
G37*
G36*
X63583164Y-39393363D02*
G01*
X62924441Y-39393363D01*
X62924441Y-41784989D01*
X61705181Y-41784989D01*
X61705181Y-42394620D01*
X63583164Y-42394620D01*
X63583164Y-39393363D01*
G37*
G36*
X60516083Y-40291803D02*
G01*
X60669522Y-40317180D01*
X60816381Y-40360565D01*
X60917361Y-40402789D01*
X61055949Y-40481580D01*
X61179082Y-40578918D01*
X61260477Y-40662986D01*
X61352956Y-40789141D01*
X61421615Y-40918904D01*
X61472093Y-41060962D01*
X61501617Y-41214102D01*
X61510275Y-41362938D01*
X61501617Y-41511773D01*
X61472093Y-41664913D01*
X61421615Y-41806971D01*
X61373209Y-41902730D01*
X61285316Y-42033144D01*
X61179082Y-42147690D01*
X61088181Y-42222078D01*
X60953457Y-42305214D01*
X60816381Y-42365310D01*
X60683145Y-42405496D01*
X60530304Y-42432510D01*
X60370882Y-42441514D01*
X60225682Y-42434072D01*
X60072243Y-42408696D01*
X59925384Y-42365310D01*
X59824404Y-42323133D01*
X59685816Y-42244582D01*
X59562683Y-42147690D01*
X59481288Y-42063268D01*
X59388809Y-41936821D01*
X59320150Y-41806971D01*
X59269672Y-41664913D01*
X59240148Y-41511773D01*
X59231490Y-41362938D01*
X59864567Y-41362938D01*
X59870948Y-41459709D01*
X59911580Y-41606026D01*
X59997924Y-41736629D01*
X60081045Y-41805344D01*
X60218380Y-41861982D01*
X60370882Y-41878779D01*
X60470910Y-41871977D01*
X60618566Y-41828665D01*
X60744574Y-41736629D01*
X60808684Y-41649303D01*
X60861527Y-41511229D01*
X60877198Y-41362938D01*
X60870852Y-41266201D01*
X60830443Y-41120108D01*
X60744574Y-40989979D01*
X60661099Y-40920910D01*
X60523472Y-40863980D01*
X60370882Y-40847097D01*
X60270890Y-40853934D01*
X60123457Y-40897468D01*
X59997924Y-40989979D01*
X59933459Y-41076951D01*
X59880325Y-41214733D01*
X59864567Y-41362938D01*
X59231490Y-41362938D01*
X59240148Y-41214102D01*
X59269672Y-41060962D01*
X59320150Y-40918904D01*
X59368556Y-40823192D01*
X59456449Y-40693018D01*
X59562683Y-40578918D01*
X59653583Y-40504176D01*
X59788308Y-40420748D01*
X59925384Y-40360565D01*
X60058620Y-40320379D01*
X60211461Y-40293366D01*
X60370882Y-40284361D01*
X60516083Y-40291803D01*
G37*
G36*
X57954464Y-40291803D02*
G01*
X58107903Y-40317180D01*
X58254762Y-40360565D01*
X58355742Y-40402789D01*
X58494330Y-40481580D01*
X58617463Y-40578918D01*
X58698858Y-40662986D01*
X58791337Y-40789141D01*
X58859996Y-40918904D01*
X58910474Y-41060962D01*
X58939998Y-41214102D01*
X58948656Y-41362938D01*
X58939998Y-41511773D01*
X58910474Y-41664913D01*
X58859996Y-41806971D01*
X58811590Y-41902730D01*
X58723697Y-42033144D01*
X58617463Y-42147690D01*
X58526563Y-42222078D01*
X58391838Y-42305214D01*
X58254762Y-42365310D01*
X58121526Y-42405496D01*
X57968685Y-42432510D01*
X57809263Y-42441514D01*
X57664063Y-42434072D01*
X57510624Y-42408696D01*
X57363765Y-42365310D01*
X57262785Y-42323133D01*
X57124197Y-42244582D01*
X57001064Y-42147690D01*
X56919669Y-42063268D01*
X56827190Y-41936821D01*
X56758531Y-41806971D01*
X56708053Y-41664913D01*
X56678529Y-41511773D01*
X56669871Y-41362938D01*
X57302948Y-41362938D01*
X57309329Y-41459709D01*
X57349961Y-41606026D01*
X57436305Y-41736629D01*
X57519426Y-41805344D01*
X57656761Y-41861982D01*
X57809263Y-41878779D01*
X57909291Y-41871977D01*
X58056947Y-41828665D01*
X58182955Y-41736629D01*
X58247065Y-41649303D01*
X58299908Y-41511229D01*
X58315579Y-41362938D01*
X58309233Y-41266201D01*
X58268824Y-41120108D01*
X58182955Y-40989979D01*
X58099480Y-40920910D01*
X57961853Y-40863980D01*
X57809263Y-40847097D01*
X57709271Y-40853934D01*
X57561838Y-40897468D01*
X57436305Y-40989979D01*
X57371840Y-41076951D01*
X57318706Y-41214733D01*
X57302948Y-41362938D01*
X56669871Y-41362938D01*
X56678529Y-41214102D01*
X56708053Y-41060962D01*
X56758531Y-40918904D01*
X56806937Y-40823192D01*
X56894830Y-40693018D01*
X57001064Y-40578918D01*
X57091964Y-40504176D01*
X57226689Y-40420748D01*
X57363765Y-40360565D01*
X57497001Y-40320379D01*
X57649842Y-40293366D01*
X57809263Y-40284361D01*
X57954464Y-40291803D01*
G37*
G36*
X55093439Y-40286738D02*
G01*
X55239584Y-40314403D01*
X55281233Y-40328067D01*
X55419103Y-40390607D01*
X55444248Y-40405301D01*
X55562718Y-40493922D01*
X55661636Y-40606029D01*
X55670429Y-40606029D01*
X55670429Y-40331256D01*
X56252215Y-40331256D01*
X56252215Y-43379407D01*
X55619138Y-43379407D01*
X55619138Y-42168939D01*
X55610345Y-42168939D01*
X55582089Y-42204774D01*
X55468047Y-42308919D01*
X55330443Y-42379965D01*
X55265219Y-42400882D01*
X55117537Y-42431356D01*
X54961148Y-42441514D01*
X54854169Y-42435835D01*
X54704693Y-42406023D01*
X54568405Y-42350656D01*
X54505413Y-42314420D01*
X54381657Y-42221063D01*
X54275314Y-42107390D01*
X54218665Y-42028438D01*
X54146571Y-41899707D01*
X54089933Y-41758611D01*
X54061082Y-41658914D01*
X54033261Y-41505076D01*
X54024971Y-41362938D01*
X54657065Y-41362938D01*
X54663447Y-41459709D01*
X54704079Y-41606026D01*
X54790422Y-41736629D01*
X54873543Y-41805344D01*
X55010878Y-41861982D01*
X55163381Y-41878779D01*
X55263408Y-41871977D01*
X55411064Y-41828665D01*
X55537072Y-41736629D01*
X55601182Y-41649303D01*
X55654025Y-41511229D01*
X55669696Y-41362938D01*
X55663350Y-41266201D01*
X55622941Y-41120108D01*
X55537072Y-40989979D01*
X55453597Y-40920910D01*
X55315970Y-40863980D01*
X55163381Y-40847097D01*
X55063388Y-40853934D01*
X54915955Y-40897468D01*
X54790422Y-40989979D01*
X54725958Y-41076951D01*
X54672823Y-41214733D01*
X54657065Y-41362938D01*
X54024971Y-41362938D01*
X54023988Y-41346085D01*
X54029668Y-41218090D01*
X54052038Y-41069995D01*
X54095795Y-40918904D01*
X54130156Y-40836192D01*
X54202765Y-40706311D01*
X54300959Y-40582582D01*
X54361542Y-40523727D01*
X54487633Y-40430426D01*
X54619696Y-40362763D01*
X54727334Y-40324864D01*
X54881310Y-40293626D01*
X55032955Y-40284361D01*
X55093439Y-40286738D01*
G37*
G36*
X51633095Y-40200830D02*
G01*
X51741538Y-40096050D01*
X51871964Y-40019114D01*
X52014202Y-39973883D01*
X52164389Y-39956653D01*
X52198761Y-39956099D01*
X52345383Y-39967950D01*
X52493004Y-40007220D01*
X52543143Y-40027906D01*
X52673495Y-40101677D01*
X52787577Y-40197327D01*
X52817184Y-40228674D01*
X52908947Y-40350270D01*
X52981636Y-40490659D01*
X52998901Y-40534222D01*
X53041123Y-40682657D01*
X53060993Y-40828476D01*
X53064113Y-40917439D01*
X53054943Y-41070659D01*
X53024311Y-41225253D01*
X52998901Y-41303587D01*
X52937459Y-41437780D01*
X52853711Y-41565527D01*
X52819382Y-41606936D01*
X52711791Y-41708336D01*
X52579707Y-41793011D01*
X52551203Y-41806971D01*
X52412077Y-41856058D01*
X52263974Y-41877657D01*
X52220010Y-41878779D01*
X52063314Y-41864872D01*
X51921855Y-41823151D01*
X51861706Y-41794515D01*
X51735161Y-41707741D01*
X51629935Y-41594881D01*
X51603785Y-41557844D01*
X51054972Y-41967439D01*
X51156226Y-42092094D01*
X51270211Y-42199347D01*
X51396927Y-42289198D01*
X51536374Y-42361647D01*
X51682920Y-42417105D01*
X51831664Y-42456718D01*
X51982606Y-42480486D01*
X52135746Y-42488409D01*
X52286349Y-42483149D01*
X52452025Y-42464259D01*
X52610833Y-42431629D01*
X52762771Y-42385261D01*
X52781280Y-42378499D01*
X52923933Y-42317637D01*
X53056603Y-42244960D01*
X53179289Y-42160467D01*
X53291992Y-42064159D01*
X53393750Y-41956219D01*
X53483601Y-41837563D01*
X53561545Y-41708190D01*
X53627582Y-41568102D01*
X53680155Y-41418076D01*
X53717707Y-41259623D01*
X53738244Y-41114065D01*
X53747280Y-40962055D01*
X53747749Y-40917439D01*
X53741999Y-40763621D01*
X53724748Y-40616325D01*
X53690951Y-40455971D01*
X53642133Y-40304136D01*
X53627582Y-40267509D01*
X53561545Y-40127145D01*
X53483601Y-39997681D01*
X53393750Y-39879117D01*
X53291992Y-39771451D01*
X53179289Y-39674823D01*
X53056603Y-39590101D01*
X52923933Y-39517286D01*
X52781280Y-39456378D01*
X52630201Y-39408293D01*
X52472252Y-39373946D01*
X52307434Y-39353338D01*
X52157583Y-39346576D01*
X52135746Y-39346469D01*
X51981600Y-39354735D01*
X51871964Y-39369916D01*
X51727621Y-39402480D01*
X51602320Y-39443922D01*
X51463731Y-39507359D01*
X51346598Y-39579476D01*
X51230460Y-39673449D01*
X51126779Y-39786839D01*
X51633095Y-40200830D01*
G37*
G36*
X50792655Y-40331256D02*
G01*
X50159578Y-40331256D01*
X50159578Y-40668311D01*
X50150785Y-40668311D01*
X50069589Y-40537828D01*
X49969535Y-40426936D01*
X49910450Y-40380349D01*
X49774889Y-40314732D01*
X49624398Y-40286705D01*
X49560206Y-40284361D01*
X49450296Y-40293887D01*
X49349180Y-40331256D01*
X49349180Y-40885931D01*
X49482536Y-40856622D01*
X49618824Y-40847097D01*
X49772439Y-40858206D01*
X49906053Y-40897655D01*
X50028276Y-40986567D01*
X50068719Y-41039804D01*
X50128256Y-41181705D01*
X50142725Y-41257425D01*
X50156352Y-41408146D01*
X50159578Y-41536594D01*
X50159578Y-42394620D01*
X50792655Y-42394620D01*
X50792655Y-40331256D01*
G37*
G36*
X48182705Y-40284676D02*
G01*
X48338495Y-40295696D01*
X48491137Y-40322457D01*
X48640631Y-40364961D01*
X48669895Y-40375351D01*
X48809342Y-40436746D01*
X48937341Y-40513883D01*
X49053890Y-40606762D01*
X48716835Y-40951144D01*
X48615555Y-40855296D01*
X48486758Y-40772359D01*
X48351020Y-40722899D01*
X48201727Y-40706413D01*
X48048037Y-40731875D01*
X47916695Y-40808262D01*
X47909302Y-40814651D01*
X47822932Y-40935758D01*
X47796528Y-41081570D01*
X47933365Y-41082669D01*
X48081559Y-41085966D01*
X48235432Y-41094576D01*
X48389305Y-41111612D01*
X48540614Y-41138173D01*
X48686793Y-41176825D01*
X48814509Y-41226617D01*
X48942515Y-41302121D01*
X49031273Y-41380781D01*
X49119836Y-41505820D01*
X49170720Y-41651550D01*
X49185049Y-41806238D01*
X49173829Y-41936149D01*
X49126430Y-42081744D01*
X49071315Y-42171427D01*
X48965963Y-42280314D01*
X48870954Y-42343125D01*
X48731490Y-42401214D01*
X48604214Y-42430140D01*
X48454518Y-42441514D01*
X48382373Y-42439041D01*
X48230654Y-42416716D01*
X48085223Y-42371172D01*
X48021999Y-42341600D01*
X47901805Y-42255610D01*
X47804588Y-42139630D01*
X47796528Y-42139630D01*
X47796528Y-42394620D01*
X47214009Y-42394620D01*
X47214009Y-41637711D01*
X47796528Y-41637711D01*
X47797158Y-41661490D01*
X47836828Y-41805506D01*
X47841886Y-41814293D01*
X47944539Y-41922742D01*
X47961690Y-41933962D01*
X48098412Y-41994550D01*
X48131067Y-42003016D01*
X48277931Y-42019462D01*
X48336644Y-42015173D01*
X48480896Y-41965241D01*
X48523211Y-41934145D01*
X48577617Y-41797446D01*
X48575917Y-41765829D01*
X48508007Y-41634047D01*
X48476151Y-41609519D01*
X48339480Y-41545387D01*
X48282789Y-41530755D01*
X48132118Y-41510216D01*
X48099334Y-41508316D01*
X47952599Y-41503622D01*
X47796528Y-41503622D01*
X47796528Y-41637711D01*
X47214009Y-41637711D01*
X47214009Y-41348283D01*
X47217370Y-41207659D01*
X47230610Y-41049009D01*
X47256507Y-40892526D01*
X47271169Y-40832434D01*
X47324359Y-40690259D01*
X47405984Y-40559867D01*
X47441396Y-40519116D01*
X47559205Y-40422144D01*
X47693213Y-40354703D01*
X47704530Y-40350376D01*
X47855397Y-40309160D01*
X48002372Y-40289925D01*
X48151169Y-40284361D01*
X48182705Y-40284676D01*
G37*
G36*
X46610240Y-40847097D02*
G01*
X47027896Y-40847097D01*
X47027896Y-40331256D01*
X46610240Y-40331256D01*
X46610240Y-39973684D01*
X46603800Y-39821937D01*
X46582735Y-39669300D01*
X46580931Y-39660077D01*
X46533709Y-39512948D01*
X46466626Y-39399958D01*
X46356209Y-39294285D01*
X46224093Y-39223370D01*
X46079173Y-39181622D01*
X45931047Y-39162920D01*
X45808635Y-39158890D01*
X45659496Y-39163810D01*
X45618859Y-39166950D01*
X45470544Y-39188271D01*
X45437142Y-39195527D01*
X45466451Y-39717229D01*
X45568300Y-39685722D01*
X45673081Y-39674731D01*
X45820428Y-39695365D01*
X45901692Y-39739944D01*
X45966550Y-39874984D01*
X45977163Y-40007390D01*
X45977163Y-40331256D01*
X45508949Y-40331256D01*
X45508949Y-40847097D01*
X45977163Y-40847097D01*
X45977163Y-42394620D01*
X46610240Y-42394620D01*
X46610240Y-40847097D01*
G37*
G36*
X43879361Y-40847097D02*
G01*
X44436235Y-40847097D01*
X44436235Y-41540258D01*
X44429151Y-41688120D01*
X44428175Y-41697062D01*
X44390073Y-41818695D01*
X44299947Y-41897830D01*
X44155893Y-41925429D01*
X44137282Y-41925673D01*
X44003925Y-41911751D01*
X43879361Y-41848004D01*
X43879361Y-42377767D01*
X44021634Y-42416731D01*
X44099180Y-42428325D01*
X44246666Y-42439956D01*
X44322662Y-42441514D01*
X44476352Y-42433088D01*
X44617952Y-42407809D01*
X44758962Y-42357139D01*
X44853890Y-42300098D01*
X44958467Y-42196717D01*
X45012160Y-42108123D01*
X45056754Y-41968511D01*
X45069312Y-41821626D01*
X45069312Y-40847097D01*
X45474511Y-40847097D01*
X45474511Y-40331256D01*
X45069312Y-40331256D01*
X45069312Y-39723091D01*
X44436235Y-39723091D01*
X44436235Y-40331256D01*
X43879361Y-40331256D01*
X43879361Y-40847097D01*
G37*
G36*
X42636774Y-40291803D02*
G01*
X42790213Y-40317180D01*
X42937072Y-40360565D01*
X43038051Y-40402789D01*
X43176640Y-40481580D01*
X43299773Y-40578918D01*
X43381168Y-40662986D01*
X43473646Y-40789141D01*
X43542306Y-40918904D01*
X43592783Y-41060962D01*
X43622308Y-41214102D01*
X43630966Y-41362938D01*
X43622308Y-41511773D01*
X43592783Y-41664913D01*
X43542306Y-41806971D01*
X43493900Y-41902730D01*
X43406007Y-42033144D01*
X43299773Y-42147690D01*
X43208872Y-42222078D01*
X43074148Y-42305214D01*
X42937072Y-42365310D01*
X42803521Y-42405496D01*
X42650664Y-42432510D01*
X42491573Y-42441514D01*
X42460498Y-42441113D01*
X42307097Y-42427089D01*
X42156988Y-42393028D01*
X42010171Y-42338932D01*
X41981451Y-42325683D01*
X41847299Y-42249390D01*
X41728889Y-42156354D01*
X41626221Y-42046573D01*
X42069522Y-41724173D01*
X42139009Y-41806349D01*
X42257100Y-41902959D01*
X42368705Y-41952922D01*
X42520882Y-41972568D01*
X42555257Y-41971563D01*
X42701877Y-41940308D01*
X42833758Y-41858262D01*
X42870995Y-41820416D01*
X42952419Y-41694273D01*
X42997889Y-41550516D01*
X41529501Y-41550516D01*
X41529501Y-41353412D01*
X41534833Y-41220227D01*
X41547439Y-41128465D01*
X42162578Y-41128465D01*
X42997889Y-41128465D01*
X42961985Y-40987781D01*
X42873325Y-40869811D01*
X42866092Y-40863474D01*
X42736305Y-40786280D01*
X42700135Y-40773433D01*
X42550924Y-40753308D01*
X42540178Y-40753416D01*
X42393754Y-40780968D01*
X42268091Y-40863950D01*
X42190167Y-40976811D01*
X42162578Y-41128465D01*
X41547439Y-41128465D01*
X41555833Y-41067362D01*
X41596912Y-40913042D01*
X41629139Y-40829544D01*
X41697111Y-40699130D01*
X41788887Y-40575987D01*
X41837530Y-40525523D01*
X41956180Y-40431915D01*
X42092969Y-40359832D01*
X42185201Y-40326814D01*
X42332823Y-40294974D01*
X42491573Y-40284361D01*
X42636774Y-40291803D01*
G37*
G36*
X41158740Y-40331256D02*
G01*
X40525663Y-40331256D01*
X40525663Y-40668311D01*
X40516870Y-40668311D01*
X40435674Y-40537828D01*
X40335620Y-40426936D01*
X40276535Y-40380349D01*
X40140974Y-40314732D01*
X39990483Y-40286705D01*
X39926291Y-40284361D01*
X39816381Y-40293887D01*
X39715265Y-40331256D01*
X39715265Y-40885931D01*
X39848621Y-40856622D01*
X39984909Y-40847097D01*
X40138524Y-40858206D01*
X40272139Y-40897655D01*
X40394361Y-40986567D01*
X40434804Y-41039804D01*
X40494341Y-41181705D01*
X40508810Y-41257425D01*
X40522437Y-41408146D01*
X40525663Y-41536594D01*
X40525663Y-42394620D01*
X41158740Y-42394620D01*
X41158740Y-40331256D01*
G37*
D12*
G36*
X59715580Y-115659560D02*
G01*
X59931410Y-115665580D01*
X59931410Y-118120910D01*
X59716990Y-118126920D01*
X59612340Y-118128340D01*
X59544140Y-118125270D01*
X59506690Y-118117150D01*
X59494740Y-118105750D01*
X59493410Y-118080120D01*
X59492380Y-118016010D01*
X59491630Y-117917280D01*
X59491190Y-117787790D01*
X59491050Y-117631390D01*
X59491220Y-117451940D01*
X59491700Y-117253310D01*
X59492500Y-117039330D01*
X59493330Y-116866060D01*
X59499750Y-115653540D01*
X59715580Y-115659560D01*
G37*
D13*
X59715580Y-115659560D02*
X59931410Y-115665580D01*
X59931410Y-115665580D02*
X59931410Y-118120910D01*
X59931410Y-118120910D02*
X59716990Y-118126920D01*
X59716990Y-118126920D02*
X59612340Y-118128340D01*
X59612340Y-118128340D02*
X59544140Y-118125270D01*
X59544140Y-118125270D02*
X59506690Y-118117150D01*
X59506690Y-118117150D02*
X59494740Y-118105750D01*
X59494740Y-118105750D02*
X59493410Y-118080120D01*
X59493410Y-118080120D02*
X59492380Y-118016010D01*
X59492380Y-118016010D02*
X59491630Y-117917280D01*
X59491630Y-117917280D02*
X59491190Y-117787790D01*
X59491190Y-117787790D02*
X59491050Y-117631390D01*
X59491050Y-117631390D02*
X59491220Y-117451940D01*
X59491220Y-117451940D02*
X59491700Y-117253310D01*
X59491700Y-117253310D02*
X59492500Y-117039330D01*
X59492500Y-117039330D02*
X59493330Y-116866060D01*
X59493330Y-116866060D02*
X59499750Y-115653540D01*
X59499750Y-115653540D02*
X59715580Y-115659560D01*
D12*
G36*
X44559120Y-115659550D02*
G01*
X44776080Y-115665580D01*
X44787000Y-118131500D01*
X44342160Y-118131500D01*
X44342160Y-115653520D01*
X44559120Y-115659550D01*
G37*
D13*
X44559120Y-115659550D02*
X44776080Y-115665580D01*
X44776080Y-115665580D02*
X44787000Y-118131500D01*
X44787000Y-118131500D02*
X44342160Y-118131500D01*
X44342160Y-118131500D02*
X44342160Y-115653520D01*
X44342160Y-115653520D02*
X44559120Y-115659550D01*
D12*
G36*
X44109330Y-118131500D02*
G01*
X43664830Y-118131500D01*
X43664830Y-115655000D01*
X44109330Y-115655000D01*
X44109330Y-118131500D01*
G37*
D13*
X44109330Y-118131500D02*
X43664830Y-118131500D01*
X43664830Y-118131500D02*
X43664830Y-115655000D01*
X43664830Y-115655000D02*
X44109330Y-115655000D01*
X44109330Y-115655000D02*
X44109330Y-118131500D01*
D12*
G36*
X50755660Y-157373060D02*
G01*
X50983210Y-157379070D01*
X51210750Y-157385080D01*
X51210750Y-157660250D01*
X50845620Y-157666040D01*
X50480500Y-157671830D01*
X50480500Y-156041000D01*
X50755660Y-156041000D01*
X50755660Y-157373060D01*
G37*
D13*
X50755660Y-157373060D02*
X50983210Y-157379070D01*
X50983210Y-157379070D02*
X51210750Y-157385080D01*
X51210750Y-157385080D02*
X51210750Y-157660250D01*
X51210750Y-157660250D02*
X50845620Y-157666040D01*
X50845620Y-157666040D02*
X50480500Y-157671830D01*
X50480500Y-157671830D02*
X50480500Y-156041000D01*
X50480500Y-156041000D02*
X50755660Y-156041000D01*
X50755660Y-156041000D02*
X50755660Y-157373060D01*
D12*
G36*
X48014580Y-156051580D02*
G01*
X48001350Y-157374500D01*
X48469660Y-157374500D01*
X48469660Y-157670830D01*
X47728830Y-157670830D01*
X47728830Y-156039060D01*
X48014580Y-156051580D01*
G37*
D13*
X48014580Y-156051580D02*
X48001350Y-157374500D01*
X48001350Y-157374500D02*
X48469660Y-157374500D01*
X48469660Y-157374500D02*
X48469660Y-157670830D01*
X48469660Y-157670830D02*
X47728830Y-157670830D01*
X47728830Y-157670830D02*
X47728830Y-156039060D01*
X47728830Y-156039060D02*
X48014580Y-156051580D01*
D12*
G36*
X45273500Y-157374500D02*
G01*
X45718000Y-157374500D01*
X45718000Y-157670830D01*
X44998330Y-157670830D01*
X44998330Y-156041000D01*
X45273500Y-156041000D01*
X45273500Y-157374500D01*
G37*
D13*
X45273500Y-157374500D02*
X45718000Y-157374500D01*
X45718000Y-157374500D02*
X45718000Y-157670830D01*
X45718000Y-157670830D02*
X44998330Y-157670830D01*
X44998330Y-157670830D02*
X44998330Y-156041000D01*
X44998330Y-156041000D02*
X45273500Y-156041000D01*
X45273500Y-156041000D02*
X45273500Y-157374500D01*
D12*
G36*
X42521830Y-157374500D02*
G01*
X42987500Y-157374500D01*
X42987500Y-157670830D01*
X42246660Y-157670830D01*
X42246660Y-156041000D01*
X42521830Y-156041000D01*
X42521830Y-157374500D01*
G37*
D13*
X42521830Y-157374500D02*
X42987500Y-157374500D01*
X42987500Y-157374500D02*
X42987500Y-157670830D01*
X42987500Y-157670830D02*
X42246660Y-157670830D01*
X42246660Y-157670830D02*
X42246660Y-156041000D01*
X42246660Y-156041000D02*
X42521830Y-156041000D01*
X42521830Y-156041000D02*
X42521830Y-157374500D01*
D12*
G36*
X51794570Y-156033670D02*
G01*
X51856720Y-156046410D01*
X51912420Y-156073100D01*
X51934650Y-156087200D01*
X52023380Y-156169940D01*
X52088550Y-156280590D01*
X52125230Y-156409000D01*
X52131500Y-156489650D01*
X52131500Y-156612500D01*
X51856330Y-156612500D01*
X51856330Y-156520100D01*
X51842360Y-156429310D01*
X51803950Y-156360930D01*
X51746340Y-156322210D01*
X51708160Y-156316160D01*
X51641340Y-156336510D01*
X51603870Y-156371930D01*
X51589010Y-156393260D01*
X51577940Y-156418260D01*
X51570100Y-156453100D01*
X51564940Y-156503930D01*
X51561910Y-156576880D01*
X51560450Y-156678110D01*
X51560010Y-156813770D01*
X51560000Y-156859730D01*
X51560110Y-157005240D01*
X51560900Y-157114480D01*
X51563010Y-157193520D01*
X51567090Y-157248420D01*
X51573790Y-157285240D01*
X51583770Y-157310060D01*
X51597660Y-157328920D01*
X51611950Y-157343710D01*
X51676680Y-157387350D01*
X51738790Y-157391870D01*
X51792900Y-157360410D01*
X51833620Y-157296080D01*
X51855500Y-157202410D01*
X51866910Y-157088750D01*
X51999210Y-157082440D01*
X52131500Y-157076140D01*
X52131030Y-157209440D01*
X52114480Y-157354610D01*
X52064420Y-157476770D01*
X51980620Y-157579570D01*
X51873320Y-157654900D01*
X51754440Y-157689620D01*
X51625490Y-157683390D01*
X51578410Y-157671520D01*
X51476800Y-157619740D01*
X51389100Y-157533350D01*
X51337600Y-157450920D01*
X51320740Y-157415770D01*
X51307920Y-157382680D01*
X51298580Y-157345430D01*
X51292170Y-157297780D01*
X51288140Y-157233530D01*
X51285950Y-157146430D01*
X51285030Y-157030280D01*
X51284830Y-156878830D01*
X51284830Y-156855910D01*
X51284940Y-156699640D01*
X51285680Y-156579450D01*
X51287600Y-156489070D01*
X51291300Y-156422250D01*
X51297350Y-156372730D01*
X51306330Y-156334250D01*
X51318820Y-156300550D01*
X51335390Y-156265370D01*
X51340350Y-156255400D01*
X51409940Y-156147560D01*
X51495630Y-156076670D01*
X51603430Y-156039040D01*
X51708160Y-156030410D01*
X51794570Y-156033670D01*
G37*
D13*
X51794570Y-156033670D02*
X51856720Y-156046410D01*
X51856720Y-156046410D02*
X51912420Y-156073100D01*
X51912420Y-156073100D02*
X51934650Y-156087200D01*
X51934650Y-156087200D02*
X52023380Y-156169940D01*
X52023380Y-156169940D02*
X52088550Y-156280590D01*
X52088550Y-156280590D02*
X52125230Y-156409000D01*
X52125230Y-156409000D02*
X52131500Y-156489650D01*
X52131500Y-156489650D02*
X52131500Y-156612500D01*
X52131500Y-156612500D02*
X51856330Y-156612500D01*
X51856330Y-156612500D02*
X51856330Y-156520100D01*
X51856330Y-156520100D02*
X51842360Y-156429310D01*
X51842360Y-156429310D02*
X51803950Y-156360930D01*
X51803950Y-156360930D02*
X51746340Y-156322210D01*
X51746340Y-156322210D02*
X51708160Y-156316160D01*
X51708160Y-156316160D02*
X51641340Y-156336510D01*
X51641340Y-156336510D02*
X51603870Y-156371930D01*
X51603870Y-156371930D02*
X51589010Y-156393260D01*
X51589010Y-156393260D02*
X51577940Y-156418260D01*
X51577940Y-156418260D02*
X51570100Y-156453100D01*
X51570100Y-156453100D02*
X51564940Y-156503930D01*
X51564940Y-156503930D02*
X51561910Y-156576880D01*
X51561910Y-156576880D02*
X51560450Y-156678110D01*
X51560450Y-156678110D02*
X51560010Y-156813770D01*
X51560010Y-156813770D02*
X51560000Y-156859730D01*
X51560000Y-156859730D02*
X51560110Y-157005240D01*
X51560110Y-157005240D02*
X51560900Y-157114480D01*
X51560900Y-157114480D02*
X51563010Y-157193520D01*
X51563010Y-157193520D02*
X51567090Y-157248420D01*
X51567090Y-157248420D02*
X51573790Y-157285240D01*
X51573790Y-157285240D02*
X51583770Y-157310060D01*
X51583770Y-157310060D02*
X51597660Y-157328920D01*
X51597660Y-157328920D02*
X51611950Y-157343710D01*
X51611950Y-157343710D02*
X51676680Y-157387350D01*
X51676680Y-157387350D02*
X51738790Y-157391870D01*
X51738790Y-157391870D02*
X51792900Y-157360410D01*
X51792900Y-157360410D02*
X51833620Y-157296080D01*
X51833620Y-157296080D02*
X51855500Y-157202410D01*
X51855500Y-157202410D02*
X51866910Y-157088750D01*
X51866910Y-157088750D02*
X51999210Y-157082440D01*
X51999210Y-157082440D02*
X52131500Y-157076140D01*
X52131500Y-157076140D02*
X52131030Y-157209440D01*
X52131030Y-157209440D02*
X52114480Y-157354610D01*
X52114480Y-157354610D02*
X52064420Y-157476770D01*
X52064420Y-157476770D02*
X51980620Y-157579570D01*
X51980620Y-157579570D02*
X51873320Y-157654900D01*
X51873320Y-157654900D02*
X51754440Y-157689620D01*
X51754440Y-157689620D02*
X51625490Y-157683390D01*
X51625490Y-157683390D02*
X51578410Y-157671520D01*
X51578410Y-157671520D02*
X51476800Y-157619740D01*
X51476800Y-157619740D02*
X51389100Y-157533350D01*
X51389100Y-157533350D02*
X51337600Y-157450920D01*
X51337600Y-157450920D02*
X51320740Y-157415770D01*
X51320740Y-157415770D02*
X51307920Y-157382680D01*
X51307920Y-157382680D02*
X51298580Y-157345430D01*
X51298580Y-157345430D02*
X51292170Y-157297780D01*
X51292170Y-157297780D02*
X51288140Y-157233530D01*
X51288140Y-157233530D02*
X51285950Y-157146430D01*
X51285950Y-157146430D02*
X51285030Y-157030280D01*
X51285030Y-157030280D02*
X51284830Y-156878830D01*
X51284830Y-156878830D02*
X51284830Y-156855910D01*
X51284830Y-156855910D02*
X51284940Y-156699640D01*
X51284940Y-156699640D02*
X51285680Y-156579450D01*
X51285680Y-156579450D02*
X51287600Y-156489070D01*
X51287600Y-156489070D02*
X51291300Y-156422250D01*
X51291300Y-156422250D02*
X51297350Y-156372730D01*
X51297350Y-156372730D02*
X51306330Y-156334250D01*
X51306330Y-156334250D02*
X51318820Y-156300550D01*
X51318820Y-156300550D02*
X51335390Y-156265370D01*
X51335390Y-156265370D02*
X51340350Y-156255400D01*
X51340350Y-156255400D02*
X51409940Y-156147560D01*
X51409940Y-156147560D02*
X51495630Y-156076670D01*
X51495630Y-156076670D02*
X51603430Y-156039040D01*
X51603430Y-156039040D02*
X51708160Y-156030410D01*
X51708160Y-156030410D02*
X51794570Y-156033670D01*
D12*
G36*
X50328150Y-156702460D02*
G01*
X50321750Y-157363910D01*
X50262370Y-157464930D01*
X50181800Y-157566620D01*
X50080690Y-157639800D01*
X49967220Y-157681410D01*
X49849600Y-157688400D01*
X49739810Y-157659450D01*
X49624920Y-157586740D01*
X49542300Y-157487000D01*
X49492680Y-157361420D01*
X49476820Y-157226330D01*
X49475080Y-157088750D01*
X49607370Y-157082440D01*
X49739660Y-157076140D01*
X49739660Y-157149860D01*
X49751760Y-157249400D01*
X49784460Y-157325810D01*
X49832360Y-157375070D01*
X49890080Y-157393140D01*
X49952230Y-157375980D01*
X49995270Y-157341070D01*
X50046580Y-157286480D01*
X50052770Y-156663740D01*
X50058970Y-156041000D01*
X50334560Y-156041000D01*
X50328150Y-156702460D01*
G37*
D13*
X50328150Y-156702460D02*
X50321750Y-157363910D01*
X50321750Y-157363910D02*
X50262370Y-157464930D01*
X50262370Y-157464930D02*
X50181800Y-157566620D01*
X50181800Y-157566620D02*
X50080690Y-157639800D01*
X50080690Y-157639800D02*
X49967220Y-157681410D01*
X49967220Y-157681410D02*
X49849600Y-157688400D01*
X49849600Y-157688400D02*
X49739810Y-157659450D01*
X49739810Y-157659450D02*
X49624920Y-157586740D01*
X49624920Y-157586740D02*
X49542300Y-157487000D01*
X49542300Y-157487000D02*
X49492680Y-157361420D01*
X49492680Y-157361420D02*
X49476820Y-157226330D01*
X49476820Y-157226330D02*
X49475080Y-157088750D01*
X49475080Y-157088750D02*
X49607370Y-157082440D01*
X49607370Y-157082440D02*
X49739660Y-157076140D01*
X49739660Y-157076140D02*
X49739660Y-157149860D01*
X49739660Y-157149860D02*
X49751760Y-157249400D01*
X49751760Y-157249400D02*
X49784460Y-157325810D01*
X49784460Y-157325810D02*
X49832360Y-157375070D01*
X49832360Y-157375070D02*
X49890080Y-157393140D01*
X49890080Y-157393140D02*
X49952230Y-157375980D01*
X49952230Y-157375980D02*
X49995270Y-157341070D01*
X49995270Y-157341070D02*
X50046580Y-157286480D01*
X50046580Y-157286480D02*
X50052770Y-156663740D01*
X50052770Y-156663740D02*
X50058970Y-156041000D01*
X50058970Y-156041000D02*
X50334560Y-156041000D01*
X50334560Y-156041000D02*
X50328150Y-156702460D01*
D12*
G36*
X49107370Y-156044810D02*
G01*
X49212410Y-156104390D01*
X49302840Y-156198210D01*
X49348390Y-156272870D01*
X49370370Y-156334660D01*
X49388330Y-156417510D01*
X49396100Y-156479250D01*
X49406790Y-156612500D01*
X49125830Y-156612500D01*
X49125830Y-156548320D01*
X49115050Y-156469720D01*
X49087060Y-156397140D01*
X49048370Y-156344250D01*
X49020400Y-156326880D01*
X48942070Y-156320680D01*
X48878130Y-156353100D01*
X48838690Y-156411490D01*
X48827500Y-156460650D01*
X48818700Y-156542970D01*
X48812360Y-156649310D01*
X48808530Y-156770550D01*
X48807310Y-156897580D01*
X48808760Y-157021270D01*
X48812940Y-157132500D01*
X48819950Y-157222140D01*
X48829840Y-157281080D01*
X48831720Y-157287120D01*
X48871060Y-157357110D01*
X48922770Y-157391950D01*
X48979870Y-157394140D01*
X49035380Y-157366170D01*
X49082320Y-157310530D01*
X49113690Y-157229720D01*
X49121070Y-157183750D01*
X49131400Y-157076290D01*
X49260900Y-157082520D01*
X49390410Y-157088750D01*
X49396860Y-157177440D01*
X49389110Y-157311370D01*
X49349260Y-157431890D01*
X49282810Y-157534520D01*
X49195210Y-157614780D01*
X49091950Y-157668210D01*
X48978500Y-157690340D01*
X48860330Y-157676680D01*
X48808480Y-157658280D01*
X48703490Y-157594520D01*
X48620760Y-157501090D01*
X48589310Y-157448580D01*
X48574930Y-157419680D01*
X48563940Y-157389340D01*
X48555880Y-157351700D01*
X48550300Y-157300860D01*
X48546750Y-157230940D01*
X48544770Y-157136080D01*
X48543920Y-157010390D01*
X48543750Y-156855910D01*
X48543940Y-156695230D01*
X48544830Y-156571010D01*
X48546860Y-156477360D01*
X48550490Y-156408400D01*
X48556170Y-156358260D01*
X48564350Y-156321050D01*
X48575490Y-156290900D01*
X48589310Y-156263250D01*
X48670390Y-156150440D01*
X48769200Y-156072280D01*
X48879290Y-156028670D01*
X48994160Y-156019550D01*
X49107370Y-156044810D01*
G37*
D13*
X49107370Y-156044810D02*
X49212410Y-156104390D01*
X49212410Y-156104390D02*
X49302840Y-156198210D01*
X49302840Y-156198210D02*
X49348390Y-156272870D01*
X49348390Y-156272870D02*
X49370370Y-156334660D01*
X49370370Y-156334660D02*
X49388330Y-156417510D01*
X49388330Y-156417510D02*
X49396100Y-156479250D01*
X49396100Y-156479250D02*
X49406790Y-156612500D01*
X49406790Y-156612500D02*
X49125830Y-156612500D01*
X49125830Y-156612500D02*
X49125830Y-156548320D01*
X49125830Y-156548320D02*
X49115050Y-156469720D01*
X49115050Y-156469720D02*
X49087060Y-156397140D01*
X49087060Y-156397140D02*
X49048370Y-156344250D01*
X49048370Y-156344250D02*
X49020400Y-156326880D01*
X49020400Y-156326880D02*
X48942070Y-156320680D01*
X48942070Y-156320680D02*
X48878130Y-156353100D01*
X48878130Y-156353100D02*
X48838690Y-156411490D01*
X48838690Y-156411490D02*
X48827500Y-156460650D01*
X48827500Y-156460650D02*
X48818700Y-156542970D01*
X48818700Y-156542970D02*
X48812360Y-156649310D01*
X48812360Y-156649310D02*
X48808530Y-156770550D01*
X48808530Y-156770550D02*
X48807310Y-156897580D01*
X48807310Y-156897580D02*
X48808760Y-157021270D01*
X48808760Y-157021270D02*
X48812940Y-157132500D01*
X48812940Y-157132500D02*
X48819950Y-157222140D01*
X48819950Y-157222140D02*
X48829840Y-157281080D01*
X48829840Y-157281080D02*
X48831720Y-157287120D01*
X48831720Y-157287120D02*
X48871060Y-157357110D01*
X48871060Y-157357110D02*
X48922770Y-157391950D01*
X48922770Y-157391950D02*
X48979870Y-157394140D01*
X48979870Y-157394140D02*
X49035380Y-157366170D01*
X49035380Y-157366170D02*
X49082320Y-157310530D01*
X49082320Y-157310530D02*
X49113690Y-157229720D01*
X49113690Y-157229720D02*
X49121070Y-157183750D01*
X49121070Y-157183750D02*
X49131400Y-157076290D01*
X49131400Y-157076290D02*
X49260900Y-157082520D01*
X49260900Y-157082520D02*
X49390410Y-157088750D01*
X49390410Y-157088750D02*
X49396860Y-157177440D01*
X49396860Y-157177440D02*
X49389110Y-157311370D01*
X49389110Y-157311370D02*
X49349260Y-157431890D01*
X49349260Y-157431890D02*
X49282810Y-157534520D01*
X49282810Y-157534520D02*
X49195210Y-157614780D01*
X49195210Y-157614780D02*
X49091950Y-157668210D01*
X49091950Y-157668210D02*
X48978500Y-157690340D01*
X48978500Y-157690340D02*
X48860330Y-157676680D01*
X48860330Y-157676680D02*
X48808480Y-157658280D01*
X48808480Y-157658280D02*
X48703490Y-157594520D01*
X48703490Y-157594520D02*
X48620760Y-157501090D01*
X48620760Y-157501090D02*
X48589310Y-157448580D01*
X48589310Y-157448580D02*
X48574930Y-157419680D01*
X48574930Y-157419680D02*
X48563940Y-157389340D01*
X48563940Y-157389340D02*
X48555880Y-157351700D01*
X48555880Y-157351700D02*
X48550300Y-157300860D01*
X48550300Y-157300860D02*
X48546750Y-157230940D01*
X48546750Y-157230940D02*
X48544770Y-157136080D01*
X48544770Y-157136080D02*
X48543920Y-157010390D01*
X48543920Y-157010390D02*
X48543750Y-156855910D01*
X48543750Y-156855910D02*
X48543940Y-156695230D01*
X48543940Y-156695230D02*
X48544830Y-156571010D01*
X48544830Y-156571010D02*
X48546860Y-156477360D01*
X48546860Y-156477360D02*
X48550490Y-156408400D01*
X48550490Y-156408400D02*
X48556170Y-156358260D01*
X48556170Y-156358260D02*
X48564350Y-156321050D01*
X48564350Y-156321050D02*
X48575490Y-156290900D01*
X48575490Y-156290900D02*
X48589310Y-156263250D01*
X48589310Y-156263250D02*
X48670390Y-156150440D01*
X48670390Y-156150440D02*
X48769200Y-156072280D01*
X48769200Y-156072280D02*
X48879290Y-156028670D01*
X48879290Y-156028670D02*
X48994160Y-156019550D01*
X48994160Y-156019550D02*
X49107370Y-156044810D01*
D12*
G36*
X47580200Y-156691870D02*
G01*
X47579870Y-156877590D01*
X47578990Y-157025980D01*
X47577300Y-157142030D01*
X47574520Y-157230750D01*
X47570380Y-157297120D01*
X47564620Y-157346150D01*
X47556970Y-157382830D01*
X47547150Y-157412170D01*
X47540530Y-157427410D01*
X47468380Y-157539350D01*
X47373020Y-157622090D01*
X47261680Y-157672840D01*
X47141550Y-157688830D01*
X47019830Y-157667280D01*
X46971140Y-157646950D01*
X46864610Y-157572620D01*
X46789730Y-157470590D01*
X46746320Y-157340500D01*
X46734000Y-157200990D01*
X46734000Y-157076140D01*
X46866290Y-157082440D01*
X46998580Y-157088750D01*
X47009990Y-157202410D01*
X47031990Y-157296360D01*
X47072760Y-157360580D01*
X47126910Y-157391920D01*
X47189040Y-157387260D01*
X47253540Y-157343710D01*
X47305500Y-157291750D01*
X47305500Y-156041000D01*
X47580660Y-156041000D01*
X47580200Y-156691870D01*
G37*
D13*
X47580200Y-156691870D02*
X47579870Y-156877590D01*
X47579870Y-156877590D02*
X47578990Y-157025980D01*
X47578990Y-157025980D02*
X47577300Y-157142030D01*
X47577300Y-157142030D02*
X47574520Y-157230750D01*
X47574520Y-157230750D02*
X47570380Y-157297120D01*
X47570380Y-157297120D02*
X47564620Y-157346150D01*
X47564620Y-157346150D02*
X47556970Y-157382830D01*
X47556970Y-157382830D02*
X47547150Y-157412170D01*
X47547150Y-157412170D02*
X47540530Y-157427410D01*
X47540530Y-157427410D02*
X47468380Y-157539350D01*
X47468380Y-157539350D02*
X47373020Y-157622090D01*
X47373020Y-157622090D02*
X47261680Y-157672840D01*
X47261680Y-157672840D02*
X47141550Y-157688830D01*
X47141550Y-157688830D02*
X47019830Y-157667280D01*
X47019830Y-157667280D02*
X46971140Y-157646950D01*
X46971140Y-157646950D02*
X46864610Y-157572620D01*
X46864610Y-157572620D02*
X46789730Y-157470590D01*
X46789730Y-157470590D02*
X46746320Y-157340500D01*
X46746320Y-157340500D02*
X46734000Y-157200990D01*
X46734000Y-157200990D02*
X46734000Y-157076140D01*
X46734000Y-157076140D02*
X46866290Y-157082440D01*
X46866290Y-157082440D02*
X46998580Y-157088750D01*
X46998580Y-157088750D02*
X47009990Y-157202410D01*
X47009990Y-157202410D02*
X47031990Y-157296360D01*
X47031990Y-157296360D02*
X47072760Y-157360580D01*
X47072760Y-157360580D02*
X47126910Y-157391920D01*
X47126910Y-157391920D02*
X47189040Y-157387260D01*
X47189040Y-157387260D02*
X47253540Y-157343710D01*
X47253540Y-157343710D02*
X47305500Y-157291750D01*
X47305500Y-157291750D02*
X47305500Y-156041000D01*
X47305500Y-156041000D02*
X47580660Y-156041000D01*
X47580660Y-156041000D02*
X47580200Y-156691870D01*
D12*
G36*
X46364050Y-156045540D02*
G01*
X46469150Y-156103780D01*
X46500830Y-156131430D01*
X46587770Y-156243610D01*
X46636780Y-156374390D01*
X46648870Y-156490790D01*
X46649330Y-156612500D01*
X46374160Y-156612500D01*
X46374160Y-156520100D01*
X46360190Y-156429310D01*
X46321780Y-156360930D01*
X46264170Y-156322210D01*
X46226000Y-156316160D01*
X46159170Y-156336510D01*
X46121700Y-156371930D01*
X46106840Y-156393260D01*
X46095770Y-156418260D01*
X46087930Y-156453100D01*
X46082770Y-156503930D01*
X46079740Y-156576880D01*
X46078280Y-156678110D01*
X46077840Y-156813770D01*
X46077830Y-156859730D01*
X46077950Y-157005240D01*
X46078730Y-157114480D01*
X46080840Y-157193520D01*
X46084920Y-157248420D01*
X46091620Y-157285240D01*
X46101600Y-157310060D01*
X46115500Y-157328920D01*
X46129780Y-157343710D01*
X46193290Y-157386100D01*
X46254560Y-157390210D01*
X46308240Y-157359970D01*
X46348980Y-157299310D01*
X46371440Y-157212180D01*
X46374160Y-157163880D01*
X46374160Y-157078160D01*
X46649330Y-157078160D01*
X46648870Y-157210460D01*
X46633420Y-157352010D01*
X46586060Y-157469700D01*
X46503620Y-157570730D01*
X46481930Y-157590180D01*
X46370000Y-157661560D01*
X46251020Y-157691690D01*
X46128200Y-157680200D01*
X46033530Y-157643000D01*
X45943020Y-157573800D01*
X45867950Y-157474470D01*
X45815470Y-157356370D01*
X45795440Y-157264090D01*
X45791920Y-157207050D01*
X45790210Y-157116770D01*
X45790340Y-157002310D01*
X45792270Y-156872740D01*
X45795720Y-156746180D01*
X45801020Y-156601260D01*
X45806450Y-156491700D01*
X45812850Y-156410530D01*
X45821060Y-156350760D01*
X45831900Y-156305450D01*
X45846210Y-156267600D01*
X45855200Y-156248760D01*
X45927500Y-156147150D01*
X46022710Y-156074530D01*
X46132650Y-156032400D01*
X46249160Y-156022240D01*
X46364050Y-156045540D01*
G37*
D13*
X46364050Y-156045540D02*
X46469150Y-156103780D01*
X46469150Y-156103780D02*
X46500830Y-156131430D01*
X46500830Y-156131430D02*
X46587770Y-156243610D01*
X46587770Y-156243610D02*
X46636780Y-156374390D01*
X46636780Y-156374390D02*
X46648870Y-156490790D01*
X46648870Y-156490790D02*
X46649330Y-156612500D01*
X46649330Y-156612500D02*
X46374160Y-156612500D01*
X46374160Y-156612500D02*
X46374160Y-156520100D01*
X46374160Y-156520100D02*
X46360190Y-156429310D01*
X46360190Y-156429310D02*
X46321780Y-156360930D01*
X46321780Y-156360930D02*
X46264170Y-156322210D01*
X46264170Y-156322210D02*
X46226000Y-156316160D01*
X46226000Y-156316160D02*
X46159170Y-156336510D01*
X46159170Y-156336510D02*
X46121700Y-156371930D01*
X46121700Y-156371930D02*
X46106840Y-156393260D01*
X46106840Y-156393260D02*
X46095770Y-156418260D01*
X46095770Y-156418260D02*
X46087930Y-156453100D01*
X46087930Y-156453100D02*
X46082770Y-156503930D01*
X46082770Y-156503930D02*
X46079740Y-156576880D01*
X46079740Y-156576880D02*
X46078280Y-156678110D01*
X46078280Y-156678110D02*
X46077840Y-156813770D01*
X46077840Y-156813770D02*
X46077830Y-156859730D01*
X46077830Y-156859730D02*
X46077950Y-157005240D01*
X46077950Y-157005240D02*
X46078730Y-157114480D01*
X46078730Y-157114480D02*
X46080840Y-157193520D01*
X46080840Y-157193520D02*
X46084920Y-157248420D01*
X46084920Y-157248420D02*
X46091620Y-157285240D01*
X46091620Y-157285240D02*
X46101600Y-157310060D01*
X46101600Y-157310060D02*
X46115500Y-157328920D01*
X46115500Y-157328920D02*
X46129780Y-157343710D01*
X46129780Y-157343710D02*
X46193290Y-157386100D01*
X46193290Y-157386100D02*
X46254560Y-157390210D01*
X46254560Y-157390210D02*
X46308240Y-157359970D01*
X46308240Y-157359970D02*
X46348980Y-157299310D01*
X46348980Y-157299310D02*
X46371440Y-157212180D01*
X46371440Y-157212180D02*
X46374160Y-157163880D01*
X46374160Y-157163880D02*
X46374160Y-157078160D01*
X46374160Y-157078160D02*
X46649330Y-157078160D01*
X46649330Y-157078160D02*
X46648870Y-157210460D01*
X46648870Y-157210460D02*
X46633420Y-157352010D01*
X46633420Y-157352010D02*
X46586060Y-157469700D01*
X46586060Y-157469700D02*
X46503620Y-157570730D01*
X46503620Y-157570730D02*
X46481930Y-157590180D01*
X46481930Y-157590180D02*
X46370000Y-157661560D01*
X46370000Y-157661560D02*
X46251020Y-157691690D01*
X46251020Y-157691690D02*
X46128200Y-157680200D01*
X46128200Y-157680200D02*
X46033530Y-157643000D01*
X46033530Y-157643000D02*
X45943020Y-157573800D01*
X45943020Y-157573800D02*
X45867950Y-157474470D01*
X45867950Y-157474470D02*
X45815470Y-157356370D01*
X45815470Y-157356370D02*
X45795440Y-157264090D01*
X45795440Y-157264090D02*
X45791920Y-157207050D01*
X45791920Y-157207050D02*
X45790210Y-157116770D01*
X45790210Y-157116770D02*
X45790340Y-157002310D01*
X45790340Y-157002310D02*
X45792270Y-156872740D01*
X45792270Y-156872740D02*
X45795720Y-156746180D01*
X45795720Y-156746180D02*
X45801020Y-156601260D01*
X45801020Y-156601260D02*
X45806450Y-156491700D01*
X45806450Y-156491700D02*
X45812850Y-156410530D01*
X45812850Y-156410530D02*
X45821060Y-156350760D01*
X45821060Y-156350760D02*
X45831900Y-156305450D01*
X45831900Y-156305450D02*
X45846210Y-156267600D01*
X45846210Y-156267600D02*
X45855200Y-156248760D01*
X45855200Y-156248760D02*
X45927500Y-156147150D01*
X45927500Y-156147150D02*
X46022710Y-156074530D01*
X46022710Y-156074530D02*
X46132650Y-156032400D01*
X46132650Y-156032400D02*
X46249160Y-156022240D01*
X46249160Y-156022240D02*
X46364050Y-156045540D01*
D12*
G36*
X44846000Y-156692510D02*
G01*
X44844140Y-156875600D01*
X44842280Y-157021470D01*
X44840020Y-157135240D01*
X44836950Y-157222020D01*
X44832660Y-157286940D01*
X44826740Y-157335100D01*
X44818780Y-157371620D01*
X44808380Y-157401620D01*
X44795110Y-157430210D01*
X44785510Y-157449030D01*
X44711130Y-157553790D01*
X44614380Y-157631020D01*
X44503360Y-157677480D01*
X44386200Y-157689950D01*
X44271010Y-157665190D01*
X44257500Y-157659470D01*
X44144040Y-157586600D01*
X44059120Y-157484180D01*
X44004700Y-157355620D01*
X43982710Y-157204300D01*
X43982330Y-157180150D01*
X43982330Y-157078160D01*
X44257500Y-157078160D01*
X44257500Y-157152930D01*
X44269050Y-157246020D01*
X44300310Y-157323200D01*
X44346150Y-157374220D01*
X44374360Y-157387080D01*
X44438200Y-157383520D01*
X44500200Y-157349150D01*
X44545860Y-157293540D01*
X44556510Y-157266760D01*
X44560330Y-157232710D01*
X44563910Y-157162340D01*
X44567110Y-157061690D01*
X44569770Y-156936760D01*
X44571740Y-156793580D01*
X44572850Y-156638170D01*
X44572890Y-156628370D01*
X44575000Y-156041000D01*
X44852420Y-156041000D01*
X44846000Y-156692510D01*
G37*
D13*
X44846000Y-156692510D02*
X44844140Y-156875600D01*
X44844140Y-156875600D02*
X44842280Y-157021470D01*
X44842280Y-157021470D02*
X44840020Y-157135240D01*
X44840020Y-157135240D02*
X44836950Y-157222020D01*
X44836950Y-157222020D02*
X44832660Y-157286940D01*
X44832660Y-157286940D02*
X44826740Y-157335100D01*
X44826740Y-157335100D02*
X44818780Y-157371620D01*
X44818780Y-157371620D02*
X44808380Y-157401620D01*
X44808380Y-157401620D02*
X44795110Y-157430210D01*
X44795110Y-157430210D02*
X44785510Y-157449030D01*
X44785510Y-157449030D02*
X44711130Y-157553790D01*
X44711130Y-157553790D02*
X44614380Y-157631020D01*
X44614380Y-157631020D02*
X44503360Y-157677480D01*
X44503360Y-157677480D02*
X44386200Y-157689950D01*
X44386200Y-157689950D02*
X44271010Y-157665190D01*
X44271010Y-157665190D02*
X44257500Y-157659470D01*
X44257500Y-157659470D02*
X44144040Y-157586600D01*
X44144040Y-157586600D02*
X44059120Y-157484180D01*
X44059120Y-157484180D02*
X44004700Y-157355620D01*
X44004700Y-157355620D02*
X43982710Y-157204300D01*
X43982710Y-157204300D02*
X43982330Y-157180150D01*
X43982330Y-157180150D02*
X43982330Y-157078160D01*
X43982330Y-157078160D02*
X44257500Y-157078160D01*
X44257500Y-157078160D02*
X44257500Y-157152930D01*
X44257500Y-157152930D02*
X44269050Y-157246020D01*
X44269050Y-157246020D02*
X44300310Y-157323200D01*
X44300310Y-157323200D02*
X44346150Y-157374220D01*
X44346150Y-157374220D02*
X44374360Y-157387080D01*
X44374360Y-157387080D02*
X44438200Y-157383520D01*
X44438200Y-157383520D02*
X44500200Y-157349150D01*
X44500200Y-157349150D02*
X44545860Y-157293540D01*
X44545860Y-157293540D02*
X44556510Y-157266760D01*
X44556510Y-157266760D02*
X44560330Y-157232710D01*
X44560330Y-157232710D02*
X44563910Y-157162340D01*
X44563910Y-157162340D02*
X44567110Y-157061690D01*
X44567110Y-157061690D02*
X44569770Y-156936760D01*
X44569770Y-156936760D02*
X44571740Y-156793580D01*
X44571740Y-156793580D02*
X44572850Y-156638170D01*
X44572850Y-156638170D02*
X44572890Y-156628370D01*
X44572890Y-156628370D02*
X44575000Y-156041000D01*
X44575000Y-156041000D02*
X44852420Y-156041000D01*
X44852420Y-156041000D02*
X44846000Y-156692510D01*
D12*
G36*
X43543130Y-156027490D02*
G01*
X43659100Y-156063070D01*
X43759840Y-156127680D01*
X43797480Y-156165990D01*
X43848180Y-156247820D01*
X43889000Y-156353760D01*
X43913950Y-156465800D01*
X43918830Y-156531670D01*
X43918830Y-156612500D01*
X43649420Y-156612500D01*
X43635800Y-156513150D01*
X43610440Y-156424110D01*
X43566260Y-156359060D01*
X43510130Y-156322030D01*
X43448910Y-156317080D01*
X43389490Y-156348260D01*
X43377070Y-156360660D01*
X43363100Y-156379620D01*
X43352560Y-156405460D01*
X43344830Y-156444240D01*
X43339310Y-156502020D01*
X43335380Y-156584860D01*
X43332430Y-156698810D01*
X43330230Y-156825020D01*
X43328710Y-156991470D01*
X43330620Y-157120660D01*
X43336950Y-157217560D01*
X43348720Y-157287180D01*
X43366910Y-157334510D01*
X43392550Y-157364540D01*
X43426620Y-157382270D01*
X43443120Y-157387110D01*
X43509050Y-157384230D01*
X43566970Y-157345790D01*
X43611800Y-157278480D01*
X43638420Y-157188980D01*
X43643550Y-157124780D01*
X43646400Y-157098380D01*
X43661260Y-157084510D01*
X43697840Y-157080080D01*
X43765850Y-157081970D01*
X43775960Y-157082440D01*
X43908250Y-157088750D01*
X43906250Y-157220190D01*
X43886750Y-157361560D01*
X43835550Y-157483470D01*
X43756800Y-157581040D01*
X43654620Y-157649390D01*
X43533150Y-157683630D01*
X43512110Y-157685620D01*
X43401510Y-157681290D01*
X43314080Y-157653120D01*
X43217780Y-157588160D01*
X43135490Y-157495950D01*
X43080220Y-157391590D01*
X43075160Y-157376140D01*
X43066400Y-157323900D01*
X43059590Y-157237770D01*
X43054720Y-157126150D01*
X43051800Y-156997450D01*
X43050820Y-156860040D01*
X43051780Y-156722350D01*
X43054670Y-156592760D01*
X43059490Y-156479680D01*
X43066240Y-156391510D01*
X43074910Y-156336630D01*
X43075560Y-156334330D01*
X43118910Y-156242530D01*
X43187670Y-156152740D01*
X43268640Y-156080520D01*
X43312790Y-156054320D01*
X43423760Y-156023670D01*
X43543130Y-156027490D01*
G37*
D13*
X43543130Y-156027490D02*
X43659100Y-156063070D01*
X43659100Y-156063070D02*
X43759840Y-156127680D01*
X43759840Y-156127680D02*
X43797480Y-156165990D01*
X43797480Y-156165990D02*
X43848180Y-156247820D01*
X43848180Y-156247820D02*
X43889000Y-156353760D01*
X43889000Y-156353760D02*
X43913950Y-156465800D01*
X43913950Y-156465800D02*
X43918830Y-156531670D01*
X43918830Y-156531670D02*
X43918830Y-156612500D01*
X43918830Y-156612500D02*
X43649420Y-156612500D01*
X43649420Y-156612500D02*
X43635800Y-156513150D01*
X43635800Y-156513150D02*
X43610440Y-156424110D01*
X43610440Y-156424110D02*
X43566260Y-156359060D01*
X43566260Y-156359060D02*
X43510130Y-156322030D01*
X43510130Y-156322030D02*
X43448910Y-156317080D01*
X43448910Y-156317080D02*
X43389490Y-156348260D01*
X43389490Y-156348260D02*
X43377070Y-156360660D01*
X43377070Y-156360660D02*
X43363100Y-156379620D01*
X43363100Y-156379620D02*
X43352560Y-156405460D01*
X43352560Y-156405460D02*
X43344830Y-156444240D01*
X43344830Y-156444240D02*
X43339310Y-156502020D01*
X43339310Y-156502020D02*
X43335380Y-156584860D01*
X43335380Y-156584860D02*
X43332430Y-156698810D01*
X43332430Y-156698810D02*
X43330230Y-156825020D01*
X43330230Y-156825020D02*
X43328710Y-156991470D01*
X43328710Y-156991470D02*
X43330620Y-157120660D01*
X43330620Y-157120660D02*
X43336950Y-157217560D01*
X43336950Y-157217560D02*
X43348720Y-157287180D01*
X43348720Y-157287180D02*
X43366910Y-157334510D01*
X43366910Y-157334510D02*
X43392550Y-157364540D01*
X43392550Y-157364540D02*
X43426620Y-157382270D01*
X43426620Y-157382270D02*
X43443120Y-157387110D01*
X43443120Y-157387110D02*
X43509050Y-157384230D01*
X43509050Y-157384230D02*
X43566970Y-157345790D01*
X43566970Y-157345790D02*
X43611800Y-157278480D01*
X43611800Y-157278480D02*
X43638420Y-157188980D01*
X43638420Y-157188980D02*
X43643550Y-157124780D01*
X43643550Y-157124780D02*
X43646400Y-157098380D01*
X43646400Y-157098380D02*
X43661260Y-157084510D01*
X43661260Y-157084510D02*
X43697840Y-157080080D01*
X43697840Y-157080080D02*
X43765850Y-157081970D01*
X43765850Y-157081970D02*
X43775960Y-157082440D01*
X43775960Y-157082440D02*
X43908250Y-157088750D01*
X43908250Y-157088750D02*
X43906250Y-157220190D01*
X43906250Y-157220190D02*
X43886750Y-157361560D01*
X43886750Y-157361560D02*
X43835550Y-157483470D01*
X43835550Y-157483470D02*
X43756800Y-157581040D01*
X43756800Y-157581040D02*
X43654620Y-157649390D01*
X43654620Y-157649390D02*
X43533150Y-157683630D01*
X43533150Y-157683630D02*
X43512110Y-157685620D01*
X43512110Y-157685620D02*
X43401510Y-157681290D01*
X43401510Y-157681290D02*
X43314080Y-157653120D01*
X43314080Y-157653120D02*
X43217780Y-157588160D01*
X43217780Y-157588160D02*
X43135490Y-157495950D01*
X43135490Y-157495950D02*
X43080220Y-157391590D01*
X43080220Y-157391590D02*
X43075160Y-157376140D01*
X43075160Y-157376140D02*
X43066400Y-157323900D01*
X43066400Y-157323900D02*
X43059590Y-157237770D01*
X43059590Y-157237770D02*
X43054720Y-157126150D01*
X43054720Y-157126150D02*
X43051800Y-156997450D01*
X43051800Y-156997450D02*
X43050820Y-156860040D01*
X43050820Y-156860040D02*
X43051780Y-156722350D01*
X43051780Y-156722350D02*
X43054670Y-156592760D01*
X43054670Y-156592760D02*
X43059490Y-156479680D01*
X43059490Y-156479680D02*
X43066240Y-156391510D01*
X43066240Y-156391510D02*
X43074910Y-156336630D01*
X43074910Y-156336630D02*
X43075560Y-156334330D01*
X43075560Y-156334330D02*
X43118910Y-156242530D01*
X43118910Y-156242530D02*
X43187670Y-156152740D01*
X43187670Y-156152740D02*
X43268640Y-156080520D01*
X43268640Y-156080520D02*
X43312790Y-156054320D01*
X43312790Y-156054320D02*
X43423760Y-156023670D01*
X43423760Y-156023670D02*
X43543130Y-156027490D01*
D12*
G36*
X42098500Y-156668250D02*
G01*
X42098130Y-156865320D01*
X42096610Y-157025070D01*
X42093280Y-157152500D01*
X42087480Y-157252620D01*
X42078570Y-157330430D01*
X42065900Y-157390950D01*
X42048820Y-157439180D01*
X42026670Y-157480130D01*
X41998800Y-157518790D01*
X41985880Y-157534790D01*
X41888850Y-157622140D01*
X41775300Y-157673930D01*
X41652950Y-157688470D01*
X41529480Y-157664070D01*
X41484140Y-157644370D01*
X41380360Y-157570030D01*
X41305370Y-157465970D01*
X41258320Y-157330870D01*
X41249340Y-157282880D01*
X41236400Y-157188460D01*
X41236330Y-157128350D01*
X41253980Y-157095320D01*
X41294230Y-157082110D01*
X41361930Y-157081470D01*
X41383850Y-157082440D01*
X41516410Y-157088750D01*
X41522130Y-157162830D01*
X41532500Y-157251930D01*
X41549860Y-157310120D01*
X41578610Y-157348730D01*
X41601260Y-157365980D01*
X41669830Y-157389620D01*
X41734420Y-157373910D01*
X41785770Y-157321500D01*
X41791200Y-157311740D01*
X41800880Y-157286460D01*
X41808480Y-157249240D01*
X41814230Y-157195310D01*
X41818360Y-157119880D01*
X41821090Y-157018200D01*
X41822650Y-156885480D01*
X41823290Y-156716950D01*
X41823330Y-156645300D01*
X41823330Y-156041000D01*
X42098500Y-156041000D01*
X42098500Y-156668250D01*
G37*
D13*
X42098500Y-156668250D02*
X42098130Y-156865320D01*
X42098130Y-156865320D02*
X42096610Y-157025070D01*
X42096610Y-157025070D02*
X42093280Y-157152500D01*
X42093280Y-157152500D02*
X42087480Y-157252620D01*
X42087480Y-157252620D02*
X42078570Y-157330430D01*
X42078570Y-157330430D02*
X42065900Y-157390950D01*
X42065900Y-157390950D02*
X42048820Y-157439180D01*
X42048820Y-157439180D02*
X42026670Y-157480130D01*
X42026670Y-157480130D02*
X41998800Y-157518790D01*
X41998800Y-157518790D02*
X41985880Y-157534790D01*
X41985880Y-157534790D02*
X41888850Y-157622140D01*
X41888850Y-157622140D02*
X41775300Y-157673930D01*
X41775300Y-157673930D02*
X41652950Y-157688470D01*
X41652950Y-157688470D02*
X41529480Y-157664070D01*
X41529480Y-157664070D02*
X41484140Y-157644370D01*
X41484140Y-157644370D02*
X41380360Y-157570030D01*
X41380360Y-157570030D02*
X41305370Y-157465970D01*
X41305370Y-157465970D02*
X41258320Y-157330870D01*
X41258320Y-157330870D02*
X41249340Y-157282880D01*
X41249340Y-157282880D02*
X41236400Y-157188460D01*
X41236400Y-157188460D02*
X41236330Y-157128350D01*
X41236330Y-157128350D02*
X41253980Y-157095320D01*
X41253980Y-157095320D02*
X41294230Y-157082110D01*
X41294230Y-157082110D02*
X41361930Y-157081470D01*
X41361930Y-157081470D02*
X41383850Y-157082440D01*
X41383850Y-157082440D02*
X41516410Y-157088750D01*
X41516410Y-157088750D02*
X41522130Y-157162830D01*
X41522130Y-157162830D02*
X41532500Y-157251930D01*
X41532500Y-157251930D02*
X41549860Y-157310120D01*
X41549860Y-157310120D02*
X41578610Y-157348730D01*
X41578610Y-157348730D02*
X41601260Y-157365980D01*
X41601260Y-157365980D02*
X41669830Y-157389620D01*
X41669830Y-157389620D02*
X41734420Y-157373910D01*
X41734420Y-157373910D02*
X41785770Y-157321500D01*
X41785770Y-157321500D02*
X41791200Y-157311740D01*
X41791200Y-157311740D02*
X41800880Y-157286460D01*
X41800880Y-157286460D02*
X41808480Y-157249240D01*
X41808480Y-157249240D02*
X41814230Y-157195310D01*
X41814230Y-157195310D02*
X41818360Y-157119880D01*
X41818360Y-157119880D02*
X41821090Y-157018200D01*
X41821090Y-157018200D02*
X41822650Y-156885480D01*
X41822650Y-156885480D02*
X41823290Y-156716950D01*
X41823290Y-156716950D02*
X41823330Y-156645300D01*
X41823330Y-156645300D02*
X41823330Y-156041000D01*
X41823330Y-156041000D02*
X42098500Y-156041000D01*
X42098500Y-156041000D02*
X42098500Y-156668250D01*
D11*
G36*
X56656316Y-68807763D02*
G01*
X56752651Y-68723199D01*
X56837666Y-68683199D01*
X56962258Y-68650613D01*
X57053821Y-68642899D01*
X57177163Y-68656943D01*
X57293287Y-68699052D01*
X57296842Y-68700907D01*
X57388434Y-68780286D01*
X57423238Y-68899354D01*
X57390323Y-69019806D01*
X57338974Y-69072156D01*
X57229773Y-69133872D01*
X57125872Y-69174127D01*
X57001366Y-69213626D01*
X56877413Y-69250491D01*
X56849878Y-69258391D01*
X56733042Y-69298468D01*
X56614432Y-69354701D01*
X56573884Y-69378070D01*
X56470100Y-69455975D01*
X56383145Y-69553982D01*
X56361392Y-69585676D01*
X56306440Y-69705861D01*
X56281823Y-69830225D01*
X56276518Y-69933722D01*
X56284091Y-70058348D01*
X56309915Y-70183591D01*
X56354065Y-70296423D01*
X56419868Y-70404901D01*
X56500954Y-70498610D01*
X56563503Y-70552878D01*
X56668346Y-70621886D01*
X56785039Y-70675954D01*
X56869417Y-70703698D01*
X56991367Y-70731857D01*
X57117935Y-70748327D01*
X57237003Y-70753157D01*
X57370606Y-70747265D01*
X57498703Y-70729587D01*
X57621294Y-70700124D01*
X57687020Y-70678663D01*
X57801577Y-70629859D01*
X57911690Y-70566564D01*
X58017360Y-70488780D01*
X58074145Y-70439305D01*
X57683357Y-70009438D01*
X57594699Y-70104070D01*
X57486722Y-70176162D01*
X57470865Y-70184071D01*
X57348336Y-70227899D01*
X57222317Y-70244894D01*
X57205251Y-70245132D01*
X57082509Y-70232093D01*
X57069697Y-70229256D01*
X56953812Y-70185536D01*
X56946965Y-70181629D01*
X56859037Y-70101029D01*
X56825454Y-69985013D01*
X56859085Y-69862654D01*
X56911549Y-69807327D01*
X57022317Y-69740201D01*
X57127704Y-69696807D01*
X57245597Y-69656736D01*
X57362394Y-69619527D01*
X57409194Y-69605216D01*
X57528704Y-69562767D01*
X57641160Y-69509837D01*
X57690684Y-69481873D01*
X57796071Y-69404670D01*
X57884628Y-69308766D01*
X57906839Y-69277930D01*
X57962583Y-69161831D01*
X57988815Y-69030870D01*
X57992935Y-68943928D01*
X57983627Y-68811733D01*
X57955704Y-68691371D01*
X57914166Y-68592219D01*
X57847248Y-68485601D01*
X57765560Y-68392894D01*
X57702896Y-68338817D01*
X57598311Y-68269551D01*
X57482391Y-68214711D01*
X57398814Y-68186165D01*
X57278858Y-68156963D01*
X57156594Y-68139883D01*
X57043441Y-68134874D01*
X56912828Y-68140718D01*
X56785077Y-68158249D01*
X56660189Y-68187467D01*
X56635555Y-68194713D01*
X56516105Y-68240103D01*
X56404288Y-68301474D01*
X56300103Y-68378826D01*
X56280182Y-68396214D01*
X56656316Y-68807763D01*
G37*
G36*
X55858863Y-68173953D02*
G01*
X54166870Y-68173953D01*
X54166870Y-68681978D01*
X55309927Y-68681978D01*
X55309927Y-69150924D01*
X54230374Y-69150924D01*
X54230374Y-69658949D01*
X55309927Y-69658949D01*
X55309927Y-70166974D01*
X54103367Y-70166974D01*
X54103367Y-70675000D01*
X55858863Y-70675000D01*
X55858863Y-68173953D01*
G37*
G36*
X53655792Y-68173953D02*
G01*
X53106856Y-68173953D01*
X53106856Y-70166974D01*
X52090806Y-70166974D01*
X52090806Y-70675000D01*
X53655792Y-70675000D01*
X53655792Y-68173953D01*
G37*
G36*
X51777565Y-68173953D02*
G01*
X50085572Y-68173953D01*
X50085572Y-68681978D01*
X51228629Y-68681978D01*
X51228629Y-69150924D01*
X50149076Y-69150924D01*
X50149076Y-69658949D01*
X51228629Y-69658949D01*
X51228629Y-70166974D01*
X50022069Y-70166974D01*
X50022069Y-70675000D01*
X51777565Y-70675000D01*
X51777565Y-68173953D01*
G37*
G36*
X47966766Y-68846842D02*
G01*
X48057136Y-68759525D01*
X48165824Y-68695411D01*
X48284355Y-68657719D01*
X48409511Y-68643361D01*
X48438154Y-68642899D01*
X48560339Y-68652775D01*
X48683357Y-68685500D01*
X48725140Y-68702739D01*
X48833766Y-68764214D01*
X48928834Y-68843922D01*
X48953507Y-68870045D01*
X49029976Y-68971375D01*
X49090550Y-69088366D01*
X49104937Y-69124668D01*
X49140123Y-69248364D01*
X49156681Y-69369880D01*
X49159281Y-69444016D01*
X49151639Y-69571699D01*
X49126112Y-69700527D01*
X49104937Y-69765806D01*
X49053736Y-69877634D01*
X48983946Y-69984089D01*
X48955339Y-70018597D01*
X48865680Y-70103097D01*
X48755609Y-70173659D01*
X48731856Y-70185293D01*
X48615917Y-70226198D01*
X48492498Y-70244197D01*
X48455862Y-70245132D01*
X48325282Y-70233543D01*
X48207400Y-70198776D01*
X48157275Y-70174912D01*
X48051821Y-70102601D01*
X47964132Y-70008550D01*
X47942341Y-69977686D01*
X47484997Y-70319016D01*
X47569375Y-70422895D01*
X47664363Y-70512273D01*
X47769959Y-70587148D01*
X47886166Y-70647522D01*
X48008287Y-70693738D01*
X48132240Y-70726748D01*
X48258025Y-70746555D01*
X48385642Y-70753157D01*
X48511144Y-70748774D01*
X48649208Y-70733032D01*
X48781548Y-70705841D01*
X48908163Y-70667201D01*
X48923587Y-70661566D01*
X49042465Y-70610848D01*
X49153023Y-70550283D01*
X49255261Y-70479872D01*
X49349180Y-70399616D01*
X49433978Y-70309666D01*
X49508854Y-70210785D01*
X49573807Y-70102975D01*
X49628838Y-69986235D01*
X49672649Y-69861213D01*
X49703943Y-69729169D01*
X49721057Y-69607871D01*
X49728587Y-69481196D01*
X49728978Y-69444016D01*
X49724186Y-69315834D01*
X49709811Y-69193087D01*
X49681646Y-69059459D01*
X49640965Y-68932930D01*
X49628838Y-68902407D01*
X49573807Y-68785438D01*
X49508854Y-68677551D01*
X49433978Y-68578747D01*
X49349180Y-68489026D01*
X49255261Y-68408502D01*
X49153023Y-68337901D01*
X49042465Y-68277222D01*
X48923587Y-68226465D01*
X48797687Y-68186394D01*
X48666064Y-68157772D01*
X48528715Y-68140598D01*
X48403839Y-68134963D01*
X48385642Y-68134874D01*
X48257187Y-68141762D01*
X48165824Y-68154413D01*
X48045538Y-68181550D01*
X47941120Y-68216085D01*
X47825629Y-68268949D01*
X47728018Y-68329047D01*
X47631237Y-68407357D01*
X47544836Y-68501849D01*
X47966766Y-68846842D01*
G37*
G36*
X46717464Y-68642899D02*
G01*
X47428210Y-68642899D01*
X47428210Y-68173953D01*
X45458392Y-68173953D01*
X45458392Y-68642899D01*
X46169138Y-68642899D01*
X46169138Y-70675000D01*
X46717464Y-70675000D01*
X46717464Y-68642899D01*
G37*
%LPC*%
D12*
G36*
X63974250Y-120232180D02*
G01*
X64175890Y-120312490D01*
X64351040Y-120408590D01*
X64513350Y-120529060D01*
X64653720Y-120659320D01*
X64744070Y-120753010D01*
X64811430Y-120831390D01*
X64864900Y-120906790D01*
X64913590Y-120991500D01*
X64944970Y-121053290D01*
X64993320Y-121160110D01*
X65039030Y-121276000D01*
X65074860Y-121382060D01*
X65085710Y-121421010D01*
X65088960Y-121434300D01*
X65092040Y-121448400D01*
X65094950Y-121464440D01*
X65097700Y-121483570D01*
X65100290Y-121506900D01*
X65102730Y-121535600D01*
X65105020Y-121570780D01*
X65107170Y-121613590D01*
X65109180Y-121665160D01*
X65111050Y-121726640D01*
X65112790Y-121799150D01*
X65114410Y-121883840D01*
X65115900Y-121981840D01*
X65117280Y-122094290D01*
X65118550Y-122222330D01*
X65119720Y-122367100D01*
X65120780Y-122529720D01*
X65121740Y-122711340D01*
X65122610Y-122913100D01*
X65123390Y-123136120D01*
X65124090Y-123381560D01*
X65124710Y-123650540D01*
X65125250Y-123944210D01*
X65125730Y-124263690D01*
X65126140Y-124610140D01*
X65126490Y-124984670D01*
X65126780Y-125388440D01*
X65127030Y-125822580D01*
X65127220Y-126288220D01*
X65127380Y-126786500D01*
X65127500Y-127318560D01*
X65127580Y-127885540D01*
X65127640Y-128488570D01*
X65127680Y-129128800D01*
X65127690Y-129807350D01*
X65127690Y-130525360D01*
X65127690Y-131283980D01*
X65127680Y-131697420D01*
X65127670Y-132477950D01*
X65127650Y-133217270D01*
X65127610Y-133916540D01*
X65127560Y-134576880D01*
X65127490Y-135199440D01*
X65127400Y-135785350D01*
X65127270Y-136335750D01*
X65127110Y-136851780D01*
X65126910Y-137334560D01*
X65126660Y-137785250D01*
X65126370Y-138204970D01*
X65126030Y-138594870D01*
X65125630Y-138956080D01*
X65125160Y-139289740D01*
X65124630Y-139596980D01*
X65124030Y-139878940D01*
X65123360Y-140136760D01*
X65122600Y-140371580D01*
X65121760Y-140584530D01*
X65120830Y-140776750D01*
X65119810Y-140949370D01*
X65118690Y-141103540D01*
X65117460Y-141240400D01*
X65116130Y-141361060D01*
X65114690Y-141466690D01*
X65113130Y-141558400D01*
X65111450Y-141637350D01*
X65109650Y-141704660D01*
X65107710Y-141761470D01*
X65105640Y-141808920D01*
X65103440Y-141848150D01*
X65101090Y-141880290D01*
X65098590Y-141906490D01*
X65095940Y-141927870D01*
X65093130Y-141945570D01*
X65090160Y-141960740D01*
X65087030Y-141974510D01*
X65086730Y-141975750D01*
X65006000Y-142224620D01*
X64889520Y-142454730D01*
X64740120Y-142662040D01*
X64560630Y-142842520D01*
X64389780Y-142969730D01*
X64212260Y-143072600D01*
X64039040Y-143147260D01*
X63856070Y-143198460D01*
X63649340Y-143230980D01*
X63609360Y-143235140D01*
X63574690Y-143236450D01*
X63499180Y-143237710D01*
X63384300Y-143238920D01*
X63231550Y-143240080D01*
X63042420Y-143241190D01*
X62818390Y-143242240D01*
X62560950Y-143243250D01*
X62271580Y-143244200D01*
X61951780Y-143245110D01*
X61603030Y-143245960D01*
X61226810Y-143246760D01*
X60824620Y-143247520D01*
X60397930Y-143248220D01*
X59948250Y-143248880D01*
X59477050Y-143249480D01*
X58985820Y-143250040D01*
X58476050Y-143250550D01*
X57949230Y-143251010D01*
X57406840Y-143251420D01*
X56850370Y-143251780D01*
X56281300Y-143252090D01*
X55701130Y-143252360D01*
X55111340Y-143252570D01*
X54513420Y-143252740D01*
X53908860Y-143252860D01*
X53299130Y-143252940D01*
X52685740Y-143252960D01*
X52070160Y-143252940D01*
X51453880Y-143252870D01*
X50838390Y-143252760D01*
X50225180Y-143252590D01*
X49615730Y-143252390D01*
X49011540Y-143252130D01*
X48414080Y-143251830D01*
X47824850Y-143251480D01*
X47245320Y-143251090D01*
X46677000Y-143250650D01*
X46121370Y-143250160D01*
X45579900Y-143249630D01*
X45054100Y-143249060D01*
X44545440Y-143248430D01*
X44055420Y-143247770D01*
X43585520Y-143247060D01*
X43137220Y-143246300D01*
X42712020Y-143245500D01*
X42311410Y-143244660D01*
X41936860Y-143243770D01*
X41589870Y-143242830D01*
X41271920Y-143241860D01*
X40984500Y-143240840D01*
X40729100Y-143239770D01*
X40507200Y-143238660D01*
X40320290Y-143237510D01*
X40169860Y-143236320D01*
X40057400Y-143235080D01*
X39984380Y-143233800D01*
X39953140Y-143232570D01*
X39707980Y-143188380D01*
X39471020Y-143105790D01*
X39248180Y-142988380D01*
X39045350Y-142839760D01*
X38868430Y-142663490D01*
X38745550Y-142498840D01*
X38656210Y-142348030D01*
X38590440Y-142205690D01*
X38539880Y-142052470D01*
X38520100Y-141975750D01*
X38516950Y-141962050D01*
X38513960Y-141947060D01*
X38511140Y-141929640D01*
X38508480Y-141908640D01*
X38505960Y-141882940D01*
X38503600Y-141851390D01*
X38501380Y-141812860D01*
X38499300Y-141766220D01*
X38497350Y-141710310D01*
X38495540Y-141644020D01*
X38493850Y-141566200D01*
X38492280Y-141475710D01*
X38490820Y-141371410D01*
X38489480Y-141252180D01*
X38488250Y-141116870D01*
X38487120Y-140964340D01*
X38486090Y-140793460D01*
X38485150Y-140603100D01*
X38484300Y-140392110D01*
X38483540Y-140159350D01*
X38482850Y-139903700D01*
X38482250Y-139624010D01*
X38481710Y-139319150D01*
X38481240Y-138987970D01*
X38480830Y-138629350D01*
X38480480Y-138242150D01*
X38480190Y-137825220D01*
X38480100Y-137663040D01*
X50310450Y-137663040D01*
X50314310Y-137686150D01*
X50325680Y-137747070D01*
X50343850Y-137842070D01*
X50368070Y-137967440D01*
X50397650Y-138119460D01*
X50431840Y-138294400D01*
X50469930Y-138488560D01*
X50511190Y-138698210D01*
X50547090Y-138880120D01*
X50784450Y-140081330D01*
X51002490Y-140081330D01*
X51100590Y-140080830D01*
X51164370Y-140078240D01*
X51201860Y-140071870D01*
X51221070Y-140060080D01*
X51230010Y-140041190D01*
X51231930Y-140033710D01*
X51237920Y-140005390D01*
X51251120Y-139940840D01*
X51270620Y-139844560D01*
X51295530Y-139721040D01*
X51324950Y-139574790D01*
X51357980Y-139410320D01*
X51393200Y-139234660D01*
X51723860Y-139234660D01*
X51738620Y-139409290D01*
X51771280Y-139591300D01*
X51834060Y-139750110D01*
X51923010Y-139883200D01*
X52034190Y-139988050D01*
X52163670Y-140062140D01*
X52307490Y-140102940D01*
X52461720Y-140107930D01*
X52622410Y-140074600D01*
X52718320Y-140036100D01*
X52851920Y-139951630D01*
X52960580Y-139836010D01*
X53046550Y-139688060D01*
X53059470Y-139658830D01*
X53069850Y-139629920D01*
X53077940Y-139596520D01*
X53084050Y-139553810D01*
X53088440Y-139496960D01*
X53091410Y-139421150D01*
X53093220Y-139321580D01*
X53094170Y-139193410D01*
X53094530Y-139031840D01*
X53094580Y-138864250D01*
X53094580Y-138144580D01*
X53033510Y-138012340D01*
X52947090Y-137871780D01*
X52831070Y-137753160D01*
X52694580Y-137665700D01*
X52685550Y-137661470D01*
X52611630Y-137634520D01*
X52528300Y-137620280D01*
X52419560Y-137616050D01*
X52417250Y-137616050D01*
X52268960Y-137627020D01*
X52145900Y-137663110D01*
X52036160Y-137729040D01*
X51956900Y-137799480D01*
X51863510Y-137908930D01*
X51801640Y-138023550D01*
X51766400Y-138155080D01*
X51753790Y-138287460D01*
X51746280Y-138472660D01*
X52152660Y-138472660D01*
X52152740Y-138340370D01*
X52159980Y-138236500D01*
X52183250Y-138160300D01*
X52194140Y-138140320D01*
X52262900Y-138063530D01*
X52349180Y-138020400D01*
X52443560Y-138012070D01*
X52536580Y-138039680D01*
X52605770Y-138090470D01*
X52671250Y-138155920D01*
X52677380Y-138832300D01*
X52678970Y-139033310D01*
X52679300Y-139196420D01*
X52677710Y-139326020D01*
X52673580Y-139426550D01*
X52666250Y-139502410D01*
X52655080Y-139558030D01*
X52639420Y-139597810D01*
X52618640Y-139626190D01*
X52592080Y-139647560D01*
X52559120Y-139666360D01*
X52555520Y-139668220D01*
X52466290Y-139696190D01*
X52372570Y-139696250D01*
X52290800Y-139669110D01*
X52271510Y-139656130D01*
X52204610Y-139584490D01*
X52166120Y-139493460D01*
X52152750Y-139374870D01*
X52152660Y-139362710D01*
X52152660Y-139234660D01*
X51723860Y-139234660D01*
X51393200Y-139234660D01*
X51393710Y-139232130D01*
X51431250Y-139044710D01*
X51469700Y-138852580D01*
X51508150Y-138660240D01*
X51545700Y-138472180D01*
X51581460Y-138292920D01*
X51614520Y-138126950D01*
X51643990Y-137978780D01*
X51668960Y-137852900D01*
X51688530Y-137753840D01*
X51701800Y-137686080D01*
X51707870Y-137654130D01*
X51708160Y-137652230D01*
X51688530Y-137650000D01*
X51635690Y-137649350D01*
X51558740Y-137650300D01*
X51503300Y-137651690D01*
X51298430Y-137657750D01*
X51157960Y-138445820D01*
X51126100Y-138623080D01*
X51096120Y-138787070D01*
X51068910Y-138933150D01*
X51045350Y-139056680D01*
X51026330Y-139153030D01*
X51012730Y-139217570D01*
X51005440Y-139245650D01*
X51005000Y-139246380D01*
X50992650Y-139237750D01*
X50980380Y-139199520D01*
X50980310Y-139199140D01*
X50973450Y-139162560D01*
X50960780Y-139092000D01*
X50943270Y-138993140D01*
X50921920Y-138871650D01*
X50897710Y-138733220D01*
X50871630Y-138583540D01*
X50844650Y-138428280D01*
X50817770Y-138273130D01*
X50791970Y-138123770D01*
X50768240Y-137985880D01*
X50747560Y-137865160D01*
X50730920Y-137767270D01*
X50719300Y-137697910D01*
X50713690Y-137662760D01*
X50713330Y-137659670D01*
X50694060Y-137653440D01*
X50643690Y-137649420D01*
X50573420Y-137647510D01*
X50494410Y-137647630D01*
X50417850Y-137649680D01*
X50354920Y-137653570D01*
X50316790Y-137659200D01*
X50310450Y-137663040D01*
X38480100Y-137663040D01*
X38479940Y-137377440D01*
X38479730Y-136897650D01*
X38479570Y-136384740D01*
X38479440Y-135837560D01*
X38479340Y-135254970D01*
X38479270Y-134635840D01*
X38479220Y-133979020D01*
X38479180Y-133283390D01*
X38479160Y-132547810D01*
X38479150Y-131771130D01*
X38479140Y-131697420D01*
X38479140Y-130917110D01*
X38479130Y-130178000D01*
X38479140Y-129478950D01*
X38479160Y-128818810D01*
X38479210Y-128196470D01*
X38479280Y-127610770D01*
X38479380Y-127060580D01*
X38479520Y-126544760D01*
X38479690Y-126062190D01*
X38479910Y-125611710D01*
X38480180Y-125192200D01*
X38480500Y-124802510D01*
X38480880Y-124441510D01*
X38481320Y-124108060D01*
X38481820Y-123801030D01*
X38481857Y-123783000D01*
X49041160Y-123783000D01*
X49782000Y-123783000D01*
X49782000Y-124354500D01*
X49041160Y-124354500D01*
X49041160Y-124756660D01*
X49782000Y-124756660D01*
X49782000Y-125391660D01*
X49041160Y-125391660D01*
X49041160Y-125815000D01*
X50184160Y-125815000D01*
X50184160Y-123380830D01*
X50311160Y-123380830D01*
X50311160Y-123783000D01*
X50798000Y-123783000D01*
X50798000Y-125815000D01*
X51200160Y-125815000D01*
X51200160Y-125789470D01*
X51545490Y-125789470D01*
X51552760Y-125803400D01*
X51578090Y-125811030D01*
X51628990Y-125814270D01*
X51712960Y-125814990D01*
X51738080Y-125815000D01*
X51832970Y-125814010D01*
X51893610Y-125810100D01*
X51928070Y-125801850D01*
X51944410Y-125787830D01*
X51948370Y-125777960D01*
X51957320Y-125735190D01*
X51967970Y-125670400D01*
X51972260Y-125640370D01*
X51985920Y-125539830D01*
X52485420Y-125539830D01*
X52504250Y-125672120D01*
X52523080Y-125804410D01*
X52729080Y-125810470D01*
X52826990Y-125812140D01*
X52888570Y-125809800D01*
X52919690Y-125802810D01*
X52926240Y-125790540D01*
X52925870Y-125789300D01*
X52920500Y-125763850D01*
X52908430Y-125700640D01*
X52890370Y-125603550D01*
X52867030Y-125476510D01*
X52839120Y-125323420D01*
X52807370Y-125148190D01*
X52772480Y-124954720D01*
X52735160Y-124746920D01*
X52714170Y-124629660D01*
X52675680Y-124414540D01*
X52639150Y-124210660D01*
X52638380Y-124206330D01*
X52994020Y-124206330D01*
X53401500Y-124206330D01*
X53401610Y-124116370D01*
X53416120Y-123982170D01*
X53457950Y-123875400D01*
X53525160Y-123798860D01*
X53615810Y-123755320D01*
X53659180Y-123747670D01*
X53762070Y-123756160D01*
X53847480Y-123802400D01*
X53911060Y-123883920D01*
X53916480Y-123894820D01*
X53926910Y-123921620D01*
X53935100Y-123956350D01*
X53941320Y-124004040D01*
X53945830Y-124069670D01*
X53948880Y-124158250D01*
X53950730Y-124274780D01*
X53951620Y-124424270D01*
X53951830Y-124585920D01*
X53951490Y-124779210D01*
X53950000Y-124934960D01*
X53946670Y-125057970D01*
X53940800Y-125153040D01*
X53931690Y-125224950D01*
X53918640Y-125278510D01*
X53900960Y-125318500D01*
X53877950Y-125349730D01*
X53848900Y-125376990D01*
X53835120Y-125388110D01*
X53758160Y-125424410D01*
X53665180Y-125433000D01*
X53572930Y-125413000D01*
X53551760Y-125403330D01*
X53483240Y-125351540D01*
X53437700Y-125275780D01*
X53411950Y-125169660D01*
X53406120Y-125112490D01*
X53395810Y-124968330D01*
X53676660Y-124968330D01*
X53676660Y-124566160D01*
X52995900Y-124566160D01*
X53002910Y-124941870D01*
X53005810Y-125078500D01*
X53009320Y-125180610D01*
X53014440Y-125256020D01*
X53022140Y-125312540D01*
X53033410Y-125357980D01*
X53049240Y-125400150D01*
X53064970Y-125434960D01*
X53147360Y-125576610D01*
X53248330Y-125685190D01*
X53358790Y-125759830D01*
X53514950Y-125821770D01*
X53677620Y-125843210D01*
X53840770Y-125823940D01*
X53966700Y-125779500D01*
X54080210Y-125707250D01*
X54185000Y-125605100D01*
X54269900Y-125485380D01*
X54311540Y-125397710D01*
X54323520Y-125363920D01*
X54333070Y-125330180D01*
X54340420Y-125291570D01*
X54345790Y-125243190D01*
X54349410Y-125180090D01*
X54351490Y-125097380D01*
X54352270Y-124990130D01*
X54351950Y-124853420D01*
X54350780Y-124682340D01*
X54349720Y-124557360D01*
X54343410Y-123835910D01*
X54285210Y-123725500D01*
X54185500Y-123578600D01*
X54056690Y-123462210D01*
X53967000Y-123407430D01*
X53904490Y-123377660D01*
X53847250Y-123360210D01*
X53779920Y-123352070D01*
X53687140Y-123350200D01*
X53676660Y-123350240D01*
X53578350Y-123352910D01*
X53506900Y-123361790D01*
X53446980Y-123379900D01*
X53390910Y-123406190D01*
X53244530Y-123503570D01*
X53132600Y-123625460D01*
X53055030Y-123772020D01*
X53011730Y-123943400D01*
X53003230Y-124031710D01*
X52994020Y-124206330D01*
X52638380Y-124206330D01*
X52605310Y-124022090D01*
X52574900Y-123852850D01*
X52548630Y-123707010D01*
X52527230Y-123588610D01*
X52511440Y-123501700D01*
X52501990Y-123450330D01*
X52499830Y-123439040D01*
X52487970Y-123380830D01*
X51965530Y-123380830D01*
X51953510Y-123439040D01*
X51947700Y-123470610D01*
X51935450Y-123539810D01*
X51917470Y-123642530D01*
X51894460Y-123774680D01*
X51867150Y-123932170D01*
X51836240Y-124110880D01*
X51802450Y-124306720D01*
X51766480Y-124515600D01*
X51750510Y-124608500D01*
X51713880Y-124821310D01*
X51679170Y-125022510D01*
X51647060Y-125208060D01*
X51618270Y-125373910D01*
X51593500Y-125516010D01*
X51573460Y-125630310D01*
X51558850Y-125712760D01*
X51550370Y-125759310D01*
X51548770Y-125767370D01*
X51545490Y-125789470D01*
X51200160Y-125789470D01*
X51200160Y-123783000D01*
X51665830Y-123783000D01*
X51665830Y-123380830D01*
X50311160Y-123380830D01*
X50184160Y-123380830D01*
X49041160Y-123380830D01*
X49041160Y-123783000D01*
X38481857Y-123783000D01*
X38482400Y-123519280D01*
X38482760Y-123380830D01*
X38483060Y-123261660D01*
X38483800Y-123027050D01*
X38484620Y-122814310D01*
X38485530Y-122622300D01*
X38486540Y-122449880D01*
X38487650Y-122295910D01*
X38488860Y-122159270D01*
X38490190Y-122038800D01*
X38491620Y-121933380D01*
X38493170Y-121841870D01*
X38494850Y-121763130D01*
X38496660Y-121696020D01*
X38498590Y-121639400D01*
X38500660Y-121592150D01*
X38502880Y-121553120D01*
X38505240Y-121521180D01*
X38507750Y-121495180D01*
X38510420Y-121473990D01*
X38513240Y-121456480D01*
X38516240Y-121441510D01*
X38519400Y-121427930D01*
X38521120Y-121421010D01*
X38550260Y-121325360D01*
X38592490Y-121211500D01*
X38640560Y-121098320D01*
X38661860Y-121053290D01*
X38712110Y-120956790D01*
X38761580Y-120877150D01*
X38819350Y-120802060D01*
X38894540Y-120719200D01*
X38953110Y-120659320D01*
X39115350Y-120510880D01*
X39278620Y-120394240D01*
X39456570Y-120300800D01*
X39632580Y-120232180D01*
X39801910Y-120174080D01*
X63804910Y-120174080D01*
X63974250Y-120232180D01*
G37*
D13*
X63974250Y-120232180D02*
X64175890Y-120312490D01*
X64175890Y-120312490D02*
X64351040Y-120408590D01*
X64351040Y-120408590D02*
X64513350Y-120529060D01*
X64513350Y-120529060D02*
X64653720Y-120659320D01*
X64653720Y-120659320D02*
X64744070Y-120753010D01*
X64744070Y-120753010D02*
X64811430Y-120831390D01*
X64811430Y-120831390D02*
X64864900Y-120906790D01*
X64864900Y-120906790D02*
X64913590Y-120991500D01*
X64913590Y-120991500D02*
X64944970Y-121053290D01*
X64944970Y-121053290D02*
X64993320Y-121160110D01*
X64993320Y-121160110D02*
X65039030Y-121276000D01*
X65039030Y-121276000D02*
X65074860Y-121382060D01*
X65074860Y-121382060D02*
X65085710Y-121421010D01*
X65085710Y-121421010D02*
X65088960Y-121434300D01*
X65088960Y-121434300D02*
X65092040Y-121448400D01*
X65092040Y-121448400D02*
X65094950Y-121464440D01*
X65094950Y-121464440D02*
X65097700Y-121483570D01*
X65097700Y-121483570D02*
X65100290Y-121506900D01*
X65100290Y-121506900D02*
X65102730Y-121535600D01*
X65102730Y-121535600D02*
X65105020Y-121570780D01*
X65105020Y-121570780D02*
X65107170Y-121613590D01*
X65107170Y-121613590D02*
X65109180Y-121665160D01*
X65109180Y-121665160D02*
X65111050Y-121726640D01*
X65111050Y-121726640D02*
X65112790Y-121799150D01*
X65112790Y-121799150D02*
X65114410Y-121883840D01*
X65114410Y-121883840D02*
X65115900Y-121981840D01*
X65115900Y-121981840D02*
X65117280Y-122094290D01*
X65117280Y-122094290D02*
X65118550Y-122222330D01*
X65118550Y-122222330D02*
X65119720Y-122367100D01*
X65119720Y-122367100D02*
X65120780Y-122529720D01*
X65120780Y-122529720D02*
X65121740Y-122711340D01*
X65121740Y-122711340D02*
X65122610Y-122913100D01*
X65122610Y-122913100D02*
X65123390Y-123136120D01*
X65123390Y-123136120D02*
X65124090Y-123381560D01*
X65124090Y-123381560D02*
X65124710Y-123650540D01*
X65124710Y-123650540D02*
X65125250Y-123944210D01*
X65125250Y-123944210D02*
X65125730Y-124263690D01*
X65125730Y-124263690D02*
X65126140Y-124610140D01*
X65126140Y-124610140D02*
X65126490Y-124984670D01*
X65126490Y-124984670D02*
X65126780Y-125388440D01*
X65126780Y-125388440D02*
X65127030Y-125822580D01*
X65127030Y-125822580D02*
X65127220Y-126288220D01*
X65127220Y-126288220D02*
X65127380Y-126786500D01*
X65127380Y-126786500D02*
X65127500Y-127318560D01*
X65127500Y-127318560D02*
X65127580Y-127885540D01*
X65127580Y-127885540D02*
X65127640Y-128488570D01*
X65127640Y-128488570D02*
X65127680Y-129128800D01*
X65127680Y-129128800D02*
X65127690Y-129807350D01*
X65127690Y-129807350D02*
X65127690Y-130525360D01*
X65127690Y-130525360D02*
X65127690Y-131283980D01*
X65127690Y-131283980D02*
X65127680Y-131697420D01*
X65127680Y-131697420D02*
X65127670Y-132477950D01*
X65127670Y-132477950D02*
X65127650Y-133217270D01*
X65127650Y-133217270D02*
X65127610Y-133916540D01*
X65127610Y-133916540D02*
X65127560Y-134576880D01*
X65127560Y-134576880D02*
X65127490Y-135199440D01*
X65127490Y-135199440D02*
X65127400Y-135785350D01*
X65127400Y-135785350D02*
X65127270Y-136335750D01*
X65127270Y-136335750D02*
X65127110Y-136851780D01*
X65127110Y-136851780D02*
X65126910Y-137334560D01*
X65126910Y-137334560D02*
X65126660Y-137785250D01*
X65126660Y-137785250D02*
X65126370Y-138204970D01*
X65126370Y-138204970D02*
X65126030Y-138594870D01*
X65126030Y-138594870D02*
X65125630Y-138956080D01*
X65125630Y-138956080D02*
X65125160Y-139289740D01*
X65125160Y-139289740D02*
X65124630Y-139596980D01*
X65124630Y-139596980D02*
X65124030Y-139878940D01*
X65124030Y-139878940D02*
X65123360Y-140136760D01*
X65123360Y-140136760D02*
X65122600Y-140371580D01*
X65122600Y-140371580D02*
X65121760Y-140584530D01*
X65121760Y-140584530D02*
X65120830Y-140776750D01*
X65120830Y-140776750D02*
X65119810Y-140949370D01*
X65119810Y-140949370D02*
X65118690Y-141103540D01*
X65118690Y-141103540D02*
X65117460Y-141240400D01*
X65117460Y-141240400D02*
X65116130Y-141361060D01*
X65116130Y-141361060D02*
X65114690Y-141466690D01*
X65114690Y-141466690D02*
X65113130Y-141558400D01*
X65113130Y-141558400D02*
X65111450Y-141637350D01*
X65111450Y-141637350D02*
X65109650Y-141704660D01*
X65109650Y-141704660D02*
X65107710Y-141761470D01*
X65107710Y-141761470D02*
X65105640Y-141808920D01*
X65105640Y-141808920D02*
X65103440Y-141848150D01*
X65103440Y-141848150D02*
X65101090Y-141880290D01*
X65101090Y-141880290D02*
X65098590Y-141906490D01*
X65098590Y-141906490D02*
X65095940Y-141927870D01*
X65095940Y-141927870D02*
X65093130Y-141945570D01*
X65093130Y-141945570D02*
X65090160Y-141960740D01*
X65090160Y-141960740D02*
X65087030Y-141974510D01*
X65087030Y-141974510D02*
X65086730Y-141975750D01*
X65086730Y-141975750D02*
X65006000Y-142224620D01*
X65006000Y-142224620D02*
X64889520Y-142454730D01*
X64889520Y-142454730D02*
X64740120Y-142662040D01*
X64740120Y-142662040D02*
X64560630Y-142842520D01*
X64560630Y-142842520D02*
X64389780Y-142969730D01*
X64389780Y-142969730D02*
X64212260Y-143072600D01*
X64212260Y-143072600D02*
X64039040Y-143147260D01*
X64039040Y-143147260D02*
X63856070Y-143198460D01*
X63856070Y-143198460D02*
X63649340Y-143230980D01*
X63649340Y-143230980D02*
X63609360Y-143235140D01*
X63609360Y-143235140D02*
X63574690Y-143236450D01*
X63574690Y-143236450D02*
X63499180Y-143237710D01*
X63499180Y-143237710D02*
X63384300Y-143238920D01*
X63384300Y-143238920D02*
X63231550Y-143240080D01*
X63231550Y-143240080D02*
X63042420Y-143241190D01*
X63042420Y-143241190D02*
X62818390Y-143242240D01*
X62818390Y-143242240D02*
X62560950Y-143243250D01*
X62560950Y-143243250D02*
X62271580Y-143244200D01*
X62271580Y-143244200D02*
X61951780Y-143245110D01*
X61951780Y-143245110D02*
X61603030Y-143245960D01*
X61603030Y-143245960D02*
X61226810Y-143246760D01*
X61226810Y-143246760D02*
X60824620Y-143247520D01*
X60824620Y-143247520D02*
X60397930Y-143248220D01*
X60397930Y-143248220D02*
X59948250Y-143248880D01*
X59948250Y-143248880D02*
X59477050Y-143249480D01*
X59477050Y-143249480D02*
X58985820Y-143250040D01*
X58985820Y-143250040D02*
X58476050Y-143250550D01*
X58476050Y-143250550D02*
X57949230Y-143251010D01*
X57949230Y-143251010D02*
X57406840Y-143251420D01*
X57406840Y-143251420D02*
X56850370Y-143251780D01*
X56850370Y-143251780D02*
X56281300Y-143252090D01*
X56281300Y-143252090D02*
X55701130Y-143252360D01*
X55701130Y-143252360D02*
X55111340Y-143252570D01*
X55111340Y-143252570D02*
X54513420Y-143252740D01*
X54513420Y-143252740D02*
X53908860Y-143252860D01*
X53908860Y-143252860D02*
X53299130Y-143252940D01*
X53299130Y-143252940D02*
X52685740Y-143252960D01*
X52685740Y-143252960D02*
X52070160Y-143252940D01*
X52070160Y-143252940D02*
X51453880Y-143252870D01*
X51453880Y-143252870D02*
X50838390Y-143252760D01*
X50838390Y-143252760D02*
X50225180Y-143252590D01*
X50225180Y-143252590D02*
X49615730Y-143252390D01*
X49615730Y-143252390D02*
X49011540Y-143252130D01*
X49011540Y-143252130D02*
X48414080Y-143251830D01*
X48414080Y-143251830D02*
X47824850Y-143251480D01*
X47824850Y-143251480D02*
X47245320Y-143251090D01*
X47245320Y-143251090D02*
X46677000Y-143250650D01*
X46677000Y-143250650D02*
X46121370Y-143250160D01*
X46121370Y-143250160D02*
X45579900Y-143249630D01*
X45579900Y-143249630D02*
X45054100Y-143249060D01*
X45054100Y-143249060D02*
X44545440Y-143248430D01*
X44545440Y-143248430D02*
X44055420Y-143247770D01*
X44055420Y-143247770D02*
X43585520Y-143247060D01*
X43585520Y-143247060D02*
X43137220Y-143246300D01*
X43137220Y-143246300D02*
X42712020Y-143245500D01*
X42712020Y-143245500D02*
X42311410Y-143244660D01*
X42311410Y-143244660D02*
X41936860Y-143243770D01*
X41936860Y-143243770D02*
X41589870Y-143242830D01*
X41589870Y-143242830D02*
X41271920Y-143241860D01*
X41271920Y-143241860D02*
X40984500Y-143240840D01*
X40984500Y-143240840D02*
X40729100Y-143239770D01*
X40729100Y-143239770D02*
X40507200Y-143238660D01*
X40507200Y-143238660D02*
X40320290Y-143237510D01*
X40320290Y-143237510D02*
X40169860Y-143236320D01*
X40169860Y-143236320D02*
X40057400Y-143235080D01*
X40057400Y-143235080D02*
X39984380Y-143233800D01*
X39984380Y-143233800D02*
X39953140Y-143232570D01*
X39953140Y-143232570D02*
X39707980Y-143188380D01*
X39707980Y-143188380D02*
X39471020Y-143105790D01*
X39471020Y-143105790D02*
X39248180Y-142988380D01*
X39248180Y-142988380D02*
X39045350Y-142839760D01*
X39045350Y-142839760D02*
X38868430Y-142663490D01*
X38868430Y-142663490D02*
X38745550Y-142498840D01*
X38745550Y-142498840D02*
X38656210Y-142348030D01*
X38656210Y-142348030D02*
X38590440Y-142205690D01*
X38590440Y-142205690D02*
X38539880Y-142052470D01*
X38539880Y-142052470D02*
X38520100Y-141975750D01*
X38520100Y-141975750D02*
X38516950Y-141962050D01*
X38516950Y-141962050D02*
X38513960Y-141947060D01*
X38513960Y-141947060D02*
X38511140Y-141929640D01*
X38511140Y-141929640D02*
X38508480Y-141908640D01*
X38508480Y-141908640D02*
X38505960Y-141882940D01*
X38505960Y-141882940D02*
X38503600Y-141851390D01*
X38503600Y-141851390D02*
X38501380Y-141812860D01*
X38501380Y-141812860D02*
X38499300Y-141766220D01*
X38499300Y-141766220D02*
X38497350Y-141710310D01*
X38497350Y-141710310D02*
X38495540Y-141644020D01*
X38495540Y-141644020D02*
X38493850Y-141566200D01*
X38493850Y-141566200D02*
X38492280Y-141475710D01*
X38492280Y-141475710D02*
X38490820Y-141371410D01*
X38490820Y-141371410D02*
X38489480Y-141252180D01*
X38489480Y-141252180D02*
X38488250Y-141116870D01*
X38488250Y-141116870D02*
X38487120Y-140964340D01*
X38487120Y-140964340D02*
X38486090Y-140793460D01*
X38486090Y-140793460D02*
X38485150Y-140603100D01*
X38485150Y-140603100D02*
X38484300Y-140392110D01*
X38484300Y-140392110D02*
X38483540Y-140159350D01*
X38483540Y-140159350D02*
X38482850Y-139903700D01*
X38482850Y-139903700D02*
X38482250Y-139624010D01*
X38482250Y-139624010D02*
X38481710Y-139319150D01*
X38481710Y-139319150D02*
X38481240Y-138987970D01*
X38481240Y-138987970D02*
X38480830Y-138629350D01*
X38480830Y-138629350D02*
X38480480Y-138242150D01*
X38480480Y-138242150D02*
X38480190Y-137825220D01*
X38480190Y-137825220D02*
X38480100Y-137663040D01*
X38480100Y-137663040D02*
X50310450Y-137663040D01*
X50310450Y-137663040D02*
X50314310Y-137686150D01*
X50314310Y-137686150D02*
X50325680Y-137747070D01*
X50325680Y-137747070D02*
X50343850Y-137842070D01*
X50343850Y-137842070D02*
X50368070Y-137967440D01*
X50368070Y-137967440D02*
X50397650Y-138119460D01*
X50397650Y-138119460D02*
X50431840Y-138294400D01*
X50431840Y-138294400D02*
X50469930Y-138488560D01*
X50469930Y-138488560D02*
X50511190Y-138698210D01*
X50511190Y-138698210D02*
X50547090Y-138880120D01*
X50547090Y-138880120D02*
X50784450Y-140081330D01*
X50784450Y-140081330D02*
X51002490Y-140081330D01*
X51002490Y-140081330D02*
X51100590Y-140080830D01*
X51100590Y-140080830D02*
X51164370Y-140078240D01*
X51164370Y-140078240D02*
X51201860Y-140071870D01*
X51201860Y-140071870D02*
X51221070Y-140060080D01*
X51221070Y-140060080D02*
X51230010Y-140041190D01*
X51230010Y-140041190D02*
X51231930Y-140033710D01*
X51231930Y-140033710D02*
X51237920Y-140005390D01*
X51237920Y-140005390D02*
X51251120Y-139940840D01*
X51251120Y-139940840D02*
X51270620Y-139844560D01*
X51270620Y-139844560D02*
X51295530Y-139721040D01*
X51295530Y-139721040D02*
X51324950Y-139574790D01*
X51324950Y-139574790D02*
X51357980Y-139410320D01*
X51357980Y-139410320D02*
X51393200Y-139234660D01*
X51393200Y-139234660D02*
X51723860Y-139234660D01*
X51723860Y-139234660D02*
X51738620Y-139409290D01*
X51738620Y-139409290D02*
X51771280Y-139591300D01*
X51771280Y-139591300D02*
X51834060Y-139750110D01*
X51834060Y-139750110D02*
X51923010Y-139883200D01*
X51923010Y-139883200D02*
X52034190Y-139988050D01*
X52034190Y-139988050D02*
X52163670Y-140062140D01*
X52163670Y-140062140D02*
X52307490Y-140102940D01*
X52307490Y-140102940D02*
X52461720Y-140107930D01*
X52461720Y-140107930D02*
X52622410Y-140074600D01*
X52622410Y-140074600D02*
X52718320Y-140036100D01*
X52718320Y-140036100D02*
X52851920Y-139951630D01*
X52851920Y-139951630D02*
X52960580Y-139836010D01*
X52960580Y-139836010D02*
X53046550Y-139688060D01*
X53046550Y-139688060D02*
X53059470Y-139658830D01*
X53059470Y-139658830D02*
X53069850Y-139629920D01*
X53069850Y-139629920D02*
X53077940Y-139596520D01*
X53077940Y-139596520D02*
X53084050Y-139553810D01*
X53084050Y-139553810D02*
X53088440Y-139496960D01*
X53088440Y-139496960D02*
X53091410Y-139421150D01*
X53091410Y-139421150D02*
X53093220Y-139321580D01*
X53093220Y-139321580D02*
X53094170Y-139193410D01*
X53094170Y-139193410D02*
X53094530Y-139031840D01*
X53094530Y-139031840D02*
X53094580Y-138864250D01*
X53094580Y-138864250D02*
X53094580Y-138144580D01*
X53094580Y-138144580D02*
X53033510Y-138012340D01*
X53033510Y-138012340D02*
X52947090Y-137871780D01*
X52947090Y-137871780D02*
X52831070Y-137753160D01*
X52831070Y-137753160D02*
X52694580Y-137665700D01*
X52694580Y-137665700D02*
X52685550Y-137661470D01*
X52685550Y-137661470D02*
X52611630Y-137634520D01*
X52611630Y-137634520D02*
X52528300Y-137620280D01*
X52528300Y-137620280D02*
X52419560Y-137616050D01*
X52419560Y-137616050D02*
X52417250Y-137616050D01*
X52417250Y-137616050D02*
X52268960Y-137627020D01*
X52268960Y-137627020D02*
X52145900Y-137663110D01*
X52145900Y-137663110D02*
X52036160Y-137729040D01*
X52036160Y-137729040D02*
X51956900Y-137799480D01*
X51956900Y-137799480D02*
X51863510Y-137908930D01*
X51863510Y-137908930D02*
X51801640Y-138023550D01*
X51801640Y-138023550D02*
X51766400Y-138155080D01*
X51766400Y-138155080D02*
X51753790Y-138287460D01*
X51753790Y-138287460D02*
X51746280Y-138472660D01*
X51746280Y-138472660D02*
X52152660Y-138472660D01*
X52152660Y-138472660D02*
X52152740Y-138340370D01*
X52152740Y-138340370D02*
X52159980Y-138236500D01*
X52159980Y-138236500D02*
X52183250Y-138160300D01*
X52183250Y-138160300D02*
X52194140Y-138140320D01*
X52194140Y-138140320D02*
X52262900Y-138063530D01*
X52262900Y-138063530D02*
X52349180Y-138020400D01*
X52349180Y-138020400D02*
X52443560Y-138012070D01*
X52443560Y-138012070D02*
X52536580Y-138039680D01*
X52536580Y-138039680D02*
X52605770Y-138090470D01*
X52605770Y-138090470D02*
X52671250Y-138155920D01*
X52671250Y-138155920D02*
X52677380Y-138832300D01*
X52677380Y-138832300D02*
X52678970Y-139033310D01*
X52678970Y-139033310D02*
X52679300Y-139196420D01*
X52679300Y-139196420D02*
X52677710Y-139326020D01*
X52677710Y-139326020D02*
X52673580Y-139426550D01*
X52673580Y-139426550D02*
X52666250Y-139502410D01*
X52666250Y-139502410D02*
X52655080Y-139558030D01*
X52655080Y-139558030D02*
X52639420Y-139597810D01*
X52639420Y-139597810D02*
X52618640Y-139626190D01*
X52618640Y-139626190D02*
X52592080Y-139647560D01*
X52592080Y-139647560D02*
X52559120Y-139666360D01*
X52559120Y-139666360D02*
X52555520Y-139668220D01*
X52555520Y-139668220D02*
X52466290Y-139696190D01*
X52466290Y-139696190D02*
X52372570Y-139696250D01*
X52372570Y-139696250D02*
X52290800Y-139669110D01*
X52290800Y-139669110D02*
X52271510Y-139656130D01*
X52271510Y-139656130D02*
X52204610Y-139584490D01*
X52204610Y-139584490D02*
X52166120Y-139493460D01*
X52166120Y-139493460D02*
X52152750Y-139374870D01*
X52152750Y-139374870D02*
X52152660Y-139362710D01*
X52152660Y-139362710D02*
X52152660Y-139234660D01*
X52152660Y-139234660D02*
X51723860Y-139234660D01*
X51723860Y-139234660D02*
X51393200Y-139234660D01*
X51393200Y-139234660D02*
X51393710Y-139232130D01*
X51393710Y-139232130D02*
X51431250Y-139044710D01*
X51431250Y-139044710D02*
X51469700Y-138852580D01*
X51469700Y-138852580D02*
X51508150Y-138660240D01*
X51508150Y-138660240D02*
X51545700Y-138472180D01*
X51545700Y-138472180D02*
X51581460Y-138292920D01*
X51581460Y-138292920D02*
X51614520Y-138126950D01*
X51614520Y-138126950D02*
X51643990Y-137978780D01*
X51643990Y-137978780D02*
X51668960Y-137852900D01*
X51668960Y-137852900D02*
X51688530Y-137753840D01*
X51688530Y-137753840D02*
X51701800Y-137686080D01*
X51701800Y-137686080D02*
X51707870Y-137654130D01*
X51707870Y-137654130D02*
X51708160Y-137652230D01*
X51708160Y-137652230D02*
X51688530Y-137650000D01*
X51688530Y-137650000D02*
X51635690Y-137649350D01*
X51635690Y-137649350D02*
X51558740Y-137650300D01*
X51558740Y-137650300D02*
X51503300Y-137651690D01*
X51503300Y-137651690D02*
X51298430Y-137657750D01*
X51298430Y-137657750D02*
X51157960Y-138445820D01*
X51157960Y-138445820D02*
X51126100Y-138623080D01*
X51126100Y-138623080D02*
X51096120Y-138787070D01*
X51096120Y-138787070D02*
X51068910Y-138933150D01*
X51068910Y-138933150D02*
X51045350Y-139056680D01*
X51045350Y-139056680D02*
X51026330Y-139153030D01*
X51026330Y-139153030D02*
X51012730Y-139217570D01*
X51012730Y-139217570D02*
X51005440Y-139245650D01*
X51005440Y-139245650D02*
X51005000Y-139246380D01*
X51005000Y-139246380D02*
X50992650Y-139237750D01*
X50992650Y-139237750D02*
X50980380Y-139199520D01*
X50980380Y-139199520D02*
X50980310Y-139199140D01*
X50980310Y-139199140D02*
X50973450Y-139162560D01*
X50973450Y-139162560D02*
X50960780Y-139092000D01*
X50960780Y-139092000D02*
X50943270Y-138993140D01*
X50943270Y-138993140D02*
X50921920Y-138871650D01*
X50921920Y-138871650D02*
X50897710Y-138733220D01*
X50897710Y-138733220D02*
X50871630Y-138583540D01*
X50871630Y-138583540D02*
X50844650Y-138428280D01*
X50844650Y-138428280D02*
X50817770Y-138273130D01*
X50817770Y-138273130D02*
X50791970Y-138123770D01*
X50791970Y-138123770D02*
X50768240Y-137985880D01*
X50768240Y-137985880D02*
X50747560Y-137865160D01*
X50747560Y-137865160D02*
X50730920Y-137767270D01*
X50730920Y-137767270D02*
X50719300Y-137697910D01*
X50719300Y-137697910D02*
X50713690Y-137662760D01*
X50713690Y-137662760D02*
X50713330Y-137659670D01*
X50713330Y-137659670D02*
X50694060Y-137653440D01*
X50694060Y-137653440D02*
X50643690Y-137649420D01*
X50643690Y-137649420D02*
X50573420Y-137647510D01*
X50573420Y-137647510D02*
X50494410Y-137647630D01*
X50494410Y-137647630D02*
X50417850Y-137649680D01*
X50417850Y-137649680D02*
X50354920Y-137653570D01*
X50354920Y-137653570D02*
X50316790Y-137659200D01*
X50316790Y-137659200D02*
X50310450Y-137663040D01*
X50310450Y-137663040D02*
X38480100Y-137663040D01*
X38480100Y-137663040D02*
X38479940Y-137377440D01*
X38479940Y-137377440D02*
X38479730Y-136897650D01*
X38479730Y-136897650D02*
X38479570Y-136384740D01*
X38479570Y-136384740D02*
X38479440Y-135837560D01*
X38479440Y-135837560D02*
X38479340Y-135254970D01*
X38479340Y-135254970D02*
X38479270Y-134635840D01*
X38479270Y-134635840D02*
X38479220Y-133979020D01*
X38479220Y-133979020D02*
X38479180Y-133283390D01*
X38479180Y-133283390D02*
X38479160Y-132547810D01*
X38479160Y-132547810D02*
X38479150Y-131771130D01*
X38479150Y-131771130D02*
X38479140Y-131697420D01*
X38479140Y-131697420D02*
X38479140Y-130917110D01*
X38479140Y-130917110D02*
X38479130Y-130178000D01*
X38479130Y-130178000D02*
X38479140Y-129478950D01*
X38479140Y-129478950D02*
X38479160Y-128818810D01*
X38479160Y-128818810D02*
X38479210Y-128196470D01*
X38479210Y-128196470D02*
X38479280Y-127610770D01*
X38479280Y-127610770D02*
X38479380Y-127060580D01*
X38479380Y-127060580D02*
X38479520Y-126544760D01*
X38479520Y-126544760D02*
X38479690Y-126062190D01*
X38479690Y-126062190D02*
X38479910Y-125611710D01*
X38479910Y-125611710D02*
X38480180Y-125192200D01*
X38480180Y-125192200D02*
X38480500Y-124802510D01*
X38480500Y-124802510D02*
X38480880Y-124441510D01*
X38480880Y-124441510D02*
X38481320Y-124108060D01*
X38481320Y-124108060D02*
X38481820Y-123801030D01*
X38481820Y-123801030D02*
X38482400Y-123519280D01*
X38482400Y-123519280D02*
X38482760Y-123380830D01*
X38482760Y-123380830D02*
X49041160Y-123380830D01*
X49041160Y-123380830D02*
X38482760Y-123380830D01*
X38482760Y-123380830D02*
X38483060Y-123261660D01*
X38483060Y-123261660D02*
X38483800Y-123027050D01*
X38483800Y-123027050D02*
X38484620Y-122814310D01*
X38484620Y-122814310D02*
X38485530Y-122622300D01*
X38485530Y-122622300D02*
X38486540Y-122449880D01*
X38486540Y-122449880D02*
X38487650Y-122295910D01*
X38487650Y-122295910D02*
X38488860Y-122159270D01*
X38488860Y-122159270D02*
X38490190Y-122038800D01*
X38490190Y-122038800D02*
X38491620Y-121933380D01*
X38491620Y-121933380D02*
X38493170Y-121841870D01*
X38493170Y-121841870D02*
X38494850Y-121763130D01*
X38494850Y-121763130D02*
X38496660Y-121696020D01*
X38496660Y-121696020D02*
X38498590Y-121639400D01*
X38498590Y-121639400D02*
X38500660Y-121592150D01*
X38500660Y-121592150D02*
X38502880Y-121553120D01*
X38502880Y-121553120D02*
X38505240Y-121521180D01*
X38505240Y-121521180D02*
X38507750Y-121495180D01*
X38507750Y-121495180D02*
X38510420Y-121473990D01*
X38510420Y-121473990D02*
X38513240Y-121456480D01*
X38513240Y-121456480D02*
X38516240Y-121441510D01*
X38516240Y-121441510D02*
X38519400Y-121427930D01*
X38519400Y-121427930D02*
X38521120Y-121421010D01*
X38521120Y-121421010D02*
X38550260Y-121325360D01*
X38550260Y-121325360D02*
X38592490Y-121211500D01*
X38592490Y-121211500D02*
X38640560Y-121098320D01*
X38640560Y-121098320D02*
X38661860Y-121053290D01*
X38661860Y-121053290D02*
X38712110Y-120956790D01*
X38712110Y-120956790D02*
X38761580Y-120877150D01*
X38761580Y-120877150D02*
X38819350Y-120802060D01*
X38819350Y-120802060D02*
X38894540Y-120719200D01*
X38894540Y-120719200D02*
X38953110Y-120659320D01*
X38953110Y-120659320D02*
X39115350Y-120510880D01*
X39115350Y-120510880D02*
X39278620Y-120394240D01*
X39278620Y-120394240D02*
X39456570Y-120300800D01*
X39456570Y-120300800D02*
X39632580Y-120232180D01*
X39632580Y-120232180D02*
X39801910Y-120174080D01*
X39801910Y-120174080D02*
X63804910Y-120174080D01*
X63804910Y-120174080D02*
X63974250Y-120232180D01*
D12*
G36*
X52238790Y-124080310D02*
G01*
X52243920Y-124100500D01*
X52251160Y-124139190D01*
X52263210Y-124210500D01*
X52278970Y-124307320D01*
X52297330Y-124422530D01*
X52317210Y-124549000D01*
X52337480Y-124679610D01*
X52357060Y-124807250D01*
X52374830Y-124924790D01*
X52389700Y-125025110D01*
X52400570Y-125101100D01*
X52406320Y-125145640D01*
X52406950Y-125153540D01*
X52392530Y-125167700D01*
X52346580Y-125176220D01*
X52264520Y-125179790D01*
X52230080Y-125180000D01*
X52053500Y-125180000D01*
X52133150Y-124640000D01*
X52159390Y-124462840D01*
X52180360Y-124323830D01*
X52196840Y-124219200D01*
X52209590Y-124145200D01*
X52219390Y-124098070D01*
X52227010Y-124074050D01*
X52233210Y-124069380D01*
X52238790Y-124080310D01*
G37*
D13*
X53572930Y-125413000D02*
X53551760Y-125403330D01*
X51573460Y-125630310D02*
X51558850Y-125712760D01*
X50311160Y-123783000D02*
X50798000Y-123783000D01*
X54185000Y-125605100D02*
X54269900Y-125485380D01*
X52346580Y-125176220D02*
X52264520Y-125179790D01*
X52400570Y-125101100D02*
X52406320Y-125145640D01*
X52278970Y-124307320D02*
X52297330Y-124422530D01*
X53835120Y-125388110D02*
X53758160Y-125424410D01*
X53514950Y-125821770D02*
X53677620Y-125843210D01*
X53457950Y-123875400D02*
X53525160Y-123798860D01*
X49782000Y-124756660D02*
X49782000Y-125391660D01*
X52180360Y-124323830D02*
X52196840Y-124219200D01*
X52357060Y-124807250D02*
X52374830Y-124924790D01*
X51545490Y-125789470D02*
X51200160Y-125789470D01*
X49041160Y-124354500D02*
X49041160Y-124756660D01*
X52238790Y-124080310D02*
X52243920Y-124100500D01*
X52230080Y-125180000D02*
X52053500Y-125180000D01*
X54323520Y-125363920D02*
X54333070Y-125330180D01*
X51545490Y-125789470D02*
X51552760Y-125803400D01*
X52251160Y-124139190D02*
X52263210Y-124210500D01*
X52406950Y-125153540D02*
X52392530Y-125167700D01*
X52890370Y-125603550D02*
X52867030Y-125476510D01*
X52389700Y-125025110D02*
X52400570Y-125101100D01*
X54352270Y-124990130D02*
X54351950Y-124853420D01*
X51985920Y-125539830D02*
X52485420Y-125539830D01*
X49041160Y-123380830D02*
X49041160Y-123783000D01*
X53946670Y-125057970D02*
X53940800Y-125153040D01*
X53358790Y-125759830D02*
X53514950Y-125821770D01*
X49782000Y-125391660D02*
X49041160Y-125391660D01*
X52053500Y-125180000D02*
X52133150Y-124640000D01*
X52995900Y-124566160D02*
X53002910Y-124941870D01*
X49782000Y-124354500D02*
X49041160Y-124354500D01*
X53147360Y-125576610D02*
X53248330Y-125685190D01*
X53676660Y-123350240D02*
X53578350Y-123352910D01*
X50798000Y-123783000D02*
X50798000Y-125815000D01*
X52406320Y-125145640D02*
X52406950Y-125153540D01*
X54340420Y-125291570D02*
X54345790Y-125243190D01*
X53676660Y-124968330D02*
X53676660Y-124566160D01*
X52605310Y-124022090D02*
X52574900Y-123852850D01*
X52392530Y-125167700D02*
X52346580Y-125176220D01*
X51618270Y-125373910D02*
X51593500Y-125516010D01*
X49041160Y-125391660D02*
X49041160Y-125815000D01*
X53967000Y-123407430D02*
X53904490Y-123377660D01*
X53615810Y-123755320D02*
X53659180Y-123747670D01*
X49041160Y-125815000D02*
X50184160Y-125815000D01*
X54185500Y-123578600D02*
X54056690Y-123462210D01*
X50184160Y-125815000D02*
X50184160Y-123380830D01*
X54349410Y-125180090D02*
X54351490Y-125097380D01*
X52920500Y-125763850D02*
X52908430Y-125700640D01*
X52638380Y-124206330D02*
X52994020Y-124206330D01*
X52227010Y-124074050D02*
X52233210Y-124069380D01*
X50311160Y-123380830D02*
X50311160Y-123783000D01*
X52297330Y-124422530D02*
X52317210Y-124549000D01*
X53064970Y-125434960D02*
X53147360Y-125576610D01*
X52264520Y-125179790D02*
X52230080Y-125180000D01*
X50798000Y-125815000D02*
X51200160Y-125815000D01*
X51552760Y-125803400D02*
X51578090Y-125811030D01*
X53687140Y-123350200D02*
X53676660Y-123350240D01*
X51713880Y-124821310D02*
X51679170Y-125022510D01*
X51712960Y-125814990D02*
X51738080Y-125815000D01*
X53940800Y-125153040D02*
X53931690Y-125224950D01*
X51832970Y-125814010D02*
X51893610Y-125810100D01*
X53916480Y-123894820D02*
X53926910Y-123921620D01*
X49041160Y-123783000D02*
X49782000Y-123783000D01*
X53950730Y-124274780D02*
X53951620Y-124424270D01*
X49782000Y-123783000D02*
X49782000Y-124354500D01*
X52233210Y-124069380D02*
X52238790Y-124080310D01*
X54269900Y-125485380D02*
X54311540Y-125397710D01*
X51665830Y-123783000D02*
X51665830Y-123380830D01*
X51893610Y-125810100D02*
X51928070Y-125801850D01*
X52926240Y-125790540D02*
X52925870Y-125789300D01*
X51928070Y-125801850D02*
X51944410Y-125787830D01*
X53005810Y-125078500D02*
X53009320Y-125180610D01*
X51944410Y-125787830D02*
X51948370Y-125777960D01*
X52574900Y-123852850D02*
X52548630Y-123707010D01*
X51957320Y-125735190D02*
X51967970Y-125670400D01*
X52639150Y-124210660D02*
X52638380Y-124206330D01*
X54345790Y-125243190D02*
X54349410Y-125180090D01*
X53401610Y-124116370D02*
X53416120Y-123982170D01*
X51593500Y-125516010D02*
X51573460Y-125630310D01*
X51967970Y-125670400D02*
X51972260Y-125640370D01*
X52196840Y-124219200D02*
X52209590Y-124145200D01*
X51965530Y-123380830D02*
X51953510Y-123439040D01*
X52504250Y-125672120D02*
X52523080Y-125804410D01*
X53931690Y-125224950D02*
X53918640Y-125278510D01*
X52729080Y-125810470D02*
X52826990Y-125812140D01*
X52919690Y-125802810D02*
X52926240Y-125790540D01*
X52925870Y-125789300D02*
X52920500Y-125763850D01*
X51738080Y-125815000D02*
X51832970Y-125814010D01*
X53779920Y-123352070D02*
X53687140Y-123350200D01*
X52807370Y-125148190D02*
X52772480Y-124954720D01*
X51972260Y-125640370D02*
X51985920Y-125539830D01*
X52908430Y-125700640D02*
X52890370Y-125603550D01*
X52485420Y-125539830D02*
X52504250Y-125672120D01*
X52839120Y-125323420D02*
X52807370Y-125148190D01*
X51200160Y-125789470D02*
X51200160Y-123783000D01*
X52243920Y-124100500D02*
X52251160Y-124139190D01*
X53446980Y-123379900D02*
X53390910Y-123406190D01*
X51750510Y-124608500D02*
X51713880Y-124821310D01*
X52675680Y-124414540D02*
X52639150Y-124210660D01*
X52209590Y-124145200D02*
X52219390Y-124098070D01*
X51200160Y-125815000D02*
X51200160Y-125789470D01*
X52523080Y-125804410D02*
X52729080Y-125810470D01*
X52772480Y-124954720D02*
X52735160Y-124746920D01*
X53847480Y-123802400D02*
X53911060Y-123883920D01*
X53941320Y-124004040D02*
X53945830Y-124069670D01*
X52735160Y-124746920D02*
X52714170Y-124629660D01*
X50184160Y-123380830D02*
X50311160Y-123380830D01*
X52994020Y-124206330D02*
X53401500Y-124206330D01*
X51836240Y-124110880D02*
X51802450Y-124306720D01*
X54311540Y-125397710D02*
X54323520Y-125363920D01*
X53416120Y-123982170D02*
X53457950Y-123875400D01*
X51948370Y-125777960D02*
X51957320Y-125735190D01*
X53525160Y-123798860D02*
X53615810Y-123755320D01*
X53659180Y-123747670D02*
X53762070Y-123756160D01*
X53762070Y-123756160D02*
X53847480Y-123802400D01*
X53406120Y-125112490D02*
X53395810Y-124968330D01*
X52337480Y-124679610D02*
X52357060Y-124807250D01*
X51200160Y-125789470D02*
X51545490Y-125789470D01*
X52159390Y-124462840D02*
X52180360Y-124323830D01*
X52374830Y-124924790D02*
X52389700Y-125025110D01*
X52263210Y-124210500D02*
X52278970Y-124307320D01*
X53676660Y-124566160D02*
X52995900Y-124566160D01*
X53945830Y-124069670D02*
X53948880Y-124158250D01*
X53948880Y-124158250D02*
X53950730Y-124274780D01*
X53951620Y-124424270D02*
X53951830Y-124585920D01*
X53951830Y-124585920D02*
X53951490Y-124779210D01*
X53904490Y-123377660D02*
X53847250Y-123360210D01*
X53951490Y-124779210D02*
X53950000Y-124934960D01*
X53950000Y-124934960D02*
X53946670Y-125057970D01*
X53918640Y-125278510D02*
X53900960Y-125318500D01*
X53900960Y-125318500D02*
X53877950Y-125349730D01*
X53877950Y-125349730D02*
X53848900Y-125376990D01*
X52867030Y-125476510D02*
X52839120Y-125323420D01*
X54351490Y-125097380D02*
X54352270Y-124990130D01*
X53390910Y-123406190D02*
X53244530Y-123503570D01*
X51802450Y-124306720D02*
X51766480Y-124515600D01*
X53848900Y-125376990D02*
X53835120Y-125388110D01*
X53911060Y-123883920D02*
X53916480Y-123894820D01*
X53758160Y-125424410D02*
X53665180Y-125433000D01*
X54351950Y-124853420D02*
X54350780Y-124682340D01*
X53551760Y-125403330D02*
X53483240Y-125351540D01*
X51200160Y-123783000D02*
X51665830Y-123783000D01*
X53483240Y-125351540D02*
X53437700Y-125275780D01*
X53437700Y-125275780D02*
X53411950Y-125169660D01*
X53411950Y-125169660D02*
X53406120Y-125112490D01*
X53395810Y-124968330D02*
X53676660Y-124968330D01*
X53002910Y-124941870D02*
X53005810Y-125078500D01*
X52714170Y-124629660D02*
X52675680Y-124414540D01*
X53014440Y-125256020D02*
X53022140Y-125312540D01*
X52826990Y-125812140D02*
X52888570Y-125809800D01*
X52511440Y-123501700D02*
X52501990Y-123450330D01*
X53033410Y-125357980D02*
X53049240Y-125400150D01*
X53049240Y-125400150D02*
X53064970Y-125434960D01*
X53966700Y-125779500D02*
X54080210Y-125707250D01*
X53248330Y-125685190D02*
X53358790Y-125759830D01*
X53926910Y-123921620D02*
X53935100Y-123956350D01*
X53677620Y-125843210D02*
X53840770Y-125823940D01*
X54333070Y-125330180D02*
X54340420Y-125291570D01*
X54350780Y-124682340D02*
X54349720Y-124557360D01*
X52133150Y-124640000D02*
X52159390Y-124462840D01*
X54349720Y-124557360D02*
X54343410Y-123835910D01*
X54343410Y-123835910D02*
X54285210Y-123725500D01*
X54285210Y-123725500D02*
X54185500Y-123578600D01*
X51935450Y-123539810D02*
X51917470Y-123642530D01*
X53401500Y-124206330D02*
X53401610Y-124116370D01*
X54056690Y-123462210D02*
X53967000Y-123407430D01*
X53847250Y-123360210D02*
X53779920Y-123352070D01*
X53578350Y-123352910D02*
X53506900Y-123361790D01*
X53506900Y-123361790D02*
X53446980Y-123379900D01*
X51628990Y-125814270D02*
X51712960Y-125814990D01*
X53244530Y-123503570D02*
X53132600Y-123625460D01*
X54080210Y-125707250D02*
X54185000Y-125605100D01*
X52499830Y-123439040D02*
X52487970Y-123380830D01*
X53132600Y-123625460D02*
X53055030Y-123772020D01*
X53055030Y-123772020D02*
X53011730Y-123943400D01*
X51578090Y-125811030D02*
X51628990Y-125814270D01*
X52317210Y-124549000D02*
X52337480Y-124679610D01*
X53011730Y-123943400D02*
X53003230Y-124031710D01*
X53003230Y-124031710D02*
X52994020Y-124206330D01*
X49041160Y-124756660D02*
X49782000Y-124756660D01*
X52994020Y-124206330D02*
X52638380Y-124206330D01*
X52219390Y-124098070D02*
X52227010Y-124074050D01*
X51953510Y-123439040D02*
X51947700Y-123470610D01*
X52638380Y-124206330D02*
X52605310Y-124022090D01*
X52548630Y-123707010D02*
X52527230Y-123588610D01*
X53665180Y-125433000D02*
X53572930Y-125413000D01*
X52527230Y-123588610D02*
X52511440Y-123501700D01*
X52501990Y-123450330D02*
X52499830Y-123439040D01*
X52487970Y-123380830D02*
X51965530Y-123380830D01*
X51550370Y-125759310D02*
X51548770Y-125767370D01*
X51947700Y-123470610D02*
X51935450Y-123539810D01*
X51917470Y-123642530D02*
X51894460Y-123774680D01*
X51894460Y-123774680D02*
X51867150Y-123932170D01*
X53022140Y-125312540D02*
X53033410Y-125357980D01*
X53009320Y-125180610D02*
X53014440Y-125256020D01*
X51867150Y-123932170D02*
X51836240Y-124110880D01*
X53935100Y-123956350D02*
X53941320Y-124004040D01*
X51766480Y-124515600D02*
X51750510Y-124608500D01*
X53840770Y-125823940D02*
X53966700Y-125779500D01*
X51679170Y-125022510D02*
X51647060Y-125208060D01*
X51647060Y-125208060D02*
X51618270Y-125373910D01*
X52888570Y-125809800D02*
X52919690Y-125802810D01*
X51558850Y-125712760D02*
X51550370Y-125759310D01*
X51548770Y-125767370D02*
X51545490Y-125789470D01*
X51665830Y-123380830D02*
X50311160Y-123380830D01*
X50311160Y-123380830D02*
X50184160Y-123380830D01*
X50184160Y-123380830D02*
X49041160Y-123380830D01*
%LPD*%
M02*
