%TF.GenerationSoftware,KiCad,Pcbnew,8.0.8*%
%TF.CreationDate,2025-01-17T16:13:05-03:00*%
%TF.ProjectId,DQ-Panel,44512d50-616e-4656-9c2e-6b696361645f,rev?*%
%TF.SameCoordinates,Original*%
%TF.FileFunction,Soldermask,Top*%
%TF.FilePolarity,Negative*%
%FSLAX46Y46*%
G04 Gerber Fmt 4.6, Leading zero omitted, Abs format (unit mm)*
G04 Created by KiCad (PCBNEW 8.0.8) date 2025-01-17 16:13:05*
%MOMM*%
%LPD*%
G01*
G04 APERTURE LIST*
%ADD10C,0.000000*%
%ADD11C,0.010000*%
G04 APERTURE END LIST*
D10*
G36*
X51380480Y-124075450D02*
G01*
X51388270Y-124101520D01*
X51398320Y-124151050D01*
X51411390Y-124227820D01*
X51428260Y-124335580D01*
X51449710Y-124478070D01*
X51473670Y-124640000D01*
X51553320Y-125180000D01*
X51376740Y-125180000D01*
X51282240Y-125177860D01*
X51225290Y-125170990D01*
X51201320Y-125158700D01*
X51199870Y-125153540D01*
X51202950Y-125125580D01*
X51211640Y-125062950D01*
X51224840Y-124972750D01*
X51241430Y-124862120D01*
X51260330Y-124738170D01*
X51280430Y-124608020D01*
X51300620Y-124478800D01*
X51319800Y-124357610D01*
X51336880Y-124251590D01*
X51350750Y-124167850D01*
X51360300Y-124113510D01*
X51362910Y-124100500D01*
X51368570Y-124078700D01*
X51374170Y-124069090D01*
X51380480Y-124075450D01*
G37*
D11*
X51380480Y-124075450D02*
X51388270Y-124101520D01*
X51388270Y-124101520D02*
X51398320Y-124151050D01*
X51398320Y-124151050D02*
X51411390Y-124227820D01*
X51411390Y-124227820D02*
X51428260Y-124335580D01*
X51428260Y-124335580D02*
X51449710Y-124478070D01*
X51449710Y-124478070D02*
X51473670Y-124640000D01*
X51473670Y-124640000D02*
X51553320Y-125180000D01*
X51553320Y-125180000D02*
X51376740Y-125180000D01*
X51376740Y-125180000D02*
X51282240Y-125177860D01*
X51282240Y-125177860D02*
X51225290Y-125170990D01*
X51225290Y-125170990D02*
X51201320Y-125158700D01*
X51201320Y-125158700D02*
X51199870Y-125153540D01*
X51199870Y-125153540D02*
X51202950Y-125125580D01*
X51202950Y-125125580D02*
X51211640Y-125062950D01*
X51211640Y-125062950D02*
X51224840Y-124972750D01*
X51224840Y-124972750D02*
X51241430Y-124862120D01*
X51241430Y-124862120D02*
X51260330Y-124738170D01*
X51260330Y-124738170D02*
X51280430Y-124608020D01*
X51280430Y-124608020D02*
X51300620Y-124478800D01*
X51300620Y-124478800D02*
X51319800Y-124357610D01*
X51319800Y-124357610D02*
X51336880Y-124251590D01*
X51336880Y-124251590D02*
X51350750Y-124167850D01*
X51350750Y-124167850D02*
X51360300Y-124113510D01*
X51360300Y-124113510D02*
X51362910Y-124100500D01*
X51362910Y-124100500D02*
X51368570Y-124078700D01*
X51368570Y-124078700D02*
X51374170Y-124069090D01*
X51374170Y-124069090D02*
X51380480Y-124075450D01*
D10*
G36*
X62058660Y-36227520D02*
G01*
X62281350Y-36227850D01*
X62466740Y-36229020D01*
X62619860Y-36231690D01*
X62745730Y-36236530D01*
X62849390Y-36244190D01*
X62935870Y-36255360D01*
X63010200Y-36270680D01*
X63077410Y-36290820D01*
X63142520Y-36316460D01*
X63210580Y-36348250D01*
X63286600Y-36386850D01*
X63294020Y-36390690D01*
X63487180Y-36513670D01*
X63656850Y-36668190D01*
X63798450Y-36848530D01*
X63907420Y-37048970D01*
X63973930Y-37242240D01*
X63993840Y-37357940D01*
X64003720Y-37497950D01*
X64003570Y-37645890D01*
X63993420Y-37785420D01*
X63973290Y-37900090D01*
X63920830Y-38055040D01*
X63846050Y-38212490D01*
X63757570Y-38355960D01*
X63690340Y-38441200D01*
X63588720Y-38554670D01*
X63669140Y-38661180D01*
X63721920Y-38739250D01*
X63777120Y-38833510D01*
X63814660Y-38906820D01*
X63845310Y-38975100D01*
X63870620Y-39040070D01*
X63891120Y-39106570D01*
X63907300Y-39179440D01*
X63919670Y-39263500D01*
X63928730Y-39363600D01*
X63934990Y-39484570D01*
X63938960Y-39631240D01*
X63941130Y-39808440D01*
X63942020Y-40021010D01*
X63942130Y-40127040D01*
X63942500Y-40915500D01*
X63095830Y-40915500D01*
X63095830Y-40142230D01*
X63095750Y-39930620D01*
X63095090Y-39756720D01*
X63093220Y-39615920D01*
X63089510Y-39503610D01*
X63083340Y-39415150D01*
X63074080Y-39345940D01*
X63061100Y-39291370D01*
X63043780Y-39246800D01*
X63021480Y-39207630D01*
X62993580Y-39169240D01*
X62959460Y-39127010D01*
X62957560Y-39124690D01*
X62885330Y-39054820D01*
X62794850Y-38992390D01*
X62764940Y-38976450D01*
X62711720Y-38952210D01*
X62661630Y-38935260D01*
X62604600Y-38923900D01*
X62530570Y-38916440D01*
X62429480Y-38911170D01*
X62363220Y-38908750D01*
X62080250Y-38899160D01*
X62074750Y-39902030D01*
X62069250Y-40904910D01*
X61651210Y-40910650D01*
X61233160Y-40916390D01*
X61236030Y-38910400D01*
X61236590Y-38613910D01*
X61237390Y-38323360D01*
X61238280Y-38079160D01*
X61238420Y-38042370D01*
X61239640Y-37774540D01*
X61241040Y-37523470D01*
X61242590Y-37292770D01*
X61244260Y-37086030D01*
X61244747Y-37037030D01*
X62079830Y-37037030D01*
X62079830Y-38079160D01*
X62429920Y-38079160D01*
X62562690Y-38078670D01*
X62660880Y-38076660D01*
X62732220Y-38072350D01*
X62784460Y-38064940D01*
X62825350Y-38053670D01*
X62862620Y-38037720D01*
X62869130Y-38034500D01*
X62999790Y-37948360D01*
X63095560Y-37838910D01*
X63155530Y-37707360D01*
X63173140Y-37624450D01*
X63171130Y-37488800D01*
X63127460Y-37359100D01*
X63042570Y-37236600D01*
X63040010Y-37233740D01*
X62982600Y-37174610D01*
X62926160Y-37129970D01*
X62863320Y-37097600D01*
X62786700Y-37075260D01*
X62688950Y-37060710D01*
X62562670Y-37051700D01*
X62423790Y-37046640D01*
X62079830Y-37037030D01*
X61244747Y-37037030D01*
X61246040Y-36906860D01*
X61247890Y-36758870D01*
X61249790Y-36645660D01*
X61251720Y-36570820D01*
X61251900Y-36565750D01*
X61264910Y-36227080D01*
X62058660Y-36227520D01*
G37*
D11*
X62058660Y-36227520D02*
X62281350Y-36227850D01*
X62281350Y-36227850D02*
X62466740Y-36229020D01*
X62466740Y-36229020D02*
X62619860Y-36231690D01*
X62619860Y-36231690D02*
X62745730Y-36236530D01*
X62745730Y-36236530D02*
X62849390Y-36244190D01*
X62849390Y-36244190D02*
X62935870Y-36255360D01*
X62935870Y-36255360D02*
X63010200Y-36270680D01*
X63010200Y-36270680D02*
X63077410Y-36290820D01*
X63077410Y-36290820D02*
X63142520Y-36316460D01*
X63142520Y-36316460D02*
X63210580Y-36348250D01*
X63210580Y-36348250D02*
X63286600Y-36386850D01*
X63286600Y-36386850D02*
X63294020Y-36390690D01*
X63294020Y-36390690D02*
X63487180Y-36513670D01*
X63487180Y-36513670D02*
X63656850Y-36668190D01*
X63656850Y-36668190D02*
X63798450Y-36848530D01*
X63798450Y-36848530D02*
X63907420Y-37048970D01*
X63907420Y-37048970D02*
X63973930Y-37242240D01*
X63973930Y-37242240D02*
X63993840Y-37357940D01*
X63993840Y-37357940D02*
X64003720Y-37497950D01*
X64003720Y-37497950D02*
X64003570Y-37645890D01*
X64003570Y-37645890D02*
X63993420Y-37785420D01*
X63993420Y-37785420D02*
X63973290Y-37900090D01*
X63973290Y-37900090D02*
X63920830Y-38055040D01*
X63920830Y-38055040D02*
X63846050Y-38212490D01*
X63846050Y-38212490D02*
X63757570Y-38355960D01*
X63757570Y-38355960D02*
X63690340Y-38441200D01*
X63690340Y-38441200D02*
X63588720Y-38554670D01*
X63588720Y-38554670D02*
X63669140Y-38661180D01*
X63669140Y-38661180D02*
X63721920Y-38739250D01*
X63721920Y-38739250D02*
X63777120Y-38833510D01*
X63777120Y-38833510D02*
X63814660Y-38906820D01*
X63814660Y-38906820D02*
X63845310Y-38975100D01*
X63845310Y-38975100D02*
X63870620Y-39040070D01*
X63870620Y-39040070D02*
X63891120Y-39106570D01*
X63891120Y-39106570D02*
X63907300Y-39179440D01*
X63907300Y-39179440D02*
X63919670Y-39263500D01*
X63919670Y-39263500D02*
X63928730Y-39363600D01*
X63928730Y-39363600D02*
X63934990Y-39484570D01*
X63934990Y-39484570D02*
X63938960Y-39631240D01*
X63938960Y-39631240D02*
X63941130Y-39808440D01*
X63941130Y-39808440D02*
X63942020Y-40021010D01*
X63942020Y-40021010D02*
X63942130Y-40127040D01*
X63942130Y-40127040D02*
X63942500Y-40915500D01*
X63942500Y-40915500D02*
X63095830Y-40915500D01*
X63095830Y-40915500D02*
X63095830Y-40142230D01*
X63095830Y-40142230D02*
X63095750Y-39930620D01*
X63095750Y-39930620D02*
X63095090Y-39756720D01*
X63095090Y-39756720D02*
X63093220Y-39615920D01*
X63093220Y-39615920D02*
X63089510Y-39503610D01*
X63089510Y-39503610D02*
X63083340Y-39415150D01*
X63083340Y-39415150D02*
X63074080Y-39345940D01*
X63074080Y-39345940D02*
X63061100Y-39291370D01*
X63061100Y-39291370D02*
X63043780Y-39246800D01*
X63043780Y-39246800D02*
X63021480Y-39207630D01*
X63021480Y-39207630D02*
X62993580Y-39169240D01*
X62993580Y-39169240D02*
X62959460Y-39127010D01*
X62959460Y-39127010D02*
X62957560Y-39124690D01*
X62957560Y-39124690D02*
X62885330Y-39054820D01*
X62885330Y-39054820D02*
X62794850Y-38992390D01*
X62794850Y-38992390D02*
X62764940Y-38976450D01*
X62764940Y-38976450D02*
X62711720Y-38952210D01*
X62711720Y-38952210D02*
X62661630Y-38935260D01*
X62661630Y-38935260D02*
X62604600Y-38923900D01*
X62604600Y-38923900D02*
X62530570Y-38916440D01*
X62530570Y-38916440D02*
X62429480Y-38911170D01*
X62429480Y-38911170D02*
X62363220Y-38908750D01*
X62363220Y-38908750D02*
X62080250Y-38899160D01*
X62080250Y-38899160D02*
X62074750Y-39902030D01*
X62074750Y-39902030D02*
X62069250Y-40904910D01*
X62069250Y-40904910D02*
X61651210Y-40910650D01*
X61651210Y-40910650D02*
X61233160Y-40916390D01*
X61233160Y-40916390D02*
X61236030Y-38910400D01*
X61236030Y-38910400D02*
X61236590Y-38613910D01*
X61236590Y-38613910D02*
X61237390Y-38323360D01*
X61237390Y-38323360D02*
X61238280Y-38079160D01*
X61238280Y-38079160D02*
X62079830Y-38079160D01*
X62079830Y-38079160D02*
X62429920Y-38079160D01*
X62429920Y-38079160D02*
X62562690Y-38078670D01*
X62562690Y-38078670D02*
X62660880Y-38076660D01*
X62660880Y-38076660D02*
X62732220Y-38072350D01*
X62732220Y-38072350D02*
X62784460Y-38064940D01*
X62784460Y-38064940D02*
X62825350Y-38053670D01*
X62825350Y-38053670D02*
X62862620Y-38037720D01*
X62862620Y-38037720D02*
X62869130Y-38034500D01*
X62869130Y-38034500D02*
X62999790Y-37948360D01*
X62999790Y-37948360D02*
X63095560Y-37838910D01*
X63095560Y-37838910D02*
X63155530Y-37707360D01*
X63155530Y-37707360D02*
X63173140Y-37624450D01*
X63173140Y-37624450D02*
X63171130Y-37488800D01*
X63171130Y-37488800D02*
X63127460Y-37359100D01*
X63127460Y-37359100D02*
X63042570Y-37236600D01*
X63042570Y-37236600D02*
X63040010Y-37233740D01*
X63040010Y-37233740D02*
X62982600Y-37174610D01*
X62982600Y-37174610D02*
X62926160Y-37129970D01*
X62926160Y-37129970D02*
X62863320Y-37097600D01*
X62863320Y-37097600D02*
X62786700Y-37075260D01*
X62786700Y-37075260D02*
X62688950Y-37060710D01*
X62688950Y-37060710D02*
X62562670Y-37051700D01*
X62562670Y-37051700D02*
X62423790Y-37046640D01*
X62423790Y-37046640D02*
X62079830Y-37037030D01*
X62079830Y-37037030D02*
X62079830Y-38079160D01*
X62079830Y-38079160D02*
X61238280Y-38079160D01*
X61238280Y-38079160D02*
X61238420Y-38042370D01*
X61238420Y-38042370D02*
X61239640Y-37774540D01*
X61239640Y-37774540D02*
X61241040Y-37523470D01*
X61241040Y-37523470D02*
X61242590Y-37292770D01*
X61242590Y-37292770D02*
X61244260Y-37086030D01*
X61244260Y-37086030D02*
X61246040Y-36906860D01*
X61246040Y-36906860D02*
X61247890Y-36758870D01*
X61247890Y-36758870D02*
X61249790Y-36645660D01*
X61249790Y-36645660D02*
X61251720Y-36570820D01*
X61251720Y-36570820D02*
X61251900Y-36565750D01*
X61251900Y-36565750D02*
X61264910Y-36227080D01*
X61264910Y-36227080D02*
X62058660Y-36227520D01*
D10*
G36*
X60693410Y-37052580D02*
G01*
X59989620Y-37058160D01*
X59285830Y-37063730D01*
X59285830Y-38078590D01*
X59989620Y-38084170D01*
X60693410Y-38089750D01*
X60693410Y-38915250D01*
X59989620Y-38920820D01*
X59285830Y-38926400D01*
X59285830Y-40068260D01*
X59989620Y-40073840D01*
X60693410Y-40079410D01*
X60699150Y-40497460D01*
X60704890Y-40915500D01*
X58438980Y-40915500D01*
X58449750Y-36227080D01*
X60693410Y-36227080D01*
X60693410Y-37052580D01*
G37*
D11*
X60693410Y-37052580D02*
X59989620Y-37058160D01*
X59989620Y-37058160D02*
X59285830Y-37063730D01*
X59285830Y-37063730D02*
X59285830Y-38078590D01*
X59285830Y-38078590D02*
X59989620Y-38084170D01*
X59989620Y-38084170D02*
X60693410Y-38089750D01*
X60693410Y-38089750D02*
X60693410Y-38915250D01*
X60693410Y-38915250D02*
X59989620Y-38920820D01*
X59989620Y-38920820D02*
X59285830Y-38926400D01*
X59285830Y-38926400D02*
X59285830Y-40068260D01*
X59285830Y-40068260D02*
X59989620Y-40073840D01*
X59989620Y-40073840D02*
X60693410Y-40079410D01*
X60693410Y-40079410D02*
X60699150Y-40497460D01*
X60699150Y-40497460D02*
X60704890Y-40915500D01*
X60704890Y-40915500D02*
X58438980Y-40915500D01*
X58438980Y-40915500D02*
X58449750Y-36227080D01*
X58449750Y-36227080D02*
X60693410Y-36227080D01*
X60693410Y-36227080D02*
X60693410Y-37052580D01*
D10*
G36*
X57578180Y-36220240D02*
G01*
X57731920Y-36220990D01*
X57858180Y-36222100D01*
X57953000Y-36223560D01*
X58012470Y-36225340D01*
X58031710Y-36226920D01*
X58048690Y-36232210D01*
X58061070Y-36242580D01*
X58069560Y-36263990D01*
X58074910Y-36302410D01*
X58077830Y-36363820D01*
X58079060Y-36454170D01*
X58079330Y-36579440D01*
X58079330Y-36615840D01*
X58079330Y-36993210D01*
X57258340Y-38546890D01*
X56437340Y-40100580D01*
X58068750Y-40121750D01*
X58080260Y-40915500D01*
X55475830Y-40915500D01*
X55476400Y-40529210D01*
X55476960Y-40142910D01*
X56299900Y-38587160D01*
X57122830Y-37031410D01*
X56336370Y-37020830D01*
X55549910Y-37010250D01*
X55549910Y-36227080D01*
X56767000Y-36221230D01*
X56991360Y-36220350D01*
X57203960Y-36219910D01*
X57400880Y-36219880D01*
X57578180Y-36220240D01*
G37*
D11*
X57578180Y-36220240D02*
X57731920Y-36220990D01*
X57731920Y-36220990D02*
X57858180Y-36222100D01*
X57858180Y-36222100D02*
X57953000Y-36223560D01*
X57953000Y-36223560D02*
X58012470Y-36225340D01*
X58012470Y-36225340D02*
X58031710Y-36226920D01*
X58031710Y-36226920D02*
X58048690Y-36232210D01*
X58048690Y-36232210D02*
X58061070Y-36242580D01*
X58061070Y-36242580D02*
X58069560Y-36263990D01*
X58069560Y-36263990D02*
X58074910Y-36302410D01*
X58074910Y-36302410D02*
X58077830Y-36363820D01*
X58077830Y-36363820D02*
X58079060Y-36454170D01*
X58079060Y-36454170D02*
X58079330Y-36579440D01*
X58079330Y-36579440D02*
X58079330Y-36615840D01*
X58079330Y-36615840D02*
X58079330Y-36993210D01*
X58079330Y-36993210D02*
X57258340Y-38546890D01*
X57258340Y-38546890D02*
X56437340Y-40100580D01*
X56437340Y-40100580D02*
X58068750Y-40121750D01*
X58068750Y-40121750D02*
X58080260Y-40915500D01*
X58080260Y-40915500D02*
X55475830Y-40915500D01*
X55475830Y-40915500D02*
X55476400Y-40529210D01*
X55476400Y-40529210D02*
X55476960Y-40142910D01*
X55476960Y-40142910D02*
X56299900Y-38587160D01*
X56299900Y-38587160D02*
X57122830Y-37031410D01*
X57122830Y-37031410D02*
X56336370Y-37020830D01*
X56336370Y-37020830D02*
X55549910Y-37010250D01*
X55549910Y-37010250D02*
X55549910Y-36227080D01*
X55549910Y-36227080D02*
X56767000Y-36221230D01*
X56767000Y-36221230D02*
X56991360Y-36220350D01*
X56991360Y-36220350D02*
X57203960Y-36219910D01*
X57203960Y-36219910D02*
X57400880Y-36219880D01*
X57400880Y-36219880D02*
X57578180Y-36220240D01*
D10*
G36*
X55158510Y-40915500D02*
G01*
X54746920Y-40915500D01*
X54619470Y-40914720D01*
X54507200Y-40912550D01*
X54416720Y-40909240D01*
X54354620Y-40905040D01*
X54327520Y-40900190D01*
X54326950Y-40899620D01*
X54325950Y-40876760D01*
X54325200Y-40814290D01*
X54324700Y-40714940D01*
X54324450Y-40581440D01*
X54324430Y-40416510D01*
X54324660Y-40222880D01*
X54325110Y-40003280D01*
X54325800Y-39760430D01*
X54326700Y-39497060D01*
X54327820Y-39215900D01*
X54329160Y-38919660D01*
X54330700Y-38611090D01*
X54331000Y-38555410D01*
X54343410Y-36227080D01*
X55147750Y-36227080D01*
X55158510Y-40915500D01*
G37*
D11*
X55158510Y-40915500D02*
X54746920Y-40915500D01*
X54746920Y-40915500D02*
X54619470Y-40914720D01*
X54619470Y-40914720D02*
X54507200Y-40912550D01*
X54507200Y-40912550D02*
X54416720Y-40909240D01*
X54416720Y-40909240D02*
X54354620Y-40905040D01*
X54354620Y-40905040D02*
X54327520Y-40900190D01*
X54327520Y-40900190D02*
X54326950Y-40899620D01*
X54326950Y-40899620D02*
X54325950Y-40876760D01*
X54325950Y-40876760D02*
X54325200Y-40814290D01*
X54325200Y-40814290D02*
X54324700Y-40714940D01*
X54324700Y-40714940D02*
X54324450Y-40581440D01*
X54324450Y-40581440D02*
X54324430Y-40416510D01*
X54324430Y-40416510D02*
X54324660Y-40222880D01*
X54324660Y-40222880D02*
X54325110Y-40003280D01*
X54325110Y-40003280D02*
X54325800Y-39760430D01*
X54325800Y-39760430D02*
X54326700Y-39497060D01*
X54326700Y-39497060D02*
X54327820Y-39215900D01*
X54327820Y-39215900D02*
X54329160Y-38919660D01*
X54329160Y-38919660D02*
X54330700Y-38611090D01*
X54330700Y-38611090D02*
X54331000Y-38555410D01*
X54331000Y-38555410D02*
X54343410Y-36227080D01*
X54343410Y-36227080D02*
X55147750Y-36227080D01*
X55147750Y-36227080D02*
X55158510Y-40915500D01*
D10*
G36*
X54052820Y-36645120D02*
G01*
X54058560Y-37063160D01*
X53147500Y-37063160D01*
X53147500Y-40915500D01*
X52322000Y-40915500D01*
X52322000Y-37063160D01*
X51869180Y-37063160D01*
X51709810Y-37062540D01*
X51588730Y-37060500D01*
X51501880Y-37056830D01*
X51445240Y-37051290D01*
X51414770Y-37043650D01*
X51406760Y-37036710D01*
X51404370Y-37007950D01*
X51403540Y-36944090D01*
X51404230Y-36852290D01*
X51406380Y-36739750D01*
X51409790Y-36618660D01*
X51422410Y-36227080D01*
X54047080Y-36227080D01*
X54052820Y-36645120D01*
G37*
D11*
X54052820Y-36645120D02*
X54058560Y-37063160D01*
X54058560Y-37063160D02*
X53147500Y-37063160D01*
X53147500Y-37063160D02*
X53147500Y-40915500D01*
X53147500Y-40915500D02*
X52322000Y-40915500D01*
X52322000Y-40915500D02*
X52322000Y-37063160D01*
X52322000Y-37063160D02*
X51869180Y-37063160D01*
X51869180Y-37063160D02*
X51709810Y-37062540D01*
X51709810Y-37062540D02*
X51588730Y-37060500D01*
X51588730Y-37060500D02*
X51501880Y-37056830D01*
X51501880Y-37056830D02*
X51445240Y-37051290D01*
X51445240Y-37051290D02*
X51414770Y-37043650D01*
X51414770Y-37043650D02*
X51406760Y-37036710D01*
X51406760Y-37036710D02*
X51404370Y-37007950D01*
X51404370Y-37007950D02*
X51403540Y-36944090D01*
X51403540Y-36944090D02*
X51404230Y-36852290D01*
X51404230Y-36852290D02*
X51406380Y-36739750D01*
X51406380Y-36739750D02*
X51409790Y-36618660D01*
X51409790Y-36618660D02*
X51422410Y-36227080D01*
X51422410Y-36227080D02*
X54047080Y-36227080D01*
X54047080Y-36227080D02*
X54052820Y-36645120D01*
D10*
G36*
X50762180Y-36220050D02*
G01*
X50808580Y-36220820D01*
X51126080Y-36227080D01*
X51141630Y-37370080D01*
X51144740Y-37632810D01*
X51147430Y-37927320D01*
X51149640Y-38243060D01*
X51151330Y-38569490D01*
X51152460Y-38896070D01*
X51152960Y-39212230D01*
X51152800Y-39507440D01*
X51152210Y-39709000D01*
X51147250Y-40904910D01*
X50823380Y-40910760D01*
X50499510Y-40916610D01*
X50401600Y-40709680D01*
X50373130Y-40649630D01*
X50328640Y-40555970D01*
X50270320Y-40433280D01*
X50200350Y-40286180D01*
X50120930Y-40119240D01*
X50034230Y-39937080D01*
X49942450Y-39744300D01*
X49847780Y-39545480D01*
X49829890Y-39507910D01*
X49356080Y-38513080D01*
X49372680Y-39571410D01*
X49375990Y-39784290D01*
X49379100Y-39988410D01*
X49381950Y-40179050D01*
X49384460Y-40351470D01*
X49386570Y-40500960D01*
X49388220Y-40622760D01*
X49389330Y-40712160D01*
X49389830Y-40764420D01*
X49389850Y-40767330D01*
X49390410Y-40904910D01*
X48997520Y-40910660D01*
X48872600Y-40911720D01*
X48762480Y-40911220D01*
X48674070Y-40909290D01*
X48614280Y-40906090D01*
X48590060Y-40901840D01*
X48588120Y-40879150D01*
X48586250Y-40816860D01*
X48584480Y-40717680D01*
X48582810Y-40584360D01*
X48581280Y-40419610D01*
X48579880Y-40226160D01*
X48578650Y-40006730D01*
X48577600Y-39764060D01*
X48576740Y-39500880D01*
X48576090Y-39219900D01*
X48575670Y-38923860D01*
X48575500Y-38615470D01*
X48575500Y-38562870D01*
X48575500Y-38491910D01*
X49337500Y-38491910D01*
X49348080Y-38502500D01*
X49358660Y-38491910D01*
X49348080Y-38481330D01*
X49337500Y-38491910D01*
X48575500Y-38491910D01*
X48575500Y-36238470D01*
X48623120Y-36226690D01*
X48661230Y-36222790D01*
X48732300Y-36220350D01*
X48826990Y-36219520D01*
X48935940Y-36220470D01*
X48963810Y-36220990D01*
X49256870Y-36227080D01*
X49806550Y-37496680D01*
X49901290Y-37715250D01*
X49991230Y-37922260D01*
X50074930Y-38114430D01*
X50150980Y-38288520D01*
X50217930Y-38441260D01*
X50274370Y-38569410D01*
X50318860Y-38669710D01*
X50349970Y-38738890D01*
X50366280Y-38773710D01*
X50368310Y-38777260D01*
X50370240Y-38758710D01*
X50371600Y-38701430D01*
X50372410Y-38609050D01*
X50372660Y-38485170D01*
X50372380Y-38333400D01*
X50371560Y-38157350D01*
X50370210Y-37960630D01*
X50368340Y-37746850D01*
X50365950Y-37519630D01*
X50365890Y-37514110D01*
X50351380Y-36239980D01*
X50421230Y-36227270D01*
X50467040Y-36223150D01*
X50545550Y-36220470D01*
X50647130Y-36219380D01*
X50762180Y-36220050D01*
G37*
D11*
X50762180Y-36220050D02*
X50808580Y-36220820D01*
X50808580Y-36220820D02*
X51126080Y-36227080D01*
X51126080Y-36227080D02*
X51141630Y-37370080D01*
X51141630Y-37370080D02*
X51144740Y-37632810D01*
X51144740Y-37632810D02*
X51147430Y-37927320D01*
X51147430Y-37927320D02*
X51149640Y-38243060D01*
X51149640Y-38243060D02*
X51151330Y-38569490D01*
X51151330Y-38569490D02*
X51152460Y-38896070D01*
X51152460Y-38896070D02*
X51152960Y-39212230D01*
X51152960Y-39212230D02*
X51152800Y-39507440D01*
X51152800Y-39507440D02*
X51152210Y-39709000D01*
X51152210Y-39709000D02*
X51147250Y-40904910D01*
X51147250Y-40904910D02*
X50823380Y-40910760D01*
X50823380Y-40910760D02*
X50499510Y-40916610D01*
X50499510Y-40916610D02*
X50401600Y-40709680D01*
X50401600Y-40709680D02*
X50373130Y-40649630D01*
X50373130Y-40649630D02*
X50328640Y-40555970D01*
X50328640Y-40555970D02*
X50270320Y-40433280D01*
X50270320Y-40433280D02*
X50200350Y-40286180D01*
X50200350Y-40286180D02*
X50120930Y-40119240D01*
X50120930Y-40119240D02*
X50034230Y-39937080D01*
X50034230Y-39937080D02*
X49942450Y-39744300D01*
X49942450Y-39744300D02*
X49847780Y-39545480D01*
X49847780Y-39545480D02*
X49829890Y-39507910D01*
X49829890Y-39507910D02*
X49356080Y-38513080D01*
X49356080Y-38513080D02*
X49372680Y-39571410D01*
X49372680Y-39571410D02*
X49375990Y-39784290D01*
X49375990Y-39784290D02*
X49379100Y-39988410D01*
X49379100Y-39988410D02*
X49381950Y-40179050D01*
X49381950Y-40179050D02*
X49384460Y-40351470D01*
X49384460Y-40351470D02*
X49386570Y-40500960D01*
X49386570Y-40500960D02*
X49388220Y-40622760D01*
X49388220Y-40622760D02*
X49389330Y-40712160D01*
X49389330Y-40712160D02*
X49389830Y-40764420D01*
X49389830Y-40764420D02*
X49389850Y-40767330D01*
X49389850Y-40767330D02*
X49390410Y-40904910D01*
X49390410Y-40904910D02*
X48997520Y-40910660D01*
X48997520Y-40910660D02*
X48872600Y-40911720D01*
X48872600Y-40911720D02*
X48762480Y-40911220D01*
X48762480Y-40911220D02*
X48674070Y-40909290D01*
X48674070Y-40909290D02*
X48614280Y-40906090D01*
X48614280Y-40906090D02*
X48590060Y-40901840D01*
X48590060Y-40901840D02*
X48588120Y-40879150D01*
X48588120Y-40879150D02*
X48586250Y-40816860D01*
X48586250Y-40816860D02*
X48584480Y-40717680D01*
X48584480Y-40717680D02*
X48582810Y-40584360D01*
X48582810Y-40584360D02*
X48581280Y-40419610D01*
X48581280Y-40419610D02*
X48579880Y-40226160D01*
X48579880Y-40226160D02*
X48578650Y-40006730D01*
X48578650Y-40006730D02*
X48577600Y-39764060D01*
X48577600Y-39764060D02*
X48576740Y-39500880D01*
X48576740Y-39500880D02*
X48576090Y-39219900D01*
X48576090Y-39219900D02*
X48575670Y-38923860D01*
X48575670Y-38923860D02*
X48575500Y-38615470D01*
X48575500Y-38615470D02*
X48575500Y-38562870D01*
X48575500Y-38562870D02*
X48575500Y-38491910D01*
X48575500Y-38491910D02*
X49337500Y-38491910D01*
X49337500Y-38491910D02*
X49348080Y-38502500D01*
X49348080Y-38502500D02*
X49358660Y-38491910D01*
X49358660Y-38491910D02*
X49348080Y-38481330D01*
X49348080Y-38481330D02*
X49337500Y-38491910D01*
X49337500Y-38491910D02*
X48575500Y-38491910D01*
X48575500Y-38491910D02*
X48575500Y-36238470D01*
X48575500Y-36238470D02*
X48623120Y-36226690D01*
X48623120Y-36226690D02*
X48661230Y-36222790D01*
X48661230Y-36222790D02*
X48732300Y-36220350D01*
X48732300Y-36220350D02*
X48826990Y-36219520D01*
X48826990Y-36219520D02*
X48935940Y-36220470D01*
X48935940Y-36220470D02*
X48963810Y-36220990D01*
X48963810Y-36220990D02*
X49256870Y-36227080D01*
X49256870Y-36227080D02*
X49806550Y-37496680D01*
X49806550Y-37496680D02*
X49901290Y-37715250D01*
X49901290Y-37715250D02*
X49991230Y-37922260D01*
X49991230Y-37922260D02*
X50074930Y-38114430D01*
X50074930Y-38114430D02*
X50150980Y-38288520D01*
X50150980Y-38288520D02*
X50217930Y-38441260D01*
X50217930Y-38441260D02*
X50274370Y-38569410D01*
X50274370Y-38569410D02*
X50318860Y-38669710D01*
X50318860Y-38669710D02*
X50349970Y-38738890D01*
X50349970Y-38738890D02*
X50366280Y-38773710D01*
X50366280Y-38773710D02*
X50368310Y-38777260D01*
X50368310Y-38777260D02*
X50370240Y-38758710D01*
X50370240Y-38758710D02*
X50371600Y-38701430D01*
X50371600Y-38701430D02*
X50372410Y-38609050D01*
X50372410Y-38609050D02*
X50372660Y-38485170D01*
X50372660Y-38485170D02*
X50372380Y-38333400D01*
X50372380Y-38333400D02*
X50371560Y-38157350D01*
X50371560Y-38157350D02*
X50370210Y-37960630D01*
X50370210Y-37960630D02*
X50368340Y-37746850D01*
X50368340Y-37746850D02*
X50365950Y-37519630D01*
X50365950Y-37519630D02*
X50365890Y-37514110D01*
X50365890Y-37514110D02*
X50351380Y-36239980D01*
X50351380Y-36239980D02*
X50421230Y-36227270D01*
X50421230Y-36227270D02*
X50467040Y-36223150D01*
X50467040Y-36223150D02*
X50545550Y-36220470D01*
X50545550Y-36220470D02*
X50647130Y-36219380D01*
X50647130Y-36219380D02*
X50762180Y-36220050D01*
D10*
G36*
X47061830Y-36217310D02*
G01*
X47202690Y-36219800D01*
X47304840Y-36224060D01*
X47370090Y-36230160D01*
X47400230Y-36238190D01*
X47402340Y-36240240D01*
X47407820Y-36263740D01*
X47419950Y-36325700D01*
X47438150Y-36422850D01*
X47461850Y-36551930D01*
X47490470Y-36709670D01*
X47523430Y-36892810D01*
X47560180Y-37098090D01*
X47600130Y-37322250D01*
X47642720Y-37562030D01*
X47687360Y-37814160D01*
X47733490Y-38075370D01*
X47780520Y-38342420D01*
X47827900Y-38612030D01*
X47875050Y-38880950D01*
X47921390Y-39145910D01*
X47966350Y-39403650D01*
X48009360Y-39650900D01*
X48049840Y-39884410D01*
X48087230Y-40100910D01*
X48120940Y-40297140D01*
X48150410Y-40469840D01*
X48175060Y-40615740D01*
X48194320Y-40731590D01*
X48207620Y-40814110D01*
X48214380Y-40860060D01*
X48215130Y-40867870D01*
X48215660Y-40915500D01*
X47394170Y-40915500D01*
X47356620Y-40661090D01*
X47319070Y-40406690D01*
X46407750Y-40418080D01*
X46380780Y-40598000D01*
X46366760Y-40690260D01*
X46353590Y-40774760D01*
X46343630Y-40836370D01*
X46341870Y-40846710D01*
X46329910Y-40915500D01*
X45918120Y-40915500D01*
X45768460Y-40914840D01*
X45656930Y-40912700D01*
X45579330Y-40908800D01*
X45531490Y-40902870D01*
X45509210Y-40894650D01*
X45506330Y-40889190D01*
X45510080Y-40862190D01*
X45520940Y-40796930D01*
X45538300Y-40696690D01*
X45561570Y-40564730D01*
X45590140Y-40404340D01*
X45623420Y-40218780D01*
X45660800Y-40011340D01*
X45701680Y-39785290D01*
X45723210Y-39666660D01*
X46542690Y-39666660D01*
X47183210Y-39666660D01*
X47170600Y-39597870D01*
X47164960Y-39563010D01*
X47153880Y-39490850D01*
X47138060Y-39386010D01*
X47118170Y-39253060D01*
X47094910Y-39096630D01*
X47068950Y-38921290D01*
X47040990Y-38731660D01*
X47019750Y-38587160D01*
X46991010Y-38392120D01*
X46963910Y-38209790D01*
X46939120Y-38044490D01*
X46917280Y-37900520D01*
X46899060Y-37782190D01*
X46885120Y-37693820D01*
X46876100Y-37639700D01*
X46872930Y-37624080D01*
X46866750Y-37627310D01*
X46862900Y-37663030D01*
X46862670Y-37670250D01*
X46859100Y-37702070D01*
X46849550Y-37770420D01*
X46834830Y-37870050D01*
X46815790Y-37995710D01*
X46793260Y-38142160D01*
X46768060Y-38304140D01*
X46741030Y-38476400D01*
X46713000Y-38653700D01*
X46684810Y-38830790D01*
X46657280Y-39002410D01*
X46631250Y-39163320D01*
X46607540Y-39308270D01*
X46587000Y-39432010D01*
X46570450Y-39529290D01*
X46558720Y-39594860D01*
X46553830Y-39619040D01*
X46542690Y-39666660D01*
X45723210Y-39666660D01*
X45745480Y-39543910D01*
X45791580Y-39290470D01*
X45839380Y-39028250D01*
X45888290Y-38760530D01*
X45937710Y-38490570D01*
X45987030Y-38221660D01*
X46035660Y-37957070D01*
X46082990Y-37700080D01*
X46128440Y-37453960D01*
X46171390Y-37221980D01*
X46211240Y-37007440D01*
X46247400Y-36813590D01*
X46279280Y-36643710D01*
X46306250Y-36501090D01*
X46327740Y-36388990D01*
X46343130Y-36310700D01*
X46351830Y-36269480D01*
X46353300Y-36264120D01*
X46360440Y-36249180D01*
X46371220Y-36237740D01*
X46390810Y-36229340D01*
X46424410Y-36223510D01*
X46477210Y-36219780D01*
X46554400Y-36217690D01*
X46661170Y-36216750D01*
X46802700Y-36216510D01*
X46880460Y-36216500D01*
X47061830Y-36217310D01*
G37*
D11*
X47061830Y-36217310D02*
X47202690Y-36219800D01*
X47202690Y-36219800D02*
X47304840Y-36224060D01*
X47304840Y-36224060D02*
X47370090Y-36230160D01*
X47370090Y-36230160D02*
X47400230Y-36238190D01*
X47400230Y-36238190D02*
X47402340Y-36240240D01*
X47402340Y-36240240D02*
X47407820Y-36263740D01*
X47407820Y-36263740D02*
X47419950Y-36325700D01*
X47419950Y-36325700D02*
X47438150Y-36422850D01*
X47438150Y-36422850D02*
X47461850Y-36551930D01*
X47461850Y-36551930D02*
X47490470Y-36709670D01*
X47490470Y-36709670D02*
X47523430Y-36892810D01*
X47523430Y-36892810D02*
X47560180Y-37098090D01*
X47560180Y-37098090D02*
X47600130Y-37322250D01*
X47600130Y-37322250D02*
X47642720Y-37562030D01*
X47642720Y-37562030D02*
X47687360Y-37814160D01*
X47687360Y-37814160D02*
X47733490Y-38075370D01*
X47733490Y-38075370D02*
X47780520Y-38342420D01*
X47780520Y-38342420D02*
X47827900Y-38612030D01*
X47827900Y-38612030D02*
X47875050Y-38880950D01*
X47875050Y-38880950D02*
X47921390Y-39145910D01*
X47921390Y-39145910D02*
X47966350Y-39403650D01*
X47966350Y-39403650D02*
X48009360Y-39650900D01*
X48009360Y-39650900D02*
X48049840Y-39884410D01*
X48049840Y-39884410D02*
X48087230Y-40100910D01*
X48087230Y-40100910D02*
X48120940Y-40297140D01*
X48120940Y-40297140D02*
X48150410Y-40469840D01*
X48150410Y-40469840D02*
X48175060Y-40615740D01*
X48175060Y-40615740D02*
X48194320Y-40731590D01*
X48194320Y-40731590D02*
X48207620Y-40814110D01*
X48207620Y-40814110D02*
X48214380Y-40860060D01*
X48214380Y-40860060D02*
X48215130Y-40867870D01*
X48215130Y-40867870D02*
X48215660Y-40915500D01*
X48215660Y-40915500D02*
X47394170Y-40915500D01*
X47394170Y-40915500D02*
X47356620Y-40661090D01*
X47356620Y-40661090D02*
X47319070Y-40406690D01*
X47319070Y-40406690D02*
X46407750Y-40418080D01*
X46407750Y-40418080D02*
X46380780Y-40598000D01*
X46380780Y-40598000D02*
X46366760Y-40690260D01*
X46366760Y-40690260D02*
X46353590Y-40774760D01*
X46353590Y-40774760D02*
X46343630Y-40836370D01*
X46343630Y-40836370D02*
X46341870Y-40846710D01*
X46341870Y-40846710D02*
X46329910Y-40915500D01*
X46329910Y-40915500D02*
X45918120Y-40915500D01*
X45918120Y-40915500D02*
X45768460Y-40914840D01*
X45768460Y-40914840D02*
X45656930Y-40912700D01*
X45656930Y-40912700D02*
X45579330Y-40908800D01*
X45579330Y-40908800D02*
X45531490Y-40902870D01*
X45531490Y-40902870D02*
X45509210Y-40894650D01*
X45509210Y-40894650D02*
X45506330Y-40889190D01*
X45506330Y-40889190D02*
X45510080Y-40862190D01*
X45510080Y-40862190D02*
X45520940Y-40796930D01*
X45520940Y-40796930D02*
X45538300Y-40696690D01*
X45538300Y-40696690D02*
X45561570Y-40564730D01*
X45561570Y-40564730D02*
X45590140Y-40404340D01*
X45590140Y-40404340D02*
X45623420Y-40218780D01*
X45623420Y-40218780D02*
X45660800Y-40011340D01*
X45660800Y-40011340D02*
X45701680Y-39785290D01*
X45701680Y-39785290D02*
X45723210Y-39666660D01*
X45723210Y-39666660D02*
X46542690Y-39666660D01*
X46542690Y-39666660D02*
X47183210Y-39666660D01*
X47183210Y-39666660D02*
X47170600Y-39597870D01*
X47170600Y-39597870D02*
X47164960Y-39563010D01*
X47164960Y-39563010D02*
X47153880Y-39490850D01*
X47153880Y-39490850D02*
X47138060Y-39386010D01*
X47138060Y-39386010D02*
X47118170Y-39253060D01*
X47118170Y-39253060D02*
X47094910Y-39096630D01*
X47094910Y-39096630D02*
X47068950Y-38921290D01*
X47068950Y-38921290D02*
X47040990Y-38731660D01*
X47040990Y-38731660D02*
X47019750Y-38587160D01*
X47019750Y-38587160D02*
X46991010Y-38392120D01*
X46991010Y-38392120D02*
X46963910Y-38209790D01*
X46963910Y-38209790D02*
X46939120Y-38044490D01*
X46939120Y-38044490D02*
X46917280Y-37900520D01*
X46917280Y-37900520D02*
X46899060Y-37782190D01*
X46899060Y-37782190D02*
X46885120Y-37693820D01*
X46885120Y-37693820D02*
X46876100Y-37639700D01*
X46876100Y-37639700D02*
X46872930Y-37624080D01*
X46872930Y-37624080D02*
X46866750Y-37627310D01*
X46866750Y-37627310D02*
X46862900Y-37663030D01*
X46862900Y-37663030D02*
X46862670Y-37670250D01*
X46862670Y-37670250D02*
X46859100Y-37702070D01*
X46859100Y-37702070D02*
X46849550Y-37770420D01*
X46849550Y-37770420D02*
X46834830Y-37870050D01*
X46834830Y-37870050D02*
X46815790Y-37995710D01*
X46815790Y-37995710D02*
X46793260Y-38142160D01*
X46793260Y-38142160D02*
X46768060Y-38304140D01*
X46768060Y-38304140D02*
X46741030Y-38476400D01*
X46741030Y-38476400D02*
X46713000Y-38653700D01*
X46713000Y-38653700D02*
X46684810Y-38830790D01*
X46684810Y-38830790D02*
X46657280Y-39002410D01*
X46657280Y-39002410D02*
X46631250Y-39163320D01*
X46631250Y-39163320D02*
X46607540Y-39308270D01*
X46607540Y-39308270D02*
X46587000Y-39432010D01*
X46587000Y-39432010D02*
X46570450Y-39529290D01*
X46570450Y-39529290D02*
X46558720Y-39594860D01*
X46558720Y-39594860D02*
X46553830Y-39619040D01*
X46553830Y-39619040D02*
X46542690Y-39666660D01*
X46542690Y-39666660D02*
X45723210Y-39666660D01*
X45723210Y-39666660D02*
X45745480Y-39543910D01*
X45745480Y-39543910D02*
X45791580Y-39290470D01*
X45791580Y-39290470D02*
X45839380Y-39028250D01*
X45839380Y-39028250D02*
X45888290Y-38760530D01*
X45888290Y-38760530D02*
X45937710Y-38490570D01*
X45937710Y-38490570D02*
X45987030Y-38221660D01*
X45987030Y-38221660D02*
X46035660Y-37957070D01*
X46035660Y-37957070D02*
X46082990Y-37700080D01*
X46082990Y-37700080D02*
X46128440Y-37453960D01*
X46128440Y-37453960D02*
X46171390Y-37221980D01*
X46171390Y-37221980D02*
X46211240Y-37007440D01*
X46211240Y-37007440D02*
X46247400Y-36813590D01*
X46247400Y-36813590D02*
X46279280Y-36643710D01*
X46279280Y-36643710D02*
X46306250Y-36501090D01*
X46306250Y-36501090D02*
X46327740Y-36388990D01*
X46327740Y-36388990D02*
X46343130Y-36310700D01*
X46343130Y-36310700D02*
X46351830Y-36269480D01*
X46351830Y-36269480D02*
X46353300Y-36264120D01*
X46353300Y-36264120D02*
X46360440Y-36249180D01*
X46360440Y-36249180D02*
X46371220Y-36237740D01*
X46371220Y-36237740D02*
X46390810Y-36229340D01*
X46390810Y-36229340D02*
X46424410Y-36223510D01*
X46424410Y-36223510D02*
X46477210Y-36219780D01*
X46477210Y-36219780D02*
X46554400Y-36217690D01*
X46554400Y-36217690D02*
X46661170Y-36216750D01*
X46661170Y-36216750D02*
X46802700Y-36216510D01*
X46802700Y-36216510D02*
X46880460Y-36216500D01*
X46880460Y-36216500D02*
X47061830Y-36217310D01*
D10*
G36*
X45212290Y-36221900D02*
G01*
X45294310Y-36226820D01*
X45340420Y-36234950D01*
X45350120Y-36239770D01*
X45355420Y-36249780D01*
X45360070Y-36272110D01*
X45364100Y-36309260D01*
X45367550Y-36363760D01*
X45370460Y-36438090D01*
X45372880Y-36534780D01*
X45374840Y-36656330D01*
X45376390Y-36805250D01*
X45377560Y-36984040D01*
X45378400Y-37195230D01*
X45378950Y-37441310D01*
X45379240Y-37724790D01*
X45379330Y-38036040D01*
X45379300Y-38351880D01*
X45379150Y-38628320D01*
X45378830Y-38868280D01*
X45378280Y-39074690D01*
X45377420Y-39250470D01*
X45376200Y-39398560D01*
X45374550Y-39521880D01*
X45372410Y-39623360D01*
X45369720Y-39705920D01*
X45366420Y-39772500D01*
X45362430Y-39826010D01*
X45357700Y-39869400D01*
X45352160Y-39905570D01*
X45345750Y-39937470D01*
X45338410Y-39968020D01*
X45337520Y-39971550D01*
X45261030Y-40190430D01*
X45151080Y-40388850D01*
X45011810Y-40564000D01*
X44847420Y-40713050D01*
X44662050Y-40833210D01*
X44459890Y-40921650D01*
X44245090Y-40975580D01*
X44021840Y-40992170D01*
X43845750Y-40977580D01*
X43639610Y-40930220D01*
X43452170Y-40852320D01*
X43276060Y-40740010D01*
X43103930Y-40589440D01*
X43101210Y-40586750D01*
X43012270Y-40494280D01*
X42946540Y-40414350D01*
X42893980Y-40333290D01*
X42844550Y-40237430D01*
X42844330Y-40236970D01*
X42785770Y-40104840D01*
X42746160Y-39989710D01*
X42720940Y-39873930D01*
X42705530Y-39739860D01*
X42701590Y-39684990D01*
X42699990Y-39635530D01*
X42698870Y-39547430D01*
X42698230Y-39424410D01*
X42698060Y-39270150D01*
X42698340Y-39088350D01*
X42699080Y-38882710D01*
X42700250Y-38656930D01*
X42701850Y-38414710D01*
X42703870Y-38159750D01*
X42706290Y-37895740D01*
X42706570Y-37867500D01*
X42722910Y-36227080D01*
X43527250Y-36227080D01*
X43537830Y-37994500D01*
X43539730Y-38309010D01*
X43541480Y-38584010D01*
X43543170Y-38822310D01*
X43544860Y-39026750D01*
X43546650Y-39200150D01*
X43548630Y-39345320D01*
X43550860Y-39465080D01*
X43553450Y-39562260D01*
X43556460Y-39639690D01*
X43559990Y-39700170D01*
X43564110Y-39746530D01*
X43568910Y-39781600D01*
X43574470Y-39808190D01*
X43580890Y-39829130D01*
X43588230Y-39847240D01*
X43592760Y-39857160D01*
X43672320Y-39983640D01*
X43775950Y-40075850D01*
X43900960Y-40132190D01*
X44044630Y-40151070D01*
X44087540Y-40149440D01*
X44220140Y-40121210D01*
X44333560Y-40056270D01*
X44429920Y-39953270D01*
X44458080Y-39911100D01*
X44522080Y-39807600D01*
X44543250Y-36227080D01*
X44932070Y-36221300D01*
X45092240Y-36220090D01*
X45212290Y-36221900D01*
G37*
D11*
X45212290Y-36221900D02*
X45294310Y-36226820D01*
X45294310Y-36226820D02*
X45340420Y-36234950D01*
X45340420Y-36234950D02*
X45350120Y-36239770D01*
X45350120Y-36239770D02*
X45355420Y-36249780D01*
X45355420Y-36249780D02*
X45360070Y-36272110D01*
X45360070Y-36272110D02*
X45364100Y-36309260D01*
X45364100Y-36309260D02*
X45367550Y-36363760D01*
X45367550Y-36363760D02*
X45370460Y-36438090D01*
X45370460Y-36438090D02*
X45372880Y-36534780D01*
X45372880Y-36534780D02*
X45374840Y-36656330D01*
X45374840Y-36656330D02*
X45376390Y-36805250D01*
X45376390Y-36805250D02*
X45377560Y-36984040D01*
X45377560Y-36984040D02*
X45378400Y-37195230D01*
X45378400Y-37195230D02*
X45378950Y-37441310D01*
X45378950Y-37441310D02*
X45379240Y-37724790D01*
X45379240Y-37724790D02*
X45379330Y-38036040D01*
X45379330Y-38036040D02*
X45379300Y-38351880D01*
X45379300Y-38351880D02*
X45379150Y-38628320D01*
X45379150Y-38628320D02*
X45378830Y-38868280D01*
X45378830Y-38868280D02*
X45378280Y-39074690D01*
X45378280Y-39074690D02*
X45377420Y-39250470D01*
X45377420Y-39250470D02*
X45376200Y-39398560D01*
X45376200Y-39398560D02*
X45374550Y-39521880D01*
X45374550Y-39521880D02*
X45372410Y-39623360D01*
X45372410Y-39623360D02*
X45369720Y-39705920D01*
X45369720Y-39705920D02*
X45366420Y-39772500D01*
X45366420Y-39772500D02*
X45362430Y-39826010D01*
X45362430Y-39826010D02*
X45357700Y-39869400D01*
X45357700Y-39869400D02*
X45352160Y-39905570D01*
X45352160Y-39905570D02*
X45345750Y-39937470D01*
X45345750Y-39937470D02*
X45338410Y-39968020D01*
X45338410Y-39968020D02*
X45337520Y-39971550D01*
X45337520Y-39971550D02*
X45261030Y-40190430D01*
X45261030Y-40190430D02*
X45151080Y-40388850D01*
X45151080Y-40388850D02*
X45011810Y-40564000D01*
X45011810Y-40564000D02*
X44847420Y-40713050D01*
X44847420Y-40713050D02*
X44662050Y-40833210D01*
X44662050Y-40833210D02*
X44459890Y-40921650D01*
X44459890Y-40921650D02*
X44245090Y-40975580D01*
X44245090Y-40975580D02*
X44021840Y-40992170D01*
X44021840Y-40992170D02*
X43845750Y-40977580D01*
X43845750Y-40977580D02*
X43639610Y-40930220D01*
X43639610Y-40930220D02*
X43452170Y-40852320D01*
X43452170Y-40852320D02*
X43276060Y-40740010D01*
X43276060Y-40740010D02*
X43103930Y-40589440D01*
X43103930Y-40589440D02*
X43101210Y-40586750D01*
X43101210Y-40586750D02*
X43012270Y-40494280D01*
X43012270Y-40494280D02*
X42946540Y-40414350D01*
X42946540Y-40414350D02*
X42893980Y-40333290D01*
X42893980Y-40333290D02*
X42844550Y-40237430D01*
X42844550Y-40237430D02*
X42844330Y-40236970D01*
X42844330Y-40236970D02*
X42785770Y-40104840D01*
X42785770Y-40104840D02*
X42746160Y-39989710D01*
X42746160Y-39989710D02*
X42720940Y-39873930D01*
X42720940Y-39873930D02*
X42705530Y-39739860D01*
X42705530Y-39739860D02*
X42701590Y-39684990D01*
X42701590Y-39684990D02*
X42699990Y-39635530D01*
X42699990Y-39635530D02*
X42698870Y-39547430D01*
X42698870Y-39547430D02*
X42698230Y-39424410D01*
X42698230Y-39424410D02*
X42698060Y-39270150D01*
X42698060Y-39270150D02*
X42698340Y-39088350D01*
X42698340Y-39088350D02*
X42699080Y-38882710D01*
X42699080Y-38882710D02*
X42700250Y-38656930D01*
X42700250Y-38656930D02*
X42701850Y-38414710D01*
X42701850Y-38414710D02*
X42703870Y-38159750D01*
X42703870Y-38159750D02*
X42706290Y-37895740D01*
X42706290Y-37895740D02*
X42706570Y-37867500D01*
X42706570Y-37867500D02*
X42722910Y-36227080D01*
X42722910Y-36227080D02*
X43527250Y-36227080D01*
X43527250Y-36227080D02*
X43537830Y-37994500D01*
X43537830Y-37994500D02*
X43539730Y-38309010D01*
X43539730Y-38309010D02*
X43541480Y-38584010D01*
X43541480Y-38584010D02*
X43543170Y-38822310D01*
X43543170Y-38822310D02*
X43544860Y-39026750D01*
X43544860Y-39026750D02*
X43546650Y-39200150D01*
X43546650Y-39200150D02*
X43548630Y-39345320D01*
X43548630Y-39345320D02*
X43550860Y-39465080D01*
X43550860Y-39465080D02*
X43553450Y-39562260D01*
X43553450Y-39562260D02*
X43556460Y-39639690D01*
X43556460Y-39639690D02*
X43559990Y-39700170D01*
X43559990Y-39700170D02*
X43564110Y-39746530D01*
X43564110Y-39746530D02*
X43568910Y-39781600D01*
X43568910Y-39781600D02*
X43574470Y-39808190D01*
X43574470Y-39808190D02*
X43580890Y-39829130D01*
X43580890Y-39829130D02*
X43588230Y-39847240D01*
X43588230Y-39847240D02*
X43592760Y-39857160D01*
X43592760Y-39857160D02*
X43672320Y-39983640D01*
X43672320Y-39983640D02*
X43775950Y-40075850D01*
X43775950Y-40075850D02*
X43900960Y-40132190D01*
X43900960Y-40132190D02*
X44044630Y-40151070D01*
X44044630Y-40151070D02*
X44087540Y-40149440D01*
X44087540Y-40149440D02*
X44220140Y-40121210D01*
X44220140Y-40121210D02*
X44333560Y-40056270D01*
X44333560Y-40056270D02*
X44429920Y-39953270D01*
X44429920Y-39953270D02*
X44458080Y-39911100D01*
X44458080Y-39911100D02*
X44522080Y-39807600D01*
X44522080Y-39807600D02*
X44543250Y-36227080D01*
X44543250Y-36227080D02*
X44932070Y-36221300D01*
X44932070Y-36221300D02*
X45092240Y-36220090D01*
X45092240Y-36220090D02*
X45212290Y-36221900D01*
D10*
G36*
X41141780Y-36171900D02*
G01*
X41299610Y-36202810D01*
X41336500Y-36213670D01*
X41551690Y-36304270D01*
X41745930Y-36430320D01*
X41916310Y-36589000D01*
X42059940Y-36777470D01*
X42173920Y-36992890D01*
X42200280Y-37058050D01*
X42254350Y-37200750D01*
X42270760Y-38375500D01*
X42274680Y-38663310D01*
X42277680Y-38912390D01*
X42279540Y-39126310D01*
X42280020Y-39308660D01*
X42278910Y-39463020D01*
X42275980Y-39592990D01*
X42271000Y-39702140D01*
X42263740Y-39794060D01*
X42253990Y-39872350D01*
X42241520Y-39940570D01*
X42226100Y-40002330D01*
X42207510Y-40061200D01*
X42185510Y-40120770D01*
X42159900Y-40184630D01*
X42156620Y-40192620D01*
X42092810Y-40348160D01*
X42312280Y-40568370D01*
X42531740Y-40788580D01*
X42246620Y-41074290D01*
X42156550Y-41163460D01*
X42075900Y-41241260D01*
X42009650Y-41303050D01*
X41962790Y-41344160D01*
X41940330Y-41359960D01*
X41939920Y-41360000D01*
X41918270Y-41345730D01*
X41872600Y-41306360D01*
X41808530Y-41247030D01*
X41731670Y-41172870D01*
X41683640Y-41125290D01*
X41448940Y-40890590D01*
X41302760Y-40937220D01*
X41132040Y-40974470D01*
X40942470Y-40986660D01*
X40749180Y-40973950D01*
X40567320Y-40936520D01*
X40541090Y-40928500D01*
X40324130Y-40837160D01*
X40128620Y-40710330D01*
X39956890Y-40550290D01*
X39811270Y-40359310D01*
X39694100Y-40139680D01*
X39666930Y-40073940D01*
X39611410Y-39931250D01*
X39605250Y-38650660D01*
X39604830Y-38552960D01*
X40447700Y-38552960D01*
X40448010Y-38844230D01*
X40449040Y-39094600D01*
X40450830Y-39305500D01*
X40453400Y-39478350D01*
X40456790Y-39614580D01*
X40461010Y-39715610D01*
X40466100Y-39782880D01*
X40471660Y-39816470D01*
X40526680Y-39930770D01*
X40612510Y-40025110D01*
X40720830Y-40095790D01*
X40843370Y-40139110D01*
X40971830Y-40151350D01*
X41097920Y-40128820D01*
X41136590Y-40113570D01*
X41200800Y-40073980D01*
X41269050Y-40016380D01*
X41301420Y-39982320D01*
X41331030Y-39947090D01*
X41356270Y-39913650D01*
X41377440Y-39878460D01*
X41394900Y-39837970D01*
X41408960Y-39788660D01*
X41419950Y-39726990D01*
X41428220Y-39649430D01*
X41434080Y-39552440D01*
X41437880Y-39432480D01*
X41439930Y-39286030D01*
X41440570Y-39109550D01*
X41440130Y-38899500D01*
X41438950Y-38652350D01*
X41438210Y-38519510D01*
X41431750Y-37370080D01*
X41381520Y-37268960D01*
X41302140Y-37149770D01*
X41202270Y-37061990D01*
X41088380Y-37005650D01*
X40966900Y-36980800D01*
X40844280Y-36987490D01*
X40726970Y-37025760D01*
X40621410Y-37095660D01*
X40534060Y-37197230D01*
X40497890Y-37262750D01*
X40447910Y-37370080D01*
X40447700Y-38552960D01*
X39604830Y-38552960D01*
X39604070Y-38379980D01*
X39603350Y-38148130D01*
X39603180Y-37951650D01*
X39603620Y-37787030D01*
X39604740Y-37650790D01*
X39606610Y-37539440D01*
X39609290Y-37449500D01*
X39612850Y-37377470D01*
X39617370Y-37319870D01*
X39622910Y-37273210D01*
X39629530Y-37234000D01*
X39633330Y-37215840D01*
X39703070Y-36995930D01*
X39808900Y-36792160D01*
X39946540Y-36608870D01*
X40111740Y-36450400D01*
X40300240Y-36321070D01*
X40507770Y-36225230D01*
X40648580Y-36183460D01*
X40798680Y-36161460D01*
X40968940Y-36157860D01*
X41141780Y-36171900D01*
G37*
D11*
X41141780Y-36171900D02*
X41299610Y-36202810D01*
X41299610Y-36202810D02*
X41336500Y-36213670D01*
X41336500Y-36213670D02*
X41551690Y-36304270D01*
X41551690Y-36304270D02*
X41745930Y-36430320D01*
X41745930Y-36430320D02*
X41916310Y-36589000D01*
X41916310Y-36589000D02*
X42059940Y-36777470D01*
X42059940Y-36777470D02*
X42173920Y-36992890D01*
X42173920Y-36992890D02*
X42200280Y-37058050D01*
X42200280Y-37058050D02*
X42254350Y-37200750D01*
X42254350Y-37200750D02*
X42270760Y-38375500D01*
X42270760Y-38375500D02*
X42274680Y-38663310D01*
X42274680Y-38663310D02*
X42277680Y-38912390D01*
X42277680Y-38912390D02*
X42279540Y-39126310D01*
X42279540Y-39126310D02*
X42280020Y-39308660D01*
X42280020Y-39308660D02*
X42278910Y-39463020D01*
X42278910Y-39463020D02*
X42275980Y-39592990D01*
X42275980Y-39592990D02*
X42271000Y-39702140D01*
X42271000Y-39702140D02*
X42263740Y-39794060D01*
X42263740Y-39794060D02*
X42253990Y-39872350D01*
X42253990Y-39872350D02*
X42241520Y-39940570D01*
X42241520Y-39940570D02*
X42226100Y-40002330D01*
X42226100Y-40002330D02*
X42207510Y-40061200D01*
X42207510Y-40061200D02*
X42185510Y-40120770D01*
X42185510Y-40120770D02*
X42159900Y-40184630D01*
X42159900Y-40184630D02*
X42156620Y-40192620D01*
X42156620Y-40192620D02*
X42092810Y-40348160D01*
X42092810Y-40348160D02*
X42312280Y-40568370D01*
X42312280Y-40568370D02*
X42531740Y-40788580D01*
X42531740Y-40788580D02*
X42246620Y-41074290D01*
X42246620Y-41074290D02*
X42156550Y-41163460D01*
X42156550Y-41163460D02*
X42075900Y-41241260D01*
X42075900Y-41241260D02*
X42009650Y-41303050D01*
X42009650Y-41303050D02*
X41962790Y-41344160D01*
X41962790Y-41344160D02*
X41940330Y-41359960D01*
X41940330Y-41359960D02*
X41939920Y-41360000D01*
X41939920Y-41360000D02*
X41918270Y-41345730D01*
X41918270Y-41345730D02*
X41872600Y-41306360D01*
X41872600Y-41306360D02*
X41808530Y-41247030D01*
X41808530Y-41247030D02*
X41731670Y-41172870D01*
X41731670Y-41172870D02*
X41683640Y-41125290D01*
X41683640Y-41125290D02*
X41448940Y-40890590D01*
X41448940Y-40890590D02*
X41302760Y-40937220D01*
X41302760Y-40937220D02*
X41132040Y-40974470D01*
X41132040Y-40974470D02*
X40942470Y-40986660D01*
X40942470Y-40986660D02*
X40749180Y-40973950D01*
X40749180Y-40973950D02*
X40567320Y-40936520D01*
X40567320Y-40936520D02*
X40541090Y-40928500D01*
X40541090Y-40928500D02*
X40324130Y-40837160D01*
X40324130Y-40837160D02*
X40128620Y-40710330D01*
X40128620Y-40710330D02*
X39956890Y-40550290D01*
X39956890Y-40550290D02*
X39811270Y-40359310D01*
X39811270Y-40359310D02*
X39694100Y-40139680D01*
X39694100Y-40139680D02*
X39666930Y-40073940D01*
X39666930Y-40073940D02*
X39611410Y-39931250D01*
X39611410Y-39931250D02*
X39605250Y-38650660D01*
X39605250Y-38650660D02*
X39604830Y-38552960D01*
X39604830Y-38552960D02*
X40447700Y-38552960D01*
X40447700Y-38552960D02*
X40448010Y-38844230D01*
X40448010Y-38844230D02*
X40449040Y-39094600D01*
X40449040Y-39094600D02*
X40450830Y-39305500D01*
X40450830Y-39305500D02*
X40453400Y-39478350D01*
X40453400Y-39478350D02*
X40456790Y-39614580D01*
X40456790Y-39614580D02*
X40461010Y-39715610D01*
X40461010Y-39715610D02*
X40466100Y-39782880D01*
X40466100Y-39782880D02*
X40471660Y-39816470D01*
X40471660Y-39816470D02*
X40526680Y-39930770D01*
X40526680Y-39930770D02*
X40612510Y-40025110D01*
X40612510Y-40025110D02*
X40720830Y-40095790D01*
X40720830Y-40095790D02*
X40843370Y-40139110D01*
X40843370Y-40139110D02*
X40971830Y-40151350D01*
X40971830Y-40151350D02*
X41097920Y-40128820D01*
X41097920Y-40128820D02*
X41136590Y-40113570D01*
X41136590Y-40113570D02*
X41200800Y-40073980D01*
X41200800Y-40073980D02*
X41269050Y-40016380D01*
X41269050Y-40016380D02*
X41301420Y-39982320D01*
X41301420Y-39982320D02*
X41331030Y-39947090D01*
X41331030Y-39947090D02*
X41356270Y-39913650D01*
X41356270Y-39913650D02*
X41377440Y-39878460D01*
X41377440Y-39878460D02*
X41394900Y-39837970D01*
X41394900Y-39837970D02*
X41408960Y-39788660D01*
X41408960Y-39788660D02*
X41419950Y-39726990D01*
X41419950Y-39726990D02*
X41428220Y-39649430D01*
X41428220Y-39649430D02*
X41434080Y-39552440D01*
X41434080Y-39552440D02*
X41437880Y-39432480D01*
X41437880Y-39432480D02*
X41439930Y-39286030D01*
X41439930Y-39286030D02*
X41440570Y-39109550D01*
X41440570Y-39109550D02*
X41440130Y-38899500D01*
X41440130Y-38899500D02*
X41438950Y-38652350D01*
X41438950Y-38652350D02*
X41438210Y-38519510D01*
X41438210Y-38519510D02*
X41431750Y-37370080D01*
X41431750Y-37370080D02*
X41381520Y-37268960D01*
X41381520Y-37268960D02*
X41302140Y-37149770D01*
X41302140Y-37149770D02*
X41202270Y-37061990D01*
X41202270Y-37061990D02*
X41088380Y-37005650D01*
X41088380Y-37005650D02*
X40966900Y-36980800D01*
X40966900Y-36980800D02*
X40844280Y-36987490D01*
X40844280Y-36987490D02*
X40726970Y-37025760D01*
X40726970Y-37025760D02*
X40621410Y-37095660D01*
X40621410Y-37095660D02*
X40534060Y-37197230D01*
X40534060Y-37197230D02*
X40497890Y-37262750D01*
X40497890Y-37262750D02*
X40447910Y-37370080D01*
X40447910Y-37370080D02*
X40447700Y-38552960D01*
X40447700Y-38552960D02*
X39604830Y-38552960D01*
X39604830Y-38552960D02*
X39604070Y-38379980D01*
X39604070Y-38379980D02*
X39603350Y-38148130D01*
X39603350Y-38148130D02*
X39603180Y-37951650D01*
X39603180Y-37951650D02*
X39603620Y-37787030D01*
X39603620Y-37787030D02*
X39604740Y-37650790D01*
X39604740Y-37650790D02*
X39606610Y-37539440D01*
X39606610Y-37539440D02*
X39609290Y-37449500D01*
X39609290Y-37449500D02*
X39612850Y-37377470D01*
X39612850Y-37377470D02*
X39617370Y-37319870D01*
X39617370Y-37319870D02*
X39622910Y-37273210D01*
X39622910Y-37273210D02*
X39629530Y-37234000D01*
X39629530Y-37234000D02*
X39633330Y-37215840D01*
X39633330Y-37215840D02*
X39703070Y-36995930D01*
X39703070Y-36995930D02*
X39808900Y-36792160D01*
X39808900Y-36792160D02*
X39946540Y-36608870D01*
X39946540Y-36608870D02*
X40111740Y-36450400D01*
X40111740Y-36450400D02*
X40300240Y-36321070D01*
X40300240Y-36321070D02*
X40507770Y-36225230D01*
X40507770Y-36225230D02*
X40648580Y-36183460D01*
X40648580Y-36183460D02*
X40798680Y-36161460D01*
X40798680Y-36161460D02*
X40968940Y-36157860D01*
X40968940Y-36157860D02*
X41141780Y-36171900D01*
D10*
G36*
X63974250Y-120232180D02*
G01*
X64175890Y-120312490D01*
X64351040Y-120408590D01*
X64513350Y-120529060D01*
X64653720Y-120659320D01*
X64744070Y-120753010D01*
X64811430Y-120831390D01*
X64864900Y-120906790D01*
X64913590Y-120991500D01*
X64944970Y-121053290D01*
X64993320Y-121160110D01*
X65039030Y-121276000D01*
X65074860Y-121382060D01*
X65085710Y-121421010D01*
X65088960Y-121434300D01*
X65092040Y-121448400D01*
X65094950Y-121464440D01*
X65097700Y-121483570D01*
X65100290Y-121506900D01*
X65102730Y-121535600D01*
X65105020Y-121570780D01*
X65107170Y-121613590D01*
X65109180Y-121665160D01*
X65111050Y-121726640D01*
X65112790Y-121799150D01*
X65114410Y-121883840D01*
X65115900Y-121981840D01*
X65117280Y-122094290D01*
X65118550Y-122222330D01*
X65119720Y-122367100D01*
X65120780Y-122529720D01*
X65121740Y-122711340D01*
X65122610Y-122913100D01*
X65123390Y-123136120D01*
X65124090Y-123381560D01*
X65124710Y-123650540D01*
X65125250Y-123944210D01*
X65125730Y-124263690D01*
X65126140Y-124610140D01*
X65126490Y-124984670D01*
X65126780Y-125388440D01*
X65127030Y-125822580D01*
X65127220Y-126288220D01*
X65127380Y-126786500D01*
X65127500Y-127318560D01*
X65127580Y-127885540D01*
X65127640Y-128488570D01*
X65127680Y-129128800D01*
X65127690Y-129807350D01*
X65127690Y-130525360D01*
X65127690Y-131283980D01*
X65127680Y-131697420D01*
X65127670Y-132477950D01*
X65127650Y-133217270D01*
X65127610Y-133916540D01*
X65127560Y-134576880D01*
X65127490Y-135199440D01*
X65127400Y-135785350D01*
X65127270Y-136335750D01*
X65127110Y-136851780D01*
X65126910Y-137334560D01*
X65126660Y-137785250D01*
X65126370Y-138204970D01*
X65126030Y-138594870D01*
X65125630Y-138956080D01*
X65125160Y-139289740D01*
X65124630Y-139596980D01*
X65124030Y-139878940D01*
X65123360Y-140136760D01*
X65122600Y-140371580D01*
X65121760Y-140584530D01*
X65120830Y-140776750D01*
X65119810Y-140949370D01*
X65118690Y-141103540D01*
X65117460Y-141240400D01*
X65116130Y-141361060D01*
X65114690Y-141466690D01*
X65113130Y-141558400D01*
X65111450Y-141637350D01*
X65109650Y-141704660D01*
X65107710Y-141761470D01*
X65105640Y-141808920D01*
X65103440Y-141848150D01*
X65101090Y-141880290D01*
X65098590Y-141906490D01*
X65095940Y-141927870D01*
X65093130Y-141945570D01*
X65090160Y-141960740D01*
X65087030Y-141974510D01*
X65086730Y-141975750D01*
X65005340Y-142226470D01*
X64888330Y-142456420D01*
X64738310Y-142663020D01*
X64557860Y-142843700D01*
X64349600Y-142995890D01*
X64116120Y-143117020D01*
X63860020Y-143204520D01*
X63838000Y-143210150D01*
X63825790Y-143212650D01*
X63808970Y-143215020D01*
X63786490Y-143217270D01*
X63757310Y-143219410D01*
X63720420Y-143221450D01*
X63674760Y-143223370D01*
X63619300Y-143225190D01*
X63553000Y-143226910D01*
X63474840Y-143228530D01*
X63383760Y-143230060D01*
X63278740Y-143231500D01*
X63158740Y-143232850D01*
X63022720Y-143234110D01*
X62869650Y-143235300D01*
X62698490Y-143236400D01*
X62508200Y-143237430D01*
X62297750Y-143238400D01*
X62066110Y-143239290D01*
X61812220Y-143240120D01*
X61535070Y-143240880D01*
X61233600Y-143241590D01*
X60906800Y-143242250D01*
X60553610Y-143242850D01*
X60173010Y-143243410D01*
X59763950Y-143243920D01*
X59325400Y-143244380D01*
X58856330Y-143244810D01*
X58355700Y-143245210D01*
X57822470Y-143245570D01*
X57255600Y-143245900D01*
X56654060Y-143246210D01*
X56016820Y-143246500D01*
X55342830Y-143246770D01*
X54631060Y-143247020D01*
X53880480Y-143247260D01*
X53090040Y-143247490D01*
X52258710Y-143247720D01*
X51919830Y-143247810D01*
X51214070Y-143247950D01*
X50518300Y-143248040D01*
X49833750Y-143248050D01*
X49161640Y-143248010D01*
X48503210Y-143247900D01*
X47859670Y-143247730D01*
X47232270Y-143247510D01*
X46622210Y-143247230D01*
X46030740Y-143246890D01*
X45459070Y-143246490D01*
X44908430Y-143246050D01*
X44380060Y-143245550D01*
X43875170Y-143245010D01*
X43395000Y-143244420D01*
X42940760Y-143243780D01*
X42513700Y-143243100D01*
X42115030Y-143242370D01*
X41745980Y-143241600D01*
X41407780Y-143240790D01*
X41101660Y-143239950D01*
X40828840Y-143239060D01*
X40590550Y-143238140D01*
X40388010Y-143237190D01*
X40222460Y-143236210D01*
X40095120Y-143235190D01*
X40007210Y-143234150D01*
X39959970Y-143233080D01*
X39953140Y-143232680D01*
X39707780Y-143188340D01*
X39470720Y-143105640D01*
X39247830Y-142988160D01*
X39045010Y-142839460D01*
X38868130Y-142663140D01*
X38745550Y-142498840D01*
X38656210Y-142348030D01*
X38590440Y-142205690D01*
X38539880Y-142052470D01*
X38520100Y-141975750D01*
X38516950Y-141962050D01*
X38513960Y-141947060D01*
X38511140Y-141929640D01*
X38508480Y-141908640D01*
X38505960Y-141882940D01*
X38503600Y-141851390D01*
X38501380Y-141812860D01*
X38499300Y-141766220D01*
X38497350Y-141710310D01*
X38495540Y-141644020D01*
X38493850Y-141566200D01*
X38492280Y-141475710D01*
X38490820Y-141371410D01*
X38489480Y-141252180D01*
X38488250Y-141116870D01*
X38487120Y-140964340D01*
X38486090Y-140793460D01*
X38485150Y-140603100D01*
X38484300Y-140392110D01*
X38483540Y-140159350D01*
X38482850Y-139903700D01*
X38482250Y-139624010D01*
X38481710Y-139319150D01*
X38481240Y-138987970D01*
X38481099Y-138864250D01*
X50512250Y-138864250D01*
X50512330Y-139058080D01*
X50512760Y-139214400D01*
X50513810Y-139338020D01*
X50515780Y-139433770D01*
X50518940Y-139506460D01*
X50523570Y-139560910D01*
X50529950Y-139601940D01*
X50538370Y-139634380D01*
X50549100Y-139663030D01*
X50560280Y-139688060D01*
X50649500Y-139837430D01*
X50762630Y-139956570D01*
X50894520Y-140043420D01*
X51040030Y-140095960D01*
X51194000Y-140112140D01*
X51351280Y-140089930D01*
X51467740Y-140047120D01*
X51604560Y-139959870D01*
X51715800Y-139841020D01*
X51799040Y-139694420D01*
X51851880Y-139523910D01*
X51868210Y-139409290D01*
X51882960Y-139234660D01*
X51454160Y-139234660D01*
X51454160Y-139362710D01*
X51442860Y-139484150D01*
X51406740Y-139577300D01*
X51342500Y-139650330D01*
X51335320Y-139656130D01*
X51260140Y-139691100D01*
X51168220Y-139699070D01*
X51075980Y-139679330D01*
X51051300Y-139668220D01*
X51017670Y-139649440D01*
X50990520Y-139628510D01*
X50969200Y-139601020D01*
X50953070Y-139562550D01*
X50941490Y-139508670D01*
X50933820Y-139434990D01*
X50929400Y-139337070D01*
X50927590Y-139210500D01*
X50927760Y-139050870D01*
X50929250Y-138853760D01*
X50929450Y-138832300D01*
X50935580Y-138155920D01*
X51001060Y-138090470D01*
X51085830Y-138032280D01*
X51179760Y-138010970D01*
X51273420Y-138025410D01*
X51357350Y-138074440D01*
X51412690Y-138140320D01*
X51441460Y-138210470D01*
X51453400Y-138304420D01*
X51454080Y-138340370D01*
X51454160Y-138472660D01*
X51860540Y-138472660D01*
X51853030Y-138287460D01*
X51836420Y-138132630D01*
X51797280Y-138004560D01*
X51730740Y-137891540D01*
X51649930Y-137799480D01*
X51542400Y-137708520D01*
X51432890Y-137652230D01*
X51898660Y-137652230D01*
X51902680Y-137673960D01*
X51914140Y-137732680D01*
X51932130Y-137823900D01*
X51955760Y-137943120D01*
X51984120Y-138085830D01*
X52016320Y-138247530D01*
X52051450Y-138423710D01*
X52088620Y-138609880D01*
X52126920Y-138801530D01*
X52165450Y-138994160D01*
X52203320Y-139183260D01*
X52239620Y-139364330D01*
X52273450Y-139532870D01*
X52303910Y-139684380D01*
X52330100Y-139814340D01*
X52351130Y-139918270D01*
X52366080Y-139991660D01*
X52374060Y-140029990D01*
X52374890Y-140033710D01*
X52382290Y-140055110D01*
X52397500Y-140068900D01*
X52428520Y-140076760D01*
X52483370Y-140080340D01*
X52570080Y-140081300D01*
X52604340Y-140081330D01*
X52822380Y-140081330D01*
X53059740Y-138880120D01*
X53103070Y-138660500D01*
X53143830Y-138453300D01*
X53181290Y-138262240D01*
X53214720Y-138091040D01*
X53243410Y-137943430D01*
X53266620Y-137823110D01*
X53283650Y-137733820D01*
X53293760Y-137679260D01*
X53296380Y-137663040D01*
X53276820Y-137656480D01*
X53226260Y-137651620D01*
X53155870Y-137648540D01*
X53076840Y-137647340D01*
X53000340Y-137648110D01*
X52937560Y-137650940D01*
X52899670Y-137655940D01*
X52893500Y-137659670D01*
X52890010Y-137682750D01*
X52880190Y-137741850D01*
X52865040Y-137831270D01*
X52845540Y-137945350D01*
X52822680Y-138078390D01*
X52797430Y-138224720D01*
X52770780Y-138378640D01*
X52743730Y-138534480D01*
X52717260Y-138686560D01*
X52692340Y-138829180D01*
X52669970Y-138956680D01*
X52651140Y-139063350D01*
X52636820Y-139143530D01*
X52628010Y-139191530D01*
X52626520Y-139199140D01*
X52614430Y-139237740D01*
X52602460Y-139247020D01*
X52602400Y-139246960D01*
X52596120Y-139224130D01*
X52583370Y-139164240D01*
X52565050Y-139071920D01*
X52542020Y-138951800D01*
X52515190Y-138808500D01*
X52485440Y-138646660D01*
X52453640Y-138470900D01*
X52449250Y-138446400D01*
X52308000Y-137657750D01*
X52103330Y-137651690D01*
X52016110Y-137649740D01*
X51947400Y-137649410D01*
X51906290Y-137650680D01*
X51898660Y-137652230D01*
X51432890Y-137652230D01*
X51430310Y-137650910D01*
X51301760Y-137621890D01*
X51189580Y-137616050D01*
X51080220Y-137620120D01*
X50996580Y-137634150D01*
X50922630Y-137660850D01*
X50921280Y-137661470D01*
X50783810Y-137746670D01*
X50666240Y-137863600D01*
X50577700Y-138003060D01*
X50573320Y-138012340D01*
X50512250Y-138144580D01*
X50512250Y-138864250D01*
X38481099Y-138864250D01*
X38480830Y-138629350D01*
X38480480Y-138242150D01*
X38480410Y-138144580D01*
X38480190Y-137825220D01*
X38479940Y-137377440D01*
X38479730Y-136897650D01*
X38479570Y-136384740D01*
X38479440Y-135837560D01*
X38479340Y-135254970D01*
X38479270Y-134635840D01*
X38479220Y-133979020D01*
X38479180Y-133283390D01*
X38479160Y-132547810D01*
X38479150Y-131771130D01*
X38479140Y-131697420D01*
X38479140Y-130917110D01*
X38479130Y-130178000D01*
X38479140Y-129478950D01*
X38479160Y-128818810D01*
X38479210Y-128196470D01*
X38479280Y-127610770D01*
X38479380Y-127060580D01*
X38479520Y-126544760D01*
X38479690Y-126062190D01*
X38479910Y-125611710D01*
X38480180Y-125192200D01*
X38480380Y-124948650D01*
X49255520Y-124948650D01*
X49257810Y-125092830D01*
X49263240Y-125209100D01*
X49272590Y-125302290D01*
X49286680Y-125377200D01*
X49306290Y-125438640D01*
X49332240Y-125491420D01*
X49365310Y-125540340D01*
X49406320Y-125590220D01*
X49434350Y-125621810D01*
X49561010Y-125733830D01*
X49702700Y-125807250D01*
X49855500Y-125841320D01*
X50015510Y-125835300D01*
X50175910Y-125789300D01*
X50680960Y-125789300D01*
X50685770Y-125802020D01*
X50714690Y-125809410D01*
X50773590Y-125812110D01*
X50868340Y-125810740D01*
X50877740Y-125810470D01*
X51083750Y-125804410D01*
X51102580Y-125672120D01*
X51121400Y-125539830D01*
X51620900Y-125539830D01*
X51634560Y-125640370D01*
X51645490Y-125719730D01*
X51657920Y-125770540D01*
X51680350Y-125799140D01*
X51721280Y-125811860D01*
X51789200Y-125815050D01*
X51868740Y-125815000D01*
X51961500Y-125814590D01*
X52019440Y-125812110D01*
X52050050Y-125805670D01*
X52060860Y-125793380D01*
X52059370Y-125773350D01*
X52058060Y-125767370D01*
X52052500Y-125737870D01*
X52040500Y-125670700D01*
X52022750Y-125569890D01*
X51999970Y-125439510D01*
X51972860Y-125283600D01*
X51942130Y-125106210D01*
X51908470Y-124911380D01*
X51872600Y-124703170D01*
X51856320Y-124608500D01*
X51819640Y-124395270D01*
X51784820Y-124193320D01*
X51752580Y-124006730D01*
X51723630Y-123839600D01*
X51713796Y-123783000D01*
X51941000Y-123783000D01*
X52406660Y-123783000D01*
X52406660Y-125815000D01*
X52808830Y-125815000D01*
X53422660Y-125815000D01*
X54565660Y-125815000D01*
X54565660Y-125391660D01*
X53824830Y-125391660D01*
X53824830Y-124756660D01*
X54565660Y-124756660D01*
X54565660Y-124354500D01*
X53824830Y-124354500D01*
X53824830Y-123783000D01*
X54565660Y-123783000D01*
X54565660Y-123380830D01*
X53422660Y-123380830D01*
X53422660Y-125815000D01*
X52808830Y-125815000D01*
X52808830Y-123783000D01*
X53295660Y-123783000D01*
X53295660Y-123380830D01*
X51941000Y-123380830D01*
X51941000Y-123783000D01*
X51713796Y-123783000D01*
X51698690Y-123696050D01*
X51678460Y-123580150D01*
X51663650Y-123496020D01*
X51654980Y-123447750D01*
X51653310Y-123439040D01*
X51641300Y-123380830D01*
X51118860Y-123380830D01*
X51107000Y-123439040D01*
X51101100Y-123470480D01*
X51088490Y-123539550D01*
X51069900Y-123642190D01*
X51046060Y-123774370D01*
X51017690Y-123932030D01*
X50985530Y-124111120D01*
X50950300Y-124307600D01*
X50912730Y-124517420D01*
X50892650Y-124629660D01*
X50854320Y-124843600D01*
X50818030Y-125045320D01*
X50784490Y-125230930D01*
X50754410Y-125396510D01*
X50728500Y-125538150D01*
X50707490Y-125651960D01*
X50692080Y-125734020D01*
X50682990Y-125780430D01*
X50680960Y-125789300D01*
X50175910Y-125789300D01*
X50178830Y-125788460D01*
X50219390Y-125770440D01*
X50346970Y-125692940D01*
X50448080Y-125591640D01*
X50530500Y-125458460D01*
X50541860Y-125434960D01*
X50561810Y-125390020D01*
X50576460Y-125347780D01*
X50586800Y-125300410D01*
X50593800Y-125240120D01*
X50598450Y-125159080D01*
X50601730Y-125049480D01*
X50603920Y-124941870D01*
X50610920Y-124566160D01*
X49930160Y-124566160D01*
X49930160Y-124968330D01*
X50211020Y-124968330D01*
X50200700Y-125112490D01*
X50182550Y-125233790D01*
X50146000Y-125321950D01*
X50087860Y-125383370D01*
X50055070Y-125403330D01*
X49965650Y-125430690D01*
X49871270Y-125429220D01*
X49788690Y-125399830D01*
X49771700Y-125388110D01*
X49739990Y-125361090D01*
X49714600Y-125332070D01*
X49694820Y-125296230D01*
X49679960Y-125248800D01*
X49669320Y-125184980D01*
X49662210Y-125099960D01*
X49657920Y-124988960D01*
X49655770Y-124847180D01*
X49655040Y-124669820D01*
X49655000Y-124585920D01*
X49655270Y-124403520D01*
X49656270Y-124258440D01*
X49658260Y-124145690D01*
X49661470Y-124060270D01*
X49666180Y-123997170D01*
X49672640Y-123951390D01*
X49681100Y-123917920D01*
X49690340Y-123894820D01*
X49751290Y-123809610D01*
X49834530Y-123759400D01*
X49935730Y-123746680D01*
X49947650Y-123747670D01*
X50047320Y-123776910D01*
X50124350Y-123840290D01*
X50176790Y-123935030D01*
X50202710Y-124058350D01*
X50205210Y-124116370D01*
X50205330Y-124206330D01*
X50612810Y-124206330D01*
X50603600Y-124031710D01*
X50576210Y-123848710D01*
X50514610Y-123690610D01*
X50418690Y-123557260D01*
X50288360Y-123448490D01*
X50215910Y-123406190D01*
X50153350Y-123377360D01*
X50092910Y-123360420D01*
X50019260Y-123352370D01*
X49930160Y-123350240D01*
X49834240Y-123351680D01*
X49765190Y-123359110D01*
X49707650Y-123375560D01*
X49646280Y-123404060D01*
X49639830Y-123407430D01*
X49493040Y-123506920D01*
X49376550Y-123635710D01*
X49321620Y-123725500D01*
X49263410Y-123835910D01*
X49257100Y-124557360D01*
X49255550Y-124771760D01*
X49255520Y-124948650D01*
X38480380Y-124948650D01*
X38480500Y-124802510D01*
X38480880Y-124441510D01*
X38481320Y-124108060D01*
X38481820Y-123801030D01*
X38482400Y-123519280D01*
X38483060Y-123261660D01*
X38483800Y-123027050D01*
X38484620Y-122814310D01*
X38485530Y-122622300D01*
X38486540Y-122449880D01*
X38487650Y-122295910D01*
X38488860Y-122159270D01*
X38490190Y-122038800D01*
X38491620Y-121933380D01*
X38493170Y-121841870D01*
X38494850Y-121763130D01*
X38496660Y-121696020D01*
X38498590Y-121639400D01*
X38500660Y-121592150D01*
X38502880Y-121553120D01*
X38505240Y-121521180D01*
X38507750Y-121495180D01*
X38510420Y-121473990D01*
X38513240Y-121456480D01*
X38516240Y-121441510D01*
X38519400Y-121427930D01*
X38521120Y-121421010D01*
X38550260Y-121325360D01*
X38592490Y-121211500D01*
X38640560Y-121098320D01*
X38661860Y-121053290D01*
X38712110Y-120956790D01*
X38761580Y-120877150D01*
X38819350Y-120802060D01*
X38894540Y-120719200D01*
X38953110Y-120659320D01*
X39115350Y-120510880D01*
X39278620Y-120394240D01*
X39456570Y-120300800D01*
X39632580Y-120232180D01*
X39801910Y-120174080D01*
X63804910Y-120174080D01*
X63974250Y-120232180D01*
G37*
D11*
X63974250Y-120232180D02*
X64175890Y-120312490D01*
X64175890Y-120312490D02*
X64351040Y-120408590D01*
X64351040Y-120408590D02*
X64513350Y-120529060D01*
X64513350Y-120529060D02*
X64653720Y-120659320D01*
X64653720Y-120659320D02*
X64744070Y-120753010D01*
X64744070Y-120753010D02*
X64811430Y-120831390D01*
X64811430Y-120831390D02*
X64864900Y-120906790D01*
X64864900Y-120906790D02*
X64913590Y-120991500D01*
X64913590Y-120991500D02*
X64944970Y-121053290D01*
X64944970Y-121053290D02*
X64993320Y-121160110D01*
X64993320Y-121160110D02*
X65039030Y-121276000D01*
X65039030Y-121276000D02*
X65074860Y-121382060D01*
X65074860Y-121382060D02*
X65085710Y-121421010D01*
X65085710Y-121421010D02*
X65088960Y-121434300D01*
X65088960Y-121434300D02*
X65092040Y-121448400D01*
X65092040Y-121448400D02*
X65094950Y-121464440D01*
X65094950Y-121464440D02*
X65097700Y-121483570D01*
X65097700Y-121483570D02*
X65100290Y-121506900D01*
X65100290Y-121506900D02*
X65102730Y-121535600D01*
X65102730Y-121535600D02*
X65105020Y-121570780D01*
X65105020Y-121570780D02*
X65107170Y-121613590D01*
X65107170Y-121613590D02*
X65109180Y-121665160D01*
X65109180Y-121665160D02*
X65111050Y-121726640D01*
X65111050Y-121726640D02*
X65112790Y-121799150D01*
X65112790Y-121799150D02*
X65114410Y-121883840D01*
X65114410Y-121883840D02*
X65115900Y-121981840D01*
X65115900Y-121981840D02*
X65117280Y-122094290D01*
X65117280Y-122094290D02*
X65118550Y-122222330D01*
X65118550Y-122222330D02*
X65119720Y-122367100D01*
X65119720Y-122367100D02*
X65120780Y-122529720D01*
X65120780Y-122529720D02*
X65121740Y-122711340D01*
X65121740Y-122711340D02*
X65122610Y-122913100D01*
X65122610Y-122913100D02*
X65123390Y-123136120D01*
X65123390Y-123136120D02*
X65124090Y-123381560D01*
X65124090Y-123381560D02*
X65124710Y-123650540D01*
X65124710Y-123650540D02*
X65125250Y-123944210D01*
X65125250Y-123944210D02*
X65125730Y-124263690D01*
X65125730Y-124263690D02*
X65126140Y-124610140D01*
X65126140Y-124610140D02*
X65126490Y-124984670D01*
X65126490Y-124984670D02*
X65126780Y-125388440D01*
X65126780Y-125388440D02*
X65127030Y-125822580D01*
X65127030Y-125822580D02*
X65127220Y-126288220D01*
X65127220Y-126288220D02*
X65127380Y-126786500D01*
X65127380Y-126786500D02*
X65127500Y-127318560D01*
X65127500Y-127318560D02*
X65127580Y-127885540D01*
X65127580Y-127885540D02*
X65127640Y-128488570D01*
X65127640Y-128488570D02*
X65127680Y-129128800D01*
X65127680Y-129128800D02*
X65127690Y-129807350D01*
X65127690Y-129807350D02*
X65127690Y-130525360D01*
X65127690Y-130525360D02*
X65127690Y-131283980D01*
X65127690Y-131283980D02*
X65127680Y-131697420D01*
X65127680Y-131697420D02*
X65127670Y-132477950D01*
X65127670Y-132477950D02*
X65127650Y-133217270D01*
X65127650Y-133217270D02*
X65127610Y-133916540D01*
X65127610Y-133916540D02*
X65127560Y-134576880D01*
X65127560Y-134576880D02*
X65127490Y-135199440D01*
X65127490Y-135199440D02*
X65127400Y-135785350D01*
X65127400Y-135785350D02*
X65127270Y-136335750D01*
X65127270Y-136335750D02*
X65127110Y-136851780D01*
X65127110Y-136851780D02*
X65126910Y-137334560D01*
X65126910Y-137334560D02*
X65126660Y-137785250D01*
X65126660Y-137785250D02*
X65126370Y-138204970D01*
X65126370Y-138204970D02*
X65126030Y-138594870D01*
X65126030Y-138594870D02*
X65125630Y-138956080D01*
X65125630Y-138956080D02*
X65125160Y-139289740D01*
X65125160Y-139289740D02*
X65124630Y-139596980D01*
X65124630Y-139596980D02*
X65124030Y-139878940D01*
X65124030Y-139878940D02*
X65123360Y-140136760D01*
X65123360Y-140136760D02*
X65122600Y-140371580D01*
X65122600Y-140371580D02*
X65121760Y-140584530D01*
X65121760Y-140584530D02*
X65120830Y-140776750D01*
X65120830Y-140776750D02*
X65119810Y-140949370D01*
X65119810Y-140949370D02*
X65118690Y-141103540D01*
X65118690Y-141103540D02*
X65117460Y-141240400D01*
X65117460Y-141240400D02*
X65116130Y-141361060D01*
X65116130Y-141361060D02*
X65114690Y-141466690D01*
X65114690Y-141466690D02*
X65113130Y-141558400D01*
X65113130Y-141558400D02*
X65111450Y-141637350D01*
X65111450Y-141637350D02*
X65109650Y-141704660D01*
X65109650Y-141704660D02*
X65107710Y-141761470D01*
X65107710Y-141761470D02*
X65105640Y-141808920D01*
X65105640Y-141808920D02*
X65103440Y-141848150D01*
X65103440Y-141848150D02*
X65101090Y-141880290D01*
X65101090Y-141880290D02*
X65098590Y-141906490D01*
X65098590Y-141906490D02*
X65095940Y-141927870D01*
X65095940Y-141927870D02*
X65093130Y-141945570D01*
X65093130Y-141945570D02*
X65090160Y-141960740D01*
X65090160Y-141960740D02*
X65087030Y-141974510D01*
X65087030Y-141974510D02*
X65086730Y-141975750D01*
X65086730Y-141975750D02*
X65005340Y-142226470D01*
X65005340Y-142226470D02*
X64888330Y-142456420D01*
X64888330Y-142456420D02*
X64738310Y-142663020D01*
X64738310Y-142663020D02*
X64557860Y-142843700D01*
X64557860Y-142843700D02*
X64349600Y-142995890D01*
X64349600Y-142995890D02*
X64116120Y-143117020D01*
X64116120Y-143117020D02*
X63860020Y-143204520D01*
X63860020Y-143204520D02*
X63838000Y-143210150D01*
X63838000Y-143210150D02*
X63825790Y-143212650D01*
X63825790Y-143212650D02*
X63808970Y-143215020D01*
X63808970Y-143215020D02*
X63786490Y-143217270D01*
X63786490Y-143217270D02*
X63757310Y-143219410D01*
X63757310Y-143219410D02*
X63720420Y-143221450D01*
X63720420Y-143221450D02*
X63674760Y-143223370D01*
X63674760Y-143223370D02*
X63619300Y-143225190D01*
X63619300Y-143225190D02*
X63553000Y-143226910D01*
X63553000Y-143226910D02*
X63474840Y-143228530D01*
X63474840Y-143228530D02*
X63383760Y-143230060D01*
X63383760Y-143230060D02*
X63278740Y-143231500D01*
X63278740Y-143231500D02*
X63158740Y-143232850D01*
X63158740Y-143232850D02*
X63022720Y-143234110D01*
X63022720Y-143234110D02*
X62869650Y-143235300D01*
X62869650Y-143235300D02*
X62698490Y-143236400D01*
X62698490Y-143236400D02*
X62508200Y-143237430D01*
X62508200Y-143237430D02*
X62297750Y-143238400D01*
X62297750Y-143238400D02*
X62066110Y-143239290D01*
X62066110Y-143239290D02*
X61812220Y-143240120D01*
X61812220Y-143240120D02*
X61535070Y-143240880D01*
X61535070Y-143240880D02*
X61233600Y-143241590D01*
X61233600Y-143241590D02*
X60906800Y-143242250D01*
X60906800Y-143242250D02*
X60553610Y-143242850D01*
X60553610Y-143242850D02*
X60173010Y-143243410D01*
X60173010Y-143243410D02*
X59763950Y-143243920D01*
X59763950Y-143243920D02*
X59325400Y-143244380D01*
X59325400Y-143244380D02*
X58856330Y-143244810D01*
X58856330Y-143244810D02*
X58355700Y-143245210D01*
X58355700Y-143245210D02*
X57822470Y-143245570D01*
X57822470Y-143245570D02*
X57255600Y-143245900D01*
X57255600Y-143245900D02*
X56654060Y-143246210D01*
X56654060Y-143246210D02*
X56016820Y-143246500D01*
X56016820Y-143246500D02*
X55342830Y-143246770D01*
X55342830Y-143246770D02*
X54631060Y-143247020D01*
X54631060Y-143247020D02*
X53880480Y-143247260D01*
X53880480Y-143247260D02*
X53090040Y-143247490D01*
X53090040Y-143247490D02*
X52258710Y-143247720D01*
X52258710Y-143247720D02*
X51919830Y-143247810D01*
X51919830Y-143247810D02*
X51214070Y-143247950D01*
X51214070Y-143247950D02*
X50518300Y-143248040D01*
X50518300Y-143248040D02*
X49833750Y-143248050D01*
X49833750Y-143248050D02*
X49161640Y-143248010D01*
X49161640Y-143248010D02*
X48503210Y-143247900D01*
X48503210Y-143247900D02*
X47859670Y-143247730D01*
X47859670Y-143247730D02*
X47232270Y-143247510D01*
X47232270Y-143247510D02*
X46622210Y-143247230D01*
X46622210Y-143247230D02*
X46030740Y-143246890D01*
X46030740Y-143246890D02*
X45459070Y-143246490D01*
X45459070Y-143246490D02*
X44908430Y-143246050D01*
X44908430Y-143246050D02*
X44380060Y-143245550D01*
X44380060Y-143245550D02*
X43875170Y-143245010D01*
X43875170Y-143245010D02*
X43395000Y-143244420D01*
X43395000Y-143244420D02*
X42940760Y-143243780D01*
X42940760Y-143243780D02*
X42513700Y-143243100D01*
X42513700Y-143243100D02*
X42115030Y-143242370D01*
X42115030Y-143242370D02*
X41745980Y-143241600D01*
X41745980Y-143241600D02*
X41407780Y-143240790D01*
X41407780Y-143240790D02*
X41101660Y-143239950D01*
X41101660Y-143239950D02*
X40828840Y-143239060D01*
X40828840Y-143239060D02*
X40590550Y-143238140D01*
X40590550Y-143238140D02*
X40388010Y-143237190D01*
X40388010Y-143237190D02*
X40222460Y-143236210D01*
X40222460Y-143236210D02*
X40095120Y-143235190D01*
X40095120Y-143235190D02*
X40007210Y-143234150D01*
X40007210Y-143234150D02*
X39959970Y-143233080D01*
X39959970Y-143233080D02*
X39953140Y-143232680D01*
X39953140Y-143232680D02*
X39707780Y-143188340D01*
X39707780Y-143188340D02*
X39470720Y-143105640D01*
X39470720Y-143105640D02*
X39247830Y-142988160D01*
X39247830Y-142988160D02*
X39045010Y-142839460D01*
X39045010Y-142839460D02*
X38868130Y-142663140D01*
X38868130Y-142663140D02*
X38745550Y-142498840D01*
X38745550Y-142498840D02*
X38656210Y-142348030D01*
X38656210Y-142348030D02*
X38590440Y-142205690D01*
X38590440Y-142205690D02*
X38539880Y-142052470D01*
X38539880Y-142052470D02*
X38520100Y-141975750D01*
X38520100Y-141975750D02*
X38516950Y-141962050D01*
X38516950Y-141962050D02*
X38513960Y-141947060D01*
X38513960Y-141947060D02*
X38511140Y-141929640D01*
X38511140Y-141929640D02*
X38508480Y-141908640D01*
X38508480Y-141908640D02*
X38505960Y-141882940D01*
X38505960Y-141882940D02*
X38503600Y-141851390D01*
X38503600Y-141851390D02*
X38501380Y-141812860D01*
X38501380Y-141812860D02*
X38499300Y-141766220D01*
X38499300Y-141766220D02*
X38497350Y-141710310D01*
X38497350Y-141710310D02*
X38495540Y-141644020D01*
X38495540Y-141644020D02*
X38493850Y-141566200D01*
X38493850Y-141566200D02*
X38492280Y-141475710D01*
X38492280Y-141475710D02*
X38490820Y-141371410D01*
X38490820Y-141371410D02*
X38489480Y-141252180D01*
X38489480Y-141252180D02*
X38488250Y-141116870D01*
X38488250Y-141116870D02*
X38487120Y-140964340D01*
X38487120Y-140964340D02*
X38486090Y-140793460D01*
X38486090Y-140793460D02*
X38485150Y-140603100D01*
X38485150Y-140603100D02*
X38484300Y-140392110D01*
X38484300Y-140392110D02*
X38483540Y-140159350D01*
X38483540Y-140159350D02*
X38482850Y-139903700D01*
X38482850Y-139903700D02*
X38482250Y-139624010D01*
X38482250Y-139624010D02*
X38481710Y-139319150D01*
X38481710Y-139319150D02*
X38481240Y-138987970D01*
X38481240Y-138987970D02*
X38480830Y-138629350D01*
X38480830Y-138629350D02*
X38480480Y-138242150D01*
X38480480Y-138242150D02*
X38480410Y-138144580D01*
X38480410Y-138144580D02*
X50512250Y-138144580D01*
X50512250Y-138144580D02*
X50512250Y-138864250D01*
X50512250Y-138864250D02*
X50512330Y-139058080D01*
X50512330Y-139058080D02*
X50512760Y-139214400D01*
X50512760Y-139214400D02*
X50513810Y-139338020D01*
X50513810Y-139338020D02*
X50515780Y-139433770D01*
X50515780Y-139433770D02*
X50518940Y-139506460D01*
X50518940Y-139506460D02*
X50523570Y-139560910D01*
X50523570Y-139560910D02*
X50529950Y-139601940D01*
X50529950Y-139601940D02*
X50538370Y-139634380D01*
X50538370Y-139634380D02*
X50549100Y-139663030D01*
X50549100Y-139663030D02*
X50560280Y-139688060D01*
X50560280Y-139688060D02*
X50649500Y-139837430D01*
X50649500Y-139837430D02*
X50762630Y-139956570D01*
X50762630Y-139956570D02*
X50894520Y-140043420D01*
X50894520Y-140043420D02*
X51040030Y-140095960D01*
X51040030Y-140095960D02*
X51194000Y-140112140D01*
X51194000Y-140112140D02*
X51351280Y-140089930D01*
X51351280Y-140089930D02*
X51467740Y-140047120D01*
X51467740Y-140047120D02*
X51604560Y-139959870D01*
X51604560Y-139959870D02*
X51715800Y-139841020D01*
X51715800Y-139841020D02*
X51799040Y-139694420D01*
X51799040Y-139694420D02*
X51851880Y-139523910D01*
X51851880Y-139523910D02*
X51868210Y-139409290D01*
X51868210Y-139409290D02*
X51882960Y-139234660D01*
X51882960Y-139234660D02*
X51454160Y-139234660D01*
X51454160Y-139234660D02*
X51454160Y-139362710D01*
X51454160Y-139362710D02*
X51442860Y-139484150D01*
X51442860Y-139484150D02*
X51406740Y-139577300D01*
X51406740Y-139577300D02*
X51342500Y-139650330D01*
X51342500Y-139650330D02*
X51335320Y-139656130D01*
X51335320Y-139656130D02*
X51260140Y-139691100D01*
X51260140Y-139691100D02*
X51168220Y-139699070D01*
X51168220Y-139699070D02*
X51075980Y-139679330D01*
X51075980Y-139679330D02*
X51051300Y-139668220D01*
X51051300Y-139668220D02*
X51017670Y-139649440D01*
X51017670Y-139649440D02*
X50990520Y-139628510D01*
X50990520Y-139628510D02*
X50969200Y-139601020D01*
X50969200Y-139601020D02*
X50953070Y-139562550D01*
X50953070Y-139562550D02*
X50941490Y-139508670D01*
X50941490Y-139508670D02*
X50933820Y-139434990D01*
X50933820Y-139434990D02*
X50929400Y-139337070D01*
X50929400Y-139337070D02*
X50927590Y-139210500D01*
X50927590Y-139210500D02*
X50927760Y-139050870D01*
X50927760Y-139050870D02*
X50929250Y-138853760D01*
X50929250Y-138853760D02*
X50929450Y-138832300D01*
X50929450Y-138832300D02*
X50935580Y-138155920D01*
X50935580Y-138155920D02*
X51001060Y-138090470D01*
X51001060Y-138090470D02*
X51085830Y-138032280D01*
X51085830Y-138032280D02*
X51179760Y-138010970D01*
X51179760Y-138010970D02*
X51273420Y-138025410D01*
X51273420Y-138025410D02*
X51357350Y-138074440D01*
X51357350Y-138074440D02*
X51412690Y-138140320D01*
X51412690Y-138140320D02*
X51441460Y-138210470D01*
X51441460Y-138210470D02*
X51453400Y-138304420D01*
X51453400Y-138304420D02*
X51454080Y-138340370D01*
X51454080Y-138340370D02*
X51454160Y-138472660D01*
X51454160Y-138472660D02*
X51860540Y-138472660D01*
X51860540Y-138472660D02*
X51853030Y-138287460D01*
X51853030Y-138287460D02*
X51836420Y-138132630D01*
X51836420Y-138132630D02*
X51797280Y-138004560D01*
X51797280Y-138004560D02*
X51730740Y-137891540D01*
X51730740Y-137891540D02*
X51649930Y-137799480D01*
X51649930Y-137799480D02*
X51542400Y-137708520D01*
X51542400Y-137708520D02*
X51432890Y-137652230D01*
X51432890Y-137652230D02*
X51898660Y-137652230D01*
X51898660Y-137652230D02*
X51902680Y-137673960D01*
X51902680Y-137673960D02*
X51914140Y-137732680D01*
X51914140Y-137732680D02*
X51932130Y-137823900D01*
X51932130Y-137823900D02*
X51955760Y-137943120D01*
X51955760Y-137943120D02*
X51984120Y-138085830D01*
X51984120Y-138085830D02*
X52016320Y-138247530D01*
X52016320Y-138247530D02*
X52051450Y-138423710D01*
X52051450Y-138423710D02*
X52088620Y-138609880D01*
X52088620Y-138609880D02*
X52126920Y-138801530D01*
X52126920Y-138801530D02*
X52165450Y-138994160D01*
X52165450Y-138994160D02*
X52203320Y-139183260D01*
X52203320Y-139183260D02*
X52239620Y-139364330D01*
X52239620Y-139364330D02*
X52273450Y-139532870D01*
X52273450Y-139532870D02*
X52303910Y-139684380D01*
X52303910Y-139684380D02*
X52330100Y-139814340D01*
X52330100Y-139814340D02*
X52351130Y-139918270D01*
X52351130Y-139918270D02*
X52366080Y-139991660D01*
X52366080Y-139991660D02*
X52374060Y-140029990D01*
X52374060Y-140029990D02*
X52374890Y-140033710D01*
X52374890Y-140033710D02*
X52382290Y-140055110D01*
X52382290Y-140055110D02*
X52397500Y-140068900D01*
X52397500Y-140068900D02*
X52428520Y-140076760D01*
X52428520Y-140076760D02*
X52483370Y-140080340D01*
X52483370Y-140080340D02*
X52570080Y-140081300D01*
X52570080Y-140081300D02*
X52604340Y-140081330D01*
X52604340Y-140081330D02*
X52822380Y-140081330D01*
X52822380Y-140081330D02*
X53059740Y-138880120D01*
X53059740Y-138880120D02*
X53103070Y-138660500D01*
X53103070Y-138660500D02*
X53143830Y-138453300D01*
X53143830Y-138453300D02*
X53181290Y-138262240D01*
X53181290Y-138262240D02*
X53214720Y-138091040D01*
X53214720Y-138091040D02*
X53243410Y-137943430D01*
X53243410Y-137943430D02*
X53266620Y-137823110D01*
X53266620Y-137823110D02*
X53283650Y-137733820D01*
X53283650Y-137733820D02*
X53293760Y-137679260D01*
X53293760Y-137679260D02*
X53296380Y-137663040D01*
X53296380Y-137663040D02*
X53276820Y-137656480D01*
X53276820Y-137656480D02*
X53226260Y-137651620D01*
X53226260Y-137651620D02*
X53155870Y-137648540D01*
X53155870Y-137648540D02*
X53076840Y-137647340D01*
X53076840Y-137647340D02*
X53000340Y-137648110D01*
X53000340Y-137648110D02*
X52937560Y-137650940D01*
X52937560Y-137650940D02*
X52899670Y-137655940D01*
X52899670Y-137655940D02*
X52893500Y-137659670D01*
X52893500Y-137659670D02*
X52890010Y-137682750D01*
X52890010Y-137682750D02*
X52880190Y-137741850D01*
X52880190Y-137741850D02*
X52865040Y-137831270D01*
X52865040Y-137831270D02*
X52845540Y-137945350D01*
X52845540Y-137945350D02*
X52822680Y-138078390D01*
X52822680Y-138078390D02*
X52797430Y-138224720D01*
X52797430Y-138224720D02*
X52770780Y-138378640D01*
X52770780Y-138378640D02*
X52743730Y-138534480D01*
X52743730Y-138534480D02*
X52717260Y-138686560D01*
X52717260Y-138686560D02*
X52692340Y-138829180D01*
X52692340Y-138829180D02*
X52669970Y-138956680D01*
X52669970Y-138956680D02*
X52651140Y-139063350D01*
X52651140Y-139063350D02*
X52636820Y-139143530D01*
X52636820Y-139143530D02*
X52628010Y-139191530D01*
X52628010Y-139191530D02*
X52626520Y-139199140D01*
X52626520Y-139199140D02*
X52614430Y-139237740D01*
X52614430Y-139237740D02*
X52602460Y-139247020D01*
X52602460Y-139247020D02*
X52602400Y-139246960D01*
X52602400Y-139246960D02*
X52596120Y-139224130D01*
X52596120Y-139224130D02*
X52583370Y-139164240D01*
X52583370Y-139164240D02*
X52565050Y-139071920D01*
X52565050Y-139071920D02*
X52542020Y-138951800D01*
X52542020Y-138951800D02*
X52515190Y-138808500D01*
X52515190Y-138808500D02*
X52485440Y-138646660D01*
X52485440Y-138646660D02*
X52453640Y-138470900D01*
X52453640Y-138470900D02*
X52449250Y-138446400D01*
X52449250Y-138446400D02*
X52308000Y-137657750D01*
X52308000Y-137657750D02*
X52103330Y-137651690D01*
X52103330Y-137651690D02*
X52016110Y-137649740D01*
X52016110Y-137649740D02*
X51947400Y-137649410D01*
X51947400Y-137649410D02*
X51906290Y-137650680D01*
X51906290Y-137650680D02*
X51898660Y-137652230D01*
X51898660Y-137652230D02*
X51432890Y-137652230D01*
X51432890Y-137652230D02*
X51430310Y-137650910D01*
X51430310Y-137650910D02*
X51301760Y-137621890D01*
X51301760Y-137621890D02*
X51189580Y-137616050D01*
X51189580Y-137616050D02*
X51080220Y-137620120D01*
X51080220Y-137620120D02*
X50996580Y-137634150D01*
X50996580Y-137634150D02*
X50922630Y-137660850D01*
X50922630Y-137660850D02*
X50921280Y-137661470D01*
X50921280Y-137661470D02*
X50783810Y-137746670D01*
X50783810Y-137746670D02*
X50666240Y-137863600D01*
X50666240Y-137863600D02*
X50577700Y-138003060D01*
X50577700Y-138003060D02*
X50573320Y-138012340D01*
X50573320Y-138012340D02*
X50512250Y-138144580D01*
X50512250Y-138144580D02*
X38480410Y-138144580D01*
X38480410Y-138144580D02*
X38480190Y-137825220D01*
X38480190Y-137825220D02*
X38479940Y-137377440D01*
X38479940Y-137377440D02*
X38479730Y-136897650D01*
X38479730Y-136897650D02*
X38479570Y-136384740D01*
X38479570Y-136384740D02*
X38479440Y-135837560D01*
X38479440Y-135837560D02*
X38479340Y-135254970D01*
X38479340Y-135254970D02*
X38479270Y-134635840D01*
X38479270Y-134635840D02*
X38479220Y-133979020D01*
X38479220Y-133979020D02*
X38479180Y-133283390D01*
X38479180Y-133283390D02*
X38479160Y-132547810D01*
X38479160Y-132547810D02*
X38479150Y-131771130D01*
X38479150Y-131771130D02*
X38479140Y-131697420D01*
X38479140Y-131697420D02*
X38479140Y-130917110D01*
X38479140Y-130917110D02*
X38479130Y-130178000D01*
X38479130Y-130178000D02*
X38479140Y-129478950D01*
X38479140Y-129478950D02*
X38479160Y-128818810D01*
X38479160Y-128818810D02*
X38479210Y-128196470D01*
X38479210Y-128196470D02*
X38479280Y-127610770D01*
X38479280Y-127610770D02*
X38479380Y-127060580D01*
X38479380Y-127060580D02*
X38479520Y-126544760D01*
X38479520Y-126544760D02*
X38479690Y-126062190D01*
X38479690Y-126062190D02*
X38479910Y-125611710D01*
X38479910Y-125611710D02*
X38480180Y-125192200D01*
X38480180Y-125192200D02*
X38480380Y-124948650D01*
X38480380Y-124948650D02*
X49255520Y-124948650D01*
X49255520Y-124948650D02*
X49257810Y-125092830D01*
X49257810Y-125092830D02*
X49263240Y-125209100D01*
X49263240Y-125209100D02*
X49272590Y-125302290D01*
X49272590Y-125302290D02*
X49286680Y-125377200D01*
X49286680Y-125377200D02*
X49306290Y-125438640D01*
X49306290Y-125438640D02*
X49332240Y-125491420D01*
X49332240Y-125491420D02*
X49365310Y-125540340D01*
X49365310Y-125540340D02*
X49406320Y-125590220D01*
X49406320Y-125590220D02*
X49434350Y-125621810D01*
X49434350Y-125621810D02*
X49561010Y-125733830D01*
X49561010Y-125733830D02*
X49702700Y-125807250D01*
X49702700Y-125807250D02*
X49855500Y-125841320D01*
X49855500Y-125841320D02*
X50015510Y-125835300D01*
X50015510Y-125835300D02*
X50175910Y-125789300D01*
X50175910Y-125789300D02*
X50680960Y-125789300D01*
X50680960Y-125789300D02*
X50685770Y-125802020D01*
X50685770Y-125802020D02*
X50714690Y-125809410D01*
X50714690Y-125809410D02*
X50773590Y-125812110D01*
X50773590Y-125812110D02*
X50868340Y-125810740D01*
X50868340Y-125810740D02*
X50877740Y-125810470D01*
X50877740Y-125810470D02*
X51083750Y-125804410D01*
X51083750Y-125804410D02*
X51102580Y-125672120D01*
X51102580Y-125672120D02*
X51121400Y-125539830D01*
X51121400Y-125539830D02*
X51620900Y-125539830D01*
X51620900Y-125539830D02*
X51634560Y-125640370D01*
X51634560Y-125640370D02*
X51645490Y-125719730D01*
X51645490Y-125719730D02*
X51657920Y-125770540D01*
X51657920Y-125770540D02*
X51680350Y-125799140D01*
X51680350Y-125799140D02*
X51721280Y-125811860D01*
X51721280Y-125811860D02*
X51789200Y-125815050D01*
X51789200Y-125815050D02*
X51868740Y-125815000D01*
X51868740Y-125815000D02*
X51961500Y-125814590D01*
X51961500Y-125814590D02*
X52019440Y-125812110D01*
X52019440Y-125812110D02*
X52050050Y-125805670D01*
X52050050Y-125805670D02*
X52060860Y-125793380D01*
X52060860Y-125793380D02*
X52059370Y-125773350D01*
X52059370Y-125773350D02*
X52058060Y-125767370D01*
X52058060Y-125767370D02*
X52052500Y-125737870D01*
X52052500Y-125737870D02*
X52040500Y-125670700D01*
X52040500Y-125670700D02*
X52022750Y-125569890D01*
X52022750Y-125569890D02*
X51999970Y-125439510D01*
X51999970Y-125439510D02*
X51972860Y-125283600D01*
X51972860Y-125283600D02*
X51942130Y-125106210D01*
X51942130Y-125106210D02*
X51908470Y-124911380D01*
X51908470Y-124911380D02*
X51872600Y-124703170D01*
X51872600Y-124703170D02*
X51856320Y-124608500D01*
X51856320Y-124608500D02*
X51819640Y-124395270D01*
X51819640Y-124395270D02*
X51784820Y-124193320D01*
X51784820Y-124193320D02*
X51752580Y-124006730D01*
X51752580Y-124006730D02*
X51723630Y-123839600D01*
X51723630Y-123839600D02*
X51698690Y-123696050D01*
X51698690Y-123696050D02*
X51678460Y-123580150D01*
X51678460Y-123580150D02*
X51663650Y-123496020D01*
X51663650Y-123496020D02*
X51654980Y-123447750D01*
X51654980Y-123447750D02*
X51653310Y-123439040D01*
X51653310Y-123439040D02*
X51641300Y-123380830D01*
X51641300Y-123380830D02*
X51941000Y-123380830D01*
X51941000Y-123380830D02*
X51941000Y-123783000D01*
X51941000Y-123783000D02*
X52406660Y-123783000D01*
X52406660Y-123783000D02*
X52406660Y-125815000D01*
X52406660Y-125815000D02*
X52808830Y-125815000D01*
X52808830Y-125815000D02*
X52808830Y-123783000D01*
X52808830Y-123783000D02*
X53295660Y-123783000D01*
X53295660Y-123783000D02*
X53295660Y-123380830D01*
X53295660Y-123380830D02*
X53422660Y-123380830D01*
X53422660Y-123380830D02*
X53422660Y-125815000D01*
X53422660Y-125815000D02*
X54565660Y-125815000D01*
X54565660Y-125815000D02*
X54565660Y-125391660D01*
X54565660Y-125391660D02*
X53824830Y-125391660D01*
X53824830Y-125391660D02*
X53824830Y-124756660D01*
X53824830Y-124756660D02*
X54565660Y-124756660D01*
X54565660Y-124756660D02*
X54565660Y-124354500D01*
X54565660Y-124354500D02*
X53824830Y-124354500D01*
X53824830Y-124354500D02*
X53824830Y-123783000D01*
X53824830Y-123783000D02*
X54565660Y-123783000D01*
X54565660Y-123783000D02*
X54565660Y-123380830D01*
X54565660Y-123380830D02*
X53422660Y-123380830D01*
X53422660Y-123380830D02*
X53295660Y-123380830D01*
X53295660Y-123380830D02*
X51941000Y-123380830D01*
X51941000Y-123380830D02*
X51641300Y-123380830D01*
X51641300Y-123380830D02*
X51118860Y-123380830D01*
X51118860Y-123380830D02*
X51107000Y-123439040D01*
X51107000Y-123439040D02*
X51101100Y-123470480D01*
X51101100Y-123470480D02*
X51088490Y-123539550D01*
X51088490Y-123539550D02*
X51069900Y-123642190D01*
X51069900Y-123642190D02*
X51046060Y-123774370D01*
X51046060Y-123774370D02*
X51017690Y-123932030D01*
X51017690Y-123932030D02*
X50985530Y-124111120D01*
X50985530Y-124111120D02*
X50950300Y-124307600D01*
X50950300Y-124307600D02*
X50912730Y-124517420D01*
X50912730Y-124517420D02*
X50892650Y-124629660D01*
X50892650Y-124629660D02*
X50854320Y-124843600D01*
X50854320Y-124843600D02*
X50818030Y-125045320D01*
X50818030Y-125045320D02*
X50784490Y-125230930D01*
X50784490Y-125230930D02*
X50754410Y-125396510D01*
X50754410Y-125396510D02*
X50728500Y-125538150D01*
X50728500Y-125538150D02*
X50707490Y-125651960D01*
X50707490Y-125651960D02*
X50692080Y-125734020D01*
X50692080Y-125734020D02*
X50682990Y-125780430D01*
X50682990Y-125780430D02*
X50680960Y-125789300D01*
X50680960Y-125789300D02*
X50175910Y-125789300D01*
X50175910Y-125789300D02*
X50178830Y-125788460D01*
X50178830Y-125788460D02*
X50219390Y-125770440D01*
X50219390Y-125770440D02*
X50346970Y-125692940D01*
X50346970Y-125692940D02*
X50448080Y-125591640D01*
X50448080Y-125591640D02*
X50530500Y-125458460D01*
X50530500Y-125458460D02*
X50541860Y-125434960D01*
X50541860Y-125434960D02*
X50561810Y-125390020D01*
X50561810Y-125390020D02*
X50576460Y-125347780D01*
X50576460Y-125347780D02*
X50586800Y-125300410D01*
X50586800Y-125300410D02*
X50593800Y-125240120D01*
X50593800Y-125240120D02*
X50598450Y-125159080D01*
X50598450Y-125159080D02*
X50601730Y-125049480D01*
X50601730Y-125049480D02*
X50603920Y-124941870D01*
X50603920Y-124941870D02*
X50610920Y-124566160D01*
X50610920Y-124566160D02*
X49930160Y-124566160D01*
X49930160Y-124566160D02*
X49930160Y-124968330D01*
X49930160Y-124968330D02*
X50211020Y-124968330D01*
X50211020Y-124968330D02*
X50200700Y-125112490D01*
X50200700Y-125112490D02*
X50182550Y-125233790D01*
X50182550Y-125233790D02*
X50146000Y-125321950D01*
X50146000Y-125321950D02*
X50087860Y-125383370D01*
X50087860Y-125383370D02*
X50055070Y-125403330D01*
X50055070Y-125403330D02*
X49965650Y-125430690D01*
X49965650Y-125430690D02*
X49871270Y-125429220D01*
X49871270Y-125429220D02*
X49788690Y-125399830D01*
X49788690Y-125399830D02*
X49771700Y-125388110D01*
X49771700Y-125388110D02*
X49739990Y-125361090D01*
X49739990Y-125361090D02*
X49714600Y-125332070D01*
X49714600Y-125332070D02*
X49694820Y-125296230D01*
X49694820Y-125296230D02*
X49679960Y-125248800D01*
X49679960Y-125248800D02*
X49669320Y-125184980D01*
X49669320Y-125184980D02*
X49662210Y-125099960D01*
X49662210Y-125099960D02*
X49657920Y-124988960D01*
X49657920Y-124988960D02*
X49655770Y-124847180D01*
X49655770Y-124847180D02*
X49655040Y-124669820D01*
X49655040Y-124669820D02*
X49655000Y-124585920D01*
X49655000Y-124585920D02*
X49655270Y-124403520D01*
X49655270Y-124403520D02*
X49656270Y-124258440D01*
X49656270Y-124258440D02*
X49658260Y-124145690D01*
X49658260Y-124145690D02*
X49661470Y-124060270D01*
X49661470Y-124060270D02*
X49666180Y-123997170D01*
X49666180Y-123997170D02*
X49672640Y-123951390D01*
X49672640Y-123951390D02*
X49681100Y-123917920D01*
X49681100Y-123917920D02*
X49690340Y-123894820D01*
X49690340Y-123894820D02*
X49751290Y-123809610D01*
X49751290Y-123809610D02*
X49834530Y-123759400D01*
X49834530Y-123759400D02*
X49935730Y-123746680D01*
X49935730Y-123746680D02*
X49947650Y-123747670D01*
X49947650Y-123747670D02*
X50047320Y-123776910D01*
X50047320Y-123776910D02*
X50124350Y-123840290D01*
X50124350Y-123840290D02*
X50176790Y-123935030D01*
X50176790Y-123935030D02*
X50202710Y-124058350D01*
X50202710Y-124058350D02*
X50205210Y-124116370D01*
X50205210Y-124116370D02*
X50205330Y-124206330D01*
X50205330Y-124206330D02*
X50612810Y-124206330D01*
X50612810Y-124206330D02*
X50603600Y-124031710D01*
X50603600Y-124031710D02*
X50576210Y-123848710D01*
X50576210Y-123848710D02*
X50514610Y-123690610D01*
X50514610Y-123690610D02*
X50418690Y-123557260D01*
X50418690Y-123557260D02*
X50288360Y-123448490D01*
X50288360Y-123448490D02*
X50215910Y-123406190D01*
X50215910Y-123406190D02*
X50153350Y-123377360D01*
X50153350Y-123377360D02*
X50092910Y-123360420D01*
X50092910Y-123360420D02*
X50019260Y-123352370D01*
X50019260Y-123352370D02*
X49930160Y-123350240D01*
X49930160Y-123350240D02*
X49834240Y-123351680D01*
X49834240Y-123351680D02*
X49765190Y-123359110D01*
X49765190Y-123359110D02*
X49707650Y-123375560D01*
X49707650Y-123375560D02*
X49646280Y-123404060D01*
X49646280Y-123404060D02*
X49639830Y-123407430D01*
X49639830Y-123407430D02*
X49493040Y-123506920D01*
X49493040Y-123506920D02*
X49376550Y-123635710D01*
X49376550Y-123635710D02*
X49321620Y-123725500D01*
X49321620Y-123725500D02*
X49263410Y-123835910D01*
X49263410Y-123835910D02*
X49257100Y-124557360D01*
X49257100Y-124557360D02*
X49255550Y-124771760D01*
X49255550Y-124771760D02*
X49255520Y-124948650D01*
X49255520Y-124948650D02*
X38480380Y-124948650D01*
X38480380Y-124948650D02*
X38480500Y-124802510D01*
X38480500Y-124802510D02*
X38480880Y-124441510D01*
X38480880Y-124441510D02*
X38481320Y-124108060D01*
X38481320Y-124108060D02*
X38481820Y-123801030D01*
X38481820Y-123801030D02*
X38482400Y-123519280D01*
X38482400Y-123519280D02*
X38483060Y-123261660D01*
X38483060Y-123261660D02*
X38483800Y-123027050D01*
X38483800Y-123027050D02*
X38484620Y-122814310D01*
X38484620Y-122814310D02*
X38485530Y-122622300D01*
X38485530Y-122622300D02*
X38486540Y-122449880D01*
X38486540Y-122449880D02*
X38487650Y-122295910D01*
X38487650Y-122295910D02*
X38488860Y-122159270D01*
X38488860Y-122159270D02*
X38490190Y-122038800D01*
X38490190Y-122038800D02*
X38491620Y-121933380D01*
X38491620Y-121933380D02*
X38493170Y-121841870D01*
X38493170Y-121841870D02*
X38494850Y-121763130D01*
X38494850Y-121763130D02*
X38496660Y-121696020D01*
X38496660Y-121696020D02*
X38498590Y-121639400D01*
X38498590Y-121639400D02*
X38500660Y-121592150D01*
X38500660Y-121592150D02*
X38502880Y-121553120D01*
X38502880Y-121553120D02*
X38505240Y-121521180D01*
X38505240Y-121521180D02*
X38507750Y-121495180D01*
X38507750Y-121495180D02*
X38510420Y-121473990D01*
X38510420Y-121473990D02*
X38513240Y-121456480D01*
X38513240Y-121456480D02*
X38516240Y-121441510D01*
X38516240Y-121441510D02*
X38519400Y-121427930D01*
X38519400Y-121427930D02*
X38521120Y-121421010D01*
X38521120Y-121421010D02*
X38550260Y-121325360D01*
X38550260Y-121325360D02*
X38592490Y-121211500D01*
X38592490Y-121211500D02*
X38640560Y-121098320D01*
X38640560Y-121098320D02*
X38661860Y-121053290D01*
X38661860Y-121053290D02*
X38712110Y-120956790D01*
X38712110Y-120956790D02*
X38761580Y-120877150D01*
X38761580Y-120877150D02*
X38819350Y-120802060D01*
X38819350Y-120802060D02*
X38894540Y-120719200D01*
X38894540Y-120719200D02*
X38953110Y-120659320D01*
X38953110Y-120659320D02*
X39115350Y-120510880D01*
X39115350Y-120510880D02*
X39278620Y-120394240D01*
X39278620Y-120394240D02*
X39456570Y-120300800D01*
X39456570Y-120300800D02*
X39632580Y-120232180D01*
X39632580Y-120232180D02*
X39801910Y-120174080D01*
X39801910Y-120174080D02*
X63804910Y-120174080D01*
X63804910Y-120174080D02*
X63974250Y-120232180D01*
D10*
G36*
X55904460Y-147070170D02*
G01*
X56059200Y-147072640D01*
X56177960Y-147075450D01*
X56267080Y-147079220D01*
X56332900Y-147084540D01*
X56381780Y-147092030D01*
X56420050Y-147102300D01*
X56454060Y-147115960D01*
X56472260Y-147124640D01*
X56621640Y-147219100D01*
X56738750Y-147340180D01*
X56811570Y-147459260D01*
X56851080Y-147548450D01*
X56872140Y-147625960D01*
X56880310Y-147714950D01*
X56881110Y-147749410D01*
X56866350Y-147919700D01*
X56818620Y-148071110D01*
X56739790Y-148197920D01*
X56733730Y-148205070D01*
X56668100Y-148280990D01*
X56726030Y-148366870D01*
X56766870Y-148433640D01*
X56798030Y-148501890D01*
X56820610Y-148578370D01*
X56835700Y-148669810D01*
X56844390Y-148782950D01*
X56847780Y-148924520D01*
X56846960Y-149101250D01*
X56846830Y-149110620D01*
X56841080Y-149532250D01*
X56417750Y-149532250D01*
X56407160Y-149107890D01*
X56402980Y-148958920D01*
X56398440Y-148846190D01*
X56392930Y-148763570D01*
X56385840Y-148704960D01*
X56376540Y-148664260D01*
X56364420Y-148635360D01*
X56358390Y-148625340D01*
X56295510Y-148553860D01*
X56214470Y-148509090D01*
X56107440Y-148487650D01*
X56031820Y-148484580D01*
X55878740Y-148484500D01*
X55873070Y-149008370D01*
X55867410Y-149532250D01*
X55665280Y-149538250D01*
X55576560Y-149539390D01*
X55504300Y-149537490D01*
X55458590Y-149532970D01*
X55448320Y-149529430D01*
X55445620Y-149506130D01*
X55443070Y-149444270D01*
X55440730Y-149347650D01*
X55438640Y-149220050D01*
X55436840Y-149065260D01*
X55435380Y-148887050D01*
X55434310Y-148689220D01*
X55433670Y-148475540D01*
X55433500Y-148289010D01*
X55433500Y-148040000D01*
X55878000Y-148040000D01*
X56054780Y-148040000D01*
X56149110Y-148038100D01*
X56213910Y-148030770D01*
X56261860Y-148015570D01*
X56302350Y-147992300D01*
X56387360Y-147915400D01*
X56433360Y-147828610D01*
X56439720Y-147736960D01*
X56405790Y-147645460D01*
X56354690Y-147581130D01*
X56320780Y-147548670D01*
X56290620Y-147528150D01*
X56253570Y-147516830D01*
X56198970Y-147511980D01*
X56116160Y-147510850D01*
X56081200Y-147510830D01*
X55878000Y-147510830D01*
X55878000Y-148040000D01*
X55433500Y-148040000D01*
X55433500Y-147510830D01*
X55433500Y-147063420D01*
X55904460Y-147070170D01*
G37*
D11*
X55904460Y-147070170D02*
X56059200Y-147072640D01*
X56059200Y-147072640D02*
X56177960Y-147075450D01*
X56177960Y-147075450D02*
X56267080Y-147079220D01*
X56267080Y-147079220D02*
X56332900Y-147084540D01*
X56332900Y-147084540D02*
X56381780Y-147092030D01*
X56381780Y-147092030D02*
X56420050Y-147102300D01*
X56420050Y-147102300D02*
X56454060Y-147115960D01*
X56454060Y-147115960D02*
X56472260Y-147124640D01*
X56472260Y-147124640D02*
X56621640Y-147219100D01*
X56621640Y-147219100D02*
X56738750Y-147340180D01*
X56738750Y-147340180D02*
X56811570Y-147459260D01*
X56811570Y-147459260D02*
X56851080Y-147548450D01*
X56851080Y-147548450D02*
X56872140Y-147625960D01*
X56872140Y-147625960D02*
X56880310Y-147714950D01*
X56880310Y-147714950D02*
X56881110Y-147749410D01*
X56881110Y-147749410D02*
X56866350Y-147919700D01*
X56866350Y-147919700D02*
X56818620Y-148071110D01*
X56818620Y-148071110D02*
X56739790Y-148197920D01*
X56739790Y-148197920D02*
X56733730Y-148205070D01*
X56733730Y-148205070D02*
X56668100Y-148280990D01*
X56668100Y-148280990D02*
X56726030Y-148366870D01*
X56726030Y-148366870D02*
X56766870Y-148433640D01*
X56766870Y-148433640D02*
X56798030Y-148501890D01*
X56798030Y-148501890D02*
X56820610Y-148578370D01*
X56820610Y-148578370D02*
X56835700Y-148669810D01*
X56835700Y-148669810D02*
X56844390Y-148782950D01*
X56844390Y-148782950D02*
X56847780Y-148924520D01*
X56847780Y-148924520D02*
X56846960Y-149101250D01*
X56846960Y-149101250D02*
X56846830Y-149110620D01*
X56846830Y-149110620D02*
X56841080Y-149532250D01*
X56841080Y-149532250D02*
X56417750Y-149532250D01*
X56417750Y-149532250D02*
X56407160Y-149107890D01*
X56407160Y-149107890D02*
X56402980Y-148958920D01*
X56402980Y-148958920D02*
X56398440Y-148846190D01*
X56398440Y-148846190D02*
X56392930Y-148763570D01*
X56392930Y-148763570D02*
X56385840Y-148704960D01*
X56385840Y-148704960D02*
X56376540Y-148664260D01*
X56376540Y-148664260D02*
X56364420Y-148635360D01*
X56364420Y-148635360D02*
X56358390Y-148625340D01*
X56358390Y-148625340D02*
X56295510Y-148553860D01*
X56295510Y-148553860D02*
X56214470Y-148509090D01*
X56214470Y-148509090D02*
X56107440Y-148487650D01*
X56107440Y-148487650D02*
X56031820Y-148484580D01*
X56031820Y-148484580D02*
X55878740Y-148484500D01*
X55878740Y-148484500D02*
X55873070Y-149008370D01*
X55873070Y-149008370D02*
X55867410Y-149532250D01*
X55867410Y-149532250D02*
X55665280Y-149538250D01*
X55665280Y-149538250D02*
X55576560Y-149539390D01*
X55576560Y-149539390D02*
X55504300Y-149537490D01*
X55504300Y-149537490D02*
X55458590Y-149532970D01*
X55458590Y-149532970D02*
X55448320Y-149529430D01*
X55448320Y-149529430D02*
X55445620Y-149506130D01*
X55445620Y-149506130D02*
X55443070Y-149444270D01*
X55443070Y-149444270D02*
X55440730Y-149347650D01*
X55440730Y-149347650D02*
X55438640Y-149220050D01*
X55438640Y-149220050D02*
X55436840Y-149065260D01*
X55436840Y-149065260D02*
X55435380Y-148887050D01*
X55435380Y-148887050D02*
X55434310Y-148689220D01*
X55434310Y-148689220D02*
X55433670Y-148475540D01*
X55433670Y-148475540D02*
X55433500Y-148289010D01*
X55433500Y-148289010D02*
X55433500Y-147510830D01*
X55433500Y-147510830D02*
X55878000Y-147510830D01*
X55878000Y-147510830D02*
X55878000Y-148040000D01*
X55878000Y-148040000D02*
X56054780Y-148040000D01*
X56054780Y-148040000D02*
X56149110Y-148038100D01*
X56149110Y-148038100D02*
X56213910Y-148030770D01*
X56213910Y-148030770D02*
X56261860Y-148015570D01*
X56261860Y-148015570D02*
X56302350Y-147992300D01*
X56302350Y-147992300D02*
X56387360Y-147915400D01*
X56387360Y-147915400D02*
X56433360Y-147828610D01*
X56433360Y-147828610D02*
X56439720Y-147736960D01*
X56439720Y-147736960D02*
X56405790Y-147645460D01*
X56405790Y-147645460D02*
X56354690Y-147581130D01*
X56354690Y-147581130D02*
X56320780Y-147548670D01*
X56320780Y-147548670D02*
X56290620Y-147528150D01*
X56290620Y-147528150D02*
X56253570Y-147516830D01*
X56253570Y-147516830D02*
X56198970Y-147511980D01*
X56198970Y-147511980D02*
X56116160Y-147510850D01*
X56116160Y-147510850D02*
X56081200Y-147510830D01*
X56081200Y-147510830D02*
X55878000Y-147510830D01*
X55878000Y-147510830D02*
X55433500Y-147510830D01*
X55433500Y-147510830D02*
X55433500Y-147063420D01*
X55433500Y-147063420D02*
X55904460Y-147070170D01*
D10*
G36*
X55200660Y-147510830D02*
G01*
X54459830Y-147510830D01*
X54459830Y-148040000D01*
X55200660Y-148040000D01*
X55200660Y-148484500D01*
X54459830Y-148484500D01*
X54459830Y-149077160D01*
X55202100Y-149077160D01*
X55196090Y-149304710D01*
X55190080Y-149532250D01*
X54617150Y-149537870D01*
X54465470Y-149538840D01*
X54327800Y-149538730D01*
X54209780Y-149537620D01*
X54117040Y-149535600D01*
X54055200Y-149532760D01*
X54029900Y-149529160D01*
X54029770Y-149529050D01*
X54027140Y-149505820D01*
X54024650Y-149444030D01*
X54022370Y-149347480D01*
X54020330Y-149219960D01*
X54018580Y-149065240D01*
X54017160Y-148887120D01*
X54016120Y-148689370D01*
X54015500Y-148475780D01*
X54015330Y-148290470D01*
X54015330Y-147066330D01*
X55200660Y-147066330D01*
X55200660Y-147510830D01*
G37*
D11*
X55200660Y-147510830D02*
X54459830Y-147510830D01*
X54459830Y-147510830D02*
X54459830Y-148040000D01*
X54459830Y-148040000D02*
X55200660Y-148040000D01*
X55200660Y-148040000D02*
X55200660Y-148484500D01*
X55200660Y-148484500D02*
X54459830Y-148484500D01*
X54459830Y-148484500D02*
X54459830Y-149077160D01*
X54459830Y-149077160D02*
X55202100Y-149077160D01*
X55202100Y-149077160D02*
X55196090Y-149304710D01*
X55196090Y-149304710D02*
X55190080Y-149532250D01*
X55190080Y-149532250D02*
X54617150Y-149537870D01*
X54617150Y-149537870D02*
X54465470Y-149538840D01*
X54465470Y-149538840D02*
X54327800Y-149538730D01*
X54327800Y-149538730D02*
X54209780Y-149537620D01*
X54209780Y-149537620D02*
X54117040Y-149535600D01*
X54117040Y-149535600D02*
X54055200Y-149532760D01*
X54055200Y-149532760D02*
X54029900Y-149529160D01*
X54029900Y-149529160D02*
X54029770Y-149529050D01*
X54029770Y-149529050D02*
X54027140Y-149505820D01*
X54027140Y-149505820D02*
X54024650Y-149444030D01*
X54024650Y-149444030D02*
X54022370Y-149347480D01*
X54022370Y-149347480D02*
X54020330Y-149219960D01*
X54020330Y-149219960D02*
X54018580Y-149065240D01*
X54018580Y-149065240D02*
X54017160Y-148887120D01*
X54017160Y-148887120D02*
X54016120Y-148689370D01*
X54016120Y-148689370D02*
X54015500Y-148475780D01*
X54015500Y-148475780D02*
X54015330Y-148290470D01*
X54015330Y-148290470D02*
X54015330Y-147066330D01*
X54015330Y-147066330D02*
X55200660Y-147066330D01*
X55200660Y-147066330D02*
X55200660Y-147510830D01*
D10*
G36*
X53867160Y-147483530D02*
G01*
X53446540Y-148285640D01*
X53025920Y-149087750D01*
X53443840Y-149093470D01*
X53861760Y-149099190D01*
X53874810Y-149178130D01*
X53882110Y-149244120D01*
X53886950Y-149329590D01*
X53888100Y-149387110D01*
X53885340Y-149464990D01*
X53875380Y-149509540D01*
X53856190Y-149529440D01*
X53854850Y-149529980D01*
X53824880Y-149533630D01*
X53759830Y-149536650D01*
X53666000Y-149539040D01*
X53549680Y-149540810D01*
X53417170Y-149541970D01*
X53274760Y-149542520D01*
X53128750Y-149542470D01*
X52985430Y-149541820D01*
X52851110Y-149540590D01*
X52732070Y-149538770D01*
X52634610Y-149536370D01*
X52565020Y-149533400D01*
X52529610Y-149529870D01*
X52526610Y-149528720D01*
X52520460Y-149502650D01*
X52515670Y-149444410D01*
X52512910Y-149364140D01*
X52512500Y-149316230D01*
X52512500Y-149117860D01*
X52935830Y-148309900D01*
X53024940Y-148139690D01*
X53107680Y-147981420D01*
X53182030Y-147838950D01*
X53245990Y-147716120D01*
X53297540Y-147616810D01*
X53334690Y-147544870D01*
X53355430Y-147504150D01*
X53359160Y-147496270D01*
X53339090Y-147494200D01*
X53283230Y-147491840D01*
X53198120Y-147489380D01*
X53090320Y-147487000D01*
X52966360Y-147484900D01*
X52962290Y-147484840D01*
X52565410Y-147479080D01*
X52553300Y-147066330D01*
X53867160Y-147066330D01*
X53867160Y-147483530D01*
G37*
D11*
X53867160Y-147483530D02*
X53446540Y-148285640D01*
X53446540Y-148285640D02*
X53025920Y-149087750D01*
X53025920Y-149087750D02*
X53443840Y-149093470D01*
X53443840Y-149093470D02*
X53861760Y-149099190D01*
X53861760Y-149099190D02*
X53874810Y-149178130D01*
X53874810Y-149178130D02*
X53882110Y-149244120D01*
X53882110Y-149244120D02*
X53886950Y-149329590D01*
X53886950Y-149329590D02*
X53888100Y-149387110D01*
X53888100Y-149387110D02*
X53885340Y-149464990D01*
X53885340Y-149464990D02*
X53875380Y-149509540D01*
X53875380Y-149509540D02*
X53856190Y-149529440D01*
X53856190Y-149529440D02*
X53854850Y-149529980D01*
X53854850Y-149529980D02*
X53824880Y-149533630D01*
X53824880Y-149533630D02*
X53759830Y-149536650D01*
X53759830Y-149536650D02*
X53666000Y-149539040D01*
X53666000Y-149539040D02*
X53549680Y-149540810D01*
X53549680Y-149540810D02*
X53417170Y-149541970D01*
X53417170Y-149541970D02*
X53274760Y-149542520D01*
X53274760Y-149542520D02*
X53128750Y-149542470D01*
X53128750Y-149542470D02*
X52985430Y-149541820D01*
X52985430Y-149541820D02*
X52851110Y-149540590D01*
X52851110Y-149540590D02*
X52732070Y-149538770D01*
X52732070Y-149538770D02*
X52634610Y-149536370D01*
X52634610Y-149536370D02*
X52565020Y-149533400D01*
X52565020Y-149533400D02*
X52529610Y-149529870D01*
X52529610Y-149529870D02*
X52526610Y-149528720D01*
X52526610Y-149528720D02*
X52520460Y-149502650D01*
X52520460Y-149502650D02*
X52515670Y-149444410D01*
X52515670Y-149444410D02*
X52512910Y-149364140D01*
X52512910Y-149364140D02*
X52512500Y-149316230D01*
X52512500Y-149316230D02*
X52512500Y-149117860D01*
X52512500Y-149117860D02*
X52935830Y-148309900D01*
X52935830Y-148309900D02*
X53024940Y-148139690D01*
X53024940Y-148139690D02*
X53107680Y-147981420D01*
X53107680Y-147981420D02*
X53182030Y-147838950D01*
X53182030Y-147838950D02*
X53245990Y-147716120D01*
X53245990Y-147716120D02*
X53297540Y-147616810D01*
X53297540Y-147616810D02*
X53334690Y-147544870D01*
X53334690Y-147544870D02*
X53355430Y-147504150D01*
X53355430Y-147504150D02*
X53359160Y-147496270D01*
X53359160Y-147496270D02*
X53339090Y-147494200D01*
X53339090Y-147494200D02*
X53283230Y-147491840D01*
X53283230Y-147491840D02*
X53198120Y-147489380D01*
X53198120Y-147489380D02*
X53090320Y-147487000D01*
X53090320Y-147487000D02*
X52966360Y-147484900D01*
X52966360Y-147484900D02*
X52962290Y-147484840D01*
X52962290Y-147484840D02*
X52565410Y-147479080D01*
X52565410Y-147479080D02*
X52553300Y-147066330D01*
X52553300Y-147066330D02*
X53867160Y-147066330D01*
X53867160Y-147066330D02*
X53867160Y-147483530D01*
D10*
G36*
X52395180Y-148024120D02*
G01*
X52398140Y-148233560D01*
X52400580Y-148439950D01*
X52402460Y-148637310D01*
X52403760Y-148819660D01*
X52404420Y-148981010D01*
X52404410Y-149115370D01*
X52403700Y-149216760D01*
X52402970Y-149257080D01*
X52396080Y-149532250D01*
X52195000Y-149536240D01*
X52104780Y-149536870D01*
X52029380Y-149535240D01*
X51979660Y-149531710D01*
X51967460Y-149529180D01*
X51961230Y-149517840D01*
X51955980Y-149487550D01*
X51951650Y-149435460D01*
X51948170Y-149358710D01*
X51945470Y-149254450D01*
X51943470Y-149119810D01*
X51942110Y-148951960D01*
X51941310Y-148748030D01*
X51941000Y-148505160D01*
X51941000Y-148454180D01*
X51941270Y-148239710D01*
X51942050Y-148033160D01*
X51943290Y-147839380D01*
X51944930Y-147663210D01*
X51946920Y-147509510D01*
X51949190Y-147383120D01*
X51951710Y-147288890D01*
X51954420Y-147231680D01*
X51954690Y-147228270D01*
X51968380Y-147066330D01*
X52380490Y-147066330D01*
X52395180Y-148024120D01*
G37*
D11*
X52395180Y-148024120D02*
X52398140Y-148233560D01*
X52398140Y-148233560D02*
X52400580Y-148439950D01*
X52400580Y-148439950D02*
X52402460Y-148637310D01*
X52402460Y-148637310D02*
X52403760Y-148819660D01*
X52403760Y-148819660D02*
X52404420Y-148981010D01*
X52404420Y-148981010D02*
X52404410Y-149115370D01*
X52404410Y-149115370D02*
X52403700Y-149216760D01*
X52403700Y-149216760D02*
X52402970Y-149257080D01*
X52402970Y-149257080D02*
X52396080Y-149532250D01*
X52396080Y-149532250D02*
X52195000Y-149536240D01*
X52195000Y-149536240D02*
X52104780Y-149536870D01*
X52104780Y-149536870D02*
X52029380Y-149535240D01*
X52029380Y-149535240D02*
X51979660Y-149531710D01*
X51979660Y-149531710D02*
X51967460Y-149529180D01*
X51967460Y-149529180D02*
X51961230Y-149517840D01*
X51961230Y-149517840D02*
X51955980Y-149487550D01*
X51955980Y-149487550D02*
X51951650Y-149435460D01*
X51951650Y-149435460D02*
X51948170Y-149358710D01*
X51948170Y-149358710D02*
X51945470Y-149254450D01*
X51945470Y-149254450D02*
X51943470Y-149119810D01*
X51943470Y-149119810D02*
X51942110Y-148951960D01*
X51942110Y-148951960D02*
X51941310Y-148748030D01*
X51941310Y-148748030D02*
X51941000Y-148505160D01*
X51941000Y-148505160D02*
X51941000Y-148454180D01*
X51941000Y-148454180D02*
X51941270Y-148239710D01*
X51941270Y-148239710D02*
X51942050Y-148033160D01*
X51942050Y-148033160D02*
X51943290Y-147839380D01*
X51943290Y-147839380D02*
X51944930Y-147663210D01*
X51944930Y-147663210D02*
X51946920Y-147509510D01*
X51946920Y-147509510D02*
X51949190Y-147383120D01*
X51949190Y-147383120D02*
X51951710Y-147288890D01*
X51951710Y-147288890D02*
X51954420Y-147231680D01*
X51954420Y-147231680D02*
X51954690Y-147228270D01*
X51954690Y-147228270D02*
X51968380Y-147066330D01*
X51968380Y-147066330D02*
X52380490Y-147066330D01*
X52380490Y-147066330D02*
X52395180Y-148024120D01*
D10*
G36*
X51856330Y-147510830D02*
G01*
X51391070Y-147510830D01*
X51385580Y-148521540D01*
X51380080Y-149532250D01*
X51177950Y-149538250D01*
X51089220Y-149539390D01*
X51016970Y-149537490D01*
X50971260Y-149532970D01*
X50960990Y-149529430D01*
X50958000Y-149505900D01*
X50955220Y-149444240D01*
X50952700Y-149348650D01*
X50950500Y-149223330D01*
X50948680Y-149072480D01*
X50947310Y-148900320D01*
X50946450Y-148711030D01*
X50946160Y-148513410D01*
X50946160Y-147512220D01*
X50469910Y-147500250D01*
X50469910Y-147076910D01*
X51163120Y-147071330D01*
X51856330Y-147065750D01*
X51856330Y-147510830D01*
G37*
D11*
X51856330Y-147510830D02*
X51391070Y-147510830D01*
X51391070Y-147510830D02*
X51385580Y-148521540D01*
X51385580Y-148521540D02*
X51380080Y-149532250D01*
X51380080Y-149532250D02*
X51177950Y-149538250D01*
X51177950Y-149538250D02*
X51089220Y-149539390D01*
X51089220Y-149539390D02*
X51016970Y-149537490D01*
X51016970Y-149537490D02*
X50971260Y-149532970D01*
X50971260Y-149532970D02*
X50960990Y-149529430D01*
X50960990Y-149529430D02*
X50958000Y-149505900D01*
X50958000Y-149505900D02*
X50955220Y-149444240D01*
X50955220Y-149444240D02*
X50952700Y-149348650D01*
X50952700Y-149348650D02*
X50950500Y-149223330D01*
X50950500Y-149223330D02*
X50948680Y-149072480D01*
X50948680Y-149072480D02*
X50947310Y-148900320D01*
X50947310Y-148900320D02*
X50946450Y-148711030D01*
X50946450Y-148711030D02*
X50946160Y-148513410D01*
X50946160Y-148513410D02*
X50946160Y-147512220D01*
X50946160Y-147512220D02*
X50469910Y-147500250D01*
X50469910Y-147500250D02*
X50469910Y-147076910D01*
X50469910Y-147076910D02*
X51163120Y-147071330D01*
X51163120Y-147071330D02*
X51856330Y-147065750D01*
X51856330Y-147065750D02*
X51856330Y-147510830D01*
D10*
G36*
X49403960Y-147076910D02*
G01*
X49666740Y-147690750D01*
X49732170Y-147843320D01*
X49793050Y-147984750D01*
X49847180Y-148109960D01*
X49892340Y-148213880D01*
X49926350Y-148291420D01*
X49946990Y-148337520D01*
X49951470Y-148346910D01*
X49957920Y-148344580D01*
X49962600Y-148308210D01*
X49965550Y-148236260D01*
X49966800Y-148127150D01*
X49966380Y-147979320D01*
X49964310Y-147791220D01*
X49963390Y-147727790D01*
X49953350Y-147066330D01*
X50375000Y-147066330D01*
X50364080Y-149532250D01*
X50203580Y-149538360D01*
X50043080Y-149544480D01*
X49772040Y-148966860D01*
X49702710Y-148819320D01*
X49638060Y-148682140D01*
X49580590Y-148560610D01*
X49532800Y-148459980D01*
X49497190Y-148385520D01*
X49476240Y-148342500D01*
X49473100Y-148336330D01*
X49465070Y-148326380D01*
X49458810Y-148333020D01*
X49454160Y-148360000D01*
X49450970Y-148411050D01*
X49449080Y-148489900D01*
X49448350Y-148600290D01*
X49448610Y-148745960D01*
X49449560Y-148907830D01*
X49453910Y-149532250D01*
X49262390Y-149538280D01*
X49176080Y-149539400D01*
X49106400Y-149537330D01*
X49063750Y-149532520D01*
X49056010Y-149529460D01*
X49053300Y-149506150D01*
X49050750Y-149444290D01*
X49048400Y-149347670D01*
X49046310Y-149220070D01*
X49044510Y-149065280D01*
X49043050Y-148887080D01*
X49041980Y-148689270D01*
X49041340Y-148475620D01*
X49041160Y-148289640D01*
X49041160Y-147064680D01*
X49403960Y-147076910D01*
G37*
D11*
X49403960Y-147076910D02*
X49666740Y-147690750D01*
X49666740Y-147690750D02*
X49732170Y-147843320D01*
X49732170Y-147843320D02*
X49793050Y-147984750D01*
X49793050Y-147984750D02*
X49847180Y-148109960D01*
X49847180Y-148109960D02*
X49892340Y-148213880D01*
X49892340Y-148213880D02*
X49926350Y-148291420D01*
X49926350Y-148291420D02*
X49946990Y-148337520D01*
X49946990Y-148337520D02*
X49951470Y-148346910D01*
X49951470Y-148346910D02*
X49957920Y-148344580D01*
X49957920Y-148344580D02*
X49962600Y-148308210D01*
X49962600Y-148308210D02*
X49965550Y-148236260D01*
X49965550Y-148236260D02*
X49966800Y-148127150D01*
X49966800Y-148127150D02*
X49966380Y-147979320D01*
X49966380Y-147979320D02*
X49964310Y-147791220D01*
X49964310Y-147791220D02*
X49963390Y-147727790D01*
X49963390Y-147727790D02*
X49953350Y-147066330D01*
X49953350Y-147066330D02*
X50375000Y-147066330D01*
X50375000Y-147066330D02*
X50364080Y-149532250D01*
X50364080Y-149532250D02*
X50203580Y-149538360D01*
X50203580Y-149538360D02*
X50043080Y-149544480D01*
X50043080Y-149544480D02*
X49772040Y-148966860D01*
X49772040Y-148966860D02*
X49702710Y-148819320D01*
X49702710Y-148819320D02*
X49638060Y-148682140D01*
X49638060Y-148682140D02*
X49580590Y-148560610D01*
X49580590Y-148560610D02*
X49532800Y-148459980D01*
X49532800Y-148459980D02*
X49497190Y-148385520D01*
X49497190Y-148385520D02*
X49476240Y-148342500D01*
X49476240Y-148342500D02*
X49473100Y-148336330D01*
X49473100Y-148336330D02*
X49465070Y-148326380D01*
X49465070Y-148326380D02*
X49458810Y-148333020D01*
X49458810Y-148333020D02*
X49454160Y-148360000D01*
X49454160Y-148360000D02*
X49450970Y-148411050D01*
X49450970Y-148411050D02*
X49449080Y-148489900D01*
X49449080Y-148489900D02*
X49448350Y-148600290D01*
X49448350Y-148600290D02*
X49448610Y-148745960D01*
X49448610Y-148745960D02*
X49449560Y-148907830D01*
X49449560Y-148907830D02*
X49453910Y-149532250D01*
X49453910Y-149532250D02*
X49262390Y-149538280D01*
X49262390Y-149538280D02*
X49176080Y-149539400D01*
X49176080Y-149539400D02*
X49106400Y-149537330D01*
X49106400Y-149537330D02*
X49063750Y-149532520D01*
X49063750Y-149532520D02*
X49056010Y-149529460D01*
X49056010Y-149529460D02*
X49053300Y-149506150D01*
X49053300Y-149506150D02*
X49050750Y-149444290D01*
X49050750Y-149444290D02*
X49048400Y-149347670D01*
X49048400Y-149347670D02*
X49046310Y-149220070D01*
X49046310Y-149220070D02*
X49044510Y-149065280D01*
X49044510Y-149065280D02*
X49043050Y-148887080D01*
X49043050Y-148887080D02*
X49041980Y-148689270D01*
X49041980Y-148689270D02*
X49041340Y-148475620D01*
X49041340Y-148475620D02*
X49041160Y-148289640D01*
X49041160Y-148289640D02*
X49041160Y-147064680D01*
X49041160Y-147064680D02*
X49403960Y-147076910D01*
D10*
G36*
X48381150Y-147069540D02*
G01*
X48431090Y-147073100D01*
X48459500Y-147080530D01*
X48473310Y-147092610D01*
X48477560Y-147102770D01*
X48485870Y-147139620D01*
X48499930Y-147212140D01*
X48518970Y-147315780D01*
X48542240Y-147446010D01*
X48568970Y-147598270D01*
X48598390Y-147768030D01*
X48629750Y-147950740D01*
X48662270Y-148141860D01*
X48695190Y-148336840D01*
X48727750Y-148531150D01*
X48759190Y-148720230D01*
X48788730Y-148899540D01*
X48815620Y-149064540D01*
X48839090Y-149210690D01*
X48858380Y-149333440D01*
X48872720Y-149428250D01*
X48881350Y-149490570D01*
X48883500Y-149515860D01*
X48883460Y-149516000D01*
X48867350Y-149529570D01*
X48827590Y-149537300D01*
X48757760Y-149539850D01*
X48665820Y-149538310D01*
X48459080Y-149532250D01*
X48440250Y-149399960D01*
X48421420Y-149267660D01*
X47947930Y-149267660D01*
X47928340Y-149399960D01*
X47908750Y-149532250D01*
X47702000Y-149538310D01*
X47598750Y-149539700D01*
X47531890Y-149536260D01*
X47495690Y-149527430D01*
X47485280Y-149517140D01*
X47487120Y-149491860D01*
X47495980Y-149428710D01*
X47511200Y-149331470D01*
X47532150Y-149203910D01*
X47558210Y-149049800D01*
X47588720Y-148872910D01*
X47594170Y-148841790D01*
X48028360Y-148841790D01*
X48037080Y-148855970D01*
X48066290Y-148862950D01*
X48124150Y-148865280D01*
X48184260Y-148865500D01*
X48347960Y-148865500D01*
X48336750Y-148807290D01*
X48330360Y-148768660D01*
X48319230Y-148695670D01*
X48304480Y-148595900D01*
X48287220Y-148476920D01*
X48268570Y-148346280D01*
X48267160Y-148336330D01*
X48248550Y-148208620D01*
X48231000Y-148095340D01*
X48215620Y-148003150D01*
X48203540Y-147938720D01*
X48195860Y-147908690D01*
X48195240Y-147907650D01*
X48188120Y-147922700D01*
X48175890Y-147973790D01*
X48159680Y-148055090D01*
X48140630Y-148160790D01*
X48119880Y-148285050D01*
X48112570Y-148330990D01*
X48091270Y-148465160D01*
X48071520Y-148587440D01*
X48054470Y-148690790D01*
X48041300Y-148768180D01*
X48033160Y-148812590D01*
X48032010Y-148817870D01*
X48028360Y-148841790D01*
X47594170Y-148841790D01*
X47623050Y-148677020D01*
X47660580Y-148465900D01*
X47693390Y-148283410D01*
X47911500Y-147076910D01*
X48188960Y-147071020D01*
X48302740Y-147069100D01*
X48381150Y-147069540D01*
G37*
D11*
X48381150Y-147069540D02*
X48431090Y-147073100D01*
X48431090Y-147073100D02*
X48459500Y-147080530D01*
X48459500Y-147080530D02*
X48473310Y-147092610D01*
X48473310Y-147092610D02*
X48477560Y-147102770D01*
X48477560Y-147102770D02*
X48485870Y-147139620D01*
X48485870Y-147139620D02*
X48499930Y-147212140D01*
X48499930Y-147212140D02*
X48518970Y-147315780D01*
X48518970Y-147315780D02*
X48542240Y-147446010D01*
X48542240Y-147446010D02*
X48568970Y-147598270D01*
X48568970Y-147598270D02*
X48598390Y-147768030D01*
X48598390Y-147768030D02*
X48629750Y-147950740D01*
X48629750Y-147950740D02*
X48662270Y-148141860D01*
X48662270Y-148141860D02*
X48695190Y-148336840D01*
X48695190Y-148336840D02*
X48727750Y-148531150D01*
X48727750Y-148531150D02*
X48759190Y-148720230D01*
X48759190Y-148720230D02*
X48788730Y-148899540D01*
X48788730Y-148899540D02*
X48815620Y-149064540D01*
X48815620Y-149064540D02*
X48839090Y-149210690D01*
X48839090Y-149210690D02*
X48858380Y-149333440D01*
X48858380Y-149333440D02*
X48872720Y-149428250D01*
X48872720Y-149428250D02*
X48881350Y-149490570D01*
X48881350Y-149490570D02*
X48883500Y-149515860D01*
X48883500Y-149515860D02*
X48883460Y-149516000D01*
X48883460Y-149516000D02*
X48867350Y-149529570D01*
X48867350Y-149529570D02*
X48827590Y-149537300D01*
X48827590Y-149537300D02*
X48757760Y-149539850D01*
X48757760Y-149539850D02*
X48665820Y-149538310D01*
X48665820Y-149538310D02*
X48459080Y-149532250D01*
X48459080Y-149532250D02*
X48440250Y-149399960D01*
X48440250Y-149399960D02*
X48421420Y-149267660D01*
X48421420Y-149267660D02*
X47947930Y-149267660D01*
X47947930Y-149267660D02*
X47928340Y-149399960D01*
X47928340Y-149399960D02*
X47908750Y-149532250D01*
X47908750Y-149532250D02*
X47702000Y-149538310D01*
X47702000Y-149538310D02*
X47598750Y-149539700D01*
X47598750Y-149539700D02*
X47531890Y-149536260D01*
X47531890Y-149536260D02*
X47495690Y-149527430D01*
X47495690Y-149527430D02*
X47485280Y-149517140D01*
X47485280Y-149517140D02*
X47487120Y-149491860D01*
X47487120Y-149491860D02*
X47495980Y-149428710D01*
X47495980Y-149428710D02*
X47511200Y-149331470D01*
X47511200Y-149331470D02*
X47532150Y-149203910D01*
X47532150Y-149203910D02*
X47558210Y-149049800D01*
X47558210Y-149049800D02*
X47588720Y-148872910D01*
X47588720Y-148872910D02*
X47594170Y-148841790D01*
X47594170Y-148841790D02*
X48028360Y-148841790D01*
X48028360Y-148841790D02*
X48037080Y-148855970D01*
X48037080Y-148855970D02*
X48066290Y-148862950D01*
X48066290Y-148862950D02*
X48124150Y-148865280D01*
X48124150Y-148865280D02*
X48184260Y-148865500D01*
X48184260Y-148865500D02*
X48347960Y-148865500D01*
X48347960Y-148865500D02*
X48336750Y-148807290D01*
X48336750Y-148807290D02*
X48330360Y-148768660D01*
X48330360Y-148768660D02*
X48319230Y-148695670D01*
X48319230Y-148695670D02*
X48304480Y-148595900D01*
X48304480Y-148595900D02*
X48287220Y-148476920D01*
X48287220Y-148476920D02*
X48268570Y-148346280D01*
X48268570Y-148346280D02*
X48267160Y-148336330D01*
X48267160Y-148336330D02*
X48248550Y-148208620D01*
X48248550Y-148208620D02*
X48231000Y-148095340D01*
X48231000Y-148095340D02*
X48215620Y-148003150D01*
X48215620Y-148003150D02*
X48203540Y-147938720D01*
X48203540Y-147938720D02*
X48195860Y-147908690D01*
X48195860Y-147908690D02*
X48195240Y-147907650D01*
X48195240Y-147907650D02*
X48188120Y-147922700D01*
X48188120Y-147922700D02*
X48175890Y-147973790D01*
X48175890Y-147973790D02*
X48159680Y-148055090D01*
X48159680Y-148055090D02*
X48140630Y-148160790D01*
X48140630Y-148160790D02*
X48119880Y-148285050D01*
X48119880Y-148285050D02*
X48112570Y-148330990D01*
X48112570Y-148330990D02*
X48091270Y-148465160D01*
X48091270Y-148465160D02*
X48071520Y-148587440D01*
X48071520Y-148587440D02*
X48054470Y-148690790D01*
X48054470Y-148690790D02*
X48041300Y-148768180D01*
X48041300Y-148768180D02*
X48033160Y-148812590D01*
X48033160Y-148812590D02*
X48032010Y-148817870D01*
X48032010Y-148817870D02*
X48028360Y-148841790D01*
X48028360Y-148841790D02*
X47594170Y-148841790D01*
X47594170Y-148841790D02*
X47623050Y-148677020D01*
X47623050Y-148677020D02*
X47660580Y-148465900D01*
X47660580Y-148465900D02*
X47693390Y-148283410D01*
X47693390Y-148283410D02*
X47911500Y-147076910D01*
X47911500Y-147076910D02*
X48188960Y-147071020D01*
X48188960Y-147071020D02*
X48302740Y-147069100D01*
X48302740Y-147069100D02*
X48381150Y-147069540D01*
D10*
G36*
X43307780Y-148076540D02*
G01*
X43299970Y-149076170D01*
X44056410Y-149087750D01*
X44062510Y-149297660D01*
X44063810Y-149404290D01*
X44060000Y-149474400D01*
X44050550Y-149513540D01*
X44041350Y-149524880D01*
X44013630Y-149529490D01*
X43949410Y-149533670D01*
X43854530Y-149537230D01*
X43734810Y-149540000D01*
X43596090Y-149541820D01*
X43447210Y-149542510D01*
X43267730Y-149542140D01*
X43126850Y-149540710D01*
X43020810Y-149538040D01*
X42945900Y-149533960D01*
X42898370Y-149528300D01*
X42874500Y-149520900D01*
X42870210Y-149516370D01*
X42868440Y-149490860D01*
X42866960Y-149426880D01*
X42865780Y-149328300D01*
X42864920Y-149198970D01*
X42864380Y-149042770D01*
X42864200Y-148863550D01*
X42864370Y-148665190D01*
X42864920Y-148451540D01*
X42865580Y-148283410D01*
X42871080Y-147076910D01*
X43315580Y-147076910D01*
X43307780Y-148076540D01*
G37*
D11*
X43307780Y-148076540D02*
X43299970Y-149076170D01*
X43299970Y-149076170D02*
X44056410Y-149087750D01*
X44056410Y-149087750D02*
X44062510Y-149297660D01*
X44062510Y-149297660D02*
X44063810Y-149404290D01*
X44063810Y-149404290D02*
X44060000Y-149474400D01*
X44060000Y-149474400D02*
X44050550Y-149513540D01*
X44050550Y-149513540D02*
X44041350Y-149524880D01*
X44041350Y-149524880D02*
X44013630Y-149529490D01*
X44013630Y-149529490D02*
X43949410Y-149533670D01*
X43949410Y-149533670D02*
X43854530Y-149537230D01*
X43854530Y-149537230D02*
X43734810Y-149540000D01*
X43734810Y-149540000D02*
X43596090Y-149541820D01*
X43596090Y-149541820D02*
X43447210Y-149542510D01*
X43447210Y-149542510D02*
X43267730Y-149542140D01*
X43267730Y-149542140D02*
X43126850Y-149540710D01*
X43126850Y-149540710D02*
X43020810Y-149538040D01*
X43020810Y-149538040D02*
X42945900Y-149533960D01*
X42945900Y-149533960D02*
X42898370Y-149528300D01*
X42898370Y-149528300D02*
X42874500Y-149520900D01*
X42874500Y-149520900D02*
X42870210Y-149516370D01*
X42870210Y-149516370D02*
X42868440Y-149490860D01*
X42868440Y-149490860D02*
X42866960Y-149426880D01*
X42866960Y-149426880D02*
X42865780Y-149328300D01*
X42865780Y-149328300D02*
X42864920Y-149198970D01*
X42864920Y-149198970D02*
X42864380Y-149042770D01*
X42864380Y-149042770D02*
X42864200Y-148863550D01*
X42864200Y-148863550D02*
X42864370Y-148665190D01*
X42864370Y-148665190D02*
X42864920Y-148451540D01*
X42864920Y-148451540D02*
X42865580Y-148283410D01*
X42865580Y-148283410D02*
X42871080Y-147076910D01*
X42871080Y-147076910D02*
X43315580Y-147076910D01*
X43315580Y-147076910D02*
X43307780Y-148076540D01*
D10*
G36*
X42132390Y-147066710D02*
G01*
X42218800Y-147067740D01*
X42280260Y-147069290D01*
X42309000Y-147071190D01*
X42310160Y-147071680D01*
X42313680Y-147092920D01*
X42323800Y-147152190D01*
X42339900Y-147245810D01*
X42361330Y-147370120D01*
X42387470Y-147521420D01*
X42417670Y-147696050D01*
X42451300Y-147890320D01*
X42487730Y-148100570D01*
X42521210Y-148293620D01*
X42559300Y-148515130D01*
X42594610Y-148724220D01*
X42626540Y-148917170D01*
X42654520Y-149090240D01*
X42677960Y-149239730D01*
X42696270Y-149361920D01*
X42708870Y-149453070D01*
X42715170Y-149509470D01*
X42715110Y-149527350D01*
X42687660Y-149534210D01*
X42628270Y-149538390D01*
X42547260Y-149539340D01*
X42499510Y-149538380D01*
X42301070Y-149532250D01*
X42283250Y-149447580D01*
X42269150Y-149380320D01*
X42257260Y-149323130D01*
X42255640Y-149315290D01*
X42249270Y-149294380D01*
X42235290Y-149280700D01*
X42205980Y-149272720D01*
X42153620Y-149268910D01*
X42070480Y-149267740D01*
X42015410Y-149267660D01*
X41784970Y-149267660D01*
X41770030Y-149378790D01*
X41757650Y-149447000D01*
X41742390Y-149499420D01*
X41733700Y-149516370D01*
X41701780Y-149530860D01*
X41641490Y-149540160D01*
X41564530Y-149544370D01*
X41482580Y-149543610D01*
X41407320Y-149538010D01*
X41350450Y-149527680D01*
X41323640Y-149512740D01*
X41323430Y-149512240D01*
X41324950Y-149486330D01*
X41333490Y-149422570D01*
X41348410Y-149324740D01*
X41369090Y-149196620D01*
X41394890Y-149042010D01*
X41425190Y-148864680D01*
X41429650Y-148839040D01*
X41866420Y-148839040D01*
X41880710Y-148853790D01*
X41927590Y-148862350D01*
X42011500Y-148865450D01*
X42025840Y-148865500D01*
X42107140Y-148864480D01*
X42154080Y-148860130D01*
X42174590Y-148850460D01*
X42176630Y-148833520D01*
X42175340Y-148828460D01*
X42169380Y-148797530D01*
X42158530Y-148731130D01*
X42143780Y-148635710D01*
X42126110Y-148517720D01*
X42106520Y-148383620D01*
X42095600Y-148307550D01*
X42026530Y-147823680D01*
X41946850Y-148318130D01*
X41924340Y-148458740D01*
X41904220Y-148586040D01*
X41887460Y-148693870D01*
X41875010Y-148776080D01*
X41867820Y-148826480D01*
X41866420Y-148839040D01*
X41429650Y-148839040D01*
X41459350Y-148668410D01*
X41496750Y-148457000D01*
X41529560Y-148273990D01*
X41747440Y-147066330D01*
X42028800Y-147066330D01*
X42132390Y-147066710D01*
G37*
D11*
X42132390Y-147066710D02*
X42218800Y-147067740D01*
X42218800Y-147067740D02*
X42280260Y-147069290D01*
X42280260Y-147069290D02*
X42309000Y-147071190D01*
X42309000Y-147071190D02*
X42310160Y-147071680D01*
X42310160Y-147071680D02*
X42313680Y-147092920D01*
X42313680Y-147092920D02*
X42323800Y-147152190D01*
X42323800Y-147152190D02*
X42339900Y-147245810D01*
X42339900Y-147245810D02*
X42361330Y-147370120D01*
X42361330Y-147370120D02*
X42387470Y-147521420D01*
X42387470Y-147521420D02*
X42417670Y-147696050D01*
X42417670Y-147696050D02*
X42451300Y-147890320D01*
X42451300Y-147890320D02*
X42487730Y-148100570D01*
X42487730Y-148100570D02*
X42521210Y-148293620D01*
X42521210Y-148293620D02*
X42559300Y-148515130D01*
X42559300Y-148515130D02*
X42594610Y-148724220D01*
X42594610Y-148724220D02*
X42626540Y-148917170D01*
X42626540Y-148917170D02*
X42654520Y-149090240D01*
X42654520Y-149090240D02*
X42677960Y-149239730D01*
X42677960Y-149239730D02*
X42696270Y-149361920D01*
X42696270Y-149361920D02*
X42708870Y-149453070D01*
X42708870Y-149453070D02*
X42715170Y-149509470D01*
X42715170Y-149509470D02*
X42715110Y-149527350D01*
X42715110Y-149527350D02*
X42687660Y-149534210D01*
X42687660Y-149534210D02*
X42628270Y-149538390D01*
X42628270Y-149538390D02*
X42547260Y-149539340D01*
X42547260Y-149539340D02*
X42499510Y-149538380D01*
X42499510Y-149538380D02*
X42301070Y-149532250D01*
X42301070Y-149532250D02*
X42283250Y-149447580D01*
X42283250Y-149447580D02*
X42269150Y-149380320D01*
X42269150Y-149380320D02*
X42257260Y-149323130D01*
X42257260Y-149323130D02*
X42255640Y-149315290D01*
X42255640Y-149315290D02*
X42249270Y-149294380D01*
X42249270Y-149294380D02*
X42235290Y-149280700D01*
X42235290Y-149280700D02*
X42205980Y-149272720D01*
X42205980Y-149272720D02*
X42153620Y-149268910D01*
X42153620Y-149268910D02*
X42070480Y-149267740D01*
X42070480Y-149267740D02*
X42015410Y-149267660D01*
X42015410Y-149267660D02*
X41784970Y-149267660D01*
X41784970Y-149267660D02*
X41770030Y-149378790D01*
X41770030Y-149378790D02*
X41757650Y-149447000D01*
X41757650Y-149447000D02*
X41742390Y-149499420D01*
X41742390Y-149499420D02*
X41733700Y-149516370D01*
X41733700Y-149516370D02*
X41701780Y-149530860D01*
X41701780Y-149530860D02*
X41641490Y-149540160D01*
X41641490Y-149540160D02*
X41564530Y-149544370D01*
X41564530Y-149544370D02*
X41482580Y-149543610D01*
X41482580Y-149543610D02*
X41407320Y-149538010D01*
X41407320Y-149538010D02*
X41350450Y-149527680D01*
X41350450Y-149527680D02*
X41323640Y-149512740D01*
X41323640Y-149512740D02*
X41323430Y-149512240D01*
X41323430Y-149512240D02*
X41324950Y-149486330D01*
X41324950Y-149486330D02*
X41333490Y-149422570D01*
X41333490Y-149422570D02*
X41348410Y-149324740D01*
X41348410Y-149324740D02*
X41369090Y-149196620D01*
X41369090Y-149196620D02*
X41394890Y-149042010D01*
X41394890Y-149042010D02*
X41425190Y-148864680D01*
X41425190Y-148864680D02*
X41429650Y-148839040D01*
X41429650Y-148839040D02*
X41866420Y-148839040D01*
X41866420Y-148839040D02*
X41880710Y-148853790D01*
X41880710Y-148853790D02*
X41927590Y-148862350D01*
X41927590Y-148862350D02*
X42011500Y-148865450D01*
X42011500Y-148865450D02*
X42025840Y-148865500D01*
X42025840Y-148865500D02*
X42107140Y-148864480D01*
X42107140Y-148864480D02*
X42154080Y-148860130D01*
X42154080Y-148860130D02*
X42174590Y-148850460D01*
X42174590Y-148850460D02*
X42176630Y-148833520D01*
X42176630Y-148833520D02*
X42175340Y-148828460D01*
X42175340Y-148828460D02*
X42169380Y-148797530D01*
X42169380Y-148797530D02*
X42158530Y-148731130D01*
X42158530Y-148731130D02*
X42143780Y-148635710D01*
X42143780Y-148635710D02*
X42126110Y-148517720D01*
X42126110Y-148517720D02*
X42106520Y-148383620D01*
X42106520Y-148383620D02*
X42095600Y-148307550D01*
X42095600Y-148307550D02*
X42026530Y-147823680D01*
X42026530Y-147823680D02*
X41946850Y-148318130D01*
X41946850Y-148318130D02*
X41924340Y-148458740D01*
X41924340Y-148458740D02*
X41904220Y-148586040D01*
X41904220Y-148586040D02*
X41887460Y-148693870D01*
X41887460Y-148693870D02*
X41875010Y-148776080D01*
X41875010Y-148776080D02*
X41867820Y-148826480D01*
X41867820Y-148826480D02*
X41866420Y-148839040D01*
X41866420Y-148839040D02*
X41429650Y-148839040D01*
X41429650Y-148839040D02*
X41459350Y-148668410D01*
X41459350Y-148668410D02*
X41496750Y-148457000D01*
X41496750Y-148457000D02*
X41529560Y-148273990D01*
X41529560Y-148273990D02*
X41747440Y-147066330D01*
X41747440Y-147066330D02*
X42028800Y-147066330D01*
X42028800Y-147066330D02*
X42132390Y-147066710D01*
D10*
G36*
X38945610Y-147059190D02*
G01*
X39057890Y-147063180D01*
X39146440Y-147071180D01*
X39217440Y-147083690D01*
X39277070Y-147101230D01*
X39318790Y-147118330D01*
X39465410Y-147207710D01*
X39587000Y-147328080D01*
X39676850Y-147472780D01*
X39677340Y-147473840D01*
X39738410Y-147606080D01*
X39738410Y-148960750D01*
X39683360Y-149078130D01*
X39596200Y-149223120D01*
X39484470Y-149344770D01*
X39355170Y-149437020D01*
X39215310Y-149493800D01*
X39198660Y-149497820D01*
X39145780Y-149505710D01*
X39064080Y-149513140D01*
X38961780Y-149519840D01*
X38847060Y-149525530D01*
X38728140Y-149529960D01*
X38613210Y-149532830D01*
X38510490Y-149533880D01*
X38428160Y-149532840D01*
X38374430Y-149529430D01*
X38358590Y-149525740D01*
X38353240Y-149510100D01*
X38348940Y-149469060D01*
X38345670Y-149400510D01*
X38343410Y-149302320D01*
X38342140Y-149172390D01*
X38341966Y-149077160D01*
X38796500Y-149077160D01*
X38935130Y-149077160D01*
X39027050Y-149071780D01*
X39103490Y-149057380D01*
X39134550Y-149045730D01*
X39188070Y-149006740D01*
X39239080Y-148952650D01*
X39244620Y-148945190D01*
X39259580Y-148922890D01*
X39271250Y-148899430D01*
X39280100Y-148869380D01*
X39286630Y-148827330D01*
X39291340Y-148767860D01*
X39294710Y-148685570D01*
X39297240Y-148575030D01*
X39299410Y-148430830D01*
X39300750Y-148325750D01*
X39302190Y-148126300D01*
X39301180Y-147961690D01*
X39297760Y-147833800D01*
X39291990Y-147744520D01*
X39284490Y-147697600D01*
X39236670Y-147605080D01*
X39158730Y-147538710D01*
X39055670Y-147501020D01*
X38932500Y-147494530D01*
X38891610Y-147499160D01*
X38796500Y-147513420D01*
X38796500Y-149077160D01*
X38341966Y-149077160D01*
X38341840Y-149008620D01*
X38342480Y-148808880D01*
X38344050Y-148571080D01*
X38346530Y-148293090D01*
X38346570Y-148288620D01*
X38354170Y-147513420D01*
X38358550Y-147066330D01*
X38625150Y-147061190D01*
X38803420Y-147058700D01*
X38945610Y-147059190D01*
G37*
D11*
X38945610Y-147059190D02*
X39057890Y-147063180D01*
X39057890Y-147063180D02*
X39146440Y-147071180D01*
X39146440Y-147071180D02*
X39217440Y-147083690D01*
X39217440Y-147083690D02*
X39277070Y-147101230D01*
X39277070Y-147101230D02*
X39318790Y-147118330D01*
X39318790Y-147118330D02*
X39465410Y-147207710D01*
X39465410Y-147207710D02*
X39587000Y-147328080D01*
X39587000Y-147328080D02*
X39676850Y-147472780D01*
X39676850Y-147472780D02*
X39677340Y-147473840D01*
X39677340Y-147473840D02*
X39738410Y-147606080D01*
X39738410Y-147606080D02*
X39738410Y-148960750D01*
X39738410Y-148960750D02*
X39683360Y-149078130D01*
X39683360Y-149078130D02*
X39596200Y-149223120D01*
X39596200Y-149223120D02*
X39484470Y-149344770D01*
X39484470Y-149344770D02*
X39355170Y-149437020D01*
X39355170Y-149437020D02*
X39215310Y-149493800D01*
X39215310Y-149493800D02*
X39198660Y-149497820D01*
X39198660Y-149497820D02*
X39145780Y-149505710D01*
X39145780Y-149505710D02*
X39064080Y-149513140D01*
X39064080Y-149513140D02*
X38961780Y-149519840D01*
X38961780Y-149519840D02*
X38847060Y-149525530D01*
X38847060Y-149525530D02*
X38728140Y-149529960D01*
X38728140Y-149529960D02*
X38613210Y-149532830D01*
X38613210Y-149532830D02*
X38510490Y-149533880D01*
X38510490Y-149533880D02*
X38428160Y-149532840D01*
X38428160Y-149532840D02*
X38374430Y-149529430D01*
X38374430Y-149529430D02*
X38358590Y-149525740D01*
X38358590Y-149525740D02*
X38353240Y-149510100D01*
X38353240Y-149510100D02*
X38348940Y-149469060D01*
X38348940Y-149469060D02*
X38345670Y-149400510D01*
X38345670Y-149400510D02*
X38343410Y-149302320D01*
X38343410Y-149302320D02*
X38342140Y-149172390D01*
X38342140Y-149172390D02*
X38341840Y-149008620D01*
X38341840Y-149008620D02*
X38342480Y-148808880D01*
X38342480Y-148808880D02*
X38344050Y-148571080D01*
X38344050Y-148571080D02*
X38346530Y-148293090D01*
X38346530Y-148293090D02*
X38346570Y-148288620D01*
X38346570Y-148288620D02*
X38354170Y-147513420D01*
X38354170Y-147513420D02*
X38796500Y-147513420D01*
X38796500Y-147513420D02*
X38796500Y-149077160D01*
X38796500Y-149077160D02*
X38935130Y-149077160D01*
X38935130Y-149077160D02*
X39027050Y-149071780D01*
X39027050Y-149071780D02*
X39103490Y-149057380D01*
X39103490Y-149057380D02*
X39134550Y-149045730D01*
X39134550Y-149045730D02*
X39188070Y-149006740D01*
X39188070Y-149006740D02*
X39239080Y-148952650D01*
X39239080Y-148952650D02*
X39244620Y-148945190D01*
X39244620Y-148945190D02*
X39259580Y-148922890D01*
X39259580Y-148922890D02*
X39271250Y-148899430D01*
X39271250Y-148899430D02*
X39280100Y-148869380D01*
X39280100Y-148869380D02*
X39286630Y-148827330D01*
X39286630Y-148827330D02*
X39291340Y-148767860D01*
X39291340Y-148767860D02*
X39294710Y-148685570D01*
X39294710Y-148685570D02*
X39297240Y-148575030D01*
X39297240Y-148575030D02*
X39299410Y-148430830D01*
X39299410Y-148430830D02*
X39300750Y-148325750D01*
X39300750Y-148325750D02*
X39302190Y-148126300D01*
X39302190Y-148126300D02*
X39301180Y-147961690D01*
X39301180Y-147961690D02*
X39297760Y-147833800D01*
X39297760Y-147833800D02*
X39291990Y-147744520D01*
X39291990Y-147744520D02*
X39284490Y-147697600D01*
X39284490Y-147697600D02*
X39236670Y-147605080D01*
X39236670Y-147605080D02*
X39158730Y-147538710D01*
X39158730Y-147538710D02*
X39055670Y-147501020D01*
X39055670Y-147501020D02*
X38932500Y-147494530D01*
X38932500Y-147494530D02*
X38891610Y-147499160D01*
X38891610Y-147499160D02*
X38796500Y-147513420D01*
X38796500Y-147513420D02*
X38354170Y-147513420D01*
X38354170Y-147513420D02*
X38358550Y-147066330D01*
X38358550Y-147066330D02*
X38625150Y-147061190D01*
X38625150Y-147061190D02*
X38803420Y-147058700D01*
X38803420Y-147058700D02*
X38945610Y-147059190D01*
D10*
G36*
X46501160Y-147988130D02*
G01*
X46501220Y-148218730D01*
X46501660Y-148410890D01*
X46502920Y-148568520D01*
X46505420Y-148695510D01*
X46509590Y-148795760D01*
X46515850Y-148873170D01*
X46524640Y-148931640D01*
X46536370Y-148975070D01*
X46551470Y-149007350D01*
X46570380Y-149032380D01*
X46593510Y-149054070D01*
X46620010Y-149075290D01*
X46698940Y-149112530D01*
X46788270Y-149116580D01*
X46872230Y-149087520D01*
X46892460Y-149073610D01*
X46919430Y-149051440D01*
X46941890Y-149028570D01*
X46960250Y-149001090D01*
X46974930Y-148965150D01*
X46986330Y-148916860D01*
X46994870Y-148852330D01*
X47000960Y-148767690D01*
X47005020Y-148659070D01*
X47007460Y-148522580D01*
X47008680Y-148354340D01*
X47009110Y-148150470D01*
X47009160Y-147977180D01*
X47009160Y-147066330D01*
X47455250Y-147066330D01*
X47449160Y-148055870D01*
X47443080Y-149045410D01*
X47384440Y-149164830D01*
X47301270Y-149292980D01*
X47188280Y-149408080D01*
X47057980Y-149497550D01*
X47048310Y-149502650D01*
X46941610Y-149539950D01*
X46812870Y-149558300D01*
X46678180Y-149557160D01*
X46553630Y-149536000D01*
X46507560Y-149520750D01*
X46381060Y-149451610D01*
X46263020Y-149352270D01*
X46166220Y-149234610D01*
X46126520Y-149166120D01*
X46067250Y-149045410D01*
X46061160Y-148055870D01*
X46055080Y-147066330D01*
X46501160Y-147066330D01*
X46501160Y-147988130D01*
G37*
D11*
X46501160Y-147988130D02*
X46501220Y-148218730D01*
X46501220Y-148218730D02*
X46501660Y-148410890D01*
X46501660Y-148410890D02*
X46502920Y-148568520D01*
X46502920Y-148568520D02*
X46505420Y-148695510D01*
X46505420Y-148695510D02*
X46509590Y-148795760D01*
X46509590Y-148795760D02*
X46515850Y-148873170D01*
X46515850Y-148873170D02*
X46524640Y-148931640D01*
X46524640Y-148931640D02*
X46536370Y-148975070D01*
X46536370Y-148975070D02*
X46551470Y-149007350D01*
X46551470Y-149007350D02*
X46570380Y-149032380D01*
X46570380Y-149032380D02*
X46593510Y-149054070D01*
X46593510Y-149054070D02*
X46620010Y-149075290D01*
X46620010Y-149075290D02*
X46698940Y-149112530D01*
X46698940Y-149112530D02*
X46788270Y-149116580D01*
X46788270Y-149116580D02*
X46872230Y-149087520D01*
X46872230Y-149087520D02*
X46892460Y-149073610D01*
X46892460Y-149073610D02*
X46919430Y-149051440D01*
X46919430Y-149051440D02*
X46941890Y-149028570D01*
X46941890Y-149028570D02*
X46960250Y-149001090D01*
X46960250Y-149001090D02*
X46974930Y-148965150D01*
X46974930Y-148965150D02*
X46986330Y-148916860D01*
X46986330Y-148916860D02*
X46994870Y-148852330D01*
X46994870Y-148852330D02*
X47000960Y-148767690D01*
X47000960Y-148767690D02*
X47005020Y-148659070D01*
X47005020Y-148659070D02*
X47007460Y-148522580D01*
X47007460Y-148522580D02*
X47008680Y-148354340D01*
X47008680Y-148354340D02*
X47009110Y-148150470D01*
X47009110Y-148150470D02*
X47009160Y-147977180D01*
X47009160Y-147977180D02*
X47009160Y-147066330D01*
X47009160Y-147066330D02*
X47455250Y-147066330D01*
X47455250Y-147066330D02*
X47449160Y-148055870D01*
X47449160Y-148055870D02*
X47443080Y-149045410D01*
X47443080Y-149045410D02*
X47384440Y-149164830D01*
X47384440Y-149164830D02*
X47301270Y-149292980D01*
X47301270Y-149292980D02*
X47188280Y-149408080D01*
X47188280Y-149408080D02*
X47057980Y-149497550D01*
X47057980Y-149497550D02*
X47048310Y-149502650D01*
X47048310Y-149502650D02*
X46941610Y-149539950D01*
X46941610Y-149539950D02*
X46812870Y-149558300D01*
X46812870Y-149558300D02*
X46678180Y-149557160D01*
X46678180Y-149557160D02*
X46553630Y-149536000D01*
X46553630Y-149536000D02*
X46507560Y-149520750D01*
X46507560Y-149520750D02*
X46381060Y-149451610D01*
X46381060Y-149451610D02*
X46263020Y-149352270D01*
X46263020Y-149352270D02*
X46166220Y-149234610D01*
X46166220Y-149234610D02*
X46126520Y-149166120D01*
X46126520Y-149166120D02*
X46067250Y-149045410D01*
X46067250Y-149045410D02*
X46061160Y-148055870D01*
X46061160Y-148055870D02*
X46055080Y-147066330D01*
X46055080Y-147066330D02*
X46501160Y-147066330D01*
X46501160Y-147066330D02*
X46501160Y-147988130D01*
D10*
G36*
X41067650Y-147070890D02*
G01*
X41283580Y-147076910D01*
X41283580Y-149024250D01*
X41227800Y-149143200D01*
X41135700Y-149297710D01*
X41021130Y-149416350D01*
X40884210Y-149499070D01*
X40725020Y-149545780D01*
X40619770Y-149556470D01*
X40533730Y-149557350D01*
X40458100Y-149553710D01*
X40408060Y-149546320D01*
X40405160Y-149545450D01*
X40248380Y-149473590D01*
X40114230Y-149371250D01*
X40007560Y-149244040D01*
X39933220Y-149097590D01*
X39898570Y-148958490D01*
X39895620Y-148914130D01*
X39893320Y-148832550D01*
X39891690Y-148718830D01*
X39890760Y-148578100D01*
X39890550Y-148415430D01*
X39891100Y-148235940D01*
X39892430Y-148044730D01*
X39893270Y-147958200D01*
X39902670Y-147066330D01*
X40341660Y-147066330D01*
X40341660Y-147998710D01*
X40341740Y-148233090D01*
X40342250Y-148428880D01*
X40343630Y-148589810D01*
X40346310Y-148719620D01*
X40350730Y-148822060D01*
X40357320Y-148900870D01*
X40366520Y-148959780D01*
X40378760Y-149002530D01*
X40394470Y-149032870D01*
X40414090Y-149054530D01*
X40438050Y-149071250D01*
X40466780Y-149086770D01*
X40467970Y-149087390D01*
X40565130Y-149116040D01*
X40660860Y-149105260D01*
X40746620Y-149057330D01*
X40798900Y-148998870D01*
X40808530Y-148982580D01*
X40816540Y-148962100D01*
X40823120Y-148933520D01*
X40828430Y-148892950D01*
X40832680Y-148836480D01*
X40836030Y-148760210D01*
X40838670Y-148660230D01*
X40840780Y-148532640D01*
X40842550Y-148373540D01*
X40844160Y-148179020D01*
X40845400Y-148002230D01*
X40851710Y-147064870D01*
X41067650Y-147070890D01*
G37*
D11*
X41067650Y-147070890D02*
X41283580Y-147076910D01*
X41283580Y-147076910D02*
X41283580Y-149024250D01*
X41283580Y-149024250D02*
X41227800Y-149143200D01*
X41227800Y-149143200D02*
X41135700Y-149297710D01*
X41135700Y-149297710D02*
X41021130Y-149416350D01*
X41021130Y-149416350D02*
X40884210Y-149499070D01*
X40884210Y-149499070D02*
X40725020Y-149545780D01*
X40725020Y-149545780D02*
X40619770Y-149556470D01*
X40619770Y-149556470D02*
X40533730Y-149557350D01*
X40533730Y-149557350D02*
X40458100Y-149553710D01*
X40458100Y-149553710D02*
X40408060Y-149546320D01*
X40408060Y-149546320D02*
X40405160Y-149545450D01*
X40405160Y-149545450D02*
X40248380Y-149473590D01*
X40248380Y-149473590D02*
X40114230Y-149371250D01*
X40114230Y-149371250D02*
X40007560Y-149244040D01*
X40007560Y-149244040D02*
X39933220Y-149097590D01*
X39933220Y-149097590D02*
X39898570Y-148958490D01*
X39898570Y-148958490D02*
X39895620Y-148914130D01*
X39895620Y-148914130D02*
X39893320Y-148832550D01*
X39893320Y-148832550D02*
X39891690Y-148718830D01*
X39891690Y-148718830D02*
X39890760Y-148578100D01*
X39890760Y-148578100D02*
X39890550Y-148415430D01*
X39890550Y-148415430D02*
X39891100Y-148235940D01*
X39891100Y-148235940D02*
X39892430Y-148044730D01*
X39892430Y-148044730D02*
X39893270Y-147958200D01*
X39893270Y-147958200D02*
X39902670Y-147066330D01*
X39902670Y-147066330D02*
X40341660Y-147066330D01*
X40341660Y-147066330D02*
X40341660Y-147998710D01*
X40341660Y-147998710D02*
X40341740Y-148233090D01*
X40341740Y-148233090D02*
X40342250Y-148428880D01*
X40342250Y-148428880D02*
X40343630Y-148589810D01*
X40343630Y-148589810D02*
X40346310Y-148719620D01*
X40346310Y-148719620D02*
X40350730Y-148822060D01*
X40350730Y-148822060D02*
X40357320Y-148900870D01*
X40357320Y-148900870D02*
X40366520Y-148959780D01*
X40366520Y-148959780D02*
X40378760Y-149002530D01*
X40378760Y-149002530D02*
X40394470Y-149032870D01*
X40394470Y-149032870D02*
X40414090Y-149054530D01*
X40414090Y-149054530D02*
X40438050Y-149071250D01*
X40438050Y-149071250D02*
X40466780Y-149086770D01*
X40466780Y-149086770D02*
X40467970Y-149087390D01*
X40467970Y-149087390D02*
X40565130Y-149116040D01*
X40565130Y-149116040D02*
X40660860Y-149105260D01*
X40660860Y-149105260D02*
X40746620Y-149057330D01*
X40746620Y-149057330D02*
X40798900Y-148998870D01*
X40798900Y-148998870D02*
X40808530Y-148982580D01*
X40808530Y-148982580D02*
X40816540Y-148962100D01*
X40816540Y-148962100D02*
X40823120Y-148933520D01*
X40823120Y-148933520D02*
X40828430Y-148892950D01*
X40828430Y-148892950D02*
X40832680Y-148836480D01*
X40832680Y-148836480D02*
X40836030Y-148760210D01*
X40836030Y-148760210D02*
X40838670Y-148660230D01*
X40838670Y-148660230D02*
X40840780Y-148532640D01*
X40840780Y-148532640D02*
X40842550Y-148373540D01*
X40842550Y-148373540D02*
X40844160Y-148179020D01*
X40844160Y-148179020D02*
X40845400Y-148002230D01*
X40845400Y-148002230D02*
X40851710Y-147064870D01*
X40851710Y-147064870D02*
X41067650Y-147070890D01*
D10*
G36*
X45276270Y-147036520D02*
G01*
X45346480Y-147043390D01*
X45403360Y-147058210D01*
X45461350Y-147083790D01*
X45480600Y-147093710D01*
X45614980Y-147184300D01*
X45728440Y-147300390D01*
X45805770Y-147422010D01*
X45832600Y-147503870D01*
X45853930Y-147626710D01*
X45869690Y-147789500D01*
X45879830Y-147991230D01*
X45884260Y-148230880D01*
X45882930Y-148507450D01*
X45881930Y-148569160D01*
X45878730Y-148720950D01*
X45874880Y-148837340D01*
X45869720Y-148925260D01*
X45862610Y-148991640D01*
X45852870Y-149043420D01*
X45839860Y-149087520D01*
X45830480Y-149112520D01*
X45786840Y-149221960D01*
X45866160Y-149299410D01*
X45918190Y-149355000D01*
X45960310Y-149408260D01*
X45973280Y-149428820D01*
X45984610Y-149455240D01*
X45983490Y-149479920D01*
X45965400Y-149510810D01*
X45925770Y-149555870D01*
X45865450Y-149617640D01*
X45803260Y-149678090D01*
X45750780Y-149724880D01*
X45715910Y-149751170D01*
X45707790Y-149754500D01*
X45683340Y-149740440D01*
X45638350Y-149703200D01*
X45581570Y-149650140D01*
X45568110Y-149636820D01*
X45450430Y-149519140D01*
X45350220Y-149544370D01*
X45223840Y-149560940D01*
X45085520Y-149554420D01*
X44954160Y-149526700D01*
X44880720Y-149497820D01*
X44753480Y-149413890D01*
X44639300Y-149299180D01*
X44549340Y-149165200D01*
X44539400Y-149145730D01*
X44479750Y-149024250D01*
X44473010Y-148403760D01*
X44471450Y-148172870D01*
X44471710Y-148135320D01*
X44914500Y-148135320D01*
X44916270Y-148323500D01*
X44917120Y-148390140D01*
X44919720Y-148567610D01*
X44922950Y-148707860D01*
X44927790Y-148816000D01*
X44935200Y-148897130D01*
X44946150Y-148956370D01*
X44961600Y-148998830D01*
X44982520Y-149029610D01*
X45009880Y-149053830D01*
X45044640Y-149076590D01*
X45047310Y-149078220D01*
X45142990Y-149114900D01*
X45240060Y-149109280D01*
X45295360Y-149087390D01*
X45348950Y-149045860D01*
X45393400Y-148989440D01*
X45394850Y-148986850D01*
X45405550Y-148963990D01*
X45413890Y-148935920D01*
X45420060Y-148897670D01*
X45424270Y-148844320D01*
X45426750Y-148770920D01*
X45427680Y-148672520D01*
X45427300Y-148544190D01*
X45425790Y-148380970D01*
X45424670Y-148283410D01*
X45422130Y-148091010D01*
X45419080Y-147936270D01*
X45414840Y-147814520D01*
X45408700Y-147721100D01*
X45399950Y-147651330D01*
X45387890Y-147600560D01*
X45371820Y-147564100D01*
X45351040Y-147537300D01*
X45324830Y-147515470D01*
X45307070Y-147503390D01*
X45250740Y-147480550D01*
X45179950Y-147468890D01*
X45166290Y-147468500D01*
X45100570Y-147475620D01*
X45047920Y-147503190D01*
X45008840Y-147538420D01*
X44981790Y-147568440D01*
X44960110Y-147601830D01*
X44943300Y-147643270D01*
X44930840Y-147697460D01*
X44922240Y-147769070D01*
X44916980Y-147862790D01*
X44914570Y-147983310D01*
X44914500Y-148135320D01*
X44471710Y-148135320D01*
X44472800Y-147979600D01*
X44477910Y-147819260D01*
X44487650Y-147687180D01*
X44502860Y-147578690D01*
X44524410Y-147489120D01*
X44553150Y-147413800D01*
X44589940Y-147348040D01*
X44635630Y-147287190D01*
X44688340Y-147229370D01*
X44791960Y-147137950D01*
X44899140Y-147078080D01*
X45021340Y-147045210D01*
X45169990Y-147034790D01*
X45178250Y-147034770D01*
X45276270Y-147036520D01*
G37*
D11*
X45276270Y-147036520D02*
X45346480Y-147043390D01*
X45346480Y-147043390D02*
X45403360Y-147058210D01*
X45403360Y-147058210D02*
X45461350Y-147083790D01*
X45461350Y-147083790D02*
X45480600Y-147093710D01*
X45480600Y-147093710D02*
X45614980Y-147184300D01*
X45614980Y-147184300D02*
X45728440Y-147300390D01*
X45728440Y-147300390D02*
X45805770Y-147422010D01*
X45805770Y-147422010D02*
X45832600Y-147503870D01*
X45832600Y-147503870D02*
X45853930Y-147626710D01*
X45853930Y-147626710D02*
X45869690Y-147789500D01*
X45869690Y-147789500D02*
X45879830Y-147991230D01*
X45879830Y-147991230D02*
X45884260Y-148230880D01*
X45884260Y-148230880D02*
X45882930Y-148507450D01*
X45882930Y-148507450D02*
X45881930Y-148569160D01*
X45881930Y-148569160D02*
X45878730Y-148720950D01*
X45878730Y-148720950D02*
X45874880Y-148837340D01*
X45874880Y-148837340D02*
X45869720Y-148925260D01*
X45869720Y-148925260D02*
X45862610Y-148991640D01*
X45862610Y-148991640D02*
X45852870Y-149043420D01*
X45852870Y-149043420D02*
X45839860Y-149087520D01*
X45839860Y-149087520D02*
X45830480Y-149112520D01*
X45830480Y-149112520D02*
X45786840Y-149221960D01*
X45786840Y-149221960D02*
X45866160Y-149299410D01*
X45866160Y-149299410D02*
X45918190Y-149355000D01*
X45918190Y-149355000D02*
X45960310Y-149408260D01*
X45960310Y-149408260D02*
X45973280Y-149428820D01*
X45973280Y-149428820D02*
X45984610Y-149455240D01*
X45984610Y-149455240D02*
X45983490Y-149479920D01*
X45983490Y-149479920D02*
X45965400Y-149510810D01*
X45965400Y-149510810D02*
X45925770Y-149555870D01*
X45925770Y-149555870D02*
X45865450Y-149617640D01*
X45865450Y-149617640D02*
X45803260Y-149678090D01*
X45803260Y-149678090D02*
X45750780Y-149724880D01*
X45750780Y-149724880D02*
X45715910Y-149751170D01*
X45715910Y-149751170D02*
X45707790Y-149754500D01*
X45707790Y-149754500D02*
X45683340Y-149740440D01*
X45683340Y-149740440D02*
X45638350Y-149703200D01*
X45638350Y-149703200D02*
X45581570Y-149650140D01*
X45581570Y-149650140D02*
X45568110Y-149636820D01*
X45568110Y-149636820D02*
X45450430Y-149519140D01*
X45450430Y-149519140D02*
X45350220Y-149544370D01*
X45350220Y-149544370D02*
X45223840Y-149560940D01*
X45223840Y-149560940D02*
X45085520Y-149554420D01*
X45085520Y-149554420D02*
X44954160Y-149526700D01*
X44954160Y-149526700D02*
X44880720Y-149497820D01*
X44880720Y-149497820D02*
X44753480Y-149413890D01*
X44753480Y-149413890D02*
X44639300Y-149299180D01*
X44639300Y-149299180D02*
X44549340Y-149165200D01*
X44549340Y-149165200D02*
X44539400Y-149145730D01*
X44539400Y-149145730D02*
X44479750Y-149024250D01*
X44479750Y-149024250D02*
X44473010Y-148403760D01*
X44473010Y-148403760D02*
X44471450Y-148172870D01*
X44471450Y-148172870D02*
X44471710Y-148135320D01*
X44471710Y-148135320D02*
X44914500Y-148135320D01*
X44914500Y-148135320D02*
X44916270Y-148323500D01*
X44916270Y-148323500D02*
X44917120Y-148390140D01*
X44917120Y-148390140D02*
X44919720Y-148567610D01*
X44919720Y-148567610D02*
X44922950Y-148707860D01*
X44922950Y-148707860D02*
X44927790Y-148816000D01*
X44927790Y-148816000D02*
X44935200Y-148897130D01*
X44935200Y-148897130D02*
X44946150Y-148956370D01*
X44946150Y-148956370D02*
X44961600Y-148998830D01*
X44961600Y-148998830D02*
X44982520Y-149029610D01*
X44982520Y-149029610D02*
X45009880Y-149053830D01*
X45009880Y-149053830D02*
X45044640Y-149076590D01*
X45044640Y-149076590D02*
X45047310Y-149078220D01*
X45047310Y-149078220D02*
X45142990Y-149114900D01*
X45142990Y-149114900D02*
X45240060Y-149109280D01*
X45240060Y-149109280D02*
X45295360Y-149087390D01*
X45295360Y-149087390D02*
X45348950Y-149045860D01*
X45348950Y-149045860D02*
X45393400Y-148989440D01*
X45393400Y-148989440D02*
X45394850Y-148986850D01*
X45394850Y-148986850D02*
X45405550Y-148963990D01*
X45405550Y-148963990D02*
X45413890Y-148935920D01*
X45413890Y-148935920D02*
X45420060Y-148897670D01*
X45420060Y-148897670D02*
X45424270Y-148844320D01*
X45424270Y-148844320D02*
X45426750Y-148770920D01*
X45426750Y-148770920D02*
X45427680Y-148672520D01*
X45427680Y-148672520D02*
X45427300Y-148544190D01*
X45427300Y-148544190D02*
X45425790Y-148380970D01*
X45425790Y-148380970D02*
X45424670Y-148283410D01*
X45424670Y-148283410D02*
X45422130Y-148091010D01*
X45422130Y-148091010D02*
X45419080Y-147936270D01*
X45419080Y-147936270D02*
X45414840Y-147814520D01*
X45414840Y-147814520D02*
X45408700Y-147721100D01*
X45408700Y-147721100D02*
X45399950Y-147651330D01*
X45399950Y-147651330D02*
X45387890Y-147600560D01*
X45387890Y-147600560D02*
X45371820Y-147564100D01*
X45371820Y-147564100D02*
X45351040Y-147537300D01*
X45351040Y-147537300D02*
X45324830Y-147515470D01*
X45324830Y-147515470D02*
X45307070Y-147503390D01*
X45307070Y-147503390D02*
X45250740Y-147480550D01*
X45250740Y-147480550D02*
X45179950Y-147468890D01*
X45179950Y-147468890D02*
X45166290Y-147468500D01*
X45166290Y-147468500D02*
X45100570Y-147475620D01*
X45100570Y-147475620D02*
X45047920Y-147503190D01*
X45047920Y-147503190D02*
X45008840Y-147538420D01*
X45008840Y-147538420D02*
X44981790Y-147568440D01*
X44981790Y-147568440D02*
X44960110Y-147601830D01*
X44960110Y-147601830D02*
X44943300Y-147643270D01*
X44943300Y-147643270D02*
X44930840Y-147697460D01*
X44930840Y-147697460D02*
X44922240Y-147769070D01*
X44922240Y-147769070D02*
X44916980Y-147862790D01*
X44916980Y-147862790D02*
X44914570Y-147983310D01*
X44914570Y-147983310D02*
X44914500Y-148135320D01*
X44914500Y-148135320D02*
X44471710Y-148135320D01*
X44471710Y-148135320D02*
X44472800Y-147979600D01*
X44472800Y-147979600D02*
X44477910Y-147819260D01*
X44477910Y-147819260D02*
X44487650Y-147687180D01*
X44487650Y-147687180D02*
X44502860Y-147578690D01*
X44502860Y-147578690D02*
X44524410Y-147489120D01*
X44524410Y-147489120D02*
X44553150Y-147413800D01*
X44553150Y-147413800D02*
X44589940Y-147348040D01*
X44589940Y-147348040D02*
X44635630Y-147287190D01*
X44635630Y-147287190D02*
X44688340Y-147229370D01*
X44688340Y-147229370D02*
X44791960Y-147137950D01*
X44791960Y-147137950D02*
X44899140Y-147078080D01*
X44899140Y-147078080D02*
X45021340Y-147045210D01*
X45021340Y-147045210D02*
X45169990Y-147034790D01*
X45169990Y-147034790D02*
X45178250Y-147034770D01*
X45178250Y-147034770D02*
X45276270Y-147036520D01*
M02*
